<?xml version="1.0" standalone="no"?>
<!DOCTYPE svg PUBLIC "-//W3C//DTD SVG 1.1//EN" "http://www.w3.org/Graphics/SVG/1.1/DTD/svg11.dtd" >
<svg xmlns="http://www.w3.org/2000/svg" xmlns:xlink="http://www.w3.org/1999/xlink" version="1.1">
<metadata>
Created by FontForge 20190801 at Thu Dec  8 18:30:48 2022
 By www-data
Copyright (c) 2001 by Jonas Hecksher, PlaytypeTM, e-Types. All rights reserved.
</metadata>
<defs>
<font id="IDSerif" horiz-adv-x="1167" >
  <font-face 
    font-family="IDSerif"
    font-weight="400"
    font-stretch="normal"
    units-per-em="2048"
    panose-1="2 0 0 0 0 0 0 0 0 0"
    ascent="1536"
    descent="-512"
    x-height="1032"
    cap-height="1413"
    bbox="-406 -610 2552 1956"
    underline-thickness="102"
    underline-position="-307"
    unicode-range="U+000D-FB04"
  />
<missing-glyph horiz-adv-x="430" 
 />
    <glyph glyph-name="f_f" unicode="ff" horiz-adv-x="1392" 
d="M1405 1300q-45 0 -79 27t-34 74q0 29 14 60q15 32 23 42q-11 5 -25 6q-20 2 -28 2q-38 0 -70 -16t-55 -54q-22 -37 -36 -103q-13 -62 -13 -160v-146h276v-88h-276v-774q0 -55 35 -72l135 -67v-31h-522v31l114 59q20 10 28 27q7 15 7 45v782h-436v-774q0 -55 35 -72
l135 -67v-31h-522v31l114 59q20 10 28 27q7 15 7 45v782h-209l21 88h188v129q0 114 29 195q29 80 80 130q53 51 119 73q67 22 149 22q130 0 187 -48t57 -114q0 -52 -32 -86q-31 -33 -83 -33q-44 0 -79 27q-34 27 -34 74q0 29 14 60q15 32 23 42q-11 5 -25 6q-20 2 -28 2
q-38 0 -70 -16t-55 -54q-22 -37 -36 -103q-13 -62 -13 -160v-146h436v129q0 114 29 195q29 80 80 130q53 51 119 73q67 22 149 22q130 0 187 -48t57 -114q0 -52 -32 -86q-32 -33 -83 -33z" />
    <glyph glyph-name="f_f_i" unicode="ffi" horiz-adv-x="1943" 
d="M1389 0v31l114 59q20 10 28 27q7 15 7 45v688q0 38 -11 54q-12 18 -34 22l-107 18h-284v-774q0 -55 35 -72l135 -67v-31h-522v31l114 59q20 10 28 27q7 15 7 45v782h-436v-774q0 -55 35 -72l135 -67v-31h-522v31l114 59q20 10 28 27q7 15 7 45v782h-209l21 88h188v129
q0 114 29 195q29 80 80 130q53 51 119 73q67 22 149 22q130 0 187 -48t57 -114q0 -52 -32 -86q-31 -33 -83 -33q-44 0 -79 27q-34 27 -34 74q0 29 14 60q15 32 23 42q-11 5 -25 6q-20 2 -28 2q-38 0 -70 -16t-55 -54q-22 -37 -36 -103q-13 -62 -13 -160v-146h436v129
q0 115 44 195q43 79 117 130t166 73q91 22 193 22q90 0 143 -14q55 -15 89 -39q32 -23 46 -55q13 -29 13 -62q0 -52 -32 -86q-32 -33 -83 -33q-43 0 -78 27q-34 27 -34 74q0 31 13 60q14 30 24 42q-8 4 -34 10q-24 6 -67 6q-67 0 -123 -19q-58 -20 -100 -59
q-43 -40 -69 -104q-25 -62 -25 -151v-146h284l320 37h35v-907q0 -30 7 -45q8 -17 28 -27l114 -59v-31h-501z" />
    <glyph glyph-name="f_f_l" unicode="ffl" horiz-adv-x="1929" 
d="M1389 0v31l114 59q20 10 28 27q7 15 7 45v1147q-30 -19 -65 -19q-44 0 -79 26q-34 25 -34 73q0 29 12 56q12 28 33 44q-11 7 -45 15q-32 7 -64 7q-37 0 -72 -16q-36 -17 -63 -54q-26 -36 -43 -103q-16 -63 -16 -160v-146h276v-88h-276v-774q0 -55 35 -72l135 -67v-31
h-522v31l114 59q20 10 28 27q7 15 7 45v782h-436v-774q0 -55 35 -72l135 -67v-31h-522v31l114 59q20 10 28 27q7 15 7 45v782h-209l21 88h188v129q0 114 29 195q29 80 80 130q53 51 119 73q67 22 149 22q130 0 187 -48t57 -114q0 -52 -32 -86q-31 -33 -83 -33q-44 0 -79 27
q-34 27 -34 74q0 29 14 60q15 32 23 42q-11 5 -25 6q-20 2 -28 2q-38 0 -70 -16t-55 -54q-22 -37 -36 -103q-13 -62 -13 -160v-146h436v129q0 114 32 195q32 80 86 130q55 51 127 73q70 22 154 22q89 0 139 -20q47 -19 95 -52l174 76h35v-1423q0 -30 7 -45q8 -17 28 -27
l114 -59v-31h-501z" />
    <glyph glyph-name="f_i" unicode="fi" horiz-adv-x="1304" 
d="M750 0v31l114 59q20 10 28 27q7 15 7 45v688q0 38 -11 54q-12 18 -34 22l-106 18h-285v-774q0 -55 35 -72l135 -67v-31h-522v31l114 59q20 10 28 27q7 15 7 45v782h-209l21 88h188v129q0 115 44 195q43 79 117 130t166 73q91 22 193 22q90 0 143 -14q55 -15 89 -39
q32 -23 46 -55q13 -29 13 -62q0 -52 -32 -86q-31 -33 -83 -33q-44 0 -78 27t-34 74q0 31 13 60q13 30 24 42q-8 4 -34 10q-24 6 -67 6q-67 0 -123 -19q-58 -20 -100 -59q-43 -40 -69 -104q-25 -62 -25 -151v-146h285l319 37h35v-907q0 -30 7 -45q8 -17 28 -27l114 -59v-31
h-501z" />
    <glyph glyph-name="f_l" unicode="fl" horiz-adv-x="1290" 
d="M750 0v31l114 59q20 10 28 27q7 15 7 45v1147q-30 -19 -65 -19q-44 0 -79 26q-34 25 -34 73q0 29 12 56q12 28 33 44q-10 7 -45 15q-32 7 -64 7q-37 0 -72 -16q-36 -17 -63 -54q-26 -36 -43 -103q-16 -63 -16 -160v-146h276v-88h-276v-774q0 -55 35 -72l135 -67v-31h-522
v31l114 59q20 10 28 27q7 15 7 45v782h-209l21 88h188v129q0 114 32 195q32 80 86 130q55 51 127 73q70 22 154 22q89 0 139 -20q47 -19 95 -52l174 76h35v-1423q0 -30 7 -45q8 -17 28 -27l114 -59v-31h-501z" />
    <glyph glyph-name="f_b" unicode="fb" horiz-adv-x="1968" 
d="M899 1309q-30 -19 -65 -19q-44 0 -79 26q-34 25 -34 73q0 29 12 56q12 28 33 44q-10 7 -45 15q-32 7 -64 7q-37 0 -72 -16q-36 -17 -63 -54q-26 -36 -43 -103q-16 -63 -16 -160v-146h276v-88h-276v-774q0 -55 35 -72l135 -67v-31h-522v31l114 59q20 10 28 27q7 15 7 45
v782h-209l21 88h188v129q0 114 32 195q32 80 86 130q55 51 127 73q70 22 154 22q89 0 139 -20q47 -19 95 -52l174 76h35v-696q9 11 45 44q33 30 81 60q54 33 111 54q62 22 140 22q84 0 160 -35q73 -34 130 -98q56 -63 86 -154q31 -93 31 -202q0 -143 -50 -255t-134 -190
t-196 -119t-236 -41q-28 0 -98 6q-51 4 -103 12q-60 9 -96 16q-43 9 -74 20v1280zM1102 109q29 -15 75 -31q42 -15 103 -15q80 0 151 30q70 30 122 88q51 57 82 146q30 87 30 201q0 104 -25 182q-24 75 -64 121q-42 49 -92 70q-54 23 -106 23q-39 0 -81 -11q-41 -11 -76 -26
q-36 -16 -68 -35q-30 -18 -51 -33v-710z" />
    <glyph glyph-name="f_h" unicode="fh" horiz-adv-x="1966" 
d="M1102 162q0 -30 7 -45q8 -17 28 -27l114 -59v-31h-501v31l114 59q20 10 28 27q7 15 7 45v1147q-30 -19 -65 -19q-44 0 -79 26q-34 25 -34 73q0 29 12 56q12 28 33 44q-10 7 -45 15q-32 7 -64 7q-37 0 -72 -16q-36 -17 -63 -54q-26 -36 -43 -103q-16 -63 -16 -160v-146
h276v-88h-276v-774q0 -55 35 -72l135 -67v-31h-522v31l114 59q20 10 28 27q7 15 7 45v782h-209l21 88h188v129q0 114 32 195q32 80 86 130q55 51 127 73q70 22 154 22q89 0 139 -20q47 -19 95 -52l174 76h35v-686q34 28 67 54q43 33 85 56t100 43q50 17 108 17t112 -21
q53 -20 96 -67q43 -46 68 -117t25 -170v-532q0 -30 7 -45q8 -17 28 -27l115 -59v-31h-502v31l115 59q19 10 27 27q8 18 8 45v561q0 109 -55 159t-138 50q-70 0 -140 -32q-67 -31 -126 -77v-661z" />
    <glyph glyph-name="f_j" unicode="fj" horiz-adv-x="1273" 
d="M723 -483q74 47 125 134t51 224v975q0 38 -11 54q-12 18 -34 22l-106 18h-285v-774q0 -55 35 -72l135 -67v-31h-522v31l114 59q20 10 28 27q7 15 7 45v782h-209l21 88h188v129q0 115 44 195q43 79 117 130t166 73q91 22 193 22q90 0 143 -14q55 -15 89 -39q32 -23 46 -55
q13 -29 13 -62q0 -52 -32 -86q-31 -33 -83 -33q-44 0 -78 27t-34 74q0 31 13 60q13 30 24 42q-8 4 -34 10q-24 6 -67 6q-67 0 -123 -19q-58 -20 -100 -59q-43 -40 -69 -104q-25 -62 -25 -151v-146h285l319 37h35v-1114q0 -117 -36 -200q-36 -82 -90 -139q-52 -55 -116 -91
q-60 -33 -112 -55z" />
    <glyph glyph-name="f_k" unicode="fk" horiz-adv-x="1880" 
d="M750 0v31l114 59q20 10 28 27q7 15 7 45v1147q-30 -19 -65 -19q-44 0 -79 26q-34 25 -34 73q0 29 12 56q12 28 33 44q-10 7 -45 15q-32 7 -64 7q-37 0 -72 -16q-36 -17 -63 -54q-26 -36 -43 -103q-16 -63 -16 -160v-146h276v-88h-276v-774q0 -55 35 -72l135 -67v-31h-522
v31l114 59q20 10 28 27q7 15 7 45v782h-209l21 88h188v129q0 114 32 195q32 80 86 130q55 51 127 73q70 22 154 22q89 0 139 -20q47 -19 95 -52l174 76h35v-1046l282 290q56 56 56 86q0 20 -24 35q-23 15 -56 25l-47 16v41h469v-39l-76 -30q-42 -17 -82 -51q-63 -54 -80 -70
l-205 -197l521 -612v-33h-248l-410 528l-100 -94v-272q0 -30 7 -45q8 -17 28 -27l114 -59v-31h-501z" />
    <glyph glyph-name="f_f_b" unicode="ffb" horiz-adv-x="2607" 
d="M1538 1309q-30 -19 -66 -19q-43 0 -78 26q-34 25 -34 73q0 29 12 56q12 28 33 44q-11 7 -45 15q-32 7 -64 7q-37 0 -72 -16q-36 -17 -63 -54q-26 -36 -43 -103q-16 -63 -16 -160v-146h276v-88h-276v-774q0 -55 35 -72l135 -67v-31h-522v31l114 59q20 10 28 27q7 15 7 45
v782h-436v-774q0 -55 35 -72l135 -67v-31h-522v31l114 59q20 10 28 27q7 15 7 45v782h-209l21 88h188v129q0 114 29 195q29 80 80 130q53 51 119 73q67 22 149 22q130 0 187 -48t57 -114q0 -52 -32 -86q-31 -33 -83 -33q-44 0 -79 27q-34 27 -34 74q0 29 14 60q15 32 23 42
q-11 5 -25 6q-20 2 -28 2q-38 0 -70 -16t-55 -54q-22 -37 -36 -103q-13 -62 -13 -160v-146h436v129q0 114 32 195q32 80 86 130q55 51 127 73q70 22 154 22q89 0 139 -20q47 -19 95 -52l174 76h35v-696q9 11 45 44q33 30 81 60q54 33 111 54q62 22 140 22q84 0 160 -35
q73 -34 130 -98q56 -63 86 -154q31 -93 31 -202q0 -143 -50 -255t-134 -190t-196 -119t-236 -41q-28 0 -98 6q-51 4 -103 12q-60 9 -96 16q-43 9 -74 20v1280zM1741 109q30 -15 75 -31q42 -15 103 -15q79 0 150 30t123 88q51 57 82 146q30 87 30 201q0 104 -25 182
q-24 75 -64 121q-42 49 -92 70q-54 23 -106 23q-39 0 -81 -11q-41 -11 -76 -26q-36 -16 -68 -35q-30 -18 -51 -33v-710z" />
    <glyph glyph-name="f_f_h" unicode="ffh" horiz-adv-x="2605" 
d="M1741 162q0 -30 7 -45q8 -17 28 -27l114 -59v-31h-501v31l114 59q20 10 28 27q7 15 7 45v1147q-30 -19 -66 -19q-43 0 -78 26q-34 25 -34 73q0 29 12 56q12 28 33 44q-11 7 -45 15q-32 7 -64 7q-37 0 -72 -16q-36 -17 -63 -54q-26 -36 -43 -103q-16 -63 -16 -160v-146
h276v-88h-276v-774q0 -55 35 -72l135 -67v-31h-522v31l114 59q20 10 28 27q7 15 7 45v782h-436v-774q0 -55 35 -72l135 -67v-31h-522v31l114 59q20 10 28 27q7 15 7 45v782h-209l21 88h188v129q0 114 29 195q29 80 80 130q53 51 119 73q67 22 149 22q130 0 187 -48t57 -114
q0 -52 -32 -86q-31 -33 -83 -33q-44 0 -79 27q-34 27 -34 74q0 29 14 60q15 32 23 42q-11 5 -25 6q-20 2 -28 2q-38 0 -70 -16t-55 -54q-22 -37 -36 -103q-13 -62 -13 -160v-146h436v129q0 114 32 195q32 80 86 130q55 51 127 73q70 22 154 22q89 0 139 -20q47 -19 95 -52
l174 76h35v-686q34 28 67 54q43 33 85 56t100 43q50 17 108 17t112 -21q53 -20 96 -67q43 -46 68 -117t25 -170v-532q0 -30 7 -45q8 -17 28 -27l115 -59v-31h-502v31l115 59q19 10 27 27q8 18 8 45v561q0 109 -55 159t-138 50q-70 0 -140 -32q-67 -31 -126 -77v-661z" />
    <glyph glyph-name="f_f_j" unicode="ffj" horiz-adv-x="1912" 
d="M766 1300q-44 0 -79 27q-34 27 -34 74q0 29 14 60q15 32 23 42q-11 5 -25 6q-20 2 -28 2q-38 0 -70 -16t-55 -54q-22 -37 -36 -103q-13 -62 -13 -160v-146h276v-88h-276v-774q0 -55 35 -72l135 -67v-31h-522v31l114 59q20 10 28 27q7 15 7 45v782h-209l21 88h188v129
q0 114 29 195q29 80 80 130q53 51 119 73q67 22 149 22q130 0 187 -48t57 -114q0 -52 -32 -86q-31 -33 -83 -33zM1362 -483q74 47 125 134t51 224v975q0 38 -11 54q-12 18 -34 22l-107 18h-284v-774q0 -55 35 -72l135 -67v-31h-522v31l114 59q20 10 28 27q7 15 7 45v782
h-209l21 88h188v129q0 115 44 195q43 79 117 130t166 73q91 22 193 22q90 0 143 -14q55 -15 89 -39q32 -23 46 -55q13 -29 13 -62q0 -52 -32 -86q-32 -33 -83 -33q-43 0 -78 27q-34 27 -34 74q0 31 13 60q14 30 24 42q-8 4 -34 10q-24 6 -67 6q-67 0 -123 -19
q-58 -20 -100 -59q-43 -40 -69 -104q-25 -62 -25 -151v-146h284l320 37h35v-1114q0 -117 -36 -200q-36 -82 -90 -139q-52 -55 -116 -91q-57 -32 -113 -55z" />
    <glyph glyph-name="f_f_k" unicode="ffk" horiz-adv-x="2519" 
d="M1389 0v31l114 59q20 10 28 27q7 15 7 45v1147q-30 -19 -65 -19q-44 0 -79 26q-34 25 -34 73q0 29 12 56q12 28 33 44q-11 7 -45 15q-32 7 -64 7q-37 0 -72 -16q-36 -17 -63 -54q-26 -36 -43 -103q-16 -63 -16 -160v-146h276v-88h-276v-774q0 -55 35 -72l135 -67v-31
h-522v31l114 59q20 10 28 27q7 15 7 45v782h-436v-774q0 -55 35 -72l135 -67v-31h-522v31l114 59q20 10 28 27q7 15 7 45v782h-209l21 88h188v129q0 114 29 195q29 80 80 130q53 51 119 73q67 22 149 22q130 0 187 -48t57 -114q0 -52 -32 -86q-31 -33 -83 -33q-44 0 -79 27
q-34 27 -34 74q0 29 14 60q15 32 23 42q-11 5 -25 6q-20 2 -28 2q-38 0 -70 -16t-55 -54q-22 -37 -36 -103q-13 -62 -13 -160v-146h436v129q0 114 32 195q32 80 86 130q55 51 127 73q70 22 154 22q89 0 139 -20q47 -19 95 -52l174 76h35v-1046l282 290q56 56 56 86
q0 20 -24 35q-23 15 -56 25l-47 16v41h469v-39l-76 -30q-42 -17 -82 -51q-63 -54 -80 -70l-205 -197l521 -612v-33h-248l-410 528l-100 -94v-272q0 -30 7 -45q8 -17 28 -27l114 -59v-31h-501z" />
    <glyph glyph-name="f_f_f" unicode="fff" horiz-adv-x="2203" 
d="M766 1300q-44 0 -79 27q-34 27 -34 74q0 30 14 61q15 34 23 43q-11 5 -25 6q-20 2 -28 2q-38 0 -69 -16q-33 -17 -53 -55q-22 -42 -34 -104q-12 -64 -12 -160v-146h270v-88h-270v-774q0 -55 35 -72l135 -67v-31h-528v31l114 59q20 10 28 27q7 15 7 45v782h-209l21 88h188
v129q0 114 29 195q29 80 80 130q53 51 119 73q67 22 149 22q130 0 187 -48t57 -114q0 -52 -32 -86q-31 -33 -83 -33zM1491 1300q-45 0 -79 27t-34 74q0 30 14 61q15 34 23 43q-11 5 -25 6q-20 2 -28 2q-38 0 -69 -16q-33 -17 -53 -55q-22 -42 -34 -104q-12 -64 -12 -160
v-146h270v-88h-270v-774q0 -55 35 -72l135 -67v-31h-528v31l114 59q20 10 28 27q7 15 7 45v782h-209l21 88h188v129q0 114 29 195q29 80 80 130q53 51 119 73q67 22 149 22q130 0 187 -48t57 -114q0 -52 -32 -86q-32 -33 -83 -33zM2216 1300q-44 0 -79 27q-34 27 -34 74
q0 30 14 61q15 34 23 43q-11 5 -25 6q-20 2 -28 2q-38 0 -69 -16q-33 -17 -53 -55q-22 -42 -34 -104q-12 -64 -12 -160v-146h270v-88h-270v-774q0 -55 35 -72l135 -67v-31h-528v31l114 59q20 10 28 27q7 15 7 45v782h-209l21 88h188v129q0 114 29 195q29 80 80 130
q53 51 119 73q67 22 149 22q130 0 187 -48t57 -114q0 -52 -32 -86q-31 -33 -83 -33z" />
    <glyph glyph-name=".notdef" horiz-adv-x="430" 
 />
    <glyph glyph-name=".null" horiz-adv-x="0" 
 />
    <glyph glyph-name=".null" horiz-adv-x="0" 
 />
    <glyph glyph-name="nonmarkingreturn" unicode="&#xd;" horiz-adv-x="430" 
 />
    <glyph glyph-name="space" unicode=" " horiz-adv-x="430" 
 />
    <glyph glyph-name="exclam" unicode="!" horiz-adv-x="520" 
d="M383 98q0 -51 -36 -87t-87 -36t-87 36t-36 87t36 87t87 36t87 -36t36 -87zM231 373q-12 148 -26 256q-22 170 -32 256q-16 142 -26 260q-10 124 -10 268h244q0 -144 -10 -268q-10 -118 -26 -260q-10 -86 -32 -256q-14 -108 -26 -256h-56z" />
    <glyph glyph-name="quotedbl" unicode="&#x22;" horiz-adv-x="804" 
d="M260 969h-61l-82 444h225zM606 969h-61l-82 444h225z" />
    <glyph glyph-name="numbersign" unicode="#" 
d="M131 938h270l101 475h119l-101 -475h228l100 475h119l-101 -475h269l-25 -119h-268l-49 -227h268l-25 -119h-268l-100 -473h-119l100 473h-227l-100 -473h-119l100 473h-270l24 119h271l49 227h-271zM446 592h228l49 227h-227z" />
    <glyph glyph-name="dollar" unicode="$" 
d="M532 -174v143q-68 1 -136 23q-70 22 -117 54q-53 36 -83 79q-32 46 -32 96q0 59 40 95t93 36q54 0 89 -34q36 -34 36 -85q0 -37 -18 -75q-19 -40 -33 -54q20 -13 64 -29q47 -17 97 -18v559q-113 73 -133 86q-57 38 -117 94q-51 48 -85 110q-33 60 -33 138q0 75 31 140
q30 63 83 110q58 51 117 78q71 32 137 39v133h91v-131q73 -5 131 -25q53 -18 101 -53q41 -30 66 -68q23 -36 23 -77q0 -48 -36 -86q-36 -37 -91 -37q-45 0 -81 31q-34 30 -34 78q0 36 17 67q19 35 31 49q-18 11 -51 20t-76 13v-516q96 -60 169 -114q69 -51 116 -103t68 -107
t21 -120q0 -85 -29 -150q-31 -69 -81 -118q-53 -51 -120 -82q-72 -33 -144 -40v-149h-91zM811 297q0 83 -48 140q-47 56 -140 120v-494q88 18 138 83t50 151zM350 1112q0 -72 46 -128q46 -57 136 -118v455q-79 -15 -130 -71q-52 -56 -52 -138z" />
    <glyph glyph-name="percent" unicode="%" horiz-adv-x="1871" 
d="M379 -96l876 1411l-6 4q-22 -12 -59.5 -33.5t-53.5 -30.5q-54 -30 -128 -30q-78 0 -152 32q9 -26 13 -54q5 -38 5 -70q0 -73 -24 -159q-23 -83 -73 -159q-48 -73 -118 -122q-69 -48 -161 -48q-61 0 -119 25q-56 24 -96 67q-42 45 -65 103t-23 129q0 80 30 164
q29 81 86 152q56 70 132 113q77 44 167 44q67 0 110 -23q44 -24 80 -48q38 -25 84 -48q48 -23 120 -23q116 0 213 59q96 58 167 140h82l-989 -1595h-98zM516 721q68 0 120 46q51 45 88 113q34 63 53 141q18 75 18 132q0 30 -9 75q-7 37 -26 68q-19 32 -48 51t-71 19
q-66 0 -118 -52q-51 -51 -88 -125q-34 -68 -55 -150q-20 -78 -20 -128q0 -30 10 -68q9 -35 27 -62q19 -28 48 -44t71 -16zM1296 -25q-68 0 -125 24q-58 24 -98 66q-41 42 -63 100q-23 60 -23 128q0 80 32 167q30 83 87 153q56 70 132 113q77 44 167 44q66 0 114 -22
q49 -22 84 -63q33 -38 51 -95q17 -52 17 -119q0 -80 -23 -163q-24 -88 -72 -161q-46 -70 -118 -122q-70 -50 -162 -50zM1309 51q68 0 121 47q52 46 89 114q36 66 54 140t18 129q0 41 -10 77q-11 40 -30 69q-20 31 -50 49t-74 18q-64 0 -113 -52q-50 -53 -86 -125t-54 -149
q-19 -81 -19 -128q0 -34 9 -69q8 -30 28 -60q17 -26 47 -43q29 -17 70 -17z" />
    <glyph glyph-name="ampersand" unicode="&#x26;" horiz-adv-x="1376" 
d="M596 858q33 20 76 53q36 28 64 66q29 40 44 83q17 48 17 105q0 87 -37 139t-113 52q-43 0 -72 -17q-28 -16 -46 -43q-16 -24 -24 -58q-7 -29 -7 -64q0 -81 32 -162q35 -90 66 -154zM831 150q-63 66 -103 120q-55 73 -97 137q-52 78 -89 141q-44 73 -75 136
q-31 -22 -66 -56q-32 -30 -58 -72q-25 -40 -42 -87q-16 -45 -16 -104q0 -67 22 -120q23 -54 63 -93q42 -40 97 -62q56 -22 125 -22q68 0 125 21q54 20 114 61zM1325 31q-38 -29 -95 -42q-61 -14 -102 -14q-63 0 -117 30t-116 83q-86 -53 -175 -83q-88 -30 -196 -30
q-86 0 -172 22q-80 20 -143 65q-59 42 -97 111q-36 66 -36 155q0 75 25 135q25 61 72 114q44 50 111 98q63 45 142 91q-53 109 -84 191q-33 87 -33 178q0 142 88 224q89 83 248 83q65 0 127 -17q60 -16 102 -50q44 -35 68 -84q25 -52 25 -117q0 -75 -30 -132t-77 -104
q-50 -50 -106 -85q-69 -43 -121 -71q69 -141 156 -270q80 -119 180 -227q43 58 68 127q24 68 24 133q0 106 -62 186v31q22 10 46 13q21 3 40 3q57 0 97 -33q41 -33 45 -110q2 -48 -12 -105q-14 -60 -37 -114q-22 -53 -60 -112q-34 -54 -74 -95q70 -66 142 -108
q68 -40 135 -40z" />
    <glyph glyph-name="quotesingle" unicode="'" horiz-adv-x="458" 
d="M260 969h-61l-82 444h225z" />
    <glyph glyph-name="parenleft" unicode="(" horiz-adv-x="710" 
d="M698 1548q-62 -91 -118 -188q-59 -103 -101 -211q-40 -104 -69 -240q-27 -127 -27 -272t27 -273q29 -138 69 -241q42 -108 101 -214q58 -104 118 -196h-94q-45 45 -117 129q-68 79 -140 200q-70 117 -119 261q-50 147 -50 313q0 163 47 313q45 144 115 270
q67 121 140 212q71 88 124 137h94z" />
    <glyph glyph-name="parenright" unicode=")" horiz-adv-x="712" 
d="M12 -287q63 90 119 188q54 94 100 211q42 108 70 239q27 127 27 274q0 145 -27 273q-28 133 -70 241q-44 114 -100 214q-48 86 -119 195h95q38 -38 116 -129q73 -85 141 -199q67 -112 118 -262q50 -147 50 -313q0 -162 -47 -312q-47 -151 -114 -271q-65 -117 -141 -212
q-71 -88 -124 -137h-94z" />
    <glyph glyph-name="asterisk" unicode="*" horiz-adv-x="796" 
d="M532 762l-133 252l-135 -252l-125 88l207 207l-291 51l51 143l263 -129l-41 291h151l-43 -291l258 129l47 -143l-286 -51l202 -207z" />
    <glyph glyph-name="plus" unicode="+" 
d="M657 651h353v-147h-353v-352h-147v352h-352v147h352v353h147v-353z" />
    <glyph glyph-name="comma" unicode="," horiz-adv-x="456" 
d="M80 -252q50 63 71 118q21 54 21 89q0 28 -10 45q-14 24 -22 36q-6 8 -21 37q-10 19 -10 50q0 54 34 85q35 32 82 32q53 0 86 -39t33 -95q0 -48 -21 -100q-20 -51 -56 -105q-43 -65 -72 -100q-41 -49 -72 -77z" />
    <glyph glyph-name="hyphen" unicode="-" horiz-adv-x="595" 
d="M55 506v149h486v-149h-486z" />
    <glyph glyph-name="period" unicode="." horiz-adv-x="456" 
d="M229 -25q-55 0 -94 39t-39 95q0 53 39 92t94 39q54 0 93 -39q38 -38 38 -92q0 -57 -38 -95q-39 -39 -93 -39z" />
    <glyph glyph-name="slash" unicode="/" horiz-adv-x="831" 
d="M14 -31l693 1473h110l-692 -1473h-111z" />
    <glyph glyph-name="zero" unicode="0" 
d="M584 -31q-131 0 -224 70q-91 68 -150 175q-58 104 -85 232t-27 242q0 118 29 254q29 134 88 244q60 112 151 183q93 73 218 73q124 0 217 -73q91 -71 151 -183q59 -110 88 -244q29 -136 29 -254q0 -114 -27 -242t-85 -232q-59 -107 -150 -175q-93 -70 -223 -70zM584 55
q61 0 105 35q46 36 73 91q30 60 47 127q20 80 27 141q8 77 11 131q3 62 3 102q0 49 -3 118q-3 72 -13 144q-10 73 -29 149q-18 72 -48 132q-29 58 -72 95q-42 36 -101 36q-60 0 -102 -36q-41 -35 -71 -95t-48 -132q-19 -76 -29 -149q-10 -72 -13 -144q-4 -92 -4 -118
q0 -20 4 -102q3 -54 11 -131q7 -68 26 -141q16 -63 48 -127q28 -56 72 -91t106 -35z" />
    <glyph glyph-name="one" unicode="1" 
d="M305 0v37l197 67q21 7 28 18q7 10 7 38v1048l-265 -131l-41 58l383 278h125v-1239q0 -28 6 -45q6 -16 29 -27l156 -65v-37h-625z" />
    <glyph glyph-name="two" unicode="2" 
d="M592 1442q96 0 175 -28q75 -26 129 -76q52 -47 79 -111q26 -61 26 -135q0 -64 -20 -121q-22 -62 -61 -123q-38 -60 -102 -136q-116 -139 -138 -165l-324 -379h645v-168h-860v53l447 549q100 123 147 228q47 106 47 206q0 127 -70 209t-200 82q-74 0 -129 -24
q-54 -23 -86 -54q44 -16 85 -54q40 -37 40 -97q0 -58 -39 -98q-38 -39 -98 -39t-103 43t-43 108q0 50 30 108q29 57 87 107q56 49 141 82q84 33 195 33z" />
    <glyph glyph-name="three" unicode="3" 
d="M113 205q0 67 43 106q44 39 102 39q60 0 98 -37q39 -37 39 -96q0 -58 -31 -93q-27 -31 -63 -56q32 -6 47 -7q30 -2 45 -2q83 0 160 25q73 24 129 71t87 110q32 66 32 143q0 81 -35 143q-34 60 -90 101q-55 40 -125 60q-67 19 -139 19q-17 0 -26 -1t-19 -1l-17 51l365 447
h-572v186h785v-82l-348 -428q86 -11 165 -45q82 -35 143 -91q63 -57 100 -132q38 -78 38 -166q0 -105 -49 -196t-131 -158q-84 -68 -186 -107q-104 -39 -211 -39q-74 0 -139 20q-62 19 -106 51t-68 75q-23 42 -23 90z" />
    <glyph glyph-name="four" unicode="4" 
d="M557 0v31l127 61q35 17 35 72v246h-637v114l655 889h176v-889h160v-114h-160v-246q0 -27 8 -45q8 -17 27 -27l127 -61v-31h-518zM719 1212l-500 -688h500v688z" />
    <glyph glyph-name="five" unicode="5" 
d="M1026 477q0 -125 -55 -219t-141 -159q-85 -64 -187 -97t-197 -33q-70 0 -130 18t-105 48q-44 29 -71 72q-25 40 -25 90q0 65 43 105t102 40q58 0 96 -37q39 -37 39 -96q0 -58 -31 -93q-29 -33 -63 -57q29 -4 55 -6q32 -2 43 -2q85 0 163 31q72 29 129 84q55 53 85 126
q31 74 31 157q0 79 -27 138q-27 58 -68 98q-40 39 -95 59q-54 20 -105 20q-38 0 -79 -9q-39 -9 -76 -24q-41 -17 -66 -32q-48 -29 -51 -31l-56 14l101 731h665v-186h-583l-60 -434q38 27 119 61q78 33 180 33q86 0 164 -29q75 -28 133 -83q57 -54 90 -130q33 -77 33 -168z
" />
    <glyph glyph-name="six" unicode="6" 
d="M901 1348q-101 -10 -194 -55q-92 -44 -161 -115q-73 -74 -121 -165q-52 -97 -75 -202q51 34 123 57q71 23 156 23q91 0 172 -29q78 -28 139 -83q58 -52 93 -133q34 -78 34 -177q0 -97 -35 -188q-35 -92 -96 -160q-63 -71 -148 -111q-87 -41 -190 -41q-110 0 -201 47
q-90 46 -153 129q-66 86 -99 193q-34 109 -34 237q0 155 53 305q53 149 154 267q103 120 248 198q146 79 335 97v-94zM557 784q-63 0 -118 -17q-60 -19 -105 -46q-3 -19 -5 -57q-1 -19 -1 -66q0 -120 16 -217q16 -101 51 -174q35 -75 91 -116q57 -42 135 -42q69 0 116 33
t77 83q30 49 42 114q12 63 12 124q0 88 -20 154q-22 72 -61 121q-42 53 -98 79q-59 27 -132 27z" />
    <glyph glyph-name="seven" unicode="7" 
d="M285 0q41 134 105 285q63 149 147 310q84 162 178 319q107 178 200 313h-809v186h951v-80q-92 -153 -180 -333q-87 -179 -155 -345q-70 -173 -126 -339q-52 -156 -92 -316h-219z" />
    <glyph glyph-name="eight" unicode="8" 
d="M737 782q67 -32 124 -69q65 -42 108 -88q48 -51 77 -112t29 -142q0 -94 -42 -169t-111 -126q-71 -52 -161 -79q-95 -28 -188 -28q-82 0 -170 22q-82 20 -151 65q-69 44 -109 110q-41 67 -41 153q0 78 32 140q30 59 80 109q51 51 103 86q66 44 105 67q-61 30 -112 67
t-91 81q-37 41 -61 99q-23 55 -23 117q0 76 33 142t92 112q64 50 143 75q87 28 187 28q103 0 187 -28q79 -26 136 -74q56 -47 84 -103q29 -58 29 -115q0 -61 -31 -117t-74 -99q-44 -44 -95 -75q-55 -33 -89 -49zM500 680q-38 -23 -73 -52q-37 -31 -63 -70q-30 -45 -46 -88
q-17 -45 -17 -105q0 -59 18 -115q17 -53 56 -98q38 -44 91 -69q55 -26 126 -26q63 0 120 22q56 22 92 58q38 38 59 84q22 49 22 101q0 67 -33 118q-34 53 -87 94q-50 39 -124 76q-117 59 -141 70zM662 819q49 31 83 69q35 38 51 69q17 32 23 67q6 33 6 64q0 126 -73 195
q-74 69 -187 69q-117 0 -181 -66q-65 -67 -65 -160q0 -51 21 -90t63 -74t108 -70q52 -28 151 -73z" />
    <glyph glyph-name="nine" unicode="9" 
d="M256 63q110 10 207 58q95 47 167 122q74 78 121 175q48 101 66 217q-56 -37 -126 -60q-72 -24 -165 -24q-88 0 -170 28q-80 27 -139 79q-58 50 -93 129q-34 75 -34 176q0 97 35 185q34 85 96 152t147 104q87 38 183 38q113 0 205 -50q90 -49 156 -136q67 -89 100 -198
q35 -116 35 -243q0 -157 -55 -305q-54 -146 -156 -260q-104 -117 -249 -189q-148 -74 -331 -92v94zM602 653q60 0 121 18q63 18 102 46q2 17 3 34q1 13 1 54q0 106 -15 208q-15 100 -50 178q-35 77 -92 124q-58 47 -142 47q-64 0 -111 -30q-46 -30 -75 -77q-28 -46 -42 -107
q-13 -58 -13 -124q0 -85 20 -151q21 -68 61 -117t98 -76t134 -27z" />
    <glyph glyph-name="colon" unicode=":" horiz-adv-x="456" 
d="M229 -25q-55 0 -94 39t-39 95q0 53 39 92t94 39q54 0 93 -39q38 -38 38 -92q0 -57 -38 -95q-39 -39 -93 -39zM229 805q-55 0 -94 39t-39 94q0 53 39 92t94 39q54 0 93 -39q38 -38 38 -92q0 -56 -38 -94q-39 -39 -93 -39z" />
    <glyph glyph-name="semicolon" unicode=";" horiz-adv-x="456" 
d="M92 -236q49 63 64 106q16 45 16 79q0 31 -10 50q-11 21 -22 37l-21 36q-10 17 -10 49q0 56 34 87q35 32 82 32q53 0 86 -39t33 -97q0 -47 -20 -96q-18 -44 -52 -100q-31 -51 -67 -93q-45 -53 -70 -75zM229 805q-55 0 -94 39t-39 94q0 53 39 92t94 39q54 0 93 -39
q38 -38 38 -92q0 -56 -38 -94q-39 -39 -93 -39z" />
    <glyph glyph-name="less" unicode="&#x3c;" horiz-adv-x="1257" 
d="M158 504v147l850 338v-160l-674 -251l674 -252v-160z" />
    <glyph glyph-name="equal" unicode="=" 
d="M158 356v148h852v-148h-852zM158 651v148h852v-148h-852z" />
    <glyph glyph-name="greater" unicode="&#x3e;" horiz-adv-x="1257" 
d="M158 166v160l673 252l-673 251v160l850 -338v-147z" />
    <glyph glyph-name="question" unicode="?" horiz-adv-x="964" 
d="M569 109q0 -56 -39 -95t-94 -39q-53 0 -92 39t-39 95q0 53 39 92t92 39q55 0 94 -39t39 -92zM893 1092q0 -86 -30 -151q-31 -67 -75 -118q-45 -53 -98 -98t-98 -92q-44 -46 -75 -104q-30 -57 -30 -128h-96q0 78 21 141q20 61 52 114q37 61 68 100q36 44 69 95
q29 45 52 98q21 49 21 112q0 50 -17 99q-17 48 -49 85q-33 38 -82 60q-48 22 -112 22q-77 0 -134 -27q-55 -26 -83 -51q44 -16 85 -54q40 -37 40 -97q0 -58 -39 -98q-38 -39 -99 -39q-59 0 -102 43t-43 108q0 50 30 108q29 57 87 107q56 49 141 82q84 33 195 33
q178 0 290 -92q111 -92 111 -258z" />
    <glyph glyph-name="at" unicode="@" horiz-adv-x="1611" 
d="M1180 152q52 0 90 38t64 99q26 60 39 133q13 71 13 141q0 129 -43 234q-45 109 -117 183q-75 77 -178 120q-102 43 -227 43q-135 0 -243 -53q-106 -52 -181 -144q-73 -89 -112 -208q-39 -118 -39 -249q0 -139 42 -256q42 -116 116 -201t180 -133q107 -49 229 -49
q32 0 79 5q42 5 84 12q45 8 82 19q41 12 70 28l37 -53q-78 -49 -176 -70q-91 -20 -186 -20q-151 0 -283 50q-130 49 -228 143q-98 93 -153 225q-55 131 -55 296q0 158 52 293q52 136 148 238q94 100 230 159q134 58 299 58q150 0 282 -50q130 -49 225 -137t149 -207
q55 -122 55 -259q0 -122 -41 -222q-39 -96 -104 -167q-62 -68 -137 -104t-144 -36q-56 0 -97 24t-47 77q-10 -7 -38 -28q-22 -16 -56 -35q-31 -17 -73 -31q-39 -13 -87 -13q-94 0 -158 53q-63 53 -63 138q0 39 7 80q7 43 53 87q44 42 139 80q94 37 270 60v108q0 99 -39 154
t-137 55q-37 0 -67 -8q-22 -6 -60 -21q10 -10 25 -34q14 -22 14 -54q0 -39 -27 -61q-28 -23 -61 -23q-42 0 -67 27q-25 26 -25 59q0 41 39 78q40 38 97 66q56 27 126 46q64 17 127 17q104 0 161 -58q56 -57 56 -177v-352q0 -127 11 -168q12 -45 59 -45zM948 477
q-47 -6 -110 -17q-51 -9 -96 -28q-42 -18 -66 -51q-25 -34 -25 -84q0 -66 41 -104q40 -37 109 -37q41 0 81 12q35 10 66 31v278z" />
    <glyph glyph-name="A" unicode="A" horiz-adv-x="1413" 
d="M907 479h-489l-68 -211q-28 -91 -22 -133q6 -41 57 -63l92 -39v-33h-446v31q46 22 71 38q31 20 52 42q23 25 41 62q20 42 41 103l382 1137h199l383 -1163q18 -53 28 -76q14 -31 32 -55q17 -22 46 -45q25 -20 72 -43v-31h-524v33l98 39q43 16 50 53q8 38 -19 119zM444 567
h435l-217 680z" />
    <glyph glyph-name="B" unicode="B" horiz-adv-x="1290" 
d="M659 88q71 0 131 15q59 15 105 50q47 36 71 86q25 51 25 128q0 83 -32 144t-82 98q-52 38 -117 56q-62 17 -131 17h-166v-594h196zM88 0v31l127 63q35 17 35 72v1081q0 55 -35 72l-127 63v31h553q112 0 196 -17q89 -18 152 -57q64 -39 98 -102q35 -64 35 -156
q0 -79 -24 -135q-23 -54 -64 -93q-40 -38 -90 -62q-54 -26 -102 -41v-9q74 -6 136 -29q67 -24 119 -66q53 -43 83 -105q30 -63 30 -150q0 -104 -44 -178q-45 -76 -118 -121q-74 -46 -175 -69t-207 -23h-578zM608 770q156 0 231 79q74 78 74 208q0 268 -317 268h-133v-555
h145z" />
    <glyph glyph-name="C" unicode="C" horiz-adv-x="1380" 
d="M883 -31q-160 0 -304 55q-139 53 -244 149q-103 94 -162 226q-58 129 -58 283q0 167 67 305q67 139 177 241q106 98 249 157q140 57 281 57q56 0 112 -7q53 -7 115 -20q68 -15 103 -26q47 -15 75 -27v-236h-45q-86 132 -175 180t-193 48q-114 0 -210 -46
q-99 -47 -168 -131q-71 -86 -111 -203t-40 -261q0 -150 44 -273q43 -120 120 -206q76 -85 177 -131t216 -46q118 0 216 56q97 55 175 190h39l-24 -248q-27 -15 -79 -31q-56 -18 -107 -28q-65 -13 -121 -20q-59 -7 -125 -7z" />
    <glyph glyph-name="D" unicode="D" horiz-adv-x="1581" 
d="M88 0v31l127 63q35 17 35 72v1081q0 55 -35 72l-127 63v31h641q159 0 299 -42q139 -42 243 -128q103 -85 163 -216q59 -128 59 -306q0 -172 -56 -303q-58 -135 -160 -227t-248 -142q-143 -49 -320 -49h-621zM715 88q129 0 234 47q101 45 175 130q71 81 109 197
q37 112 37 249q0 143 -41 258q-39 110 -114 193q-71 78 -169 121q-96 42 -207 42h-276v-1237h252z" />
    <glyph glyph-name="E" unicode="E" horiz-adv-x="1198" 
d="M88 0v31l139 63q35 17 35 72v1081q0 55 -35 72l-139 63v31h942v-248h-31l-122 125q-17 20 -40 28q-20 7 -53 7h-309v-555h246q29 0 60 12q29 11 53 23l77 45h27v-246h-27l-77 45q-15 8 -53 22q-29 11 -60 11h-246v-594h367q28 0 52 9q22 8 40 26l166 158h30l-40 -281
h-1002z" />
    <glyph glyph-name="F" unicode="F" horiz-adv-x="1150" 
d="M88 0v31l127 63q35 17 35 72v1081q0 55 -35 72l-127 63v31h950v-248h-28l-125 125q-18 18 -37 26q-21 9 -55 9h-330v-571h287q28 0 60 12q34 13 52 22l78 46h27v-246h-27l-78 45q-10 5 -52 21q-32 12 -60 12h-287v-496q0 -57 35 -72l168 -67v-31h-578z" />
    <glyph glyph-name="G" unicode="G" horiz-adv-x="1574" 
d="M1378 -2l-110 53q-9 -4 -61 -22q-38 -13 -101 -28q-61 -14 -124 -23q-66 -9 -128 -9q-134 0 -271 54q-135 53 -240 149t-170 230q-64 132 -64 298q0 178 73 314q74 138 192 232q124 99 263 146q147 50 289 50q58 0 117 -7q60 -7 122 -18q73 -13 111 -24q55 -16 82 -27
v-236h-39q-53 59 -104 105q-47 42 -96 70q-42 24 -97 37q-50 12 -105 12q-119 0 -224 -47q-101 -45 -181 -133q-78 -86 -122 -205q-44 -120 -44 -262q0 -139 42 -255q42 -114 115 -200q72 -84 172 -131t216 -47q45 0 93 6q47 6 91 15q20 4 77 19q33 9 46 15v412q0 54 -35 71
l-127 64v31h484v-31l-86 -49q-35 -21 -35 -72v-557h-21z" />
    <glyph glyph-name="H" unicode="H" horiz-adv-x="1667" 
d="M250 1247q0 30 -7 45q-8 17 -28 27l-127 63v31h537v-31l-127 -63q-20 -10 -28 -27q-7 -15 -7 -45v-477h741v477q0 30 -7 45q-8 17 -28 27l-127 63v31h537v-31l-127 -63q-20 -10 -28 -27q-7 -15 -7 -45v-1081q0 -55 35 -72l127 -63v-31h-537v31l127 63q35 17 35 72v516
h-741v-516q0 -55 35 -72l127 -63v-31h-537v31l127 63q35 17 35 72v1081z" />
    <glyph glyph-name="I" unicode="I" horiz-adv-x="739" 
d="M475 162q0 -55 35 -72l139 -59v-31h-561v31l139 59q35 17 35 72v1089q0 55 -35 72l-139 59v31h561v-31l-139 -59q-35 -17 -35 -72v-1089z" />
    <glyph glyph-name="J" unicode="J" horiz-adv-x="684" 
d="M463 57q0 -115 -38 -196q-37 -79 -95 -135t-125 -92q-58 -31 -127 -62l-25 47q43 29 81 65q40 38 62 76q24 41 40 97q14 49 14 120v1270q0 55 -35 72l-127 63v31h537v-31l-127 -63q-35 -17 -35 -72v-1190z" />
    <glyph glyph-name="K" unicode="K" horiz-adv-x="1474" 
d="M803 885l463 -699q36 -53 70 -80q36 -28 69 -45l63 -30v-31h-548v31q53 19 72 30q28 16 35 35q8 22 -4 51q-13 31 -42 80l-322 504l-196 -211v-354q0 -30 7 -45q8 -17 28 -27l127 -65v-29h-537v31l127 63q35 17 35 72v1081q0 55 -35 72l-127 63v31h537v-31l-127 -63
q-35 -17 -35 -72v-602l502 553q50 55 58 88t-44 62l-61 34v31h481v-31q-62 -22 -90 -35q-50 -22 -77 -38q-40 -23 -69 -47q-33 -27 -67 -64z" />
    <glyph glyph-name="L" unicode="L" horiz-adv-x="1150" 
d="M88 0v31l127 63q35 17 35 72v1081q0 55 -35 72l-127 63v31h537v-31l-127 -63q-35 -17 -35 -72v-1159h346q28 0 52 9q22 8 40 26l166 158h31l-41 -281h-969z" />
    <glyph glyph-name="M" unicode="M" horiz-adv-x="1978" 
d="M1763 254q1 -43 6 -73q4 -29 12 -49q9 -23 18 -32q12 -12 32 -22l94 -49v-29h-524v31l90 47q25 13 37 23q14 11 20 28q5 15 7 39q1 13 -1 57l-65 1010l-512 -1235h-98l-484 1237h-8l-65 -989q-2 -48 -1 -66q2 -31 11 -51q10 -21 32 -40q20 -17 58 -34l61 -26v-31h-440v31
l53 22q39 17 57 31q20 16 33 38q14 24 18 52q4 29 9 74l70 946q4 56 -7 85q-11 28 -57 56l-78 47v31h406l442 -1126l467 1126h387v-31l-92 -47q-39 -21 -48 -52q-9 -33 -5 -103z" />
    <glyph glyph-name="N" unicode="N" horiz-adv-x="1652" 
d="M1298 1192q0 34 -5 62q-5 26 -16 42q-14 19 -29 29q-22 14 -40 23l-71 34v31h428v-31l-74 -34q-24 -11 -39 -22q-16 -12 -28 -28q-11 -16 -16 -42q-5 -28 -5 -64v-1192h-107l-942 1182v-961q0 -34 5 -62q4 -25 17 -42q15 -20 28 -29q17 -11 40 -22l72 -35v-31h-428v31
l74 35q28 13 39 21q14 10 27 28q13 17 17 41q5 27 5 65v1006q0 48 -14 66q-16 20 -35 30l-113 59v31h352l858 -1067v846z" />
    <glyph glyph-name="O" unicode="O" horiz-adv-x="1658" 
d="M829 -31q-135 0 -272 54q-133 52 -238 150q-103 96 -167 231q-64 136 -64 294q0 162 67 301q66 136 172 236q105 99 237 153t265 54q131 0 265 -54q133 -54 238 -153q106 -100 172 -236q67 -139 67 -301q0 -158 -64 -294q-63 -134 -168 -231q-106 -99 -237 -150
q-137 -54 -273 -54zM829 57q110 0 204 53t159 140q64 86 102 206q37 117 37 251q0 131 -37 248q-39 122 -102 207q-68 91 -159 141q-93 51 -204 51q-110 0 -203 -51q-91 -50 -159 -141q-63 -85 -102 -207q-37 -117 -37 -248q0 -134 37 -251q38 -120 102 -206
q65 -87 159 -140t203 -53z" />
    <glyph glyph-name="P" unicode="P" horiz-adv-x="1243" 
d="M651 729q75 0 134 28q55 26 94 71q34 40 54 102q17 54 17 117q0 53 -15 103q-15 51 -49 89q-34 39 -87 63q-50 23 -131 23h-205v-596h188zM88 0v31l127 63q35 17 35 72v1081q0 55 -35 72l-127 63v31h617q217 0 335 -87q119 -87 119 -277q0 -108 -38 -186
q-37 -77 -102 -126q-61 -47 -151 -72q-86 -24 -182 -24h-223v-469q0 -57 35 -72l168 -69v-31h-578z" />
    <glyph glyph-name="Q" unicode="Q" horiz-adv-x="1658" 
d="M825 -31q-133 0 -269 54q-132 53 -237 150q-103 96 -167 231q-64 136 -64 294q0 162 67 301q66 136 172 236q105 99 237 153t265 54t266 -56q134 -56 238 -153q106 -99 172 -235q66 -137 66 -298q0 -122 -39 -232t-107 -199q-67 -88 -157 -154q-89 -65 -195 -103
q113 -68 224 -130q91 -51 177 -84q79 -31 157 -46q71 -14 167 -14l-4 -27q-8 -7 -36 -28q-27 -21 -57 -36q-32 -17 -78 -31q-42 -13 -95 -13q-37 0 -74 10q-39 10 -95 40q-50 26 -135 84q-83 56 -194 144l-121 94q-41 -6 -84 -6zM829 57q110 0 204 53t159 140q64 86 102 206
q37 117 37 251q0 131 -37 248q-39 122 -102 207q-68 91 -159 141q-93 51 -204 51q-110 0 -203 -51q-91 -50 -159 -141q-63 -85 -102 -207q-37 -117 -37 -248q0 -134 37 -251q38 -120 102 -206q65 -87 159 -140t203 -53z" />
    <glyph glyph-name="R" unicode="R" horiz-adv-x="1333" 
d="M639 729q60 0 114 17q56 18 100 54q44 37 71 93q26 55 26 137q0 70 -21 125t-59 93q-39 39 -88 58q-50 19 -108 19h-211v-596h176zM975 0l-383 641h-129v-475q0 -30 7 -45q8 -17 28 -27l127 -67v-27h-537v31l127 63q35 17 35 72v1081q0 55 -35 72l-127 63v31h617
q217 0 341 -87q123 -86 123 -261q0 -90 -31 -153q-31 -64 -84 -109q-54 -46 -117 -74q-67 -30 -128 -47l301 -475q29 -46 58 -75t60 -49q30 -19 59 -31q11 -5 32 -12l27 -9v-31h-371z" />
    <glyph glyph-name="S" unicode="S" horiz-adv-x="1052" 
d="M104 354h35q43 -83 82 -140q37 -55 80 -91q41 -35 85 -50q46 -16 97 -16q59 0 111 19q47 17 83 50q33 30 52 74t19 91q0 80 -49 144t-119 118q-65 50 -156 107q-86 54 -156 112q-72 60 -120 132t-48 169q0 83 36 150q35 66 96 116q58 48 141 76q80 27 166 27
q87 0 174 -25q79 -22 166 -59v-240h-43q-76 123 -152 179q-76 57 -160 57q-42 0 -88 -16q-41 -14 -76 -43q-31 -26 -53 -66q-20 -37 -20 -86q0 -75 48 -134q49 -60 120 -113q73 -55 155 -106q86 -54 156 -115q73 -64 120 -139q48 -77 48 -178q0 -76 -32 -148
q-33 -73 -91 -124q-62 -55 -145 -85q-87 -32 -195 -32q-54 0 -102 7q-59 9 -99 19q-46 12 -90 27q-42 15 -76 33v299z" />
    <glyph glyph-name="T" unicode="T" horiz-adv-x="1347" 
d="M780 162q0 -55 35 -72l139 -59v-31h-561v31l139 59q35 17 35 72v1163h-200q-29 0 -53 -9q-22 -8 -40 -26l-157 -155h-41l41 278h1114l41 -278h-39l-158 155q-18 18 -40 26q-24 9 -52 9h-203v-1163z" />
    <glyph glyph-name="U" unicode="U" horiz-adv-x="1591" 
d="M250 1247q0 55 -35 72l-127 63v31h537v-31l-127 -63q-35 -17 -35 -72v-895q0 -62 30 -111q30 -50 79 -87t117 -57q64 -19 142 -19q70 0 142 18q70 17 129 58q57 39 93 96t36 137v854q0 30 -7 45q-8 17 -28 27l-127 69v31h434v-31l-127 -69q-19 -10 -27 -27q-8 -18 -8 -45
v-860q0 -94 -43 -170q-44 -77 -117 -130q-76 -55 -175 -83q-102 -29 -215 -29q-108 0 -211 28q-95 26 -172 81q-74 53 -116 129t-42 174v866z" />
    <glyph glyph-name="V" unicode="V" horiz-adv-x="1396" 
d="M748 166l311 979q28 91 22 133q-6 40 -57 63l-92 39v33h446v-31q-34 -18 -71 -39q-32 -18 -52 -40q-22 -24 -41 -63q-17 -35 -40 -103l-383 -1137h-199l-383 1163q-18 53 -28 76q-15 34 -31 55q-15 20 -47 45q-25 20 -72 43v31h524v-33l-98 -39q-43 -16 -50 -53
q-8 -38 19 -119z" />
    <glyph glyph-name="W" unicode="W" horiz-adv-x="2103" 
d="M1509 -20h-139l-326 1034l-342 -1034h-139l-352 1183q-12 45 -26 76q-15 34 -31 55q-16 22 -48 45q-27 20 -73 43v31h524v-33l-98 -39q-44 -17 -48 -52q-5 -39 17 -120l250 -921l360 1114h109l338 -1114l270 897q27 91 22 133q-4 40 -57 63l-92 39v33h447v-31
q-29 -15 -73 -37q-27 -14 -52 -40q-23 -24 -41 -64q-19 -41 -39 -104z" />
    <glyph glyph-name="X" unicode="X" horiz-adv-x="1409" 
d="M612 690l-333 473q-32 43 -53 70q-29 36 -50 56q-30 28 -59 48q-33 23 -78 45v31h555v-33l-98 -39q-89 -35 10 -172l242 -340l217 316q59 84 67 130q8 44 -41 66l-84 39v33h451v-31q-39 -20 -76 -42q-35 -20 -63 -46q-38 -34 -63 -64q-35 -41 -71 -93l-280 -389l354 -498
q28 -39 53 -71q19 -24 52 -55q29 -27 58 -48q30 -22 77 -45v-31h-555v33l98 39q89 35 -10 172l-260 364l-244 -340q-32 -46 -41 -62q-19 -32 -26 -56q-8 -27 0 -47q7 -19 36 -31l92 -39v-33h-458v31q44 21 75 41q36 23 64 48q34 30 62 64q45 53 73 92z" />
    <glyph glyph-name="Y" unicode="Y" horiz-adv-x="1304" 
d="M772 162q0 -55 35 -72l139 -59v-31h-561v31l139 59q35 17 35 72v456l-354 615q-35 58 -74 88q-43 33 -106 61v31h524v-31l-49 -18q-62 -23 -77 -55q-16 -35 21 -103l269 -497l252 495q14 26 23 54q8 24 3 42q-5 19 -24 33q-18 13 -60 29l-53 20v31h438v-31
q-34 -12 -63 -24q-25 -11 -54 -31q-25 -18 -50 -49q-20 -25 -50 -80l-303 -575v-461z" />
    <glyph glyph-name="Z" unicode="Z" horiz-adv-x="1159" 
d="M51 0v72l803 1253h-479q-30 0 -53 -10q-27 -12 -43 -25l-164 -125h-35l41 248h966v-90l-792 -1235h524q28 0 52 9q22 8 40 26l162 158h33l-39 -281h-1016z" />
    <glyph glyph-name="bracketleft" unicode="[" horiz-adv-x="776" 
d="M170 -287v1835h436v-67h-254v-1700h254v-68h-436z" />
    <glyph glyph-name="backslash" unicode="\" horiz-adv-x="831" 
d="M707 -31l-693 1473h111l692 -1473h-110z" />
    <glyph glyph-name="bracketright" unicode="]" horiz-adv-x="776" 
d="M170 -287v68h254v1700h-254v67h436v-1835h-436z" />
    <glyph glyph-name="asciicircum" unicode="^" horiz-adv-x="874" 
d="M643 928l-207 372l-205 -372h-81l206 485h158l211 -485h-82z" />
    <glyph glyph-name="underscore" unicode="_" horiz-adv-x="942" 
d="M76 -315v147h790v-147h-790z" />
    <glyph glyph-name="grave" unicode="`" horiz-adv-x="489" 
d="M55 1413h234l145 -250h-102z" />
    <glyph glyph-name="a" unicode="a" horiz-adv-x="1042" 
d="M438 958q-55 0 -94 -10q-50 -13 -59 -16q11 -12 32 -47q19 -32 19 -68q0 -47 -33 -74q-32 -26 -74 -26q-45 0 -78 31q-32 30 -32 71q0 49 45 94q47 47 112 80q68 35 148 56q76 20 147 20q120 0 199 -71q78 -70 78 -214v-524q0 -62 15 -100q15 -36 43 -57q25 -18 64 -26
q27 -6 79 -11v-29l-34 -11q-34 -11 -66 -19q-28 -7 -78 -16q-38 -7 -66 -7q-53 0 -96 31q-42 31 -47 98q-29 -23 -55 -43q-31 -24 -69 -45q-33 -19 -84 -35q-47 -15 -98 -15q-52 0 -104 19q-48 17 -86 51q-35 31 -57 79q-21 46 -21 101q0 59 27 116t92 103q69 48 174 82
q106 34 272 49v132q0 117 -48 184t-167 67zM653 483q-49 11 -92 11q-49 0 -99 -14q-46 -13 -85 -41q-38 -27 -60 -67t-22 -93q0 -79 49 -119q50 -41 135 -41q49 0 94 13q46 13 80 38v313z" />
    <glyph glyph-name="b" unicode="b" horiz-adv-x="1253" 
d="M178 1327q0 36 -11 51q-13 18 -34 25l-129 45v35l350 102h33v-696q9 11 45 44q33 30 81 60q52 33 112 54q62 22 139 22q85 0 161 -35q73 -34 130 -98q56 -63 86 -154q30 -90 30 -202q0 -143 -49 -253q-50 -113 -133 -191q-84 -80 -196 -120q-114 -41 -238 -41
q-28 0 -98 6q-55 5 -106 12q-59 8 -98 16q-44 8 -75 20v1298zM387 109q29 -15 75 -31q42 -15 103 -15q81 0 153 30q74 31 128 88q55 58 87 146t32 201q0 104 -28 183q-27 76 -71 123q-45 48 -97 68q-57 22 -105 22q-39 0 -81 -11q-44 -11 -77 -26q-36 -16 -68 -35
q-30 -18 -51 -33v-710z" />
    <glyph glyph-name="c" unicode="c" horiz-adv-x="970" 
d="M733 985q-23 5 -42 6q-26 2 -44 2q-71 0 -134 -27q-60 -26 -107 -82q-46 -55 -71 -134q-26 -81 -26 -185q0 -111 30 -193q31 -84 80 -138q47 -52 118 -80q67 -27 143 -27q77 0 148 23q72 23 98 40l26 -28q-30 -32 -55 -56q-32 -30 -85 -61q-47 -27 -113 -49
q-63 -21 -138 -21q-93 0 -177 34q-86 34 -151 100q-64 64 -105 160q-40 93 -40 216q0 126 44 235q42 105 119 185q75 78 172 121q96 43 202 43q65 0 114 -14q56 -16 94 -40q37 -23 63 -61q24 -34 24 -75q0 -55 -37 -93t-92 -38q-53 0 -88 31t-35 83q0 34 18 69q16 31 47 54z
" />
    <glyph glyph-name="d" unicode="d" horiz-adv-x="1259" 
d="M694 1069q41 0 89 -5q34 -3 85 -13v276q0 40 -11 54q-13 16 -34 22l-149 45v35l373 102h30v-1319q0 -60 14 -96t35 -53q25 -20 53 -27q27 -7 64 -18v-35l-7 -1q-6 -2 -16 -4.5t-21 -5.5q-55 -13 -87 -19q-33 -6 -97 -16q-45 -7 -71 -7q-8 0 -21 3q-15 3 -26 17
q-13 16 -20 44q-9 36 -9 83v16q-22 -28 -58 -57q-39 -31 -87 -56q-49 -25 -107 -42q-59 -17 -114 -17q-78 0 -152 33q-75 34 -132 95q-57 62 -94 155q-36 92 -36 211q0 142 51 253q51 112 135 188q86 78 194 118q111 41 226 41zM868 932q-29 17 -82 32t-116 15
q-80 0 -150 -32t-122 -90t-82 -141q-29 -80 -29 -186q0 -103 28 -177q28 -73 76 -126q46 -51 110 -75q66 -25 128 -25q61 0 124 19q61 18 115 55v731z" />
    <glyph glyph-name="e" unicode="e" horiz-adv-x="1056" 
d="M307 557q0 -111 29 -193q28 -81 80 -134q50 -51 121 -76q72 -25 149 -25q48 0 89 7q45 8 80 18q49 14 64 21q29 13 42 22l28 -33q-31 -29 -71 -62q-38 -31 -93 -60t-113 -47q-65 -20 -137 -20q-94 0 -184 35q-86 34 -155 101t-108 162q-40 96 -40 221q0 122 41 228
q40 104 112 182q71 77 166 121q96 44 205 44q67 0 131 -19q65 -19 118 -69q53 -49 84 -135q32 -87 32 -217v-35q0 -13 -2 -37h-668zM580 981q-115 0 -184 -88q-68 -88 -85 -250h469q0 186 -52 262t-148 76z" />
    <glyph glyph-name="f" unicode="f" horiz-adv-x="753" 
d="M766 1300q-44 0 -79 27q-34 27 -34 74q0 30 14 61q15 34 23 43q-11 5 -25 6q-20 2 -28 2q-38 0 -69 -16q-33 -17 -53 -55q-22 -42 -34 -104q-12 -64 -12 -160v-146h270v-88h-270v-774q0 -55 35 -72l135 -67v-31h-528v31l114 59q20 10 28 27q7 15 7 45v782h-209l21 88h188
v129q0 114 29 195q29 80 80 130q53 51 119 73q67 22 149 22q130 0 187 -48t57 -114q0 -52 -32 -86q-31 -33 -83 -33z" />
    <glyph glyph-name="g" unicode="g" horiz-adv-x="1054" 
d="M526 338q-40 0 -81 6q-38 6 -78 21q-33 -33 -48 -67q-14 -32 -14 -62q0 -67 70 -72l403 -21q128 -6 200 -66q73 -61 73 -175q0 -102 -58 -184q-56 -80 -144 -136q-87 -55 -194 -84q-105 -28 -204 -28q-81 0 -157 18q-78 18 -138 52q-65 36 -100 83q-38 50 -38 111
q0 45 21 84q21 40 54 71q36 34 76 60q37 24 85 47q-43 22 -64 59q-22 38 -22 84q0 53 34 112q36 62 117 136q-86 44 -142 122t-56 196q0 84 32 153q32 68 86 115q55 47 126 71q75 25 151 25q67 0 122 -16q59 -17 114 -49l315 55h25l-21 -141h-217q34 -44 57 -96
q23 -54 23 -120q0 -79 -32 -146t-87 -116q-53 -47 -129 -75q-74 -27 -160 -27zM381 -31q-10 0 -20 1q-20 2 -44 7q-41 -29 -78 -79q-38 -52 -38 -117q0 -53 27 -93q26 -39 73 -69q44 -28 103 -43q55 -14 122 -14q80 0 141 20q64 21 110 55t72 82q25 46 25 103q0 60 -33 93
t-120 38zM526 420q59 0 96 25t59 67q23 43 31 90q9 50 9 98q0 60 -11 107q-12 52 -34 90q-22 37 -61 61q-38 23 -89 23q-52 0 -90 -23q-36 -21 -60 -61q-23 -38 -34 -90q-10 -49 -10 -107q0 -44 8 -97q7 -48 31 -91t59 -67q37 -25 96 -25z" />
    <glyph glyph-name="h" unicode="h" horiz-adv-x="1294" 
d="M739 0v31l115 59q20 10 28 27q7 15 7 45v561q0 109 -54 159q-55 50 -139 50q-70 0 -140 -32q-67 -31 -126 -77v-661q0 -30 7 -45q8 -17 28 -27l115 -59v-31h-508v31l114 59q20 10 28 27q7 15 7 45v1159q0 59 -45 76l-129 47v39l352 102h31v-686q23 20 68 54q43 33 85 56
q44 24 99 43q50 17 109 17q57 0 111 -21q53 -20 96 -67q43 -46 68 -117q26 -73 26 -170v-532q0 -30 7 -45q8 -17 27 -27l115 -59v-31h-502z" />
    <glyph glyph-name="i" unicode="i" horiz-adv-x="632" 
d="M449 1335q0 -51 -36 -87t-87 -36t-87 36t-36 87t36 87t87 36t87 -36t36 -87zM78 0v31l115 59q19 10 27 27q7 15 7 45v649q0 38 -11 52q-14 17 -34 24l-129 45v35l342 102h35v-907q0 -30 7 -45q8 -17 28 -27l115 -59v-31h-502z" />
    <glyph glyph-name="j" unicode="j" horiz-adv-x="604" 
d="M451 1335q0 -51 -36 -87t-87 -36t-87 36t-36 87t36 87t87 36t87 -36t36 -87zM53 -483q74 47 125 134t51 224v934q0 30 -11 49q-12 22 -34 29l-129 45v35l342 102h35v-1114q0 -117 -36 -200q-36 -82 -90 -139q-52 -55 -116 -91q-60 -33 -112 -55z" />
    <glyph glyph-name="k" unicode="k" horiz-adv-x="1210" 
d="M74 0v31l114 59q20 10 28 27q7 15 7 45v1165q0 36 -7 50q-8 15 -38 26l-129 45v35l348 102h35v-1046l283 290q55 55 55 86q0 20 -24 35q-23 15 -56 25l-47 16v41h469v-39l-76 -30q-42 -17 -82 -51q-63 -54 -80 -70l-204 -197l520 -612v-33h-248l-410 528l-100 -94v-272
q0 -30 7 -45q8 -17 28 -27l115 -59v-31h-508z" />
    <glyph glyph-name="l" unicode="l" horiz-adv-x="618" 
d="M72 0v31l114 59q20 10 28 27q7 15 7 45v1165q0 59 -45 76l-129 45v35l348 102h35v-1423q0 -30 7 -45q8 -17 28 -27l115 -59v-31h-508z" />
    <glyph glyph-name="m" unicode="m" horiz-adv-x="1914" 
d="M1360 0v31l115 59q19 10 27 27q7 15 7 45v561q0 109 -48 159t-130 50q-78 0 -146 -37q-72 -39 -124 -80q10 -54 10 -121v-532q0 -30 7 -45q8 -17 28 -27l115 -59v-31h-502v31l115 59q19 10 27 27q7 15 7 45v561q0 109 -48 159t-132 50q-70 0 -136 -32q-64 -31 -122 -77
v-661q0 -30 7 -45q8 -17 28 -27l115 -59v-31h-502v31l115 59q19 10 27 27q7 15 7 45v643q0 59 -45 76l-129 47v39l338 102h31v-178q15 15 53 48q32 27 83 58q55 32 105 51q57 21 117 21q85 0 156 -46q72 -47 106 -144q15 14 70 59q38 31 90 61q53 30 106 50q54 20 115 20
q57 0 110 -21q50 -20 92 -67q40 -44 64 -117q23 -69 23 -170v-532q0 -30 7 -45q8 -17 28 -27l115 -59v-31h-502z" />
    <glyph glyph-name="n" unicode="n" horiz-adv-x="1294" 
d="M739 0v31l115 59q20 10 28 27q7 15 7 45v561q0 109 -54 159q-55 50 -139 50q-70 0 -140 -32q-67 -31 -126 -77v-661q0 -30 7 -45q8 -17 28 -27l115 -59v-31h-502v31l115 59q19 10 27 27q7 15 7 45v643q0 59 -45 76l-129 47v39l338 102h31v-178q18 18 54 48q35 29 85 58
q56 32 108 51q59 21 122 21q57 0 111 -21q53 -20 96 -67q43 -46 68 -117q26 -73 26 -170v-532q0 -30 7 -45q8 -17 27 -27l115 -59v-31h-502z" />
    <glyph glyph-name="o" unicode="o" horiz-adv-x="1243" 
d="M621 -25q-110 0 -206 43q-99 44 -170 118q-74 77 -115 175q-42 101 -42 215q0 116 44 216q44 99 118 172q76 74 170 114q97 41 201 41q102 0 201 -41q95 -39 171 -114q74 -73 118 -172q44 -100 44 -216t-43 -215t-116 -175q-71 -74 -170 -118q-96 -43 -205 -43zM621 63
q87 0 143 40q58 41 92 106q36 68 50 147q16 88 16 168q0 92 -19 179q-19 85 -55 145q-38 62 -93 97q-57 36 -134 36q-78 0 -135 -36q-55 -35 -93 -97q-36 -60 -55 -145q-19 -87 -19 -179q0 -80 16 -168q14 -79 50 -147q34 -65 92 -106q56 -40 144 -40z" />
    <glyph glyph-name="p" unicode="p" horiz-adv-x="1267" 
d="M401 -342q0 -55 35 -72l135 -67v-31h-528v31l115 59q19 10 27 27q8 18 8 45v1161q0 59 -46 76l-129 45v35l344 102h33v-195q25 27 51 51q32 30 84 64q49 33 113 57q60 23 137 23q86 0 158 -34q74 -35 129 -97q55 -63 87 -155q32 -93 32 -203q0 -143 -49 -253
q-50 -113 -133 -191q-84 -79 -197 -120q-114 -41 -238 -41q-35 0 -79 3q-29 2 -89 10v-330zM401 109q31 -15 76 -31q43 -15 103 -15q80 0 152 30q74 31 128 88q55 58 87 145t32 200q0 104 -28 182q-27 75 -70 121q-44 47 -97 68t-104 21q-42 0 -82 -12q-51 -15 -78 -27
q-36 -16 -67 -36q-49 -32 -52 -34v-700z" />
    <glyph glyph-name="q" unicode="q" horiz-adv-x="1253" 
d="M862 147q-21 -28 -57 -56q-38 -30 -86 -55t-106 -43q-57 -18 -115 -18q-77 0 -153 32q-73 31 -133 95q-57 62 -94 155q-36 91 -36 212q0 142 49 252t133 188t193 119t229 41q75 0 137 -11q70 -12 119 -24l98 35h31v-1419q0 -30 7 -45q8 -17 28 -27l115 -59v-31h-529v31
l135 67q35 17 35 72v489zM862 930q-29 17 -82 32q-52 15 -116 15q-79 0 -151 -32q-71 -32 -122 -90q-51 -59 -81 -141q-29 -80 -29 -188q0 -105 28 -180q28 -74 76 -124q45 -46 107 -71q60 -24 120 -24q61 0 128 19t122 55v729z" />
    <glyph glyph-name="r" unicode="r" horiz-adv-x="903" 
d="M78 0v31l115 59q19 10 27 27q7 15 7 45v649q0 59 -45 76l-129 45v35l338 102h31v-229q17 30 52 72q36 42 76 75q41 34 91 58q49 24 98 24q60 0 95 -35q34 -34 34 -88q0 -56 -35 -91q-36 -36 -85 -36q-44 0 -78 29q-32 28 -43 72q-23 -6 -52 -22q-23 -13 -53 -36
q-22 -17 -50 -45q-22 -22 -42 -47v-598q0 -28 6 -45q6 -16 29 -27l164 -69v-31h-551z" />
    <glyph glyph-name="s" unicode="s" horiz-adv-x="917" 
d="M102 291h39q46 -67 89 -113q41 -44 80 -72q33 -23 75 -37q37 -12 74 -12q91 0 144 48q52 48 52 114q0 57 -40 97q-39 39 -101 74q-41 23 -131 68q-76 38 -131 77q-62 44 -101 102q-40 59 -40 143q0 68 27 121q27 52 75 91t113 58q64 19 143 19q65 0 139 -15
q72 -15 146 -44v-207h-43q-43 57 -78 93q-29 30 -66 56q-31 22 -60 29q-32 8 -61 8q-83 0 -132 -41q-48 -40 -48 -102q0 -56 41 -97q38 -38 103 -73q59 -31 134 -66q79 -36 134 -75q62 -43 102 -105q41 -62 41 -151q0 -139 -101 -221q-103 -83 -286 -83q-76 0 -163 19
q-83 18 -169 65v232z" />
    <glyph glyph-name="t" unicode="t" horiz-adv-x="753" 
d="M756 106q-16 -18 -42 -39q-29 -24 -60 -40q-40 -21 -77 -31q-43 -12 -100 -12q-120 0 -188 71q-70 73 -70 238v651h-205l21 88h184v228l178 112h29v-340h272v-88h-272v-655q0 -87 43 -137q44 -52 123 -52q35 0 81 11t60 20z" />
    <glyph glyph-name="u" unicode="u" horiz-adv-x="1251" 
d="M899 -20h-31v178q-18 -13 -75 -59q-42 -34 -85 -59q-50 -29 -101 -46q-57 -19 -120 -19q-50 0 -101 16q-47 15 -85 54q-36 37 -59 102q-23 64 -23 162v502q0 59 -45 76l-115 45v35l332 102h31v-774q0 -93 51 -130q52 -38 129 -38q80 0 147 31q66 31 111 67v586
q0 59 -45 76l-129 45v35l346 102h31v-862q0 -61 45 -76l109 -35v-35z" />
    <glyph glyph-name="v" unicode="v" horiz-adv-x="1224" 
d="M500 0l-310 856q-16 41 -36 60q-27 25 -56 45l-53 34v37h498v-41l-72 -30q-46 -21 -58 -48q-12 -26 11 -98l211 -643h8l234 633q29 74 14 106q-16 34 -64 52l-75 28v41h434v-39l-74 -41q-15 -8 -28 -19q-10 -9 -27 -31q-16 -20 -30 -49q-22 -44 -34 -73l-323 -780h-170z
" />
    <glyph glyph-name="w" unicode="w" horiz-adv-x="1785" 
d="M180 856q-16 41 -38 62t-54 43l-53 34v37h497v-41l-71 -30q-21 -10 -37 -21q-15 -10 -21 -27q-6 -16 -3 -40q3 -20 14 -58l182 -584l272 789h99l272 -795l213 580q26 71 13 105q-14 36 -62 53l-76 28v41h434v-39l-73 -41q-15 -8 -28 -19q-13 -12 -28 -31q-13 -17 -29 -49
q-22 -44 -34 -73l-320 -800h-112l-260 776l-265 -776h-123z" />
    <glyph glyph-name="x" unicode="x" horiz-adv-x="1216" 
d="M657 631l142 170q105 124 4 162l-76 28v41h444v-39l-73 -41q-31 -18 -81 -58q-51 -41 -112 -114l-188 -223l260 -328q58 -74 102 -109q47 -37 80 -57l53 -30v-33h-522v37l72 31q48 21 49 50t-51 95l-178 223l-170 -209q-48 -62 -55 -99q-7 -39 51 -62l75 -29v-37h-444v35
l74 41q31 18 81 58q48 38 111 114l219 260l-229 291q-63 77 -102 108q-52 41 -80 58l-54 30v37h521v-41l-72 -30q-47 -21 -47 -51q0 -29 51 -95z" />
    <glyph glyph-name="y" unicode="y" horiz-adv-x="1181" 
d="M596 0h-102l-287 809q-10 29 -20 52q-11 26 -20 38q-12 16 -28 31q-13 12 -41 31l-53 34v37h494v-41l-72 -30q-29 -12 -42 -27q-12 -14 -14 -36q-1 -18 7 -53q9 -38 22 -77l203 -635l234 672q27 73 13 106q-14 34 -63 52l-75 28v41h434v-39l-74 -41q-30 -17 -57 -50
q-30 -36 -62 -122l-356 -962q-72 -196 -159 -273q-85 -75 -185 -75q-47 0 -79 12q-30 11 -52 32q-21 20 -30 43q-9 24 -9 46q0 47 33 84t82 37q51 0 89 -41q37 -40 29 -109q46 15 94 81q49 67 101 216z" />
    <glyph glyph-name="z" unicode="z" horiz-adv-x="1036" 
d="M92 0v80l610 864h-321q-62 0 -92 -35l-133 -139h-35l41 262h762v-94l-600 -850h362q58 0 92 39l150 154h37l-41 -281h-832z" />
    <glyph glyph-name="braceleft" unicode="{" horiz-adv-x="649" 
d="M166 625q56 -18 108 -53q55 -37 90 -82q39 -50 59 -110q21 -63 21 -140v-160q0 -76 10 -143q9 -63 29 -99q20 -38 56 -61q35 -23 84 -33v-39q-75 7 -149 27q-67 18 -114 59q-46 40 -72 110t-26 177v178q0 64 -5 131q-4 55 -24 103q-19 45 -55 71q-38 28 -100 35v57
q62 7 100 35q36 26 55 71q20 48 24 103q5 67 5 131v178q0 107 26 177t72 110q48 42 114 60q68 19 149 26v-39q-52 -11 -84 -32q-35 -23 -56 -62q-20 -37 -29 -98q-10 -67 -10 -144v-159q0 -78 -21 -141q-20 -60 -59 -110q-35 -45 -90 -82q-50 -34 -108 -52z" />
    <glyph glyph-name="bar" unicode="|" horiz-adv-x="417" 
d="M170 -215v1759h78v-1759h-78z" />
    <glyph glyph-name="braceright" unicode="}" horiz-adv-x="649" 
d="M483 625q-58 18 -108 52q-53 36 -89 82q-41 52 -60 110q-21 63 -21 141v159q0 84 -9 144q-9 59 -30 98q-22 40 -55 62q-32 21 -84 32v39q79 -7 148 -26q66 -18 114 -60q46 -40 72 -110t26 -177v-178q0 -64 5 -131q4 -55 24 -103q19 -45 55 -71q38 -28 100 -35v-57
q-62 -7 -100 -35q-36 -26 -55 -71q-20 -48 -24 -103q-5 -67 -5 -131v-178q0 -107 -26 -177t-72 -110q-47 -41 -114 -59q-74 -20 -148 -27v39q49 10 84 33q34 22 55 61t30 99t9 143v160q0 77 21 140q19 58 60 110q36 46 89 82q52 35 108 53z" />
    <glyph glyph-name="asciitilde" unicode="~" 
d="M774 473q-52 0 -107 17q-62 19 -116 39q-99 36 -109 40q-54 19 -88 19q-46 0 -80 -32q-31 -30 -55 -79l-86 64q14 27 39 61q25 35 56 61q31 27 74 45q40 17 93 17q54 0 114 -18q46 -14 119 -40q58 -21 108 -39t81 -18q25 0 44 12q23 14 36 27q18 18 29 36q14 23 20 36
l86 -64q-16 -29 -38 -59q-25 -34 -55 -60q-33 -29 -74 -46q-44 -19 -91 -19z" />
    <glyph glyph-name="uni00A0" unicode="&#xa0;" horiz-adv-x="430" 
 />
    <glyph glyph-name="exclamdown" unicode="&#xa1;" horiz-adv-x="520" 
d="M383 946q0 51 -36 87t-87 36t-87 -36t-36 -87t36 -87t87 -36t87 36t36 87zM231 672q-12 -148 -26 -256q-22 -170 -32 -256q-16 -142 -26 -260q-10 -124 -10 -269h244q0 145 -10 269q-10 118 -26 260q-10 86 -32 256q-14 108 -26 256h-56z" />
    <glyph glyph-name="cent" unicode="&#xa2;" 
d="M616 -174v303q-102 12 -185 59q-81 46 -142 119q-59 71 -91 163q-32 93 -32 194q0 104 35 197q34 90 95 162q62 73 142 118q84 47 178 65v207h91v-196h18q62 0 116 -15q53 -15 94 -39q38 -23 62 -59q23 -35 23 -76q0 -54 -38 -94q-38 -39 -93 -39q-47 0 -86 31
q-37 30 -37 84q0 34 13 63q14 32 28 47q-7 3 -41 8q-38 6 -59 7v-906q14 -2 22 -2h27q47 0 80 6q30 6 55 17q28 13 39 20t31 21l59 -60q-42 -35 -120 -71q-73 -34 -193 -35v-299h-91zM395 694q0 -70 14 -142q13 -66 41 -127q27 -59 69 -102q45 -46 97 -69v866
q-55 -18 -96 -59q-42 -42 -68 -97q-27 -58 -42 -125q-15 -69 -15 -145z" />
    <glyph glyph-name="sterling" unicode="&#xa3;" horiz-adv-x="1110" 
d="M541 686q11 -39 15 -78q5 -43 5 -67q0 -52 -18 -100q-18 -47 -48 -94t-69 -90l-78 -87h490q58 0 98 23q39 22 55 81h45q2 -16 2 -33v-32q0 -59 -17 -97q-18 -41 -45 -65q-26 -23 -60 -36q-29 -11 -62 -11h-659v63q66 98 118 200q50 98 50 177q0 21 -7 63q-7 39 -13 69
q-8 38 -15 65q-4 16 -15 49h-204v100h174q-17 56 -27 111q-10 53 -10 113q0 97 35 176q34 78 94 133t140 85q81 30 171 30q70 0 130 -19q55 -17 94 -47t58 -66q19 -37 19 -75q0 -58 -37 -92q-38 -35 -90 -35q-46 0 -81 30q-34 30 -34 78q0 37 17 68q19 35 31 49
q-40 29 -113 29q-66 0 -113 -25q-44 -24 -72 -62q-27 -37 -39 -84t-12 -91q0 -70 23 -150l45 -156h354v-100h-325z" />
    <glyph glyph-name="currency" unicode="&#xa4;" 
d="M891 311q-60 -51 -139 -78q-77 -26 -168 -26q-87 0 -165 25q-75 24 -138 79l-113 -116l-105 104l115 117q-52 61 -77 136t-25 163q0 85 24 164q23 76 78 139l-115 110l105 107l113 -113q62 48 140 74q81 27 167 27q84 0 163 -27q76 -26 140 -74l110 113l103 -107
l-111 -110q50 -56 74 -135q25 -83 25 -166t-25 -164q-23 -75 -74 -137l111 -117l-103 -104zM586 307q83 0 155 33q73 33 124 89q52 56 82 130q30 73 30 156q0 82 -30 155q-29 72 -83 130q-52 57 -125 90q-70 32 -155 32q-84 0 -154 -32q-72 -33 -125 -89q-55 -58 -84 -129
q-31 -76 -31 -157t31 -159q29 -72 85 -130q54 -56 126 -87q73 -32 154 -32z" />
    <glyph glyph-name="yen" unicode="&#xa5;" 
d="M690 358v-196q0 -55 35 -72l139 -59v-31h-547v31l140 59q35 17 35 72v196h-283v101h283v125h-283v100h250l-260 528q-28 58 -71 89q-45 32 -110 61v31h510v-31l-49 -19q-57 -21 -73 -53q-15 -30 18 -104l199 -459l198 457q14 32 22 56q7 24 3 41t-24 32q-15 11 -58 28
l-53 21v31h438v-31q-19 -7 -65 -25q-29 -12 -55 -30q-23 -16 -49 -49q-25 -31 -48 -80l-234 -494h258v-100h-266v-125h266v-101h-266z" />
    <glyph glyph-name="brokenbar" unicode="&#xa6;" horiz-adv-x="417" 
d="M170 764v780h78v-780h-78zM170 -410v781h78v-781h-78z" />
    <glyph glyph-name="section" unicode="&#xa7;" horiz-adv-x="1052" 
d="M514 1434q72 0 130 -18q60 -18 100 -47q43 -30 66 -67q24 -38 24 -79q0 -53 -36 -88q-37 -35 -89 -35q-49 0 -83 30t-34 78q0 39 16 68q19 35 31 49q-17 14 -58 22q-38 7 -75 7q-50 0 -87 -15q-42 -17 -65 -36q-25 -21 -40 -51q-13 -26 -13 -54q0 -49 42 -94
q43 -46 114 -80l338 -168q83 -40 129 -96q47 -56 47 -135q0 -94 -62 -159t-151 -99q127 -85 127 -224q0 -75 -34 -134q-35 -61 -88 -102q-55 -43 -123 -65q-67 -22 -138 -22q-72 0 -134 22q-60 22 -111 58q-49 35 -76 80t-27 90q0 57 40 93t93 36q54 0 89 -34q36 -35 36 -85
q0 -38 -18 -76q-18 -37 -34 -53q22 -15 63 -30t93 -15q47 0 87 13q41 13 75 38q32 23 52 57t20 72q0 50 -35 88q-32 35 -101 74l-376 215q-74 41 -114 96t-40 121q0 76 53 143q52 65 148 111q-53 38 -90 87t-37 128q0 65 27 118q25 50 76 89q45 35 114 57q66 21 139 21z
M350 895q-52 -29 -87 -66q-34 -37 -34 -90q0 -45 28 -81q24 -30 75 -60l356 -190q57 21 97 58t40 101q0 44 -25 75q-27 34 -91 67z" />
    <glyph glyph-name="dieresis" unicode="&#xa8;" horiz-adv-x="684" 
d="M600 1331q0 -44 -32 -78q-31 -32 -79 -32q-45 0 -77 32q-33 33 -33 78t33 78t77 33q47 0 79 -33q32 -34 32 -78zM305 1331q0 -45 -33 -78q-32 -32 -77 -32q-48 0 -79 32q-32 34 -32 78t32 78q32 33 79 33q44 0 77 -33t33 -78z" />
    <glyph glyph-name="copyright" unicode="&#xa9;" horiz-adv-x="1630" 
d="M815 -25q-149 0 -280 58q-130 57 -224 156q-93 97 -148 232q-54 132 -54 284q0 149 54 282q55 135 148 233q94 99 224 156q131 58 280 58q147 0 280 -58q129 -56 224 -156q93 -98 148 -233q55 -136 55 -282q0 -150 -55 -284q-55 -135 -148 -232q-95 -100 -224 -156
q-133 -58 -280 -58zM815 70q127 0 235 51q106 50 186 139q78 87 124 203q45 114 45 242q0 127 -45 241q-46 116 -124 203q-80 89 -186 139q-108 51 -235 51q-126 0 -234 -51t-187 -139q-78 -87 -124 -203q-45 -114 -45 -241q0 -128 45 -242q46 -116 124 -203
q79 -88 187 -139t234 -51zM1098 319q-44 -31 -103 -60q-58 -28 -145 -28q-93 0 -169 35q-75 35 -128 98q-55 66 -82 149q-29 89 -29 192q0 110 32 200q31 88 86 149q54 60 127 92t157 32q71 0 137 -18q65 -18 102 -34v-165h-28l-64 63q-36 37 -64 56q-27 18 -75 18
q-68 0 -116 -33q-50 -34 -79 -87q-30 -55 -44 -124q-13 -66 -13 -143q0 -91 17 -159q18 -73 53 -126q36 -54 86 -84q53 -31 121 -31q74 0 119 28q47 29 61 42z" />
    <glyph glyph-name="ordfeminine" unicode="&#xaa;" horiz-adv-x="753" 
d="M297 1335q-54 0 -86 -14q8 -8 21 -34q12 -24 12 -46q0 -28 -25 -47q-24 -18 -57 -18q-42 0 -62 23t-20 50q0 33 31 64q32 32 78 52q50 22 104 35q53 13 104 13q89 0 135 -45q48 -46 48 -139v-328q0 -40 10 -61q11 -24 26 -35q19 -14 40 -18q32 -6 51 -7v-20l-8 -3
q-8 -3 -15 -5q-27 -9 -45 -14q-27 -8 -54 -12q-30 -5 -48 -5q-35 0 -65 15q-29 15 -40 48q-24 -16 -68 -40q-50 -27 -122 -27q-77 0 -130 41t-53 108q0 23 7 63q6 33 40 66q35 34 110 62q77 29 212 47v76q0 71 -30 113t-101 42zM328 805q20 0 50 5q26 4 50 17v220
q-27 -3 -88 -15q-41 -8 -67 -21q-29 -14 -43 -36q-15 -23 -15 -60q0 -49 29 -80q28 -30 84 -30zM59 602h637v-92h-637v92z" />
    <glyph glyph-name="guillemotleft" unicode="&#xab;" horiz-adv-x="960" 
d="M815 272l-321 271l319 272h68l-195 -272l195 -271h-66zM475 205l-409 338l409 340h76l-266 -340l266 -338h-76z" />
    <glyph glyph-name="logicalnot" unicode="&#xac;" 
d="M1010 651v-499h-148v352h-704v147h852z" />
    <glyph glyph-name="uni00AD" unicode="&#xad;" horiz-adv-x="1705" 
 />
    <glyph glyph-name="registered" unicode="&#xae;" horiz-adv-x="1630" 
d="M815 -25q-149 0 -280 58q-130 57 -224 156q-93 97 -148 232q-54 132 -54 284q0 149 54 282q55 135 148 233q94 99 224 156q131 58 280 58q147 0 280 -58q129 -56 224 -156q93 -98 148 -233q55 -136 55 -282q0 -150 -55 -284q-55 -135 -148 -232q-95 -100 -224 -156
q-133 -58 -280 -58zM815 70q127 0 235 51q106 50 186 139q78 87 124 203q45 114 45 242q0 127 -45 241q-46 116 -124 203q-80 89 -186 139q-108 51 -235 51q-126 0 -234 -51t-187 -139q-78 -87 -124 -203q-45 -114 -45 -241q0 -128 45 -242q46 -116 124 -203
q79 -88 187 -139t234 -51zM1018 254l-223 397h-88v-293q0 -37 22 -55l43 -33v-16h-274v20l43 29q22 15 22 55v695q0 40 -22 55l-43 31v20h348q142 0 221 -67q80 -68 80 -187q0 -107 -60 -165q-58 -57 -145 -78l174 -287q22 -36 36 -53t38 -52v-16h-172zM838 721q74 0 118 53
q43 52 43 127q0 38 -10 71q-10 34 -31 59q-22 27 -50 42q-31 17 -66 17h-135v-369h131z" />
    <glyph glyph-name="macron" unicode="&#xaf;" horiz-adv-x="581" 
d="M35 1243v109h512v-109h-512z" />
    <glyph glyph-name="degree" unicode="&#xb0;" horiz-adv-x="835" 
d="M418 776q-67 0 -128 26q-63 27 -106 70t-70 106q-26 61 -26 128t26 128t70 105q45 45 106 71t128 26t128 -26q59 -25 105 -71t71 -105q26 -61 26 -128t-26 -128t-71 -106q-44 -44 -105 -70t-128 -26zM416 897q43 0 77 17q33 17 62 47q27 29 42 66t15 79t-15 79t-42 66
q-27 28 -62 46q-36 18 -77 18t-77 -18q-37 -18 -63 -46q-24 -25 -40 -66q-15 -37 -15 -79t15 -79q16 -41 40 -66q28 -29 63 -47q34 -17 77 -17z" />
    <glyph glyph-name="plusminus" unicode="&#xb1;" 
d="M158 0v147h852v-147h-852zM657 713h353v-148h-353v-352h-147v352h-352v148h352v352h147v-352z" />
    <glyph glyph-name="twosuperior" unicode="&#xb2;" horiz-adv-x="806" 
d="M420 1425q129 0 210 -59q83 -60 83 -170q0 -48 -18 -88q-19 -42 -48 -83q-26 -36 -75 -87q-29 -30 -99 -100l-168 -172h400v-134h-586v50l246 276q82 92 122 171q39 77 39 142q0 43 -15 75q-15 31 -40 53t-57 32q-31 10 -68 10q-46 0 -78 -14q28 -16 49 -45
q21 -28 21 -63q0 -41 -33 -75t-80 -34q-49 0 -83 36q-33 34 -33 79q0 32 21 68q22 37 61 65q41 28 99 48q57 19 130 19z" />
    <glyph glyph-name="threesuperior" unicode="&#xb3;" horiz-adv-x="806" 
d="M111 670q0 49 33 78q34 30 81 30t76 -28q31 -29 31 -76q0 -34 -15 -58q-17 -27 -32 -41q10 -2 15 -2h13q42 0 85 20t74 51q30 30 52 76q21 44 21 93q0 45 -18 79q-17 33 -45 56q-27 22 -62 33q-33 10 -70 10q-18 0 -26 -1q-16 -2 -23 -3l-49 37l227 246h-358v143h547v-61
l-217 -230q55 -8 105 -30q49 -22 88 -58q38 -35 62 -83q23 -46 23 -105q0 -77 -37 -136q-39 -62 -95 -104q-56 -41 -128 -65q-71 -23 -135 -23q-98 0 -160 43q-63 43 -63 109z" />
    <glyph glyph-name="acute" unicode="&#xb4;" horiz-adv-x="489" 
d="M158 1163h-103l146 250h233z" />
    <glyph glyph-name="mu" unicode="&#xb5;" horiz-adv-x="1210" 
d="M879 -20h-31v178q-52 -39 -73 -54q-44 -31 -92 -59q-47 -27 -110 -49q-60 -21 -122 -21q-30 0 -75 9q-38 8 -67 26l2 -8q28 -114 50 -196q16 -58 32 -113q13 -43 17 -63q4 -19 4 -40q0 -52 -29 -87q-27 -33 -76 -33q-10 0 -28 3q-21 4 -37 14q-19 13 -32 34
q-13 22 -13 61v1229q0 58 -45 76l-115 45v35l332 102h30v-774q0 -92 34 -132t110 -40q83 0 160 34q84 37 135 68v586q0 59 -45 76l-129 45v35l346 102h30v-862q0 -26 13 -49q12 -21 32 -27l109 -35v-35z" />
    <glyph glyph-name="mu" unicode="&#x3bc;" horiz-adv-x="1210" 
d="M879 -20h-31v178q-52 -39 -73 -54q-44 -31 -92 -59q-47 -27 -110 -49q-60 -21 -122 -21q-30 0 -75 9q-38 8 -67 26l2 -8q28 -114 50 -196q16 -58 32 -113q13 -43 17 -63q4 -19 4 -40q0 -52 -29 -87q-27 -33 -76 -33q-10 0 -28 3q-21 4 -37 14q-19 13 -32 34
q-13 22 -13 61v1229q0 58 -45 76l-115 45v35l332 102h30v-774q0 -92 34 -132t110 -40q83 0 160 34q84 37 135 68v586q0 59 -45 76l-129 45v35l346 102h30v-862q0 -26 13 -49q12 -21 32 -27l109 -35v-35z" />
    <glyph glyph-name="paragraph" unicode="&#xb6;" horiz-adv-x="915" 
d="M694 -471v1796h-245v-1796h-89v1276q-87 0 -147 25q-59 24 -101 68q-41 43 -59 97q-18 55 -18 115q0 61 17 113q19 57 54 97q38 42 95 68q56 25 135 25h536v-33l-47 -34q-17 -14 -31 -34q-12 -18 -12 -42v-1741h-88z" />
    <glyph glyph-name="periodcentered" unicode="&#xb7;" horiz-adv-x="456" 
d="M229 598q-55 0 -94 39t-39 94q0 53 39 92t94 39q54 0 93 -39q38 -38 38 -92q0 -56 -38 -94q-39 -39 -93 -39z" />
    <glyph glyph-name="cedilla" unicode="&#xb8;" horiz-adv-x="489" 
d="M84 -332q34 -16 70 -21q38 -5 57 -5q58 0 84 23q27 24 27 54q0 27 -20 45t-49 30q-32 13 -63 17q-37 5 -59 5l123 184h78l-68 -104q28 -4 63 -15q33 -10 63 -31t49 -50q20 -31 20 -70q0 -42 -22 -73q-20 -29 -54 -49q-36 -21 -72 -28q-42 -8 -73 -8q-54 0 -102 15t-77 38
z" />
    <glyph glyph-name="onesuperior" unicode="&#xb9;" horiz-adv-x="806" 
d="M319 1253l-159 -71l-37 49l258 182h119v-727q0 -55 35 -72l104 -51v-31h-469v31l115 51q34 16 34 72v567z" />
    <glyph glyph-name="ordmasculine" unicode="&#xba;" horiz-adv-x="829" 
d="M414 717q-74 0 -140 27q-63 26 -112 75q-48 48 -75 111q-28 65 -28 137q0 75 29 139q29 63 77 110q48 46 113 72q63 25 136 25t136 -25q64 -26 114 -72q47 -44 77 -110q29 -64 29 -139q0 -72 -28 -137q-28 -66 -75 -111q-51 -49 -114 -75q-66 -27 -139 -27zM414 780
q49 0 85 25q33 23 53 64q21 43 28 92q8 54 8 104q0 59 -9 112t-30 90q-22 39 -54 60q-35 23 -81 23t-81 -23q-34 -22 -55 -60q-22 -40 -31 -90q-9 -53 -9 -112q0 -50 8 -103q8 -54 28 -92q22 -42 55 -65q36 -25 85 -25zM80 602h670v-92h-670v92z" />
    <glyph glyph-name="guillemotright" unicode="&#xbb;" horiz-adv-x="960" 
d="M485 205h-75l266 338l-266 340h75l410 -340zM145 272h-65l194 271l-194 272h67l320 -272z" />
    <glyph glyph-name="onequarter" unicode="&#xbc;" horiz-adv-x="1986" 
d="M319 1253l-159 -71l-37 49l258 182h119v-727q0 -55 35 -72l104 -51v-31h-469v31l115 51q34 16 34 72v567zM451 -96l976 1595h109l-975 -1595h-110zM1772 147q0 -30 7 -45q7 -16 27 -26l84 -45v-31h-420v31l95 51q19 11 26 27q8 18 8 45v88h-409v75l428 564h154v-555h102
v-84h-102v-95zM1599 700l-276 -374h276v374z" />
    <glyph glyph-name="onehalf" unicode="&#xbd;" horiz-adv-x="1986" 
d="M319 1253l-159 -71l-37 49l258 182h119v-727q0 -55 35 -72l104 -51v-31h-469v31l115 51q34 16 34 72v567zM451 -96l976 1595h109l-975 -1595h-110zM1554 893q129 0 210 -59q83 -60 83 -170q0 -51 -17 -89q-17 -39 -48 -82q-26 -36 -75 -87q-58 -60 -99 -101l-168 -172
h399v-133h-586v49l246 277q84 94 123 171q39 76 39 142q0 43 -15 75q-15 31 -40 53q-24 21 -58 32q-31 10 -67 10q-46 0 -78 -14q28 -16 49 -45t21 -64q0 -40 -33 -75q-32 -33 -80 -33q-49 0 -83 35t-34 79q0 31 22 69q21 36 61 64q41 29 98 48q60 20 130 20z" />
    <glyph glyph-name="threequarters" unicode="&#xbe;" horiz-adv-x="1986" 
d="M111 670q0 49 33 78q34 30 81 30t76 -28q31 -29 31 -76q0 -34 -15 -58q-17 -27 -32 -41q10 -2 15 -2h13q42 0 85 20t74 51q30 30 52 76q21 44 21 93q0 45 -18 79q-17 33 -45 56q-27 22 -62 33q-33 10 -70 10q-18 0 -26 -1q-16 -2 -23 -3l-49 37l227 246h-358v143h547v-61
l-217 -230q55 -8 105 -30q49 -22 88 -58q38 -35 62 -83q23 -46 23 -105q0 -77 -37 -136q-39 -62 -95 -104q-56 -41 -128 -65q-71 -23 -135 -23q-98 0 -160 43q-63 43 -63 109zM1772 147q0 -30 7 -45q7 -16 27 -26l84 -45v-31h-420v31l95 51q19 11 26 27q8 18 8 45v88h-409
v75l428 564h154v-555h102v-84h-102v-95zM1599 700l-276 -374h276v374zM451 -96l976 1595h109l-975 -1595h-110z" />
    <glyph glyph-name="questiondown" unicode="&#xbf;" horiz-adv-x="964" 
d="M367 936q0 55 39 94t94 39q53 0 92 -39t39 -94q0 -53 -39 -92t-92 -39q-55 0 -94 39t-39 92zM43 -47q0 85 30 150q31 67 75 118q48 57 98 99q53 45 98 92q46 47 75 103q30 57 30 128h96q0 -77 -21 -140q-21 -64 -52 -115q-32 -52 -69 -99q-30 -38 -68 -95
q-28 -43 -52 -99q-21 -49 -21 -111q0 -51 17 -100q17 -48 49 -85q32 -36 82 -59q51 -23 112 -23q77 0 134 27q55 26 83 51q-42 16 -85 55q-40 37 -40 97q0 56 39 97q39 40 99 40q59 0 102 -43t43 -109q0 -48 -30 -107t-87 -108q-54 -47 -141 -81q-84 -33 -195 -33
q-178 0 -290 92q-111 91 -111 258z" />
    <glyph glyph-name="Agrave" unicode="&#xc0;" horiz-adv-x="1413" 
d="M907 479h-489l-68 -211q-28 -91 -22 -133q6 -41 57 -63l92 -39v-33h-446v31q46 22 71 38q31 20 52 42q23 25 41 62q20 42 41 103l382 1137h199l383 -1163q18 -53 28 -76q14 -31 32 -55q17 -22 46 -45q25 -20 72 -43v-31h-524v33l98 39q43 16 50 53q8 38 -19 119zM444 567
h435l-217 680zM389 1782h234l145 -250h-102z" />
    <glyph glyph-name="Aacute" unicode="&#xc1;" horiz-adv-x="1413" 
d="M907 479h-489l-68 -211q-28 -91 -22 -133q6 -41 57 -63l92 -39v-33h-446v31q46 22 71 38q31 20 52 42q23 25 41 62q20 42 41 103l382 1137h199l383 -1163q18 -53 28 -76q14 -31 32 -55q17 -22 46 -45q25 -20 72 -43v-31h-524v33l98 39q43 16 50 53q8 38 -19 119zM444 567
h435l-217 680zM756 1532h-103l146 250h233z" />
    <glyph glyph-name="Acircumflex" unicode="&#xc2;" horiz-adv-x="1413" 
d="M907 479h-489l-68 -211q-28 -91 -22 -133q6 -41 57 -63l92 -39v-33h-446v31q46 22 71 38q31 20 52 42q23 25 41 62q20 42 41 103l382 1137h199l383 -1163q18 -53 28 -76q14 -31 32 -55q17 -22 46 -45q25 -20 72 -43v-31h-524v33l98 39q43 16 50 53q8 38 -19 119zM444 567
h435l-217 680zM887 1532l-180 121l-179 -121h-77l176 250h157l181 -250h-78z" />
    <glyph glyph-name="Atilde" unicode="&#xc3;" horiz-adv-x="1413" 
d="M907 479h-489l-68 -211q-28 -91 -22 -133q6 -41 57 -63l92 -39v-33h-446v31q46 22 71 38q31 20 52 42q23 25 41 62q20 42 41 103l382 1137h199l383 -1163q18 -53 28 -76q14 -31 32 -55q17 -22 46 -45q25 -20 72 -43v-31h-524v33l98 39q43 16 50 53q8 38 -19 119zM444 567
h435l-217 680zM862 1628q32 0 60 23q25 21 41 57l41 -25q-4 -15 -18 -42q-15 -31 -37 -55q-28 -31 -57 -49q-34 -21 -81 -21q-37 0 -75 12q-34 11 -71 27q-57 25 -65 28q-30 12 -51 12q-29 0 -55 -22q-25 -21 -41 -57l-41 24q6 20 17 42q14 28 37 54q25 28 57 46
q35 20 81 20q38 0 71 -11q39 -13 69 -26q12 -5 64 -26q28 -11 54 -11z" />
    <glyph glyph-name="Adieresis" unicode="&#xc4;" horiz-adv-x="1413" 
d="M907 479h-489l-68 -211q-28 -91 -22 -133q6 -41 57 -63l92 -39v-33h-446v31q46 22 71 38q31 20 52 42q23 25 41 62q20 42 41 103l382 1137h199l383 -1163q18 -53 28 -76q14 -31 32 -55q17 -22 46 -45q25 -20 72 -43v-31h-524v33l98 39q43 16 50 53q8 38 -19 119zM444 567
h435l-217 680zM993 1655q0 -51 -36 -87t-87 -36t-87 36q-35 35 -35 87t35 87q36 36 87 36t87 -36t36 -87zM666 1655q0 -51 -36 -87t-87 -36t-87 36t-36 87t36 87t87 36t87 -36t36 -87z" />
    <glyph glyph-name="Aring" unicode="&#xc5;" horiz-adv-x="1413" 
d="M924 1487q0 -45 -22 -89q-21 -42 -56 -71l354 -1077q18 -53 28 -76q14 -31 32 -55q17 -22 46 -45q25 -20 72 -43v-31h-524v33l98 39q43 16 50 53q8 38 -19 119l-76 235h-489l-68 -211q-28 -91 -22 -133q6 -41 57 -63l92 -39v-33h-446v31q46 22 71 38q31 20 52 42
q23 25 41 62q20 42 41 103l350 1041q-40 28 -65 73q-23 42 -23 97q0 46 17 81q18 38 46 66t68 45t82 17t82 -17q38 -16 67 -45q28 -28 46 -66t18 -81zM444 567h435l-217 680zM711 1364q50 0 84 37t34 86t-34 86t-84 37t-84 -37q-35 -38 -35 -86t35 -86q34 -37 84 -37z" />
    <glyph glyph-name="AE" unicode="&#xc6;" horiz-adv-x="1918" 
d="M809 0v31l139 63q35 17 35 72v313h-463l-117 -211q-25 -47 -45 -86q-15 -30 -20 -54q-5 -22 6 -34q10 -11 33 -22l92 -39v-33h-459v31q43 21 77 40q36 20 65 45q30 26 60 63q29 37 64 97l588 1031l-162 75v31h1049v-248h-31l-123 125q-17 20 -39 28q-20 7 -53 7h-309
v-555h246q28 0 60 12q25 10 52 23l78 45h27v-246h-27l-78 45q-18 9 -52 22q-29 11 -60 11h-246v-594h367q28 0 52 9q22 8 40 26l166 158h30l-41 -281h-1001zM983 567v740l-414 -740h414z" />
    <glyph glyph-name="Ccedilla" unicode="&#xc7;" horiz-adv-x="1380" 
d="M881 -31q-161 0 -303 55q-140 54 -243 150q-104 96 -162 226q-58 129 -58 282q0 167 67 305q67 139 177 241q106 98 249 157q140 57 281 57q56 0 112 -7q53 -7 115 -20q68 -15 103 -26q47 -15 75 -27v-236h-45q-86 132 -175 180t-193 48q-114 0 -210 -46
q-99 -47 -168 -131q-71 -86 -111 -203t-40 -261q0 -150 44 -273q43 -120 120 -206q76 -85 177 -131t216 -46q118 0 216 56q97 55 175 190h39l-24 -248q-53 -29 -149 -50q-98 -22 -203 -32l-50 -77q29 -4 63 -15q33 -10 63 -31q32 -22 50 -50q19 -29 19 -70q0 -42 -22 -73
q-20 -29 -54 -49q-36 -21 -71 -28q-42 -8 -74 -8q-54 0 -102 15q-46 14 -76 38l24 43q34 -16 70 -21q38 -5 57 -5q58 0 84 23q27 24 27 54q0 27 -20 45t-49 30q-32 13 -62 17q-37 5 -60 5l103 153h-2z" />
    <glyph glyph-name="Egrave" unicode="&#xc8;" horiz-adv-x="1198" 
d="M88 0v31l139 63q35 17 35 72v1081q0 55 -35 72l-139 63v31h942v-248h-31l-122 125q-17 20 -40 28q-20 7 -53 7h-309v-555h246q29 0 60 12q29 11 53 23l77 45h27v-246h-27l-77 45q-15 8 -53 22q-29 11 -60 11h-246v-594h367q28 0 52 9q22 8 40 26l166 158h30l-40 -281
h-1002zM332 1782h233l146 -250h-103z" />
    <glyph glyph-name="Eacute" unicode="&#xc9;" horiz-adv-x="1198" 
d="M88 0v31l139 63q35 17 35 72v1081q0 55 -35 72l-139 63v31h942v-248h-31l-122 125q-17 20 -40 28q-20 7 -53 7h-309v-555h246q29 0 60 12q29 11 53 23l77 45h27v-246h-27l-77 45q-15 8 -53 22q-29 11 -60 11h-246v-594h367q28 0 52 9q22 8 40 26l166 158h30l-40 -281
h-1002zM575 1532h-102l145 250h234z" />
    <glyph glyph-name="Ecircumflex" unicode="&#xca;" horiz-adv-x="1198" 
d="M88 0v31l139 63q35 17 35 72v1081q0 55 -35 72l-139 63v31h942v-248h-31l-122 125q-17 20 -40 28q-20 7 -53 7h-309v-555h246q29 0 60 12q29 11 53 23l77 45h27v-246h-27l-77 45q-15 8 -53 22q-29 11 -60 11h-246v-594h367q28 0 52 9q22 8 40 26l166 158h30l-40 -281
h-1002zM768 1532l-180 121l-178 -121h-78l176 250h158l180 -250h-78z" />
    <glyph glyph-name="Edieresis" unicode="&#xcb;" horiz-adv-x="1198" 
d="M88 0v31l139 63q35 17 35 72v1081q0 55 -35 72l-139 63v31h942v-248h-31l-122 125q-17 20 -40 28q-20 7 -53 7h-309v-555h246q29 0 60 12q29 11 53 23l77 45h27v-246h-27l-77 45q-15 8 -53 22q-29 11 -60 11h-246v-594h367q28 0 52 9q22 8 40 26l166 158h30l-40 -281
h-1002zM907 1655q0 -51 -36 -87t-87 -36t-87 36q-35 35 -35 87t35 87q36 36 87 36t87 -36t36 -87zM580 1655q0 -51 -36 -87t-87 -36t-87 36t-36 87t36 87t87 36t87 -36t36 -87z" />
    <glyph glyph-name="Igrave" unicode="&#xcc;" horiz-adv-x="739" 
d="M475 162q0 -55 35 -72l139 -59v-31h-561v31l139 59q35 17 35 72v1089q0 55 -35 72l-139 59v31h561v-31l-139 -59q-35 -17 -35 -72v-1089zM59 1782h234l145 -250h-102z" />
    <glyph glyph-name="Iacute" unicode="&#xcd;" horiz-adv-x="739" 
d="M475 162q0 -55 35 -72l139 -59v-31h-561v31l139 59q35 17 35 72v1089q0 55 -35 72l-139 59v31h561v-31l-139 -59q-35 -17 -35 -72v-1089zM365 1532h-103l146 250h233z" />
    <glyph glyph-name="Icircumflex" unicode="&#xce;" horiz-adv-x="739" 
d="M475 162q0 -55 35 -72l139 -59v-31h-561v31l139 59q35 17 35 72v1089q0 55 -35 72l-139 59v31h561v-31l-139 -59q-35 -17 -35 -72v-1089zM549 1532l-180 121l-179 -121h-77l176 250h157l181 -250h-78z" />
    <glyph glyph-name="Idieresis" unicode="&#xcf;" horiz-adv-x="739" 
d="M475 162q0 -55 35 -72l139 -59v-31h-561v31l139 59q35 17 35 72v1089q0 55 -35 72l-139 59v31h561v-31l-139 -59q-35 -17 -35 -72v-1089zM627 1700q0 -44 -32 -78q-31 -33 -79 -33q-45 0 -78 33q-32 32 -32 78t32 78t78 32q48 0 79 -32q32 -34 32 -78zM332 1700
q0 -45 -33 -78t-78 -33q-47 0 -79 33q-31 32 -31 78t31 78t79 32q46 0 78 -32q33 -33 33 -78z" />
    <glyph glyph-name="Eth" unicode="&#xd0;" horiz-adv-x="1581" 
d="M88 0v31l127 63q35 17 35 72v516h-144v88h144v477q0 55 -35 72l-127 63v31h641q159 0 299 -42q139 -42 243 -128q103 -85 163 -216q59 -128 59 -306q0 -172 -56 -303q-58 -135 -160 -227t-248 -142q-143 -49 -320 -49h-621zM715 88q129 0 234 47q101 45 175 130
q71 81 109 197q37 112 37 249q0 143 -41 258q-39 110 -114 193q-71 78 -169 121q-96 42 -207 42h-276v-555h272v-88h-272v-594h252z" />
    <glyph glyph-name="Ntilde" unicode="&#xd1;" horiz-adv-x="1652" 
d="M1298 1192q0 34 -5 62q-5 26 -16 42q-14 19 -29 29q-22 14 -40 23l-71 34v31h428v-31l-74 -34q-24 -11 -39 -22q-16 -12 -28 -28q-11 -16 -16 -42q-5 -28 -5 -64v-1192h-107l-942 1182v-961q0 -34 5 -62q4 -25 17 -42q15 -20 28 -29q17 -11 40 -22l72 -35v-31h-428v31
l74 35q28 13 39 21q14 10 27 28q13 17 17 41q5 27 5 65v1006q0 48 -14 66q-16 20 -35 30l-113 59v31h352l858 -1067v846zM1001 1718q32 0 60 23q25 21 41 57l41 -24q-5 -15 -18 -42q-18 -35 -36 -56q-27 -30 -58 -49q-35 -21 -81 -21q-36 0 -74 12q-29 9 -72 28
q-29 13 -65 27q-33 13 -51 13q-27 0 -55 -23q-25 -21 -41 -57l-41 24q6 20 17 42q14 28 37 54q25 29 58 47q34 19 80 19q38 0 71 -11q44 -15 70 -26q14 -6 37 -15t26 -10q30 -12 54 -12z" />
    <glyph glyph-name="Ograve" unicode="&#xd2;" horiz-adv-x="1658" 
d="M829 -31q-135 0 -272 54q-133 52 -238 150q-103 96 -167 231q-64 136 -64 294q0 162 67 301q66 136 172 236q105 99 237 153t265 54q131 0 265 -54q133 -54 238 -153q106 -100 172 -236q67 -139 67 -301q0 -158 -64 -294q-63 -134 -168 -231q-106 -99 -237 -150
q-137 -54 -273 -54zM829 57q110 0 204 53t159 140q64 86 102 206q37 117 37 251q0 131 -37 248q-39 122 -102 207q-68 91 -159 141q-93 51 -204 51q-110 0 -203 -51q-91 -50 -159 -141q-63 -85 -102 -207q-37 -117 -37 -248q0 -134 37 -251q38 -120 102 -206
q65 -87 159 -140t203 -53zM530 1782h234l145 -250h-102z" />
    <glyph glyph-name="Oacute" unicode="&#xd3;" horiz-adv-x="1658" 
d="M829 -31q-135 0 -272 54q-133 52 -238 150q-103 96 -167 231q-64 136 -64 294q0 162 67 301q66 136 172 236q105 99 237 153t265 54q131 0 265 -54q133 -54 238 -153q106 -100 172 -236q67 -139 67 -301q0 -158 -64 -294q-63 -134 -168 -231q-106 -99 -237 -150
q-137 -54 -273 -54zM829 57q110 0 204 53t159 140q64 86 102 206q37 117 37 251q0 131 -37 248q-39 122 -102 207q-68 91 -159 141q-93 51 -204 51q-110 0 -203 -51q-91 -50 -159 -141q-63 -85 -102 -207q-37 -117 -37 -248q0 -134 37 -251q38 -120 102 -206
q65 -87 159 -140t203 -53zM831 1532h-102l145 250h234z" />
    <glyph glyph-name="Ocircumflex" unicode="&#xd4;" horiz-adv-x="1658" 
d="M829 -31q-135 0 -272 54q-133 52 -238 150q-103 96 -167 231q-64 136 -64 294q0 162 67 301q66 136 172 236q105 99 237 153t265 54q131 0 265 -54q133 -54 238 -153q106 -100 172 -236q67 -139 67 -301q0 -158 -64 -294q-63 -134 -168 -231q-106 -99 -237 -150
q-137 -54 -273 -54zM829 57q110 0 204 53t159 140q64 86 102 206q37 117 37 251q0 131 -37 248q-39 122 -102 207q-68 91 -159 141q-93 51 -204 51q-110 0 -203 -51q-91 -50 -159 -141q-63 -85 -102 -207q-37 -117 -37 -248q0 -134 37 -251q38 -120 102 -206
q65 -87 159 -140t203 -53zM1010 1532l-181 121l-178 -121h-78l177 250h157l180 -250h-77z" />
    <glyph glyph-name="Otilde" unicode="&#xd5;" horiz-adv-x="1617" 
d="M809 -31q-135 0 -266 54q-128 53 -224 150t-153 231t-57 294q0 167 59 301q61 139 158 236q100 100 224 153q126 54 259 54q131 0 257 -54q124 -53 224 -153q99 -99 159 -236q60 -136 60 -301q0 -160 -57 -294q-56 -132 -154 -231q-96 -98 -223 -150q-131 -54 -266 -54z
M809 57q110 0 197 55q86 54 144 145q60 93 89 208q31 121 31 242q0 120 -31 241q-30 116 -89 207q-58 90 -144 144q-87 55 -197 55t-197 -55q-86 -54 -144 -144q-59 -91 -89 -207q-31 -121 -31 -241q0 -121 31 -242q29 -115 89 -208q58 -91 144 -145q87 -55 197 -55z
M965 1628q31 0 59 23q25 21 41 57l41 -25q-6 -20 -17 -42q-15 -31 -37 -55q-27 -30 -58 -49q-34 -21 -81 -21q-37 0 -74 12t-72 27q-57 25 -65 28q-30 12 -51 12q-29 0 -55 -22q-25 -21 -41 -57l-41 24q6 20 17 42q14 28 37 54q24 27 58 46q35 20 81 20q37 0 70 -11
q44 -15 70 -26q23 -10 63 -26q28 -11 55 -11z" />
    <glyph glyph-name="Odieresis" unicode="&#xd6;" horiz-adv-x="1658" 
d="M829 -31q-135 0 -272 54q-133 52 -238 150q-103 96 -167 231q-64 136 -64 294q0 162 67 301q66 136 172 236q105 99 237 153t265 54q131 0 265 -54q133 -54 238 -153q106 -100 172 -236q67 -139 67 -301q0 -158 -64 -294q-63 -134 -168 -231q-106 -99 -237 -150
q-137 -54 -273 -54zM829 57q110 0 204 53t159 140q64 86 102 206q37 117 37 251q0 131 -37 248q-39 122 -102 207q-68 91 -159 141q-93 51 -204 51q-110 0 -203 -51q-91 -50 -159 -141q-63 -85 -102 -207q-37 -117 -37 -248q0 -134 37 -251q38 -120 102 -206
q65 -87 159 -140t203 -53zM1116 1655q0 -51 -36 -87t-87 -36t-87 36t-36 87t36 87t87 36t87 -36t36 -87zM788 1655q0 -52 -35 -87q-36 -36 -87 -36t-87 36t-36 87t36 87t87 36t87 -36q35 -35 35 -87z" />
    <glyph glyph-name="multiply" unicode="&#xd7;" 
d="M584 682l250 250l104 -105l-250 -249l250 -250l-104 -105l-250 250l-250 -250l-105 105l250 250l-250 249l105 105z" />
    <glyph glyph-name="Oslash" unicode="&#xd8;" horiz-adv-x="1658" 
d="M827 -31q-112 0 -218 34q-109 35 -201 99l-107 -139l-70 51l107 140q-113 100 -181 238q-69 141 -69 306q0 161 67 300q65 134 172 235q102 96 237 153q133 56 263 56q106 0 207 -34q110 -37 195 -93l102 133l68 -55l-101 -131q123 -105 198 -246t75 -318
q0 -160 -64 -296q-63 -134 -168 -230q-106 -97 -238 -149q-137 -54 -274 -54zM827 57q113 0 205 53q95 55 159 140q66 88 103 206q37 117 37 251q0 125 -33 236q-34 115 -92 200l-712 -928q68 -75 149 -116q84 -42 184 -42zM328 705q0 -123 29 -226q30 -105 83 -192l709 925
q-64 67 -144 104q-82 38 -176 38q-110 0 -203 -51q-92 -51 -159 -140q-63 -85 -102 -207q-37 -117 -37 -251z" />
    <glyph glyph-name="Ugrave" unicode="&#xd9;" horiz-adv-x="1591" 
d="M250 1247q0 55 -35 72l-127 63v31h537v-31l-127 -63q-35 -17 -35 -72v-895q0 -62 30 -111q30 -50 79 -87t117 -57q64 -19 142 -19q70 0 142 18q70 17 129 58q57 39 93 96t36 137v854q0 30 -7 45q-8 17 -28 27l-127 69v31h434v-31l-127 -69q-19 -10 -27 -27q-8 -18 -8 -45
v-860q0 -94 -43 -170q-44 -77 -117 -130q-76 -55 -175 -83q-102 -29 -215 -29q-108 0 -211 28q-95 26 -172 81q-74 53 -116 129t-42 174v866zM606 1794h234l145 -250h-102z" />
    <glyph glyph-name="Uacute" unicode="&#xda;" horiz-adv-x="1591" 
d="M250 1247q0 55 -35 72l-127 63v31h537v-31l-127 -63q-35 -17 -35 -72v-895q0 -62 30 -111q30 -50 79 -87t117 -57q64 -19 142 -19q70 0 142 18q70 17 129 58q57 39 93 96t36 137v854q0 30 -7 45q-8 17 -28 27l-127 69v31h434v-31l-127 -69q-19 -10 -27 -27q-8 -18 -8 -45
v-860q0 -94 -43 -170q-44 -77 -117 -130q-76 -55 -175 -83q-102 -29 -215 -29q-108 0 -211 28q-95 26 -172 81q-74 53 -116 129t-42 174v866zM709 1544h-103l146 250h233z" />
    <glyph glyph-name="Ucircumflex" unicode="&#xdb;" horiz-adv-x="1591" 
d="M250 1247q0 55 -35 72l-127 63v31h537v-31l-127 -63q-35 -17 -35 -72v-895q0 -62 30 -111q30 -50 79 -87t117 -57q64 -19 142 -19q70 0 142 18q70 17 129 58q57 39 93 96t36 137v854q0 30 -7 45q-8 17 -28 27l-127 69v31h434v-31l-127 -69q-19 -10 -27 -27q-8 -18 -8 -45
v-860q0 -94 -43 -170q-44 -77 -117 -130q-76 -55 -175 -83q-102 -29 -215 -29q-108 0 -211 28q-95 26 -172 81q-74 53 -116 129t-42 174v866zM975 1544l-180 121l-179 -121h-77l176 250h157l181 -250h-78z" />
    <glyph glyph-name="Udieresis" unicode="&#xdc;" horiz-adv-x="1591" 
d="M250 1247q0 55 -35 72l-127 63v31h537v-31l-127 -63q-35 -17 -35 -72v-895q0 -62 30 -111q30 -50 79 -87t117 -57q64 -19 142 -19q70 0 142 18q70 17 129 58q57 39 93 96t36 137v854q0 30 -7 45q-8 17 -28 27l-127 69v31h434v-31l-127 -69q-19 -10 -27 -27q-8 -18 -8 -45
v-860q0 -94 -43 -170q-44 -77 -117 -130q-76 -55 -175 -83q-102 -29 -215 -29q-108 0 -211 28q-95 26 -172 81q-74 53 -116 129t-42 174v866zM1053 1712q0 -44 -32 -78q-31 -32 -79 -32q-46 0 -78 32q-33 33 -33 78t33 78t78 33q48 0 79 -33q32 -34 32 -78zM758 1712
q0 -45 -33 -78q-32 -32 -78 -32q-48 0 -79 32t-31 78t31 78q32 33 79 33q45 0 78 -33t33 -78z" />
    <glyph glyph-name="Yacute" unicode="&#xdd;" horiz-adv-x="1304" 
d="M772 162q0 -55 35 -72l139 -59v-31h-561v31l139 59q35 17 35 72v456l-354 615q-35 58 -74 88q-43 33 -106 61v31h524v-31l-49 -18q-62 -23 -77 -55q-16 -35 21 -103l269 -497l252 495q14 26 23 54q8 24 3 42q-5 19 -24 33q-18 13 -60 29l-53 20v31h438v-31
q-34 -12 -63 -24q-25 -11 -54 -31q-25 -18 -50 -49q-20 -25 -50 -80l-303 -575v-461zM678 1532h-103l146 250h233z" />
    <glyph glyph-name="Thorn" unicode="&#xde;" horiz-adv-x="1202" 
d="M442 1106h242q218 0 336 -87q119 -87 119 -278q0 -107 -38 -185q-37 -75 -103 -126q-63 -49 -150 -73q-82 -23 -182 -23h-224v-162q0 -57 35 -72l168 -69v-31h-577v31l127 63q34 16 34 72v1085q0 56 -34 72l-140 59v31h561v-31l-139 -59q-35 -17 -35 -72v-145zM631 422
q75 0 134 28q54 25 93 71q34 40 54 102q18 57 18 116q0 51 -16 104q-15 51 -49 89q-33 37 -87 62q-52 24 -131 24h-205v-596h189z" />
    <glyph glyph-name="germandbls" unicode="&#xdf;" horiz-adv-x="1148" 
d="M522 0v82h45q71 0 129 23q61 24 105 67q45 43 70 103q26 61 26 137q0 79 -29 135q-28 54 -75 89q-45 33 -109 49q-62 15 -127 15h-35v82h15q155 0 225 70t70 197q0 121 -63 200q-63 80 -189 80q-48 0 -86 -15q-37 -15 -62 -58q-25 -44 -38 -116t-13 -192v-1155
q0 -71 -16 -129q-15 -56 -47 -102q-31 -45 -73 -68q-43 -24 -100 -24q-53 0 -94 21t-41 60q0 27 21 48q26 -21 39 -28q16 -9 45 -9q60 0 72 47t12 141q0 163 -5 350q-2 63 -6 169.5t-5 143.5q0 5 -10 261q-5 130 -5 196q0 129 17 224q18 99 65 171q46 69 131 109
q84 39 217 39q198 0 310 -86t112 -248q0 -69 -22 -126q-21 -54 -56 -92t-81 -62q-49 -25 -95 -35v-8q59 -7 121 -35q59 -27 106 -72q48 -47 76 -108q29 -64 29 -146q0 -99 -43 -172q-44 -75 -116 -124q-73 -50 -167 -74q-98 -25 -199 -25h-51z" />
    <glyph glyph-name="agrave" unicode="&#xe0;" horiz-adv-x="1042" 
d="M438 958q-55 0 -94 -10q-50 -13 -59 -16q11 -12 32 -47q19 -32 19 -68q0 -47 -33 -74q-32 -26 -74 -26q-45 0 -78 31q-32 30 -32 71q0 49 45 94q47 47 112 80q68 35 148 56q76 20 147 20q120 0 199 -71q78 -70 78 -214v-524q0 -62 15 -100q15 -36 43 -57q25 -18 64 -26
q27 -6 79 -11v-29l-34 -11q-34 -11 -66 -19q-28 -7 -78 -16q-38 -7 -66 -7q-53 0 -96 31q-42 31 -47 98q-29 -23 -55 -43q-31 -24 -69 -45q-33 -19 -84 -35q-47 -15 -98 -15q-52 0 -104 19q-48 17 -86 51q-35 31 -57 79q-21 46 -21 101q0 59 27 116t92 103q69 48 174 82
q106 34 272 49v132q0 117 -48 184t-167 67zM653 483q-62 15 -125 9q-61 -6 -115 -32q-52 -25 -85 -72q-33 -46 -33 -109q0 -78 49 -124t129 -46q53 0 100 18q45 17 80 43v313zM352 1413h246l92 -250h-82z" />
    <glyph glyph-name="aacute" unicode="&#xe1;" horiz-adv-x="1042" 
d="M438 958q-55 0 -94 -10q-50 -13 -59 -16q11 -12 32 -47q19 -32 19 -68q0 -47 -33 -74q-32 -26 -74 -26q-45 0 -78 31q-32 30 -32 71q0 49 45 94q47 47 112 80q68 35 148 56q76 20 147 20q120 0 199 -71q78 -70 78 -214v-524q0 -62 15 -100q15 -36 43 -57q25 -18 64 -26
q27 -6 79 -11v-29l-34 -11q-34 -11 -66 -19q-28 -7 -78 -16q-38 -7 -66 -7q-53 0 -96 31q-42 31 -47 98q-29 -23 -55 -43q-31 -24 -69 -45q-33 -19 -84 -35q-47 -15 -98 -15q-52 0 -104 19q-48 17 -86 51q-35 31 -57 79q-21 46 -21 101q0 59 27 116t92 103q69 48 174 82
q106 34 272 49v132q0 117 -48 184t-167 67zM653 483q-49 11 -92 11q-49 0 -99 -14q-46 -13 -85 -41q-38 -27 -60 -67t-22 -93q0 -79 49 -119q50 -41 135 -41q49 0 94 13q46 13 80 38v313zM459 1163h-103l146 250h233z" />
    <glyph glyph-name="acircumflex" unicode="&#xe2;" horiz-adv-x="1042" 
d="M438 958q-55 0 -94 -10q-50 -13 -59 -16q11 -12 32 -47q19 -32 19 -68q0 -47 -33 -74q-32 -26 -74 -26q-45 0 -78 31q-32 30 -32 71q0 49 45 94q47 47 112 80q68 35 148 56q76 20 147 20q120 0 199 -71q78 -70 78 -214v-524q0 -62 15 -100q15 -36 43 -57q25 -18 64 -26
q27 -6 79 -11v-29l-34 -11q-34 -11 -66 -19q-28 -7 -78 -16q-38 -7 -66 -7q-53 0 -96 31q-42 31 -47 98q-29 -23 -55 -43q-31 -24 -69 -45q-33 -19 -84 -35q-47 -15 -98 -15q-52 0 -104 19q-48 17 -86 51q-35 31 -57 79q-21 46 -21 101q0 59 27 116t92 103q69 48 174 82
q106 34 272 49v132q0 117 -48 184t-167 67zM653 483q-49 11 -92 11q-49 0 -99 -14q-46 -13 -85 -41q-38 -27 -60 -67t-22 -93q0 -79 49 -119q50 -41 135 -41q49 0 94 13q46 13 80 38v313zM700 1163l-180 121l-178 -121h-78l176 250h158l180 -250h-78z" />
    <glyph glyph-name="atilde" unicode="&#xe3;" horiz-adv-x="1042" 
d="M438 958q-55 0 -94 -10q-50 -13 -59 -16q11 -12 32 -47q19 -32 19 -68q0 -47 -33 -74q-32 -26 -74 -26q-45 0 -78 31q-32 30 -32 71q0 49 45 94q47 47 112 80q68 35 148 56q76 20 147 20q120 0 199 -71q78 -70 78 -214v-524q0 -62 15 -100q15 -36 43 -57q25 -18 64 -26
q27 -6 79 -11v-29l-34 -11q-34 -11 -66 -19q-28 -7 -78 -16q-38 -7 -66 -7q-53 0 -96 31q-42 31 -47 98q-29 -23 -55 -43q-31 -24 -69 -45q-33 -19 -84 -35q-47 -15 -98 -15q-52 0 -104 19q-48 17 -86 51q-35 31 -57 79q-21 46 -21 101q0 59 27 116t92 103q69 48 174 82
q106 34 272 49v132q0 117 -48 184t-167 67zM653 483q-49 11 -92 11q-49 0 -99 -14q-46 -13 -85 -41q-38 -27 -60 -67t-22 -93q0 -79 49 -119q50 -41 135 -41q49 0 94 13q46 13 80 38v313zM676 1337q31 0 59 23q25 21 41 57l41 -24q-6 -20 -17 -42q-16 -33 -37 -56
q-28 -31 -57 -49q-34 -21 -81 -21q-37 0 -75 12q-29 9 -72 28q-40 17 -64 27q-33 13 -51 13q-28 0 -56 -23q-25 -21 -41 -57l-41 24q5 15 18 42q15 31 37 55q25 28 57 46q34 19 81 19q37 0 70 -11q44 -15 70 -26q13 -6 36 -14.5t28 -10.5q30 -12 54 -12z" />
    <glyph glyph-name="adieresis" unicode="&#xe4;" horiz-adv-x="1042" 
d="M438 958q-55 0 -94 -10q-50 -13 -59 -16q11 -12 32 -47q19 -32 19 -68q0 -47 -33 -74q-32 -26 -74 -26q-45 0 -78 31q-32 30 -32 71q0 49 45 94q47 47 112 80q68 35 148 56q76 20 147 20q120 0 199 -71q78 -70 78 -214v-524q0 -62 15 -100q15 -36 43 -57q25 -18 64 -26
q27 -6 79 -11v-29l-34 -11q-34 -11 -66 -19q-28 -7 -78 -16q-38 -7 -66 -7q-53 0 -96 31q-42 31 -47 98q-29 -23 -55 -43q-31 -24 -69 -45q-33 -19 -84 -35q-47 -15 -98 -15q-52 0 -104 19q-48 17 -86 51q-35 31 -57 79q-21 46 -21 101q0 59 27 116t92 103q69 48 174 82
q106 34 272 49v132q0 117 -48 184t-167 67zM653 483q-49 11 -92 11q-49 0 -99 -14q-46 -13 -85 -41q-38 -27 -60 -67t-22 -93q0 -79 49 -119q50 -41 135 -41q49 0 94 13q46 13 80 38v313zM778 1331q0 -44 -32 -78q-31 -32 -78 -32q-46 0 -78 32q-33 33 -33 78t33 78t78 33
q46 0 78 -33q32 -34 32 -78zM483 1331q0 -46 -32 -78t-78 -32q-48 0 -79 32q-32 34 -32 78t32 78q32 33 79 33q45 0 78 -33q32 -32 32 -78z" />
    <glyph glyph-name="aring" unicode="&#xe5;" horiz-adv-x="1042" 
d="M438 958q-55 0 -94 -10q-50 -13 -59 -16q11 -12 32 -47q19 -32 19 -68q0 -47 -33 -74q-32 -26 -74 -26q-45 0 -78 31q-32 30 -32 71q0 49 45 94q47 47 112 80q68 35 148 56q76 20 147 20q120 0 199 -71q78 -70 78 -214v-524q0 -62 15 -100q15 -36 43 -57q25 -18 64 -26
q27 -6 79 -11v-29l-34 -11q-34 -11 -66 -19q-28 -7 -78 -16q-38 -7 -66 -7q-53 0 -96 31q-42 31 -47 98q-29 -23 -55 -43q-31 -24 -69 -45q-33 -19 -84 -35q-47 -15 -98 -15q-52 0 -104 19q-48 17 -86 51q-35 31 -57 79q-21 46 -21 101q0 59 27 116t92 103q69 48 174 82
q106 34 272 49v132q0 117 -48 184t-167 67zM653 483q-49 11 -92 11q-49 0 -99 -14q-46 -13 -85 -41q-38 -27 -60 -67t-22 -93q0 -79 49 -119q50 -41 135 -41q49 0 94 13q46 13 80 38v313zM733 1366q0 -46 -17 -81q-18 -38 -46 -66t-68 -45t-82 -17t-82 17q-38 16 -67 45
q-28 28 -46 66q-18 37 -18 81t18 81q18 38 46 66q31 31 67 46q38 16 82 16t82 -16t68 -46q28 -28 46 -66q17 -35 17 -81zM520 1243q50 0 84 37q35 38 35 86t-35 86q-34 37 -84 37t-84 -37q-35 -38 -35 -86t35 -86q34 -37 84 -37z" />
    <glyph glyph-name="ae" unicode="&#xe6;" horiz-adv-x="1593" 
d="M844 557q0 -113 28 -193q28 -81 80 -134q50 -51 121 -76q72 -25 150 -25q48 0 89 7q45 8 80 18q46 13 63 21q29 13 42 22l29 -33q-25 -23 -72 -62q-40 -32 -92 -60q-53 -28 -113 -47q-63 -20 -133 -20q-54 0 -106 12q-54 12 -103 36q-51 25 -93 61q-45 39 -77 88
q-109 -95 -201 -147q-88 -50 -180 -50q-52 0 -104 19q-48 17 -86 51q-35 31 -57 79q-21 46 -21 101q0 59 27 116t92 103q69 48 174 82q106 34 272 49v132q0 117 -48 184t-167 67q-55 0 -94 -10q-50 -13 -59 -16q11 -12 32 -47q19 -32 19 -68q0 -47 -33 -74q-32 -26 -74 -26
q-45 0 -78 31q-32 30 -32 71q0 49 46 94q48 46 114 80q70 36 145 56q74 20 139 20q83 0 147 -37q65 -38 99 -110q72 78 150 112q81 35 182 35q77 0 141 -20q67 -21 119 -71q53 -51 82 -135q30 -86 30 -214v-35q0 -13 -2 -37h-667zM1116 981q-114 0 -183 -88
q-68 -88 -85 -250h469q0 186 -52 262t-149 76zM469 119q76 0 140 35q65 35 102 67q-58 113 -58 262q-60 15 -123 9q-61 -6 -115 -32q-50 -24 -86 -71q-34 -44 -34 -110q0 -79 48 -119q49 -41 126 -41z" />
    <glyph glyph-name="ccedilla" unicode="&#xe7;" horiz-adv-x="970" 
d="M436 -315q56 -43 115 -43q39 0 72 18q32 17 32 64q0 42 -31 63q-30 20 -73 20q-39 0 -76 -12l47 187q-93 12 -174 53q-80 41 -137 108t-90 159t-33 202q0 126 42 231q41 103 116 178q76 76 172 115q100 41 209 41q135 0 215 -54t80 -134q0 -59 -39 -96q-38 -37 -95 -37
q-46 0 -83 30t-37 84q0 35 13 64q14 32 28 47q-12 4 -41 9q-32 5 -58 5q-72 0 -126 -33t-91 -91q-36 -56 -56 -139t-20 -175q0 -107 24 -194q24 -86 69 -148q45 -61 109 -94q65 -33 145 -33q74 0 121 22t77 41l60 -59q-50 -39 -123 -72q-75 -34 -201 -35l-23 -102l21 3
q7 1 27 1q33 0 61 -7q30 -8 54 -24q24 -17 39 -43q16 -29 16 -65q0 -46 -21 -77t-52 -52t-70 -30q-38 -9 -75 -9q-58 0 -105 17q-53 19 -81 46z" />
    <glyph glyph-name="egrave" unicode="&#xe8;" horiz-adv-x="1062" 
d="M987 82q-48 -38 -144 -73q-93 -34 -218 -34q-127 0 -227 41q-97 40 -168 114q-66 69 -105 170q-37 96 -37 210q0 115 38 218q36 99 107 177q69 76 167 120q99 44 216 44q81 0 144 -20q65 -21 113 -61q48 -41 75 -100q27 -60 27 -140v-191h-660q0 -96 23 -185
q22 -85 70 -153q46 -65 117 -103t167 -38q83 0 145 22q60 21 91 41zM780 791q0 85 -44 138q-43 52 -144 52q-77 0 -129 -32t-83 -81q-33 -51 -47 -109q-17 -67 -18 -116h465v148zM362 1413h246l92 -250h-82z" />
    <glyph glyph-name="eacute" unicode="&#xe9;" horiz-adv-x="1056" 
d="M307 557q0 -111 29 -193q28 -81 80 -134q50 -51 121 -76q72 -25 149 -25q48 0 89 7q45 8 80 18q49 14 64 21q29 13 42 22l28 -33q-31 -29 -71 -62q-38 -31 -93 -60t-113 -47q-65 -20 -137 -20q-94 0 -184 35q-86 34 -155 101t-108 162q-40 96 -40 221q0 122 41 228
q40 104 112 182q71 77 166 121q96 44 205 44q67 0 131 -19q65 -19 118 -69q53 -49 84 -135q32 -87 32 -217v-35q0 -13 -2 -37h-668zM580 981q-115 0 -184 -88q-68 -88 -85 -250h469q0 186 -52 262t-148 76zM618 1163h-102l146 250h233z" />
    <glyph glyph-name="ecircumflex" unicode="&#xea;" horiz-adv-x="1056" 
d="M307 557q0 -111 29 -193q28 -81 80 -134q50 -51 121 -76q72 -25 149 -25q48 0 89 7q45 8 80 18q49 14 64 21q29 13 42 22l28 -33q-31 -29 -71 -62q-38 -31 -93 -60t-113 -47q-65 -20 -137 -20q-94 0 -184 35q-86 34 -155 101t-108 162q-40 96 -40 221q0 122 41 228
q40 104 112 182q71 77 166 121q96 44 205 44q67 0 131 -19q65 -19 118 -69q53 -49 84 -135q32 -87 32 -217v-35q0 -13 -2 -37h-668zM580 981q-115 0 -184 -88q-68 -88 -85 -250h469q0 186 -52 262t-148 76zM762 1163l-180 121l-179 -121h-77l176 250h157l181 -250h-78z" />
    <glyph glyph-name="edieresis" unicode="&#xeb;" horiz-adv-x="1056" 
d="M307 557q0 -111 29 -193q28 -81 80 -134q50 -51 121 -76q72 -25 149 -25q48 0 89 7q45 8 80 18q49 14 64 21q29 13 42 22l28 -33q-31 -29 -71 -62q-38 -31 -93 -60t-113 -47q-65 -20 -137 -20q-94 0 -184 35q-86 34 -155 101t-108 162q-40 96 -40 221q0 122 41 228
q40 104 112 182q71 77 166 121q96 44 205 44q67 0 131 -19q65 -19 118 -69q53 -49 84 -135q32 -87 32 -217v-35q0 -13 -2 -37h-668zM580 981q-115 0 -184 -88q-68 -88 -85 -250h469q0 186 -52 262t-148 76zM825 1331q0 -46 -31 -78t-79 -32q-46 0 -78 32q-33 33 -33 78
t33 78t78 33q47 0 79 -33q31 -32 31 -78zM530 1331q0 -46 -32 -78t-78 -32q-48 0 -79 32q-32 34 -32 78t32 78q31 33 79 33q45 0 78 -33q32 -32 32 -78z" />
    <glyph glyph-name="igrave" unicode="&#xec;" horiz-adv-x="591" 
d="M72 0v31l114 59q20 10 28 27q7 15 7 45v649q0 38 -11 52q-14 17 -34 24l-129 45v35l342 102h35v-907q0 -30 7 -45q8 -17 28 -27l114 -59v-31h-501zM127 1413h246l92 -250h-82z" />
    <glyph glyph-name="iacute" unicode="&#xed;" horiz-adv-x="591" 
d="M72 0v31l114 59q20 10 28 27q7 15 7 45v649q0 38 -11 52q-14 17 -34 24l-129 45v35l342 102h35v-907q0 -30 7 -45q8 -17 28 -27l114 -59v-31h-501zM233 1163h-102l145 250h234z" />
    <glyph glyph-name="icircumflex" unicode="&#xee;" horiz-adv-x="591" 
d="M72 0v31l114 59q20 10 28 27q7 15 7 45v649q0 38 -11 52q-14 17 -34 24l-129 45v35l342 102h35v-907q0 -30 7 -45q8 -17 28 -27l114 -59v-31h-501zM475 1163l-180 121l-178 -121h-78l176 250h158l180 -250h-78z" />
    <glyph glyph-name="idieresis" unicode="&#xef;" horiz-adv-x="591" 
d="M72 0v31l114 59q20 10 28 27q7 15 7 45v649q0 38 -11 52q-14 17 -34 24l-129 45v35l342 102h35v-907q0 -30 7 -45q8 -17 28 -27l114 -59v-31h-501zM555 1331q0 -44 -32 -78q-31 -32 -79 -32q-45 0 -77 32q-33 33 -33 78t33 78t77 33q48 0 79 -33q32 -34 32 -78zM260 1331
q0 -45 -33 -78q-32 -32 -77 -32q-48 0 -79 32q-32 34 -32 78t32 78q31 33 79 33q44 0 77 -33t33 -78z" />
    <glyph glyph-name="eth" unicode="&#xf0;" horiz-adv-x="1202" 
d="M383 1325l154 61q-73 72 -162 156h94q73 -49 82 -55q43 -30 82 -62l192 78l33 -82l-149 -61q79 -69 159 -168q74 -92 133 -200q58 -107 92 -219q33 -109 33 -228q0 -127 -42 -232q-42 -104 -112 -179t-167 -117q-96 -42 -203 -42q-113 0 -206 43q-96 44 -167 118
t-112 174t-41 214q0 120 43 218q45 102 115 172q74 73 165 114q93 41 191 41q68 0 119 -16q49 -16 90 -35q-40 81 -90 154q-53 77 -111 145l-182 -74zM600 63q86 0 141 40q56 41 87 106q32 67 45 147q14 86 14 166q0 93 -16 183q-15 82 -50 145q-34 61 -89 96t-132 35
t-132 -35t-89 -96q-35 -63 -50 -145q-16 -90 -16 -183q0 -80 14 -166q13 -80 45 -147q31 -65 87 -106q55 -40 141 -40z" />
    <glyph glyph-name="ntilde" unicode="&#xf1;" horiz-adv-x="1294" 
d="M739 0v31l115 59q20 10 28 27q7 15 7 45v561q0 109 -54 159q-55 50 -139 50q-70 0 -140 -32q-67 -31 -126 -77v-661q0 -30 7 -45q8 -17 28 -27l115 -59v-31h-502v31l115 59q19 10 27 27q7 15 7 45v643q0 59 -45 76l-129 47v39l338 102h31v-178q18 18 54 48q35 29 85 58
q56 32 108 51q59 21 122 21q57 0 111 -21q53 -20 96 -67q43 -46 68 -117q26 -73 26 -170v-532q0 -30 7 -45q8 -17 27 -27l115 -59v-31h-502zM801 1337q31 0 59 23q25 21 41 57l41 -24q-6 -20 -17 -42q-16 -33 -37 -56q-27 -30 -58 -49q-34 -21 -80 -21q-38 0 -75 12
q-29 9 -72 28q-40 17 -64 27q-33 13 -52 13q-27 0 -55 -23q-25 -21 -41 -57l-41 24q4 15 18 42q17 33 36 55q24 27 58 46t81 19q37 0 70 -11q44 -15 70 -26q14 -6 37 -15t26 -10q30 -12 55 -12z" />
    <glyph glyph-name="ograve" unicode="&#xf2;" horiz-adv-x="1243" 
d="M621 -25q-110 0 -206 43q-99 44 -170 118q-74 77 -115 175q-42 101 -42 215q0 116 44 216q44 99 118 172q76 74 170 114q97 41 201 41q102 0 201 -41q95 -39 171 -114q75 -73 118 -173q44 -102 44 -219q0 -114 -43 -212t-116 -174q-71 -74 -170 -118q-96 -43 -205 -43z
M621 63q86 0 142 40q55 39 90 106q33 62 48 147q14 77 14 166q0 104 -17 183q-18 86 -53 145q-36 62 -91 96q-56 35 -133 35q-78 0 -134 -35q-55 -34 -91 -96q-35 -59 -53 -145q-17 -79 -17 -181q0 -90 14 -167q16 -86 48 -148q35 -67 90 -106q56 -40 143 -40zM453 1413h245
l93 -250h-82z" />
    <glyph glyph-name="oacute" unicode="&#xf3;" horiz-adv-x="1243" 
d="M621 -25q-110 0 -206 43q-99 44 -170 118q-74 77 -115 175q-42 101 -42 215q0 116 44 216q44 99 118 172q76 74 170 114q97 41 201 41q102 0 201 -41q95 -39 171 -114q74 -73 118 -172q44 -100 44 -216t-43 -215t-116 -175q-71 -74 -170 -118q-96 -43 -205 -43zM621 63
q87 0 143 40q58 41 92 106q36 68 50 147q16 88 16 168q0 92 -19 179q-19 85 -55 145q-38 62 -93 97q-57 36 -134 36q-78 0 -135 -36q-55 -35 -93 -97q-36 -60 -55 -145q-19 -87 -19 -179q0 -80 16 -168q14 -79 50 -147q34 -65 92 -106q56 -40 144 -40zM559 1163h-102
l145 250h234z" />
    <glyph glyph-name="ocircumflex" unicode="&#xf4;" horiz-adv-x="1243" 
d="M621 -25q-110 0 -206 43q-99 44 -170 118q-74 77 -115 175q-42 101 -42 215q0 116 44 216q44 99 118 172q76 74 170 114q97 41 201 41q102 0 201 -41q95 -39 171 -114q74 -73 118 -172q44 -100 44 -216t-43 -215t-116 -175q-71 -74 -170 -118q-96 -43 -205 -43zM621 63
q87 0 143 40q58 41 92 106q36 68 50 147q16 88 16 168q0 92 -19 179q-19 85 -55 145q-38 62 -93 97q-57 36 -134 36q-78 0 -135 -36q-55 -35 -93 -97q-36 -60 -55 -145q-19 -87 -19 -179q0 -80 16 -168q14 -79 50 -147q34 -65 92 -106q56 -40 144 -40zM801 1163l-180 121
l-179 -121h-77l176 250h157l181 -250h-78z" />
    <glyph glyph-name="otilde" unicode="&#xf5;" horiz-adv-x="1243" 
d="M621 -25q-110 0 -206 43q-99 44 -170 118q-74 77 -115 175q-42 101 -42 215q0 116 44 216q44 99 118 172q76 74 170 114q97 41 201 41q102 0 201 -41q95 -39 171 -114q74 -73 118 -172q44 -100 44 -216t-43 -215t-116 -175q-71 -74 -170 -118q-96 -43 -205 -43zM621 63
q87 0 143 40q58 41 92 106q36 68 50 147q16 88 16 168q0 92 -19 179q-19 85 -55 145q-38 62 -93 97q-57 36 -134 36q-78 0 -135 -36q-55 -35 -93 -97q-36 -60 -55 -145q-19 -87 -19 -179q0 -80 16 -168q14 -79 50 -147q34 -65 92 -106q56 -40 144 -40zM776 1337q32 0 60 23
q25 21 41 57l41 -24q-4 -15 -18 -42q-16 -33 -37 -56q-28 -31 -57 -49q-34 -21 -81 -21q-37 0 -75 12q-25 8 -71 28q-29 12 -65 27q-33 13 -51 13q-27 0 -55 -23q-25 -21 -41 -57l-41 24q6 20 17 42q15 31 37 55q25 28 57 46q34 19 81 19q38 0 71 -11q39 -13 69 -26
q13 -6 36 -14.5t28 -10.5q30 -12 54 -12z" />
    <glyph glyph-name="odieresis" unicode="&#xf6;" horiz-adv-x="1243" 
d="M621 -25q-110 0 -206 43q-99 44 -170 118q-74 77 -115 175q-42 101 -42 215q0 116 44 216q44 99 118 172q76 74 170 114q97 41 201 41q102 0 201 -41q95 -39 171 -114q74 -73 118 -172q44 -100 44 -216t-43 -215t-116 -175q-71 -74 -170 -118q-96 -43 -205 -43zM621 63
q87 0 143 40q58 41 92 106q36 68 50 147q16 88 16 168q0 92 -19 179q-19 85 -55 145q-38 62 -93 97q-57 36 -134 36q-78 0 -135 -36q-55 -35 -93 -97q-36 -60 -55 -145q-19 -87 -19 -179q0 -80 16 -168q14 -79 50 -147q34 -65 92 -106q56 -40 144 -40zM879 1331
q0 -44 -32 -78q-31 -32 -79 -32q-46 0 -78 32q-33 33 -33 78t33 78t78 33q48 0 79 -33q32 -34 32 -78zM584 1331q0 -45 -33 -78q-32 -32 -78 -32q-48 0 -79 32q-32 34 -32 78t32 78q32 33 79 33q45 0 78 -33t33 -78z" />
    <glyph glyph-name="divide" unicode="&#xf7;" 
d="M158 504v147h852v-147h-852zM586 23q-56 0 -94 38q-39 39 -39 95q0 53 39 92t94 39q53 0 92 -39t39 -92q0 -56 -39 -95q-38 -38 -92 -38zM586 852q-55 0 -94 39t-39 94q0 53 39 92t94 39q53 0 92 -39t39 -92q0 -55 -39 -94t-92 -39z" />
    <glyph glyph-name="oslash" unicode="&#xf8;" horiz-adv-x="1243" 
d="M621 -25q-85 0 -162 27q-74 26 -142 74l-90 -113l-63 64l88 108q-72 72 -114 171t-42 218q0 116 42 217q42 100 115 173q74 74 168 114q96 41 200 41q84 0 160 -27q79 -28 143 -73l92 112l63 -63l-86 -109q76 -77 115 -177q39 -99 39 -208q0 -114 -41 -214
q-40 -98 -113 -174q-71 -74 -168 -118q-95 -43 -204 -43zM334 520q0 -67 7 -126q7 -63 24 -120l471 584q-34 56 -88 90q-52 33 -130 33t-131 -35q-54 -36 -88 -97q-35 -64 -50 -147q-15 -84 -15 -182zM621 63q86 0 141 40q56 41 87 106q32 67 45 146q13 78 13 165
q0 141 -30 246l-472 -582q33 -55 85 -88t131 -33z" />
    <glyph glyph-name="ugrave" unicode="&#xf9;" horiz-adv-x="1251" 
d="M899 -20h-31v178q-18 -13 -75 -59q-42 -34 -85 -59q-50 -29 -101 -46q-57 -19 -120 -19q-50 0 -101 16q-47 15 -85 54q-36 37 -59 102q-23 64 -23 162v502q0 59 -45 76l-115 45v35l332 102h31v-774q0 -93 51 -130q52 -38 129 -38q80 0 147 31q66 31 111 67v586
q0 59 -45 76l-129 45v35l346 102h31v-862q0 -61 45 -76l109 -35v-35zM336 1413h233l146 -250h-103z" />
    <glyph glyph-name="uacute" unicode="&#xfa;" horiz-adv-x="1251" 
d="M899 -20h-31v178q-18 -13 -75 -59q-42 -34 -85 -59q-50 -29 -101 -46q-57 -19 -120 -19q-50 0 -101 16q-47 15 -85 54q-36 37 -59 102q-23 64 -23 162v502q0 59 -45 76l-115 45v35l332 102h31v-774q0 -93 51 -130q52 -38 129 -38q80 0 147 31q66 31 111 67v586
q0 59 -45 76l-129 45v35l346 102h31v-862q0 -61 45 -76l109 -35v-35zM563 1163h-102l145 250h234z" />
    <glyph glyph-name="ucircumflex" unicode="&#xfb;" horiz-adv-x="1251" 
d="M899 -20h-31v178q-18 -13 -75 -59q-42 -34 -85 -59q-50 -29 -101 -46q-57 -19 -120 -19q-50 0 -101 16q-47 15 -85 54q-36 37 -59 102q-23 64 -23 162v502q0 59 -45 76l-115 45v35l332 102h31v-774q0 -93 51 -130q52 -38 129 -38q80 0 147 31q66 31 111 67v586
q0 59 -45 76l-129 45v35l346 102h31v-862q0 -61 45 -76l109 -35v-35zM805 1163l-180 121l-179 -121h-77l176 250h157l181 -250h-78z" />
    <glyph glyph-name="udieresis" unicode="&#xfc;" horiz-adv-x="1251" 
d="M899 -20h-31v178q-18 -13 -75 -59q-42 -34 -85 -59q-50 -29 -101 -46q-57 -19 -120 -19q-50 0 -101 16q-47 15 -85 54q-36 37 -59 102q-23 64 -23 162v502q0 59 -45 76l-115 45v35l332 102h31v-774q0 -93 51 -130q52 -38 129 -38q80 0 147 31q66 31 111 67v586
q0 59 -45 76l-129 45v35l346 102h31v-862q0 -61 45 -76l109 -35v-35zM883 1331q0 -44 -32 -78q-31 -32 -79 -32q-46 0 -78 32t-32 78t32 78q33 33 78 33q48 0 79 -33q32 -34 32 -78zM588 1331q0 -45 -33 -78q-32 -32 -78 -32q-48 0 -79 32t-31 78t31 78q32 33 79 33
q45 0 78 -33t33 -78z" />
    <glyph glyph-name="yacute" unicode="&#xfd;" horiz-adv-x="1181" 
d="M596 0h-102l-287 809q-10 29 -20 52q-11 26 -20 38q-12 16 -28 31q-13 12 -41 31l-53 34v37h494v-41l-72 -30q-29 -12 -42 -27q-12 -14 -14 -36q-1 -18 7 -53q9 -38 22 -77l203 -635l234 672q27 73 13 106q-14 34 -63 52l-75 28v41h434v-39l-74 -41q-30 -17 -57 -50
q-30 -36 -62 -122l-356 -962q-72 -196 -159 -273q-85 -75 -185 -75q-47 0 -79 12q-30 11 -52 32q-21 20 -30 43q-9 24 -9 46q0 47 33 84t82 37q51 0 89 -41q37 -40 29 -109q46 15 94 81q49 67 101 216zM528 1163h-102l145 250h234z" />
    <glyph glyph-name="thorn" unicode="&#xfe;" horiz-adv-x="1236" 
d="M381 -301q0 -55 35 -72l135 -67v-31h-522v31l114 59q20 10 28 27q7 15 7 45v1595q0 60 -45 76l-129 45v35l342 102h35v-663q14 17 53 52q36 33 84 62q57 34 110 53q60 21 132 21q85 0 160 -35q74 -35 128 -98t86 -154q31 -89 31 -202q0 -143 -49 -253q-50 -113 -133 -191
q-84 -79 -197 -120q-114 -41 -237 -41q-35 0 -79 3q-29 2 -89 10v-289zM381 109q31 -15 76 -31q41 -14 102 -14q83 0 151 29q71 30 123 88q50 55 81 146q30 87 30 201q0 104 -24 181q-24 76 -65 123t-91 69q-52 23 -102 23q-40 0 -84 -13q-46 -14 -78 -29q-44 -21 -68 -38
q-10 -7 -27 -18.5t-24 -16.5v-700z" />
    <glyph glyph-name="ydieresis" unicode="&#xff;" horiz-adv-x="1181" 
d="M596 0h-102l-287 809q-10 29 -20 52q-11 26 -20 38q-12 16 -28 31q-13 12 -41 31l-53 34v37h494v-41l-72 -30q-29 -12 -42 -27q-12 -14 -14 -36q-1 -18 7 -53q9 -38 22 -77l203 -635l234 672q27 73 13 106q-14 34 -63 52l-75 28v41h434v-39l-74 -41q-30 -17 -57 -50
q-30 -36 -62 -122l-356 -962q-72 -196 -159 -273q-85 -75 -185 -75q-47 0 -79 12q-30 11 -52 32q-21 20 -30 43q-9 24 -9 46q0 47 33 84t82 37q51 0 89 -41q37 -40 29 -109q46 15 94 81q49 67 101 216zM848 1331q0 -44 -32 -78q-31 -32 -79 -32q-46 0 -78 32t-32 78t32 78
q33 33 78 33q47 0 79 -33q32 -34 32 -78zM553 1331q0 -45 -33 -78q-32 -32 -78 -32q-47 0 -78 32q-32 34 -32 78t32 78q32 33 78 33q45 0 78 -33t33 -78z" />
    <glyph glyph-name="Amacron" unicode="&#x100;" horiz-adv-x="1413" 
d="M907 479h-489l-68 -211q-28 -91 -22 -133q6 -41 57 -63l92 -39v-33h-446v31q46 22 71 38q31 20 52 42q23 25 41 62q20 42 41 103l382 1137h199l383 -1163q18 -53 28 -76q14 -31 32 -55q17 -22 46 -45q25 -20 72 -43v-31h-524v33l98 39q43 16 50 53q8 38 -19 119zM444 567
h435l-217 680zM451 1520v108h512v-108h-512z" />
    <glyph glyph-name="amacron" unicode="&#x101;" horiz-adv-x="1042" 
d="M438 958q-55 0 -94 -10q-50 -13 -59 -16q11 -12 32 -47q19 -32 19 -68q0 -47 -33 -74q-32 -26 -74 -26q-45 0 -78 31q-32 30 -32 71q0 49 45 94q47 47 112 80q68 35 148 56q76 20 147 20q120 0 199 -71q78 -70 78 -214v-524q0 -62 15 -100q15 -36 43 -57q25 -18 64 -26
q27 -6 79 -11v-29l-34 -11q-34 -11 -66 -19q-28 -7 -78 -16q-38 -7 -66 -7q-53 0 -96 31q-42 31 -47 98q-29 -23 -55 -43q-31 -24 -69 -45q-33 -19 -84 -35q-47 -15 -98 -15q-52 0 -104 19q-48 17 -86 51q-35 31 -57 79q-21 46 -21 101q0 59 27 116t92 103q69 48 174 82
q106 34 272 49v132q0 117 -48 184t-167 67zM653 483q-49 11 -92 11q-49 0 -99 -14q-46 -13 -85 -41q-38 -27 -60 -67t-22 -93q0 -79 49 -119q50 -41 135 -41q49 0 94 13q46 13 80 38v313zM264 1243v109h512v-109h-512z" />
    <glyph glyph-name="Abreve" unicode="&#x102;" horiz-adv-x="1413" 
d="M907 479h-489l-68 -211q-28 -91 -22 -133q6 -41 57 -63l92 -39v-33h-446v31q46 22 71 38q31 20 52 42q23 25 41 62q20 42 41 103l382 1137h199l383 -1163q18 -53 28 -76q14 -31 32 -55q17 -22 46 -45q25 -20 72 -43v-31h-524v33l98 39q43 16 50 53q8 38 -19 119zM444 567
h435l-217 680zM707 1663q59 0 106 30q49 31 78 93h76q-6 -36 -27 -88q-17 -41 -49 -82q-29 -36 -77 -61q-45 -23 -107 -23q-63 0 -108 23q-48 25 -77 61q-32 41 -49 82q-21 52 -27 88h76q29 -62 78 -93q46 -30 107 -30z" />
    <glyph glyph-name="abreve" unicode="&#x103;" horiz-adv-x="1042" 
d="M438 958q-55 0 -94 -10q-50 -13 -59 -16q11 -12 32 -47q19 -32 19 -68q0 -47 -33 -74q-32 -26 -74 -26q-45 0 -78 31q-32 30 -32 71q0 49 45 94q47 47 112 80q68 35 148 56q76 20 147 20q120 0 199 -71q78 -70 78 -214v-524q0 -62 15 -100q15 -36 43 -57q25 -18 64 -26
q27 -6 79 -11v-29l-34 -11q-34 -11 -66 -19q-28 -7 -78 -16q-38 -7 -66 -7q-53 0 -96 31q-42 31 -47 98q-29 -23 -55 -43q-31 -24 -69 -45q-33 -19 -84 -35q-47 -15 -98 -15q-52 0 -104 19q-48 17 -86 51q-35 31 -57 79q-21 46 -21 101q0 59 27 116t92 103q69 48 174 82
q106 34 272 49v132q0 117 -48 184t-167 67zM653 483q-49 11 -92 11q-49 0 -99 -14q-46 -13 -85 -41q-38 -27 -60 -67t-22 -93q0 -79 49 -119q50 -41 135 -41q49 0 94 13q46 13 80 38v313zM520 1290q60 0 107 30q49 31 78 93h75q-7 -40 -26 -88q-17 -41 -49 -82
q-28 -35 -77 -60q-46 -24 -108 -24q-60 0 -107 24q-49 25 -77 60q-32 41 -49 82q-21 52 -27 88h76q29 -62 78 -93q46 -30 106 -30z" />
    <glyph glyph-name="Aogonek" unicode="&#x104;" horiz-adv-x="1413" 
d="M1325 -416q-56 -12 -104 -12q-99 0 -146 41t-47 100q0 45 24 89q26 47 55 83q34 42 65 69q33 29 55 46h-373v33l98 39q43 16 50 53q8 38 -19 119l-76 235h-489l-68 -211q-28 -91 -22 -133q6 -41 57 -63l92 -39v-33h-446v31q46 22 71 38q31 20 52 42q23 25 41 62
q20 42 41 103l382 1137h199l383 -1163q18 -53 28 -76q14 -31 32 -55q17 -22 46 -45q25 -20 72 -43v-31h-88q-25 -29 -44 -65q-22 -40 -32 -72q-12 -38 -18 -70q-6 -33 -6 -53q0 -47 28 -72q27 -24 68 -24q21 0 39 6v-66zM444 567h435l-217 680z" />
    <glyph glyph-name="aogonek" unicode="&#x105;" horiz-adv-x="1042" 
d="M1049 -416q-55 -12 -105 -12q-98 0 -145 42t-47 95q0 43 24 85q21 37 60 81q40 45 70 74q41 39 61 63q-30 -8 -86 -19q-45 -9 -76 -9q-53 0 -96 31q-42 31 -47 98q-29 -23 -55 -43q-31 -24 -69 -45q-33 -19 -84 -35q-47 -15 -98 -15q-52 0 -104 19q-48 17 -86 51
q-35 31 -57 79q-21 46 -21 101q0 59 27 116t92 103q69 48 174 82q106 34 272 49v132q0 117 -48 184t-167 67q-55 0 -94 -10q-50 -13 -59 -16q11 -12 32 -47q19 -32 19 -68q0 -47 -33 -74q-32 -26 -74 -26q-45 0 -78 31q-32 30 -32 71q0 49 45 94q47 47 112 80q68 35 148 56
q76 20 147 20q120 0 199 -71q78 -70 78 -214v-524q0 -62 15 -100q15 -36 43 -57q25 -18 64 -26q27 -6 79 -11v-29q-29 -34 -50 -70q-24 -41 -44 -85q-15 -34 -30 -84q-12 -40 -12 -64q0 -36 28 -64q26 -26 69 -26q21 0 39 6v-66zM653 483q-62 15 -125 9q-61 -6 -115 -32
q-52 -25 -85 -72q-33 -46 -33 -109q0 -79 49 -119q50 -41 135 -41q49 0 94 13q46 13 80 38v313z" />
    <glyph glyph-name="Cacute" unicode="&#x106;" horiz-adv-x="1380" 
d="M883 -31q-160 0 -304 55q-139 53 -244 149q-103 94 -162 226q-58 129 -58 283q0 167 67 305q67 139 177 241q106 98 249 157q140 57 281 57q56 0 112 -7q53 -7 115 -20q68 -15 103 -26q47 -15 75 -27v-236h-45q-86 132 -175 180t-193 48q-114 0 -210 -46
q-99 -47 -168 -131q-71 -86 -111 -203t-40 -261q0 -150 44 -273q43 -120 120 -206q76 -85 177 -131t216 -46q118 0 216 56q97 55 175 190h39l-24 -248q-27 -15 -79 -31q-56 -18 -107 -28q-65 -13 -121 -20q-59 -7 -125 -7zM811 1532h-102l145 250h233z" />
    <glyph glyph-name="cacute" unicode="&#x107;" horiz-adv-x="970" 
d="M733 985q-23 5 -42 6q-26 2 -44 2q-71 0 -134 -27q-60 -26 -107 -82q-46 -55 -71 -134q-26 -81 -26 -185q0 -111 30 -193q31 -84 80 -138q47 -52 118 -80q67 -27 143 -27q77 0 148 23q72 23 98 40l26 -28q-30 -32 -55 -56q-32 -30 -85 -61q-47 -27 -113 -49
q-63 -21 -138 -21q-93 0 -177 34q-86 34 -151 100q-64 64 -105 160q-40 93 -40 216q0 126 44 235q42 105 119 185q75 78 172 121q96 43 202 43q65 0 114 -14q56 -16 94 -40q37 -23 63 -61q24 -34 24 -75q0 -55 -37 -93t-92 -38q-53 0 -88 31t-35 83q0 34 18 69q16 31 47 54z
M590 1163h-103l146 250h233z" />
    <glyph glyph-name="Ccircumflex" unicode="&#x108;" horiz-adv-x="1380" 
d="M883 -31q-160 0 -304 55q-139 53 -244 149q-103 94 -162 226q-58 129 -58 283q0 167 67 305q67 139 177 241q106 98 249 157q140 57 281 57q56 0 112 -7q53 -7 115 -20q68 -15 103 -26q47 -15 75 -27v-236h-45q-86 132 -175 180t-193 48q-114 0 -210 -46
q-99 -47 -168 -131q-71 -86 -111 -203t-40 -261q0 -150 44 -273q43 -120 120 -206q76 -85 177 -131t216 -46q118 0 216 56q97 55 175 190h39l-24 -248q-27 -15 -79 -31q-56 -18 -107 -28q-65 -13 -121 -20q-59 -7 -125 -7zM991 1532l-180 121l-178 -121h-78l176 250h158
l180 -250h-78z" />
    <glyph glyph-name="ccircumflex" unicode="&#x109;" horiz-adv-x="970" 
d="M733 985q-23 5 -42 6q-26 2 -44 2q-71 0 -134 -27q-60 -26 -107 -82q-46 -55 -71 -134q-26 -81 -26 -185q0 -111 30 -193q31 -84 80 -138q47 -52 118 -80q67 -27 143 -27q77 0 148 23q72 23 98 40l26 -28q-30 -32 -55 -56q-32 -30 -85 -61q-47 -27 -113 -49
q-63 -21 -138 -21q-93 0 -177 34q-86 34 -151 100q-64 64 -105 160q-40 93 -40 216q0 126 44 235q42 105 119 185q75 78 172 121q96 43 202 43q65 0 114 -14q56 -16 94 -40q37 -23 63 -61q24 -34 24 -75q0 -55 -37 -93t-92 -38q-53 0 -88 31t-35 83q0 34 18 69q16 31 47 54z
M758 1163l-180 121l-179 -121h-77l176 250h157l181 -250h-78z" />
    <glyph glyph-name="Cdotaccent" unicode="&#x10a;" horiz-adv-x="1380" 
d="M883 -31q-160 0 -304 55q-139 53 -244 149q-103 94 -162 226q-58 129 -58 283q0 167 67 305q67 139 177 241q106 98 249 157q140 57 281 57q56 0 112 -7q53 -7 115 -20q68 -15 103 -26q47 -15 75 -27v-236h-45q-86 132 -175 180t-193 48q-114 0 -210 -46
q-99 -47 -168 -131q-71 -86 -111 -203t-40 -261q0 -150 44 -273q43 -120 120 -206q76 -85 177 -131t216 -46q118 0 216 56q97 55 175 190h39l-24 -248q-27 -15 -79 -31q-56 -18 -107 -28q-65 -13 -121 -20q-59 -7 -125 -7zM952 1655q0 -51 -36 -87t-87 -36t-87 36
q-35 35 -35 87t35 87q36 36 87 36t87 -36t36 -87z" />
    <glyph glyph-name="cdotaccent" unicode="&#x10b;" horiz-adv-x="970" 
d="M733 985q-23 5 -42 6q-26 2 -44 2q-71 0 -134 -27q-60 -26 -107 -82q-46 -55 -71 -134q-26 -81 -26 -185q0 -111 30 -193q31 -84 80 -138q47 -52 118 -80q67 -27 143 -27q77 0 148 23q72 23 98 40l26 -28q-30 -32 -55 -56q-32 -30 -85 -61q-47 -27 -113 -49
q-63 -21 -138 -21q-93 0 -177 34q-86 34 -151 100q-64 64 -105 160q-40 93 -40 216q0 126 44 235q42 105 119 185q75 78 172 121q96 43 202 43q65 0 114 -14q56 -16 94 -40q37 -23 63 -61q24 -34 24 -75q0 -55 -37 -93t-92 -38q-53 0 -88 31t-35 83q0 34 18 69q16 31 47 54z
M717 1319q0 -51 -36 -87t-87 -36t-87 36t-36 87t36 87t87 36t87 -36t36 -87z" />
    <glyph glyph-name="Ccaron" unicode="&#x10c;" horiz-adv-x="1380" 
d="M883 -31q-160 0 -304 55q-139 53 -244 149q-103 94 -162 226q-58 129 -58 283q0 167 67 305q67 139 177 241q106 98 249 157q140 57 281 57q56 0 112 -7q53 -7 115 -20q68 -15 103 -26q47 -15 75 -27v-236h-45q-86 132 -175 180t-193 48q-114 0 -210 -46
q-99 -47 -168 -131q-71 -86 -111 -203t-40 -261q0 -150 44 -273q43 -120 120 -206q76 -85 177 -131t216 -46q118 0 216 56q97 55 175 190h39l-24 -248q-27 -15 -79 -31q-56 -18 -107 -28q-65 -13 -121 -20q-59 -7 -125 -7zM1044 1782l-180 -250h-157l-177 250h78l178 -121
l181 121h77z" />
    <glyph glyph-name="ccaron" unicode="&#x10d;" horiz-adv-x="970" 
d="M733 985q-23 5 -42 6q-26 2 -44 2q-71 0 -134 -27q-60 -26 -107 -82q-46 -55 -71 -134q-26 -81 -26 -185q0 -111 30 -193q31 -84 80 -138q47 -52 118 -80q67 -27 143 -27q77 0 148 23q72 23 98 40l26 -28q-30 -32 -55 -56q-32 -30 -85 -61q-47 -27 -113 -49
q-63 -21 -138 -21q-93 0 -177 34q-86 34 -151 100q-64 64 -105 160q-40 93 -40 216q0 126 44 235q42 105 119 185q75 78 172 121q96 43 202 43q65 0 114 -14q56 -16 94 -40q37 -23 63 -61q24 -34 24 -75q0 -55 -37 -93t-92 -38q-53 0 -88 31t-35 83q0 34 18 69q16 31 47 54z
M846 1413l-180 -250h-158l-176 250h78l178 -121l180 121h78z" />
    <glyph glyph-name="Dcaron" unicode="&#x10e;" horiz-adv-x="1581" 
d="M88 0v31l127 63q35 17 35 72v1081q0 55 -35 72l-127 63v31h641q159 0 299 -42q139 -42 243 -128q103 -85 163 -216q59 -128 59 -306q0 -172 -56 -303q-58 -135 -160 -227t-248 -142q-143 -49 -320 -49h-621zM715 88q129 0 234 47q101 45 175 130q71 81 109 197
q37 112 37 249q0 143 -41 258q-39 110 -114 193q-71 78 -169 121q-96 42 -207 42h-276v-1237h252zM950 1782l-180 -250h-158l-176 250h78l178 -121l180 121h78z" />
    <glyph glyph-name="dcaron" unicode="&#x10f;" horiz-adv-x="1431" 
d="M694 1069q41 0 89 -5q34 -3 85 -13v276q0 40 -11 54q-13 16 -34 22l-149 45v35l373 102h30v-1319q0 -60 14 -96t35 -53q25 -20 53 -27q27 -7 64 -18v-35l-7 -1q-6 -2 -16 -4.5t-21 -5.5q-55 -13 -87 -19q-33 -6 -97 -16q-45 -7 -71 -7q-8 0 -21 3q-15 3 -26 17
q-13 16 -20 44q-9 36 -9 83v16q-22 -28 -58 -57q-39 -31 -87 -56q-49 -25 -107 -42q-59 -17 -114 -17q-78 0 -152 33q-75 34 -132 95q-57 62 -94 155q-36 92 -36 211q0 142 51 253q51 112 135 188q86 78 194 118q111 41 226 41zM868 932q-29 17 -82 32t-116 15
q-80 0 -150 -32t-122 -90t-82 -141q-29 -80 -29 -186q0 -103 28 -177q28 -73 76 -126q46 -51 110 -75q66 -25 128 -25q61 0 124 19q61 18 115 55v731zM1178 1014q41 53 56 95t15 71q0 26 -9 44q-8 17 -19 32q-12 17 -20 33q-9 18 -9 44q0 51 32 80t74 29q47 0 77 -35t30 -88
q0 -41 -18 -86q-14 -35 -47 -90q-27 -45 -60 -84q-35 -42 -63 -68z" />
    <glyph glyph-name="Dcroat" unicode="&#x110;" horiz-adv-x="1581" 
d="M88 0v31l127 63q35 17 35 72v516h-144v88h144v477q0 55 -35 72l-127 63v31h641q159 0 299 -42q139 -42 243 -128q103 -85 163 -216q59 -128 59 -306q0 -172 -56 -303q-58 -135 -160 -227t-248 -142q-143 -49 -320 -49h-621zM715 88q129 0 234 47q101 45 175 130
q71 81 109 197q37 112 37 249q0 143 -41 258q-39 110 -114 193q-71 78 -169 121q-96 42 -207 42h-276v-555h272v-88h-272v-594h252z" />
    <glyph glyph-name="dcroat" unicode="&#x111;" horiz-adv-x="1220" 
d="M1204 37l-44 -11q-55 -13 -87 -19q-33 -6 -97 -16q-45 -7 -71 -7q-7 0 -21 3q-15 3 -26 17q-13 16 -20 44q-9 36 -9 83v14q-21 -25 -58 -56q-33 -28 -83 -55q-46 -26 -102 -42q-57 -17 -113 -17q-81 0 -149 34q-72 36 -122 96q-54 64 -83 154q-31 95 -31 206
q0 132 42 243q43 113 118 191q78 81 182 125q107 45 238 45q52 0 93 -6q8 -1 32.5 -4.5t35.5 -5.5v159h-266v99h266v16q0 40 -11 54q-13 16 -34 22l-149 45v35l373 102h30v-274h105v-99h-105v-946q0 -60 14 -96t35 -53q25 -20 53 -27q27 -7 64 -18v-35zM829 938
q-31 18 -70 29q-42 12 -93 12q-73 0 -140 -29q-64 -28 -114 -85q-49 -56 -79 -142q-30 -85 -30 -203q0 -107 26 -183q26 -75 67 -121q40 -44 96 -65q54 -20 110 -20t114 16q56 15 113 48v743z" />
    <glyph glyph-name="Emacron" unicode="&#x112;" horiz-adv-x="1198" 
d="M88 0v31l139 63q35 17 35 72v1081q0 55 -35 72l-139 63v31h942v-248h-31l-122 125q-17 20 -40 28q-20 7 -53 7h-309v-555h246q29 0 60 12q29 11 53 23l77 45h27v-246h-27l-77 45q-15 8 -53 22q-29 11 -60 11h-246v-594h367q28 0 52 9q22 8 40 26l166 158h30l-40 -281
h-1002zM303 1520v108h512v-108h-512z" />
    <glyph glyph-name="emacron" unicode="&#x113;" horiz-adv-x="1056" 
d="M307 557q0 -111 29 -193q28 -81 80 -134q50 -51 121 -76q72 -25 149 -25q48 0 89 7q45 8 80 18q49 14 64 21q29 13 42 22l28 -33q-31 -29 -71 -62q-38 -31 -93 -60t-113 -47q-65 -20 -137 -20q-94 0 -184 35q-86 34 -155 101t-108 162q-40 96 -40 221q0 122 41 228
q40 104 112 182q71 77 166 121q96 44 205 44q67 0 131 -19q65 -19 118 -69q53 -49 84 -135q32 -87 32 -217v-35q0 -13 -2 -37h-668zM580 981q-115 0 -184 -88q-68 -88 -85 -250h469q0 186 -52 262t-148 76zM317 1243v109h512v-109h-512z" />
    <glyph glyph-name="Ebreve" unicode="&#x114;" horiz-adv-x="1198" 
d="M88 0v31l139 63q35 17 35 72v1081q0 55 -35 72l-139 63v31h942v-248h-31l-122 125q-17 20 -40 28q-20 7 -53 7h-309v-555h246q29 0 60 12q29 11 53 23l77 45h27v-246h-27l-77 45q-15 8 -53 22q-29 11 -60 11h-246v-594h367q28 0 52 9q22 8 40 26l166 158h30l-40 -281
h-1002zM563 1663q61 0 107 30q49 31 78 93h75q-7 -40 -26 -88q-17 -41 -49 -82q-29 -36 -77 -61q-45 -23 -108 -23q-62 0 -107 23q-48 25 -77 61q-32 41 -49 82q-21 52 -27 88h76q29 -62 78 -93q46 -30 106 -30z" />
    <glyph glyph-name="ebreve" unicode="&#x115;" horiz-adv-x="1056" 
d="M307 557q0 -111 29 -193q28 -81 80 -134q50 -51 121 -76q72 -25 149 -25q48 0 89 7q45 8 80 18q49 14 64 21q29 13 42 22l28 -33q-31 -29 -71 -62q-38 -31 -93 -60t-113 -47q-65 -20 -137 -20q-94 0 -184 35q-86 34 -155 101t-108 162q-40 96 -40 221q0 122 41 228
q40 104 112 182q71 77 166 121q96 44 205 44q67 0 131 -19q65 -19 118 -69q53 -49 84 -135q32 -87 32 -217v-35q0 -13 -2 -37h-668zM580 981q-115 0 -184 -88q-68 -88 -85 -250h469q0 186 -52 262t-148 76zM565 1290q61 0 107 30q49 31 78 93h75q-7 -40 -26 -88
q-17 -41 -49 -82q-28 -35 -77 -60q-47 -24 -108 -24t-107 24q-49 25 -77 60q-32 41 -49 82q-21 52 -27 88h76q29 -62 78 -93q46 -30 106 -30z" />
    <glyph glyph-name="Edotaccent" unicode="&#x116;" horiz-adv-x="1198" 
d="M88 0v31l139 63q35 17 35 72v1081q0 55 -35 72l-139 63v31h942v-248h-31l-122 125q-17 20 -40 28q-20 7 -53 7h-309v-555h246q29 0 60 12q29 11 53 23l77 45h27v-246h-27l-77 45q-15 8 -53 22q-29 11 -60 11h-246v-594h367q28 0 52 9q22 8 40 26l166 158h30l-40 -281
h-1002zM750 1655q0 -51 -36 -87t-87 -36t-87 36t-36 87t36 87t87 36t87 -36t36 -87z" />
    <glyph glyph-name="edotaccent" unicode="&#x117;" horiz-adv-x="1056" 
d="M307 557q0 -111 29 -193q28 -81 80 -134q50 -51 121 -76q72 -25 149 -25q48 0 89 7q45 8 80 18q49 14 64 21q29 13 42 22l28 -33q-31 -29 -71 -62q-38 -31 -93 -60t-113 -47q-65 -20 -137 -20q-94 0 -184 35q-86 34 -155 101t-108 162q-40 96 -40 221q0 122 41 228
q40 104 112 182q71 77 166 121q96 44 205 44q67 0 131 -19q65 -19 118 -69q53 -49 84 -135q32 -87 32 -217v-35q0 -13 -2 -37h-668zM580 981q-115 0 -184 -88q-68 -88 -85 -250h469q0 186 -52 262t-148 76zM709 1319q0 -51 -36 -87t-87 -36t-87 36t-36 87t36 87t87 36
t87 -36t36 -87z" />
    <glyph glyph-name="Eogonek" unicode="&#x118;" horiz-adv-x="1198" 
d="M88 0v31l139 63q35 17 35 72v1081q0 55 -35 72l-139 63v31h942v-248h-31l-122 125q-17 20 -40 28q-20 7 -53 7h-309v-555h246q29 0 60 12q29 11 53 23l77 45h27v-246h-27l-77 45q-15 8 -53 22q-29 11 -60 11h-246v-594h367q28 0 52 9q22 8 40 26l166 158h30l-40 -281
h-1002zM1100 -416q-56 -12 -105 -12q-98 0 -145 41t-47 100q0 47 23 89q24 43 56 83q34 42 65 69q43 37 54 46h64q-25 -29 -44 -65q-22 -40 -32 -72q-12 -38 -18 -70q-6 -33 -6 -53q0 -48 27 -72t69 -24q21 0 39 6v-66z" />
    <glyph glyph-name="eogonek" unicode="&#x119;" horiz-adv-x="1056" 
d="M991 -416q-55 -12 -104 -12q-99 0 -146 42t-47 99q0 37 18 78t45 87q29 51 61 96q31 44 65 104q-67 -46 -131 -72q-74 -31 -172 -31t-188 35q-88 34 -156 101q-69 67 -108 162q-40 96 -40 221q0 122 41 228q40 104 112 182q71 77 166 121q96 44 205 44q67 0 131 -19
q65 -19 118 -69q53 -49 84 -135q32 -87 32 -217v-35q0 -13 -2 -37h-668q0 -111 29 -193q28 -81 80 -134q50 -51 121 -76q72 -25 149 -25q48 0 89 7q45 8 80 18q49 14 64 21q29 13 42 22l28 -33q-28 -59 -49 -116q-29 -77 -43 -126q-19 -64 -30 -112q-11 -47 -11 -76
q0 -36 28 -64q26 -26 68 -26q21 0 39 6v-66zM580 981q-115 0 -184 -88q-68 -88 -85 -250h469q0 186 -52 262t-148 76z" />
    <glyph glyph-name="Ecaron" unicode="&#x11a;" horiz-adv-x="1198" 
d="M88 0v31l139 63q35 17 35 72v1081q0 55 -35 72l-139 63v31h942v-248h-31l-122 125q-17 20 -40 28q-20 7 -53 7h-309v-555h246q29 0 60 12q29 11 53 23l77 45h27v-246h-27l-77 45q-15 8 -53 22q-29 11 -60 11h-246v-594h367q28 0 52 9q22 8 40 26l166 158h30l-40 -281
h-1002zM860 1782l-180 -250h-158l-176 250h78l178 -121l180 121h78z" />
    <glyph glyph-name="ecaron" unicode="&#x11b;" horiz-adv-x="1056" 
d="M307 557q0 -111 29 -193q28 -81 80 -134q50 -51 121 -76q72 -25 149 -25q48 0 89 7q45 8 80 18q49 14 64 21q29 13 42 22l28 -33q-31 -29 -71 -62q-38 -31 -93 -60t-113 -47q-65 -20 -137 -20q-94 0 -184 35q-86 34 -155 101t-108 162q-40 96 -40 221q0 122 41 228
q40 104 112 182q71 77 166 121q96 44 205 44q67 0 131 -19q65 -19 118 -69q53 -49 84 -135q32 -87 32 -217v-35q0 -13 -2 -37h-668zM580 981q-115 0 -184 -88q-68 -88 -85 -250h469q0 186 -52 262t-148 76zM856 1413l-180 -250h-158l-176 250h78l178 -121l180 121h78z" />
    <glyph glyph-name="Gcircumflex" unicode="&#x11c;" horiz-adv-x="1574" 
d="M1378 -2l-110 53q-9 -4 -61 -22q-38 -13 -101 -28q-61 -14 -124 -23q-66 -9 -128 -9q-134 0 -271 54q-135 53 -240 149t-170 230q-64 132 -64 298q0 178 73 314q74 138 192 232q124 99 263 146q147 50 289 50q58 0 117 -7q60 -7 122 -18q73 -13 111 -24q55 -16 82 -27
v-236h-39q-53 59 -104 105q-47 42 -96 70q-42 24 -97 37q-50 12 -105 12q-119 0 -224 -47q-101 -45 -181 -133q-78 -86 -122 -205q-44 -120 -44 -262q0 -139 42 -255q42 -114 115 -200q72 -84 172 -131t216 -47q45 0 93 6q47 6 91 15q20 4 77 19q33 9 46 15v412q0 54 -35 71
l-127 64v31h484v-31l-86 -49q-35 -21 -35 -72v-557h-21zM1098 1532l-180 121l-179 -121h-77l176 250h157l181 -250h-78z" />
    <glyph glyph-name="gcircumflex" unicode="&#x11d;" horiz-adv-x="1054" 
d="M526 338q-40 0 -81 6q-38 6 -78 21q-33 -33 -48 -67q-14 -32 -14 -62q0 -67 70 -72l403 -21q128 -6 200 -66q73 -61 73 -175q0 -102 -58 -184q-56 -80 -144 -136q-87 -55 -194 -84q-105 -28 -204 -28q-81 0 -157 18q-78 18 -138 52q-65 36 -100 83q-38 50 -38 111
q0 45 21 84q21 40 54 71q36 34 76 60q37 24 85 47q-43 22 -64 59q-22 38 -22 84q0 53 34 112q36 62 117 136q-86 44 -142 122t-56 196q0 84 32 153q32 68 86 115q55 47 126 71q75 25 151 25q67 0 122 -16q59 -17 114 -49l315 55h25l-21 -141h-217q34 -44 57 -96
q23 -54 23 -120q0 -79 -32 -146t-87 -116q-53 -47 -129 -75q-74 -27 -160 -27zM381 -31q-10 0 -20 1q-20 2 -44 7q-41 -29 -78 -79q-38 -52 -38 -117q0 -53 27 -93q26 -39 73 -69q44 -28 103 -43q55 -14 122 -14q80 0 141 20q64 21 110 55t72 82q25 46 25 103q0 60 -33 93
t-120 38zM526 420q59 0 96 25t59 67q23 43 31 90q9 50 9 98q0 60 -11 107q-12 52 -34 90q-22 37 -61 61q-38 23 -89 23q-52 0 -90 -23q-36 -21 -60 -61q-23 -38 -34 -90q-10 -49 -10 -107q0 -44 8 -97q7 -48 31 -91t59 -67q37 -25 96 -25zM707 1163l-181 121l-178 -121h-78
l176 250h158l180 -250h-77z" />
    <glyph glyph-name="Gbreve" unicode="&#x11e;" horiz-adv-x="1574" 
d="M1378 -2l-110 53q-9 -4 -61 -22q-38 -13 -101 -28q-61 -14 -124 -23q-66 -9 -128 -9q-134 0 -271 54q-135 53 -240 149t-170 230q-64 132 -64 298q0 178 73 314q74 138 192 232q124 99 263 146q147 50 289 50q58 0 117 -7q60 -7 122 -18q73 -13 111 -24q55 -16 82 -27
v-236h-39q-53 59 -104 105q-47 42 -96 70q-42 24 -97 37q-50 12 -105 12q-119 0 -224 -47q-101 -45 -181 -133q-78 -86 -122 -205q-44 -120 -44 -262q0 -139 42 -255q42 -114 115 -200q72 -84 172 -131t216 -47q45 0 93 6q47 6 91 15q20 4 77 19q33 9 46 15v412q0 54 -35 71
l-127 64v31h484v-31l-86 -49q-35 -21 -35 -72v-557h-21zM893 1663q59 0 106 30q49 31 78 93h76q-6 -36 -27 -88q-17 -41 -49 -82q-29 -36 -77 -61q-45 -23 -107 -23q-63 0 -108 23q-46 24 -76 61q-34 43 -50 82q-19 48 -26 88h76q30 -63 77 -93q46 -30 107 -30z" />
    <glyph glyph-name="gbreve" unicode="&#x11f;" horiz-adv-x="1054" 
d="M526 338q-40 0 -81 6q-38 6 -78 21q-33 -33 -48 -67q-14 -32 -14 -62q0 -67 70 -72l403 -21q128 -6 200 -66q73 -61 73 -175q0 -102 -58 -184q-56 -80 -144 -136q-87 -55 -194 -84q-105 -28 -204 -28q-81 0 -157 18q-78 18 -138 52q-65 36 -100 83q-38 50 -38 111
q0 45 21 84q21 40 54 71q36 34 76 60q37 24 85 47q-43 22 -64 59q-22 38 -22 84q0 53 34 112q36 62 117 136q-86 44 -142 122t-56 196q0 84 32 153q32 68 86 115q55 47 126 71q75 25 151 25q67 0 122 -16q59 -17 114 -49l315 55h25l-21 -141h-217q34 -44 57 -96
q23 -54 23 -120q0 -79 -32 -146t-87 -116q-53 -47 -129 -75q-74 -27 -160 -27zM381 -31q-10 0 -20 1q-20 2 -44 7q-41 -29 -78 -79q-38 -52 -38 -117q0 -53 27 -93q26 -39 73 -69q44 -28 103 -43q55 -14 122 -14q80 0 141 20q64 21 110 55t72 82q25 46 25 103q0 60 -33 93
t-120 38zM526 420q59 0 96 25t59 67q23 43 31 90q9 50 9 98q0 60 -11 107q-12 52 -34 90q-22 37 -61 61q-38 23 -89 23q-52 0 -90 -23q-36 -21 -60 -61q-23 -38 -34 -90q-10 -49 -10 -107q0 -44 8 -97q7 -48 31 -91t59 -67q37 -25 96 -25zM526 1290q60 0 107 30q49 31 78 93
h75q-7 -40 -26 -88q-17 -41 -49 -82q-28 -35 -77 -60q-46 -24 -108 -24q-60 0 -107 24q-49 25 -77 60q-32 41 -49 82q-21 52 -27 88h76q29 -62 78 -93q47 -30 106 -30z" />
    <glyph glyph-name="Gdotaccent" unicode="&#x120;" horiz-adv-x="1574" 
d="M1378 -2l-110 53q-9 -4 -61 -22q-38 -13 -101 -28q-61 -14 -124 -23q-66 -9 -128 -9q-134 0 -271 54q-135 53 -240 149t-170 230q-64 132 -64 298q0 178 73 314q74 138 192 232q124 99 263 146q147 50 289 50q58 0 117 -7q60 -7 122 -18q73 -13 111 -24q55 -16 82 -27
v-236h-39q-53 59 -104 105q-47 42 -96 70q-42 24 -97 37q-50 12 -105 12q-119 0 -224 -47q-101 -45 -181 -133q-78 -86 -122 -205q-44 -120 -44 -262q0 -139 42 -255q42 -114 115 -200q72 -84 172 -131t216 -47q45 0 93 6q47 6 91 15q20 4 77 19q33 9 46 15v412q0 54 -35 71
l-127 64v31h484v-31l-86 -49q-35 -21 -35 -72v-557h-21zM991 1655q0 -51 -36 -87t-87 -36t-87 36t-36 87t36 87t87 36t87 -36t36 -87z" />
    <glyph glyph-name="gdotaccent" unicode="&#x121;" horiz-adv-x="1054" 
d="M526 338q-40 0 -81 6q-38 6 -78 21q-33 -33 -48 -67q-14 -32 -14 -62q0 -67 70 -72l403 -21q128 -6 200 -66q73 -61 73 -175q0 -102 -58 -184q-56 -80 -144 -136q-87 -55 -194 -84q-105 -28 -204 -28q-81 0 -157 18q-78 18 -138 52q-65 36 -100 83q-38 50 -38 111
q0 45 21 84q21 40 54 71q36 34 76 60q37 24 85 47q-43 22 -64 59q-22 38 -22 84q0 53 34 112q36 62 117 136q-86 44 -142 122t-56 196q0 84 32 153q32 68 86 115q55 47 126 71q75 25 151 25q67 0 122 -16q59 -17 114 -49l315 55h25l-21 -141h-217q34 -44 57 -96
q23 -54 23 -120q0 -79 -32 -146t-87 -116q-53 -47 -129 -75q-74 -27 -160 -27zM381 -31q-10 0 -20 1q-20 2 -44 7q-41 -29 -78 -79q-38 -52 -38 -117q0 -53 27 -93q26 -39 73 -69q44 -28 103 -43q55 -14 122 -14q80 0 141 20q64 21 110 55t72 82q25 46 25 103q0 60 -33 93
t-120 38zM526 420q59 0 96 25t59 67q23 43 31 90q9 50 9 98q0 60 -11 107q-12 52 -34 90q-22 37 -61 61q-38 23 -89 23q-52 0 -90 -23q-36 -21 -60 -61q-23 -38 -34 -90q-10 -49 -10 -107q0 -44 8 -97q7 -48 31 -91t59 -67q37 -25 96 -25zM649 1319q0 -51 -36 -87t-87 -36
t-87 36t-36 87t36 87t87 36t87 -36t36 -87z" />
    <glyph glyph-name="Gcommaaccent" unicode="&#x122;" horiz-adv-x="1574" 
d="M1378 -2l-110 53q-9 -4 -61 -22q-38 -13 -101 -28q-61 -14 -124 -23q-66 -9 -128 -9q-134 0 -271 54q-135 53 -240 149t-170 230q-64 132 -64 298q0 178 73 314q74 138 192 232q124 99 263 146q147 50 289 50q58 0 117 -7q60 -7 122 -18q73 -13 111 -24q55 -16 82 -27
v-236h-39q-53 59 -104 105q-47 42 -96 70q-42 24 -97 37q-50 12 -105 12q-119 0 -224 -47q-101 -45 -181 -133q-78 -86 -122 -205q-44 -120 -44 -262q0 -139 42 -255q42 -114 115 -200q72 -84 172 -131t216 -47q45 0 93 6q47 6 91 15q20 4 77 19q33 9 46 15v412q0 54 -35 71
l-127 64v31h484v-31l-86 -49q-35 -21 -35 -72v-557h-21zM780 -588q43 56 57 95q15 42 15 71q0 26 -9 44q-8 16 -20 33q-9 12 -19 33q-9 18 -9 44q0 52 31 80t75 28q47 0 77 -35t30 -88q0 -38 -19 -86q-16 -40 -46 -90q-27 -45 -60 -84q-27 -32 -64 -67z" />
    <glyph glyph-name="gcommaaccent" unicode="&#x123;" horiz-adv-x="1054" 
d="M526 338q-40 0 -81 6q-38 6 -78 21q-33 -33 -48 -67q-14 -32 -14 -62q0 -67 70 -72l403 -21q128 -6 200 -66q73 -61 73 -175q0 -102 -58 -184q-56 -80 -144 -136q-87 -55 -194 -84q-105 -28 -204 -28q-81 0 -157 18q-78 18 -138 52q-65 36 -100 83q-38 50 -38 111
q0 45 21 84q21 40 54 71q36 34 76 60q37 24 85 47q-43 22 -64 59q-22 38 -22 84q0 53 34 112q36 62 117 136q-86 44 -142 122t-56 196q0 84 32 153q32 68 86 115q55 47 126 71q75 25 151 25q67 0 122 -16q59 -17 114 -49l315 55h25l-21 -141h-217q34 -44 57 -96
q23 -54 23 -120q0 -79 -32 -146t-87 -116q-53 -47 -129 -75q-74 -27 -160 -27zM381 -31q-10 0 -20 1q-20 2 -44 7q-41 -29 -78 -79q-38 -52 -38 -117q0 -53 27 -93q26 -39 73 -69q44 -28 103 -43q55 -14 122 -14q80 0 141 20q64 21 110 55t72 82q25 46 25 103q0 60 -33 93
t-120 38zM526 420q59 0 96 25t59 67q23 43 31 90q9 50 9 98q0 60 -11 107q-12 52 -34 90q-22 37 -61 61q-38 23 -89 23q-52 0 -90 -23q-36 -21 -60 -61q-23 -38 -34 -90q-10 -49 -10 -107q0 -44 8 -97q7 -48 31 -91t59 -67q37 -25 96 -25zM651 1599q-41 -53 -56 -95t-15 -70
t9 -45q12 -22 19 -32q12 -17 20 -33q9 -18 9 -44q0 -51 -32 -80t-75 -29q-46 0 -76 35q-30 34 -30 88q0 44 17 86q18 45 45 90q26 43 62 84q40 45 64 68z" />
    <glyph glyph-name="Hcircumflex" unicode="&#x124;" horiz-adv-x="1667" 
d="M250 1247q0 30 -7 45q-8 17 -28 27l-127 63v31h537v-31l-127 -63q-20 -10 -28 -27q-7 -15 -7 -45v-477h741v477q0 30 -7 45q-8 17 -28 27l-127 63v31h537v-31l-127 -63q-20 -10 -28 -27q-7 -15 -7 -45v-1081q0 -55 35 -72l127 -63v-31h-537v31l127 63q35 17 35 72v516
h-741v-516q0 -55 35 -72l127 -63v-31h-537v31l127 63q35 17 35 72v1081zM1014 1532l-180 121l-179 -121h-77l176 250h157l181 -250h-78z" />
    <glyph glyph-name="hcircumflex" unicode="&#x125;" horiz-adv-x="1294" 
d="M739 0v31l115 59q20 10 28 27q7 15 7 45v561q0 109 -54 159q-55 50 -139 50q-70 0 -140 -32q-67 -31 -126 -77v-661q0 -30 7 -45q8 -17 28 -27l115 -59v-31h-508v31l114 59q20 10 28 27q7 15 7 45v1159q0 59 -45 76l-129 47v39l352 102h31v-686q23 20 68 54q43 33 85 56
q44 24 99 43q50 17 109 17q57 0 111 -21q53 -20 96 -67q43 -46 68 -117q26 -73 26 -170v-532q0 -30 7 -45q8 -17 27 -27l115 -59v-31h-502zM502 1612l-180 121l-179 -121h-77l176 250h157l181 -250h-78z" />
    <glyph glyph-name="Hbar" unicode="&#x126;" horiz-adv-x="1667" 
d="M250 965h-113v94h113v188q0 30 -7 45q-8 17 -28 27l-127 63v31h537v-31l-127 -63q-20 -10 -28 -27q-7 -15 -7 -45v-188h741v188q0 30 -7 45q-8 17 -28 27l-127 63v31h537v-31l-127 -63q-20 -10 -28 -27q-7 -15 -7 -45v-188h103v-94h-103v-799q0 -55 35 -72l127 -63v-31
h-537v31l127 63q35 17 35 72v516h-741v-516q0 -55 35 -72l127 -63v-31h-537v31l127 63q35 17 35 72v799zM1204 770v195h-741v-195h741z" />
    <glyph glyph-name="hbar" unicode="&#x127;" horiz-adv-x="1294" 
d="M739 0v31l115 59q20 10 28 27q7 15 7 45v561q0 109 -54 159q-55 50 -139 50q-70 0 -140 -32q-67 -31 -126 -77v-661q0 -30 7 -45q8 -17 28 -27l115 -59v-31h-508v31l114 59q20 10 28 27q7 15 7 45v1050h-125v99h125v10q0 59 -45 76l-129 47v39l352 102h31v-274h246v-99
h-246v-313q23 20 68 54q43 33 85 56q44 24 99 43q50 17 109 17q57 0 111 -21q53 -20 96 -67q43 -46 68 -117q26 -73 26 -170v-532q0 -30 7 -45q8 -17 27 -27l115 -59v-31h-502z" />
    <glyph glyph-name="Itilde" unicode="&#x128;" horiz-adv-x="739" 
d="M475 162q0 -55 35 -72l139 -59v-31h-561v31l139 59q35 17 35 72v1089q0 55 -35 72l-139 59v31h561v-31l-139 -59q-35 -17 -35 -72v-1089zM524 1628q32 0 60 23q25 21 41 57l41 -25q-4 -15 -18 -42q-15 -31 -37 -55q-28 -31 -57 -49q-34 -21 -81 -21q-37 0 -75 12
q-34 11 -71 27q-58 25 -65 28q-30 12 -51 12q-29 0 -55 -22q-25 -21 -41 -57l-41 24q6 20 17 42q14 28 37 54q25 28 57 46q35 20 81 20q38 0 71 -11q44 -15 70 -26q23 -10 63 -26q28 -11 54 -11z" />
    <glyph glyph-name="itilde" unicode="&#x129;" horiz-adv-x="591" 
d="M72 0v31l114 59q20 10 28 27q7 15 7 45v649q0 38 -11 52q-14 17 -34 24l-129 45v35l342 102h35v-907q0 -30 7 -45q8 -17 28 -27l114 -59v-31h-501zM451 1337q31 0 59 23q25 21 41 57l41 -24q-4 -15 -18 -42q-18 -35 -36 -56q-27 -30 -58 -49q-34 -21 -81 -21
q-37 0 -74 12q-29 9 -72 28q-29 12 -65 27q-32 13 -51 13q-27 0 -55 -23q-25 -21 -41 -57l-41 24q6 20 17 42q15 31 37 55q24 27 58 46t81 19q37 0 70 -11q44 -15 70 -26q14 -6 37 -15t26 -10q30 -12 55 -12z" />
    <glyph glyph-name="Imacron" unicode="&#x12a;" horiz-adv-x="739" 
d="M475 162q0 -55 35 -72l139 -59v-31h-561v31l139 59q35 17 35 72v1089q0 55 -35 72l-139 59v31h561v-31l-139 -59q-35 -17 -35 -72v-1089zM113 1520v108h512v-108h-512z" />
    <glyph glyph-name="imacron" unicode="&#x12b;" horiz-adv-x="591" 
d="M72 0v31l114 59q20 10 28 27q7 15 7 45v649q0 38 -11 52q-14 17 -34 24l-129 45v35l342 102h35v-907q0 -30 7 -45q8 -17 28 -27l114 -59v-31h-501zM39 1243v109h512v-109h-512z" />
    <glyph glyph-name="Ibreve" unicode="&#x12c;" horiz-adv-x="739" 
d="M475 162q0 -55 35 -72l139 -59v-31h-561v31l139 59q35 17 35 72v1089q0 55 -35 72l-139 59v31h561v-31l-139 -59q-35 -17 -35 -72v-1089zM369 1663q59 0 106 30q49 31 78 93h76q-6 -36 -27 -88q-17 -41 -49 -82q-29 -36 -77 -61q-45 -23 -107 -23q-63 0 -108 23
q-48 25 -77 61q-32 41 -49 82q-19 48 -26 88h75q29 -62 78 -93q46 -30 107 -30z" />
    <glyph glyph-name="ibreve" unicode="&#x12d;" horiz-adv-x="591" 
d="M72 0v31l114 59q20 10 28 27q7 15 7 45v649q0 38 -11 52q-14 17 -34 24l-129 45v35l342 102h35v-907q0 -30 7 -45q8 -17 28 -27l114 -59v-31h-501zM297 1290q59 0 106 30q49 31 78 93h76q-6 -36 -27 -88q-17 -41 -49 -82q-28 -35 -77 -60q-46 -24 -107 -24t-108 24
q-48 25 -76 60q-34 43 -50 82q-19 48 -26 88h76q30 -63 77 -93q46 -30 107 -30z" />
    <glyph glyph-name="Iogonek" unicode="&#x12e;" horiz-adv-x="739" 
d="M635 -416q-55 -12 -105 -12q-98 0 -145 41t-47 100q0 47 23 89q24 43 56 83q34 42 65 69q33 29 55 46h-449v31l139 59q35 17 35 72v1089q0 55 -35 72l-139 59v31h561v-31l-139 -59q-35 -17 -35 -72v-1089q0 -55 35 -72l139 -59v-31h-49q-25 -29 -44 -65q-22 -40 -32 -72
q-12 -38 -18 -70q-6 -33 -6 -53q0 -48 27 -72t69 -24q21 0 39 6v-66z" />
    <glyph glyph-name="iogonek" unicode="&#x12f;" horiz-adv-x="632" 
d="M465 -416q-55 -12 -105 -12q-98 0 -145 41t-47 100q0 47 23 89q24 43 56 83q34 42 65 69q33 29 55 46h-289v31l115 59q19 10 27 27q7 15 7 45v649q0 38 -11 52q-14 17 -34 24l-129 45v35l342 102h35v-907q0 -30 7 -45q8 -17 28 -27l115 -59v-31h-150q-25 -29 -44 -65
q-22 -40 -32 -72q-12 -38 -18 -70q-6 -33 -6 -53q0 -48 27 -72t69 -24q21 0 39 6v-66zM449 1335q0 -51 -36 -87t-87 -36t-87 36t-36 87t36 87t87 36t87 -36t36 -87z" />
    <glyph glyph-name="Idotaccent" unicode="&#x130;" horiz-adv-x="739" 
d="M475 162q0 -55 35 -72l139 -59v-31h-561v31l139 59q35 17 35 72v1089q0 55 -35 72l-139 59v31h561v-31l-139 -59q-35 -17 -35 -72v-1089zM492 1655q0 -51 -36 -87t-87 -36t-87 36t-36 87t36 87t87 36t87 -36t36 -87z" />
    <glyph glyph-name="dotlessi" unicode="&#x131;" horiz-adv-x="591" 
d="M72 0v31l114 59q20 10 28 27q7 15 7 45v649q0 38 -11 52q-14 17 -34 24l-129 45v35l342 102h35v-907q0 -30 7 -45q8 -17 28 -27l114 -59v-31h-501z" />
    <glyph glyph-name="IJ" unicode="&#x132;" horiz-adv-x="1394" 
d="M475 162q0 -55 35 -72l139 -59v-31h-561v31l139 59q35 17 35 72v1089q0 55 -35 72l-139 59v31h561v-31l-139 -59q-35 -17 -35 -72v-1089zM1174 57q0 -115 -38 -196q-36 -77 -96 -135q-58 -56 -125 -92q-58 -31 -127 -62l-24 47q43 29 81 65t61 76q24 41 40 97
q15 53 15 120v1270q0 55 -35 72l-127 63v31h536v-31l-127 -63q-34 -16 -34 -72v-1190z" />
    <glyph glyph-name="ij" unicode="&#x133;" horiz-adv-x="1208" 
d="M449 1335q0 -51 -36 -87t-87 -36t-87 36t-36 87t36 87t87 36t87 -36t36 -87zM78 0v31l115 59q19 10 27 27q7 15 7 45v649q0 38 -11 52q-14 17 -34 24l-129 45v35l342 102h35v-907q0 -30 7 -45q8 -17 28 -27l115 -59v-31h-502zM1055 1335q0 -51 -36 -87t-87 -36t-87 36
t-36 87t36 87t87 36t87 -36t36 -87zM657 -483q74 47 125 134q52 89 52 224v934q0 28 -12 49q-12 22 -34 29l-129 45v35l342 102h35v-1114q0 -117 -36 -200q-36 -82 -90 -139t-115 -91q-57 -32 -113 -55z" />
    <glyph glyph-name="Jcircumflex" unicode="&#x134;" horiz-adv-x="684" 
d="M463 57q0 -115 -38 -196q-37 -79 -95 -135t-125 -92q-58 -31 -127 -62l-25 47q43 29 81 65q40 38 62 76q24 41 40 97q14 49 14 120v1270q0 55 -35 72l-127 63v31h537v-31l-127 -63q-35 -17 -35 -72v-1190zM522 1532l-180 121l-178 -121h-78l176 250h158l180 -250h-78z
" />
    <glyph glyph-name="jcircumflex" unicode="&#x135;" horiz-adv-x="604" 
d="M53 -483q74 47 125 134t51 224v934q0 30 -11 49q-12 22 -34 29l-129 45v35l342 102h35v-1114q0 -117 -36 -200q-36 -82 -90 -139q-52 -55 -116 -91q-60 -33 -112 -55zM481 1163l-180 121l-178 -121h-78l176 250h158l180 -250h-78z" />
    <glyph glyph-name="Kcommaaccent" unicode="&#x136;" horiz-adv-x="1474" 
d="M803 885l463 -699q36 -53 70 -80q36 -28 69 -45l63 -30v-31h-548v31q53 19 72 30q28 16 35 35q8 22 -4 51q-13 31 -42 80l-322 504l-196 -211v-354q0 -30 7 -45q8 -17 28 -27l127 -65v-29h-537v31l127 63q35 17 35 72v1081q0 55 -35 72l-127 63v31h537v-31l-127 -63
q-35 -17 -35 -72v-602l502 553q50 55 58 88t-44 62l-61 34v31h481v-31q-62 -22 -90 -35q-50 -22 -77 -38q-40 -23 -69 -47q-33 -27 -67 -64zM545 -588q41 53 56 95t15 71q0 26 -9 44q-10 21 -19 33q-12 17 -20 33q-9 18 -9 44q0 51 32 80q31 28 75 28q46 0 76 -35t30 -88
q0 -41 -18 -86q-16 -40 -46 -90q-25 -41 -61 -84q-31 -36 -63 -67z" />
    <glyph glyph-name="kcommaaccent" unicode="&#x137;" horiz-adv-x="1210" 
d="M74 0v31l114 59q20 10 28 27q7 15 7 45v1165q0 36 -7 50q-8 15 -38 26l-129 45v35l348 102h35v-1046l283 290q55 55 55 86q0 20 -24 35q-23 15 -56 25l-47 16v41h469v-39l-76 -30q-42 -17 -82 -51q-63 -54 -80 -70l-204 -197l520 -612v-33h-248l-410 528l-100 -94v-272
q0 -30 7 -45q8 -17 28 -27l115 -59v-31h-508zM492 -588q41 53 56 95t15 71q0 26 -9 44q-10 21 -19 33q-12 17 -20 33q-9 18 -9 44q0 51 32 80q31 28 74 28q47 0 77 -35t30 -88q0 -38 -19 -86q-16 -40 -46 -90q-27 -45 -60 -84q-27 -32 -64 -67z" />
    <glyph glyph-name="kgreenlandic" unicode="&#x138;" horiz-adv-x="1210" 
d="M80 0v31l115 59q19 10 27 27q7 15 7 45v649q0 36 -7 50q-8 15 -38 26l-129 45v35l342 102h35v-530l283 290q55 55 55 86q0 20 -24 35q-23 15 -56 25l-47 16v41h469v-39l-76 -30q-42 -17 -82 -51q-63 -54 -80 -70l-204 -197l520 -612v-33h-248l-410 528l-100 -94v-272
q0 -30 7 -45q8 -17 28 -27l115 -59v-31h-502z" />
    <glyph glyph-name="Lacute" unicode="&#x139;" horiz-adv-x="1150" 
d="M88 0v31l127 63q35 17 35 72v1081q0 55 -35 72l-127 63v31h537v-31l-127 -63q-35 -17 -35 -72v-1159h346q28 0 52 9q22 8 40 26l166 158h31l-41 -281h-969zM365 1532h-103l146 250h233z" />
    <glyph glyph-name="lacute" unicode="&#x13a;" horiz-adv-x="632" 
d="M86 0v31l115 59q19 10 27 27q8 18 8 45v1165q0 59 -46 76l-129 45v35l349 102h34v-1423q0 -27 8 -45q8 -17 27 -27l115 -59v-31h-508zM330 1638h-103l146 250h233z" />
    <glyph glyph-name="Lcommaaccent" unicode="&#x13b;" horiz-adv-x="1150" 
d="M88 0v31l127 63q35 17 35 72v1081q0 55 -35 72l-127 63v31h537v-31l-127 -63q-35 -17 -35 -72v-1159h346q28 0 52 9q22 8 40 26l166 158h31l-41 -281h-969zM428 -588q41 53 56 95q16 45 16 71q0 24 -10 44q-10 21 -19 33q-9 13 -19 33t-10 44q0 51 32 80q31 28 75 28
q47 0 77 -35q29 -33 29 -88q0 -41 -18 -86q-16 -40 -46 -90q-25 -41 -61 -84q-31 -36 -63 -67z" />
    <glyph glyph-name="lcommaaccent" unicode="&#x13c;" horiz-adv-x="632" 
d="M86 0v31l115 59q19 10 27 27q8 18 8 45v1165q0 59 -46 76l-129 45v35l349 102h34v-1423q0 -27 8 -45q8 -17 27 -27l115 -59v-31h-508zM203 -588q41 53 56 95t15 71q0 26 -9 44q-10 21 -19 33q-12 18 -20 33q-9 18 -9 44q0 51 32 80q31 28 75 28q46 0 76 -35t30 -88
q0 -41 -18 -86q-16 -40 -46 -90q-25 -41 -61 -84q-31 -36 -63 -67z" />
    <glyph glyph-name="Lcaron" unicode="&#x13d;" horiz-adv-x="1150" 
d="M88 0v31l127 63q35 17 35 72v1081q0 55 -35 72l-127 63v31h537v-31l-127 -63q-35 -17 -35 -72v-1159h346q28 0 52 9q22 8 40 26l166 158h31l-41 -281h-969zM772 1014q41 53 56 95q16 45 16 71t-9 44q-6 12 -20 32q-9 12 -19 33q-10 20 -10 44q0 51 32 80t75 29
q47 0 77 -35q29 -33 29 -88q0 -41 -18 -86q-16 -40 -46 -90q-25 -41 -61 -84q-35 -42 -63 -68z" />
    <glyph glyph-name="lcaron" unicode="&#x13e;" horiz-adv-x="843" 
d="M86 0v31l115 59q19 10 27 27q8 18 8 45v1165q0 59 -46 76l-129 45v35l349 102h34v-1423q0 -27 8 -45q8 -17 27 -27l115 -59v-31h-508zM590 1014q41 53 56 95q16 45 16 71q0 24 -10 44q-8 17 -19 32q-12 17 -20 33q-9 18 -9 44q0 51 32 80t75 29q46 0 76 -35t30 -88
q0 -41 -18 -86q-16 -40 -46 -90q-25 -41 -61 -84q-35 -42 -63 -68z" />
    <glyph glyph-name="Ldot" unicode="&#x13f;" horiz-adv-x="1150" 
d="M88 0v31l127 63q35 17 35 72v1081q0 55 -35 72l-127 63v31h537v-31l-127 -63q-35 -17 -35 -72v-1159h346q28 0 52 9q22 8 40 26l166 158h31l-41 -281h-969zM870 602q-55 0 -94 39t-39 94q0 53 39 92t94 39q54 0 93 -39q38 -38 38 -92q0 -56 -38 -94q-39 -39 -93 -39z" />
    <glyph glyph-name="ldot" unicode="&#x140;" horiz-adv-x="856" 
d="M86 0v31l115 59q19 10 27 27q8 18 8 45v1165q0 59 -46 76l-129 45v35l349 102h34v-1423q0 -27 8 -45q8 -17 27 -27l115 -59v-31h-508zM711 598q-56 0 -95 39q-38 38 -38 94q0 54 38 92q39 39 95 39q53 0 92 -39t39 -92q0 -55 -39 -94t-92 -39z" />
    <glyph glyph-name="Lslash" unicode="&#x141;" horiz-adv-x="1110" 
d="M68 0v31l127 63q34 16 34 72v418l-161 -49v108l161 49v555q0 56 -34 72l-127 63v31h536v-31l-127 -63q-35 -17 -35 -72v-491l306 92v-109l-306 -92v-559h346q29 0 53 9q22 8 40 26l166 158h30l-41 -281h-968z" />
    <glyph glyph-name="lslash" unicode="&#x142;" horiz-adv-x="591" 
d="M66 0v31l114 59q20 10 28 27q7 15 7 45v618l-162 -61v108l162 62v397q0 60 -45 76l-129 45v35l348 102h35v-577l172 65v-108l-172 -66v-696q0 -30 7 -45q8 -17 28 -27l114 -59v-31h-507z" />
    <glyph glyph-name="Nacute" unicode="&#x143;" horiz-adv-x="1652" 
d="M1298 1192q0 34 -5 62q-5 26 -16 42q-14 19 -29 29q-22 14 -40 23l-71 34v31h428v-31l-74 -34q-24 -11 -39 -22q-16 -12 -28 -28q-11 -16 -16 -42q-5 -28 -5 -64v-1192h-107l-942 1182v-961q0 -34 5 -62q4 -25 17 -42q15 -20 28 -29q17 -11 40 -22l72 -35v-31h-428v31
l74 35q28 13 39 21q14 10 27 28q13 17 17 41q5 27 5 65v1006q0 48 -14 66q-16 20 -35 30l-113 59v31h352l858 -1067v846zM801 1532h-103l146 250h233z" />
    <glyph glyph-name="nacute" unicode="&#x144;" horiz-adv-x="1294" 
d="M739 0v31l115 59q20 10 28 27q7 15 7 45v561q0 109 -54 159q-55 50 -139 50q-70 0 -140 -32q-67 -31 -126 -77v-661q0 -30 7 -45q8 -17 28 -27l115 -59v-31h-502v31l115 59q19 10 27 27q7 15 7 45v643q0 59 -45 76l-129 47v39l338 102h31v-178q18 18 54 48q35 29 85 58
q56 32 108 51q59 21 122 21q57 0 111 -21q53 -20 96 -67q43 -46 68 -117q26 -73 26 -170v-532q0 -30 7 -45q8 -17 27 -27l115 -59v-31h-502zM559 1163h-102l145 250h234z" />
    <glyph glyph-name="Ncommaaccent" unicode="&#x145;" horiz-adv-x="1652" 
d="M1298 1192q0 34 -5 62q-5 26 -16 42q-14 19 -29 29q-22 14 -40 23l-71 34v31h428v-31l-74 -34q-24 -11 -39 -22q-16 -12 -28 -28q-11 -16 -16 -42q-5 -28 -5 -64v-1192h-107l-942 1182v-961q0 -34 5 -62q4 -25 17 -42q15 -20 28 -29q17 -11 40 -22l72 -35v-31h-428v31
l74 35q28 13 39 21q14 10 27 28q13 17 17 41q5 27 5 65v1006q0 48 -14 66q-16 20 -35 30l-113 59v31h352l858 -1067v846zM713 -588q41 53 56 95t15 71q0 26 -9 44q-10 21 -19 33q-12 17 -20 33q-9 18 -9 44q0 51 32 80q31 28 75 28q46 0 76 -35t30 -88q0 -41 -18 -86
q-16 -40 -46 -90q-25 -41 -61 -84q-31 -36 -63 -67z" />
    <glyph glyph-name="ncommaaccent" unicode="&#x146;" horiz-adv-x="1294" 
d="M739 0v31l115 59q20 10 28 27q7 15 7 45v561q0 109 -54 159q-55 50 -139 50q-70 0 -140 -32q-67 -31 -126 -77v-661q0 -30 7 -45q8 -17 28 -27l115 -59v-31h-502v31l115 59q19 10 27 27q7 15 7 45v643q0 59 -45 76l-129 47v39l338 102h31v-178q18 18 54 48q35 29 85 58
q56 32 108 51q59 21 122 21q57 0 111 -21q53 -20 96 -67q43 -46 68 -117q26 -73 26 -170v-532q0 -30 7 -45q8 -17 27 -27l115 -59v-31h-502zM532 -588q43 56 57 95q15 42 15 71q0 26 -9 44q-8 16 -20 33q-9 12 -19 33q-9 18 -9 44q0 51 32 80q31 28 74 28q47 0 77 -35
t30 -88q0 -38 -19 -86q-16 -40 -46 -90q-27 -45 -60 -84q-27 -32 -64 -67z" />
    <glyph glyph-name="Ncaron" unicode="&#x147;" horiz-adv-x="1652" 
d="M1298 1192q0 34 -5 62q-5 26 -16 42q-14 19 -29 29q-22 14 -40 23l-71 34v31h428v-31l-74 -34q-24 -11 -39 -22q-16 -12 -28 -28q-11 -16 -16 -42q-5 -28 -5 -64v-1192h-107l-942 1182v-961q0 -34 5 -62q4 -25 17 -42q15 -20 28 -29q17 -11 40 -22l72 -35v-31h-428v31
l74 35q28 13 39 21q14 10 27 28q13 17 17 41q5 27 5 65v1006q0 48 -14 66q-16 20 -35 30l-113 59v31h352l858 -1067v846zM1083 1782l-180 -250h-158l-176 250h78l178 -121l181 121h77z" />
    <glyph glyph-name="ncaron" unicode="&#x148;" horiz-adv-x="1294" 
d="M739 0v31l115 59q20 10 28 27q7 15 7 45v561q0 109 -54 159q-55 50 -139 50q-70 0 -140 -32q-67 -31 -126 -77v-661q0 -30 7 -45q8 -17 28 -27l115 -59v-31h-502v31l115 59q19 10 27 27q7 15 7 45v643q0 59 -45 76l-129 47v39l338 102h31v-178q18 18 54 48q35 29 85 58
q56 32 108 51q59 21 122 21q57 0 111 -21q53 -20 96 -67q43 -46 68 -117q26 -73 26 -170v-532q0 -30 7 -45q8 -17 27 -27l115 -59v-31h-502zM903 1413l-180 -250h-158l-176 250h78l178 -121l180 121h78z" />
    <glyph glyph-name="napostrophe" unicode="&#x149;" horiz-adv-x="1294" 
d="M739 0v31l115 59q20 10 28 27q7 15 7 45v561q0 109 -54 159q-55 50 -139 50q-70 0 -140 -32q-67 -31 -126 -77v-661q0 -30 7 -45q8 -17 28 -27l115 -59v-31h-502v31l115 59q19 10 27 27q7 15 7 45v643q0 59 -45 76l-129 47v39l338 102h31v-178q18 18 54 48q35 29 85 58
q56 32 108 51q59 21 122 21q57 0 111 -21q53 -20 96 -67q43 -46 68 -117q26 -73 26 -170v-532q0 -30 7 -45q8 -17 27 -27l115 -59v-31h-502zM190 1155q43 56 57 95q15 42 15 71q0 26 -9 44q-8 15 -20 33q-9 12 -19 33q-9 18 -9 44q0 50 32 79t74 29q47 0 77 -35
q30 -34 30 -88q0 -38 -19 -86q-16 -40 -46 -90q-27 -45 -60 -84q-27 -32 -64 -67z" />
    <glyph glyph-name="Eng" unicode="&#x14a;" horiz-adv-x="1652" 
d="M1298 1192q0 34 -5 62q-5 26 -16 42q-14 19 -29 29q-22 14 -40 23l-71 34v31h428v-31l-74 -34q-24 -11 -39 -22q-16 -12 -28 -28q-11 -16 -16 -42q-5 -28 -5 -64v-967q0 -88 -20 -190q-19 -96 -60 -180q-40 -82 -104 -135q-62 -52 -152 -52q-100 0 -100 86q0 19 4 32
q6 20 14 36q23 -8 38 -12q20 -5 40 -5q42 0 82 19q35 17 64 49q25 28 45 69q17 36 28 74l-928 1155v-950q0 -34 5 -62q4 -25 17 -42q15 -20 28 -29q17 -11 40 -22l72 -35v-31h-428v31l74 35q28 13 39 21q14 10 27 28q13 17 17 41q5 27 5 65v1006q0 48 -14 66q-16 20 -35 30
l-113 59v31h352l858 -1055v834z" />
    <glyph glyph-name="eng" unicode="&#x14b;" horiz-adv-x="1294" 
d="M713 -483q74 47 125 134t51 224v848q0 109 -54 159q-55 50 -139 50q-70 0 -140 -32q-67 -31 -126 -77v-661q0 -30 7 -45q8 -17 28 -27l115 -59v-31h-502v31l115 59q19 10 27 27q7 15 7 45v643q0 59 -45 76l-129 47v39l338 102h31v-178q18 18 54 48q35 29 85 58
q56 32 108 51q59 21 122 21q57 0 111 -21q53 -20 96 -67q43 -46 68 -117q26 -73 26 -170v-739q0 -117 -36 -200q-36 -82 -90 -139q-52 -55 -116 -91q-57 -32 -113 -55z" />
    <glyph glyph-name="Omacron" unicode="&#x14c;" horiz-adv-x="1658" 
d="M829 -31q-135 0 -272 54q-133 52 -238 150q-103 96 -167 231q-64 136 -64 294q0 162 67 301q66 136 172 236q105 99 237 153t265 54q131 0 265 -54q133 -54 238 -153q106 -100 172 -236q67 -139 67 -301q0 -158 -64 -294q-63 -134 -168 -231q-106 -99 -237 -150
q-137 -54 -273 -54zM829 57q110 0 204 53t159 140q64 86 102 206q37 117 37 251q0 131 -37 248q-39 122 -102 207q-68 91 -159 141q-93 51 -204 51q-110 0 -203 -51q-91 -50 -159 -141q-63 -85 -102 -207q-37 -117 -37 -248q0 -134 37 -251q38 -120 102 -206
q65 -87 159 -140t203 -53zM573 1520v108h512v-108h-512z" />
    <glyph glyph-name="omacron" unicode="&#x14d;" horiz-adv-x="1243" 
d="M621 -25q-110 0 -206 43q-99 44 -170 118q-74 77 -115 175q-42 101 -42 215q0 116 44 216q44 99 118 172q76 74 170 114q97 41 201 41q102 0 201 -41q95 -39 171 -114q74 -73 118 -172q44 -100 44 -216t-43 -215t-116 -175q-71 -74 -170 -118q-96 -43 -205 -43zM621 63
q87 0 143 40q58 41 92 106q36 68 50 147q16 88 16 168q0 92 -19 179q-19 85 -55 145q-38 62 -93 97q-57 36 -134 36q-78 0 -135 -36q-55 -35 -93 -97q-36 -60 -55 -145q-19 -87 -19 -179q0 -80 16 -168q14 -79 50 -147q34 -65 92 -106q56 -40 144 -40zM365 1243v109h512
v-109h-512z" />
    <glyph glyph-name="Obreve" unicode="&#x14e;" horiz-adv-x="1658" 
d="M829 -31q-135 0 -272 54q-133 52 -238 150q-103 96 -167 231q-64 136 -64 294q0 162 67 301q66 136 172 236q105 99 237 153t265 54q131 0 265 -54q133 -54 238 -153q106 -100 172 -236q67 -139 67 -301q0 -158 -64 -294q-63 -134 -168 -231q-106 -99 -237 -150
q-137 -54 -273 -54zM829 57q110 0 204 53t159 140q64 86 102 206q37 117 37 251q0 131 -37 248q-39 122 -102 207q-68 91 -159 141q-93 51 -204 51q-110 0 -203 -51q-91 -50 -159 -141q-63 -85 -102 -207q-37 -117 -37 -248q0 -134 37 -251q38 -120 102 -206
q65 -87 159 -140t203 -53zM829 1663q61 0 107 30q49 31 78 93h76q-6 -36 -27 -88q-17 -41 -49 -82q-29 -36 -77 -61q-45 -23 -108 -23q-62 0 -107 23q-48 25 -77 61q-32 41 -49 82q-21 52 -27 88h76q29 -62 78 -93q47 -30 106 -30z" />
    <glyph glyph-name="obreve" unicode="&#x14f;" horiz-adv-x="1243" 
d="M621 -25q-110 0 -206 43q-99 44 -170 118q-74 77 -115 175q-42 101 -42 215q0 116 44 216q44 99 118 172q76 74 170 114q97 41 201 41q102 0 201 -41q95 -39 171 -114q74 -73 118 -172q44 -100 44 -216t-43 -215t-116 -175q-71 -74 -170 -118q-96 -43 -205 -43zM621 63
q87 0 143 40q58 41 92 106q36 68 50 147q16 88 16 168q0 92 -19 179q-19 85 -55 145q-38 62 -93 97q-57 36 -134 36q-78 0 -135 -36q-55 -35 -93 -97q-36 -60 -55 -145q-19 -87 -19 -179q0 -80 16 -168q14 -79 50 -147q34 -65 92 -106q56 -40 144 -40zM621 1290q59 0 106 30
q49 31 78 93h76q-6 -36 -27 -88q-17 -41 -49 -82q-28 -35 -77 -60q-46 -24 -107 -24t-108 24q-49 25 -77 60q-32 41 -49 82q-21 52 -27 88h76q29 -62 78 -93q46 -30 107 -30z" />
    <glyph glyph-name="Ohungarumlaut" unicode="&#x150;" horiz-adv-x="1658" 
d="M829 -31q-135 0 -272 54q-133 52 -238 150q-103 96 -167 231q-64 136 -64 294q0 162 67 301q66 136 172 236q105 99 237 153t265 54q131 0 265 -54q133 -54 238 -153q106 -100 172 -236q67 -139 67 -301q0 -158 -64 -294q-63 -134 -168 -231q-106 -99 -237 -150
q-137 -54 -273 -54zM829 57q110 0 204 53t159 140q64 86 102 206q37 117 37 251q0 131 -37 248q-39 122 -102 207q-68 91 -159 141q-93 51 -204 51q-110 0 -203 -51q-91 -50 -159 -141q-63 -85 -102 -207q-37 -117 -37 -248q0 -134 37 -251q38 -120 102 -206
q65 -87 159 -140t203 -53zM666 1532h-82l92 250h155zM911 1532h-82l93 250h155z" />
    <glyph glyph-name="ohungarumlaut" unicode="&#x151;" horiz-adv-x="1243" 
d="M621 -25q-110 0 -206 43q-99 44 -170 118q-74 77 -115 175q-42 101 -42 215q0 116 44 216q44 99 118 172q76 74 170 114q97 41 201 41q102 0 201 -41q95 -39 171 -114q74 -73 118 -172q44 -100 44 -216t-43 -215t-116 -175q-71 -74 -170 -118q-96 -43 -205 -43zM621 63
q87 0 143 40q58 41 92 106q36 68 50 147q16 88 16 168q0 92 -19 179q-19 85 -55 145q-38 62 -93 97q-57 36 -134 36q-78 0 -135 -36q-55 -35 -93 -97q-36 -60 -55 -145q-19 -87 -19 -179q0 -80 16 -168q14 -79 50 -147q34 -65 92 -106q56 -40 144 -40zM457 1163h-82l92 250
h156zM702 1163h-81l92 250h155z" />
    <glyph glyph-name="OE" unicode="&#x152;" horiz-adv-x="2263" 
d="M827 -31q-135 0 -271 54q-132 53 -237 150q-103 96 -167 231q-64 136 -64 294q0 164 66 300t172 235q104 96 237 153q132 56 264 56q142 0 273 -64q127 -62 227 -174v209h768v-248h-31l-122 125q-17 20 -40 28q-20 7 -53 7h-309v-555h246q28 0 60 12q25 10 52 23l78 45
h27v-246h-27l-78 45q-18 9 -52 22q-29 11 -60 11h-246v-594h367q28 0 52 9q22 8 40 26l166 158h30l-41 -281h-827v201q-95 -109 -222 -170q-129 -62 -278 -62zM829 57q110 0 204 53t159 140q64 86 102 206q37 117 37 251q0 131 -37 248q-39 122 -102 207q-68 91 -159 141
q-93 51 -204 51q-110 0 -203 -51q-91 -50 -159 -141q-63 -85 -102 -207q-37 -117 -37 -248q0 -134 37 -251q38 -120 102 -206q65 -87 159 -140t203 -53z" />
    <glyph glyph-name="oe" unicode="&#x153;" horiz-adv-x="1873" 
d="M1128 557q0 -111 29 -193q28 -81 80 -134q50 -51 121 -76q72 -25 149 -25q48 0 89 7q45 8 80 18q49 14 64 21q29 13 42 22l28 -33q-35 -31 -70 -60q-40 -32 -91 -61t-114 -48q-65 -20 -134 -20q-107 0 -218 51q-106 49 -173 158q-65 -94 -165 -152q-99 -57 -224 -57
q-110 0 -206 43q-99 44 -170 118q-74 77 -115 175q-42 101 -42 215q0 116 44 216q44 99 118 172q76 74 170 114q97 41 201 41q131 0 234 -61q102 -61 169 -170q77 118 174 174q99 57 229 57q78 0 141 -20q67 -21 118 -71t81 -135q31 -88 31 -214v-35q0 -13 -2 -37h-668z
M621 63q87 0 143 40q58 41 92 106q36 68 50 147q16 88 16 168q0 92 -19 179q-19 85 -55 145q-38 62 -93 97q-57 36 -134 36q-78 0 -135 -36q-55 -35 -93 -97q-36 -60 -55 -145q-19 -87 -19 -179q0 -80 16 -168q14 -79 50 -147q34 -65 92 -106q56 -40 144 -40zM1401 981
q-114 0 -183 -88q-68 -88 -85 -250h469q0 185 -53 262q-52 76 -148 76z" />
    <glyph glyph-name="Racute" unicode="&#x154;" horiz-adv-x="1333" 
d="M639 729q60 0 114 17q56 18 100 54q44 37 71 93q26 55 26 137q0 70 -21 125t-59 93q-39 39 -88 58q-50 19 -108 19h-211v-596h176zM975 0l-383 641h-129v-475q0 -30 7 -45q8 -17 28 -27l127 -67v-27h-537v31l127 63q35 17 35 72v1081q0 55 -35 72l-127 63v31h617
q217 0 341 -87q123 -86 123 -261q0 -90 -31 -153q-31 -64 -84 -109q-54 -46 -117 -74q-67 -30 -128 -47l301 -475q29 -46 58 -75t60 -49q30 -19 59 -31q11 -5 32 -12l27 -9v-31h-371zM655 1532h-102l145 250h234z" />
    <glyph glyph-name="racute" unicode="&#x155;" horiz-adv-x="903" 
d="M78 0v31l115 59q19 10 27 27q7 15 7 45v649q0 59 -45 76l-129 45v35l338 102h31v-229q17 30 52 72q36 42 76 75q41 34 91 58q49 24 98 24q60 0 95 -35q34 -34 34 -88q0 -56 -35 -91q-36 -36 -85 -36q-44 0 -78 29q-32 28 -43 72q-23 -6 -52 -22q-23 -13 -53 -36
q-22 -17 -50 -45q-22 -22 -42 -47v-598q0 -28 6 -45q6 -16 29 -27l164 -69v-31h-551zM365 1163h-103l146 250h233z" />
    <glyph glyph-name="Rcommaaccent" unicode="&#x156;" horiz-adv-x="1333" 
d="M639 729q60 0 114 17q56 18 100 54q44 37 71 93q26 55 26 137q0 70 -21 125t-59 93q-39 39 -88 58q-50 19 -108 19h-211v-596h176zM975 0l-383 641h-129v-475q0 -30 7 -45q8 -17 28 -27l127 -67v-27h-537v31l127 63q35 17 35 72v1081q0 55 -35 72l-127 63v31h617
q217 0 341 -87q123 -86 123 -261q0 -90 -31 -153q-31 -64 -84 -109q-54 -46 -117 -74q-67 -30 -128 -47l301 -475q29 -46 58 -75t60 -49q30 -19 59 -31q11 -5 32 -12l27 -9v-31h-371zM596 -588q41 53 56 95q16 45 16 71q0 24 -10 44q-10 21 -19 33t-19 33q-10 20 -10 44
q0 51 32 80q31 28 75 28q47 0 77 -35q29 -33 29 -88q0 -41 -18 -86q-16 -40 -46 -90q-25 -41 -61 -84q-31 -36 -63 -67z" />
    <glyph glyph-name="rcommaaccent" unicode="&#x157;" horiz-adv-x="903" 
d="M78 0v31l115 59q19 10 27 27q7 15 7 45v649q0 59 -45 76l-129 45v35l338 102h31v-229q17 30 52 72q36 42 76 75q41 34 91 58q49 24 98 24q60 0 95 -35q34 -34 34 -88q0 -56 -35 -91q-36 -36 -85 -36q-44 0 -78 29q-32 28 -43 72q-23 -6 -52 -22q-23 -13 -53 -36
q-22 -17 -50 -45q-22 -22 -42 -47v-598q0 -28 6 -45q6 -16 29 -27l164 -69v-31h-551zM203 -588q41 53 56 95t15 71q0 26 -9 44q-10 21 -19 33q-12 18 -20 33q-9 18 -9 44q0 51 32 80q31 28 75 28q46 0 76 -35t30 -88q0 -41 -18 -86q-16 -40 -46 -90q-25 -41 -61 -84
q-31 -36 -63 -67z" />
    <glyph glyph-name="Rcaron" unicode="&#x158;" horiz-adv-x="1333" 
d="M639 729q60 0 114 17q56 18 100 54q44 37 71 93q26 55 26 137q0 70 -21 125t-59 93q-39 39 -88 58q-50 19 -108 19h-211v-596h176zM975 0l-383 641h-129v-475q0 -30 7 -45q8 -17 28 -27l127 -67v-27h-537v31l127 63q35 17 35 72v1081q0 55 -35 72l-127 63v31h617
q217 0 341 -87q123 -86 123 -261q0 -90 -31 -153q-31 -64 -84 -109q-54 -46 -117 -74q-67 -30 -128 -47l301 -475q29 -46 58 -75t60 -49q30 -19 59 -31q11 -5 32 -12l27 -9v-31h-371zM831 1782l-180 -250h-157l-177 250h78l178 -121l181 121h77z" />
    <glyph glyph-name="rcaron" unicode="&#x159;" horiz-adv-x="903" 
d="M78 0v31l115 59q19 10 27 27q7 15 7 45v649q0 59 -45 76l-129 45v35l338 102h31v-229q17 30 52 72q36 42 76 75q41 34 91 58q49 24 98 24q60 0 95 -35q34 -34 34 -88q0 -56 -35 -91q-36 -36 -85 -36q-44 0 -78 29q-32 28 -43 72q-23 -6 -52 -22q-23 -13 -53 -36
q-22 -17 -50 -45q-22 -22 -42 -47v-598q0 -28 6 -45q6 -16 29 -27l164 -69v-31h-551zM709 1413l-181 -250h-157l-176 250h77l179 -121l180 121h78z" />
    <glyph glyph-name="Sacute" unicode="&#x15a;" horiz-adv-x="1052" 
d="M104 354h35q43 -83 82 -140q37 -55 80 -91q41 -35 85 -50q46 -16 97 -16q59 0 111 19q47 17 83 50q33 30 52 74t19 91q0 80 -49 144t-119 118q-65 50 -156 107q-86 54 -156 112q-72 60 -120 132t-48 169q0 83 36 150q35 66 96 116q58 48 141 76q80 27 166 27
q87 0 174 -25q79 -22 166 -59v-240h-43q-76 123 -152 179q-76 57 -160 57q-42 0 -88 -16q-41 -14 -76 -43q-31 -26 -53 -66q-20 -37 -20 -86q0 -75 48 -134q49 -60 120 -113q73 -55 155 -106q86 -54 156 -115q73 -64 120 -139q48 -77 48 -178q0 -76 -32 -148
q-33 -73 -91 -124q-62 -55 -145 -85q-87 -32 -195 -32q-54 0 -102 7q-59 9 -99 19q-46 12 -90 27q-42 15 -76 33v299zM551 1532h-102l145 250h233z" />
    <glyph glyph-name="sacute" unicode="&#x15b;" horiz-adv-x="917" 
d="M102 291h39q46 -67 89 -113q41 -44 80 -72q33 -23 75 -37q37 -12 74 -12q91 0 144 48q52 48 52 114q0 57 -40 97q-39 39 -101 74q-41 23 -131 68q-76 38 -131 77q-62 44 -101 102q-40 59 -40 143q0 68 27 121q27 52 75 91t113 58q64 19 143 19q65 0 139 -15
q72 -15 146 -44v-207h-43q-43 57 -78 93q-29 30 -66 56q-31 22 -60 29q-32 8 -61 8q-83 0 -132 -41q-48 -40 -48 -102q0 -56 41 -97q38 -38 103 -73q59 -31 134 -66q79 -36 134 -75q62 -43 102 -105q41 -62 41 -151q0 -139 -101 -221q-103 -83 -286 -83q-76 0 -163 19
q-83 18 -169 65v232zM467 1163h-102l145 250h233z" />
    <glyph glyph-name="Scircumflex" unicode="&#x15c;" horiz-adv-x="1052" 
d="M104 354h35q43 -83 82 -140q37 -55 80 -91q41 -35 85 -50q46 -16 97 -16q59 0 111 19q47 17 83 50q33 30 52 74t19 91q0 80 -49 144t-119 118q-65 50 -156 107q-86 54 -156 112q-72 60 -120 132t-48 169q0 83 36 150q35 66 96 116q58 48 141 76q80 27 166 27
q87 0 174 -25q79 -22 166 -59v-240h-43q-76 123 -152 179q-76 57 -160 57q-42 0 -88 -16q-41 -14 -76 -43q-31 -26 -53 -66q-20 -37 -20 -86q0 -75 48 -134q49 -60 120 -113q73 -55 155 -106q86 -54 156 -115q73 -64 120 -139q48 -77 48 -178q0 -76 -32 -148
q-33 -73 -91 -124q-62 -55 -145 -85q-87 -32 -195 -32q-54 0 -102 7q-59 9 -99 19q-46 12 -90 27q-42 15 -76 33v299zM694 1532l-180 121l-178 -121h-78l176 250h158l180 -250h-78z" />
    <glyph glyph-name="scircumflex" unicode="&#x15d;" horiz-adv-x="917" 
d="M102 291h39q46 -67 89 -113q41 -44 80 -72q33 -23 75 -37q37 -12 74 -12q91 0 144 48q52 48 52 114q0 57 -40 97q-39 39 -101 74q-41 23 -131 68q-76 38 -131 77q-62 44 -101 102q-40 59 -40 143q0 68 27 121q27 52 75 91t113 58q64 19 143 19q65 0 139 -15
q72 -15 146 -44v-207h-43q-43 57 -78 93q-29 30 -66 56q-31 22 -60 29q-32 8 -61 8q-83 0 -132 -41q-48 -40 -48 -102q0 -56 41 -97q38 -38 103 -73q59 -31 134 -66q79 -36 134 -75q62 -43 102 -105q41 -62 41 -151q0 -139 -101 -221q-103 -83 -286 -83q-76 0 -163 19
q-83 18 -169 65v232zM633 1163l-180 121l-179 -121h-77l176 250h157l181 -250h-78z" />
    <glyph glyph-name="Scedilla" unicode="&#x15e;" horiz-adv-x="1052" 
d="M356 -315q56 -43 115 -43q39 0 72 18q32 17 32 64q0 42 -31 63q-30 20 -73 20q-39 0 -76 -12l43 176q-110 4 -194 30q-85 26 -140 54v299h35q43 -83 82 -140q37 -55 80 -91q41 -35 85 -50q46 -16 97 -16q59 0 111 19q47 17 83 50q33 30 52 74t19 91q0 80 -49 144
t-119 118q-65 50 -156 107q-86 54 -156 112q-72 60 -120 132t-48 169q0 83 36 150q35 66 96 116q58 48 141 76q80 27 166 27q87 0 174 -25q79 -22 166 -59v-240h-43q-76 123 -152 179q-76 57 -160 57q-42 0 -88 -16q-41 -14 -76 -43q-31 -26 -53 -66q-20 -37 -20 -86
q0 -75 48 -134q50 -61 120 -112q88 -64 155 -106q82 -51 156 -116q73 -64 120 -139q48 -77 48 -178q0 -83 -34 -151q-37 -73 -90 -121q-58 -52 -132 -81q-75 -29 -162 -34l-20 -96q4 1 10 2t10 1q7 1 27 1q33 0 61 -7q30 -8 54 -24q24 -17 39 -43q16 -29 16 -65
q0 -46 -21 -77t-52 -52t-70 -30q-38 -9 -74 -9q-59 0 -106 17q-53 19 -81 46z" />
    <glyph glyph-name="scedilla" unicode="&#x15f;" horiz-adv-x="917" 
d="M285 -332q35 -16 69 -21q38 -5 58 -5q58 0 84 23t26 54q0 27 -19 45q-20 18 -49 30q-32 13 -63 17q-37 5 -59 5l106 159q-85 1 -172 21q-80 18 -164 63v232h39q46 -67 89 -113q41 -44 80 -72q33 -23 75 -37q37 -12 74 -12q91 0 144 48q52 48 52 114q0 57 -40 97
q-39 39 -101 74q-41 23 -131 68q-76 38 -131 77q-62 44 -101 102q-40 59 -40 143q0 68 27 121q27 52 75 91t113 58q64 19 143 19q65 0 139 -15q72 -15 146 -44v-207h-43q-43 57 -78 93q-29 30 -66 56q-31 22 -59 29q-30 8 -59 8q-84 0 -134 -41q-49 -40 -49 -102
q0 -56 41 -97q38 -38 103 -73q59 -31 134 -66q79 -36 134 -75q62 -43 102 -105q41 -62 41 -149q0 -68 -23 -118q-24 -53 -64 -90q-45 -41 -96 -63q-57 -24 -120 -30l-53 -84q26 -4 62 -15q35 -11 64 -31q30 -21 49 -50t19 -70q0 -43 -21 -73q-20 -29 -54 -49
q-36 -21 -72 -28q-42 -8 -74 -8q-53 0 -101 15t-77 38z" />
    <glyph glyph-name="Scaron" unicode="&#x160;" horiz-adv-x="1052" 
d="M104 354h35q43 -83 82 -140q37 -55 80 -91q41 -35 85 -50q46 -16 97 -16q59 0 111 19q47 17 83 50q33 30 52 74t19 91q0 80 -49 144t-119 118q-65 50 -156 107q-86 54 -156 112q-72 60 -120 132t-48 169q0 83 36 150q35 66 96 116q58 48 141 76q80 27 166 27
q87 0 174 -25q79 -22 166 -59v-240h-43q-76 123 -152 179q-76 57 -160 57q-42 0 -88 -16q-41 -14 -76 -43q-31 -26 -53 -66q-20 -37 -20 -86q0 -75 48 -134q49 -60 120 -113q73 -55 155 -106q86 -54 156 -115q73 -64 120 -139q48 -77 48 -178q0 -76 -32 -148
q-33 -73 -91 -124q-62 -55 -145 -85q-87 -32 -195 -32q-54 0 -102 7q-59 9 -99 19q-46 12 -90 27q-42 15 -76 33v299zM772 1782l-180 -250h-158l-176 250h78l178 -121l180 121h78z" />
    <glyph glyph-name="scaron" unicode="&#x161;" horiz-adv-x="917" 
d="M102 291h39q46 -67 89 -113q41 -44 80 -72q33 -23 75 -37q37 -12 74 -12q91 0 144 48q52 48 52 114q0 57 -40 97q-39 39 -101 74q-41 23 -131 68q-76 38 -131 77q-62 44 -101 102q-40 59 -40 143q0 68 27 121q27 52 75 91t113 58q64 19 143 19q65 0 139 -15
q72 -15 146 -44v-207h-43q-43 57 -78 93q-29 30 -66 56q-31 22 -60 29q-32 8 -61 8q-83 0 -132 -41q-48 -40 -48 -102q0 -56 41 -97q38 -38 103 -73q59 -31 134 -66q79 -36 134 -75q62 -43 102 -105q41 -62 41 -151q0 -139 -101 -221q-103 -83 -286 -83q-76 0 -163 19
q-83 18 -169 65v232zM715 1413l-180 -250h-158l-176 250h78l178 -121l180 121h78z" />
    <glyph glyph-name="Tcommaaccent" unicode="&#x162;" horiz-adv-x="1347" 
d="M780 162q0 -55 35 -72l139 -59v-31h-561v31l139 59q35 17 35 72v1163h-200q-29 0 -53 -9q-22 -8 -40 -26l-157 -155h-41l41 278h1114l41 -278h-39l-158 155q-18 18 -40 26q-24 9 -52 9h-203v-1163zM561 -588q41 53 56 95q16 45 16 71t-9 44q-8 16 -20 33q-9 12 -19 33
q-10 20 -10 44q0 51 32 80q31 28 75 28q47 0 77 -35q29 -33 29 -88q0 -41 -18 -86q-16 -40 -46 -90q-27 -45 -60 -84q-27 -32 -64 -67z" />
    <glyph glyph-name="tcommaaccent" unicode="&#x163;" horiz-adv-x="753" 
d="M756 106q-16 -18 -42 -39q-29 -24 -60 -40q-40 -21 -77 -31q-43 -12 -100 -12q-120 0 -188 71q-70 73 -70 238v651h-205l21 88h184v228l178 112h29v-340h272v-88h-272v-655q0 -87 43 -137q44 -52 123 -52q35 0 81 11t60 20zM260 -588q41 53 56 95q16 45 16 71t-9 44
q-8 16 -20 33q-9 13 -19 33t-10 44q0 51 32 80q31 28 75 28q47 0 77 -35q29 -33 29 -88q0 -41 -18 -86q-16 -40 -46 -90q-25 -41 -61 -84q-31 -36 -63 -67z" />
    <glyph glyph-name="Tcaron" unicode="&#x164;" horiz-adv-x="1347" 
d="M780 162q0 -55 35 -72l139 -59v-31h-561v31l139 59q35 17 35 72v1163h-200q-29 0 -53 -9q-22 -8 -40 -26l-157 -155h-41l41 278h1114l41 -278h-39l-158 155q-18 18 -40 26q-24 9 -52 9h-203v-1163zM932 1782l-180 -250h-158l-176 250h78l178 -121l180 121h78z" />
    <glyph glyph-name="tcaron" unicode="&#x165;" horiz-adv-x="763" 
d="M756 106q-16 -18 -42 -39q-29 -24 -60 -40q-40 -21 -77 -31q-43 -12 -100 -12q-120 0 -188 71q-70 73 -70 238v651h-205l21 88h184v228l178 112h29v-340h272v-88h-272v-655q0 -87 43 -137q44 -52 123 -52q35 0 81 11t60 20zM498 1169q47 60 63 106q17 48 17 79
q0 30 -11 50q-15 29 -21 37q-8 12 -22 36q-10 17 -10 49q0 55 35 87t82 32q53 0 86 -39t33 -97q0 -45 -21 -96q-20 -49 -51 -100q-29 -48 -68 -93q-49 -57 -69 -75z" />
    <glyph glyph-name="Tbar" unicode="&#x166;" horiz-adv-x="1347" 
d="M780 772h232v-108h-232v-502q0 -55 35 -72l139 -59v-31h-561v31l139 59q35 17 35 72v502h-231v108h231v553h-200q-29 0 -53 -9q-22 -8 -40 -26l-157 -155h-41l41 278h1114l41 -278h-39l-158 155q-18 18 -40 26q-24 9 -52 9h-203v-553z" />
    <glyph glyph-name="tbar" unicode="&#x167;" horiz-adv-x="753" 
d="M426 535v-252q0 -87 43 -143t117 -56q37 0 73 11q41 13 56 22l37 -70q-36 -22 -100 -43q-60 -20 -150 -20q-146 0 -214 71q-69 72 -69 238v242h-205l21 88h184v321h-205l21 88h184v268l178 113h29v-381h272v-88h-272v-321h272v-88h-272z" />
    <glyph glyph-name="Utilde" unicode="&#x168;" horiz-adv-x="1591" 
d="M250 1247q0 55 -35 72l-127 63v31h537v-31l-127 -63q-35 -17 -35 -72v-895q0 -62 30 -111q30 -50 79 -87t117 -57q64 -19 142 -19q70 0 142 18q70 17 129 58q57 39 93 96t36 137v854q0 30 -7 45q-8 17 -28 27l-127 69v31h434v-31l-127 -69q-19 -10 -27 -27q-8 -18 -8 -45
v-860q0 -94 -43 -170q-44 -77 -117 -130q-76 -55 -175 -83q-102 -29 -215 -29q-108 0 -211 28q-95 26 -172 81q-74 53 -116 129t-42 174v866zM950 1718q32 0 60 23q25 21 41 57l41 -24q-4 -15 -18 -42q-16 -33 -37 -56q-28 -31 -57 -49q-34 -21 -81 -21q-37 0 -75 12
q-25 8 -71 28q-29 13 -65 27q-32 13 -51 13q-27 0 -55 -23q-25 -21 -41 -57l-41 24q6 20 17 42q14 28 37 54q26 30 57 47q34 19 81 19q38 0 71 -11q44 -15 70 -26q14 -6 37 -15t26 -10q30 -12 54 -12z" />
    <glyph glyph-name="utilde" unicode="&#x169;" horiz-adv-x="1251" 
d="M899 -20h-31v178q-18 -13 -75 -59q-42 -34 -85 -59q-50 -29 -101 -46q-57 -19 -120 -19q-50 0 -101 16q-47 15 -85 54q-36 37 -59 102q-23 64 -23 162v502q0 59 -45 76l-115 45v35l332 102h31v-774q0 -93 51 -130q52 -38 129 -38q80 0 147 31q66 31 111 67v586
q0 59 -45 76l-129 45v35l346 102h31v-862q0 -61 45 -76l109 -35v-35zM780 1337q32 0 60 23q25 21 41 57l41 -24q-4 -15 -18 -42q-16 -33 -37 -56q-28 -31 -57 -49q-34 -21 -81 -21q-37 0 -75 12q-25 8 -71 28q-29 12 -65 27q-32 13 -51 13q-27 0 -55 -23q-25 -21 -41 -57
l-41 24q6 20 17 42q15 31 37 55q25 28 57 46q34 19 81 19q38 0 71 -11q44 -15 70 -26q14 -6 37 -15t26 -10q30 -12 54 -12z" />
    <glyph glyph-name="Umacron" unicode="&#x16a;" horiz-adv-x="1591" 
d="M250 1247q0 55 -35 72l-127 63v31h537v-31l-127 -63q-35 -17 -35 -72v-895q0 -62 30 -111q30 -50 79 -87t117 -57q64 -19 142 -19q70 0 142 18q70 17 129 58q57 39 93 96t36 137v854q0 30 -7 45q-8 17 -28 27l-127 69v31h434v-31l-127 -69q-19 -10 -27 -27q-8 -18 -8 -45
v-860q0 -94 -43 -170q-44 -77 -117 -130q-76 -55 -175 -83q-102 -29 -215 -29q-108 0 -211 28q-95 26 -172 81q-74 53 -116 129t-42 174v866zM539 1624v109h512v-109h-512z" />
    <glyph glyph-name="umacron" unicode="&#x16b;" horiz-adv-x="1251" 
d="M899 -20h-31v178q-18 -13 -75 -59q-42 -34 -85 -59q-50 -29 -101 -46q-57 -19 -120 -19q-50 0 -101 16q-47 15 -85 54q-36 37 -59 102q-23 64 -23 162v502q0 59 -45 76l-115 45v35l332 102h31v-774q0 -93 51 -130q52 -38 129 -38q80 0 147 31q66 31 111 67v586
q0 59 -45 76l-129 45v35l346 102h31v-862q0 -61 45 -76l109 -35v-35zM369 1243v109h512v-109h-512z" />
    <glyph glyph-name="Ubreve" unicode="&#x16c;" horiz-adv-x="1591" 
d="M250 1247q0 55 -35 72l-127 63v31h537v-31l-127 -63q-35 -17 -35 -72v-895q0 -62 30 -111q30 -50 79 -87t117 -57q64 -19 142 -19q70 0 142 18q70 17 129 58q57 39 93 96t36 137v854q0 30 -7 45q-8 17 -28 27l-127 69v31h434v-31l-127 -69q-19 -10 -27 -27q-8 -18 -8 -45
v-860q0 -94 -43 -170q-44 -77 -117 -130q-76 -55 -175 -83q-102 -29 -215 -29q-108 0 -211 28q-95 26 -172 81q-74 53 -116 129t-42 174v866zM795 1671q59 0 106 30q49 31 78 93h76q-6 -36 -27 -88q-17 -42 -49 -82q-28 -35 -77 -60q-47 -24 -107 -24q-61 0 -108 24
q-49 25 -77 60q-32 40 -49 82q-19 48 -26 88h75q29 -62 78 -93q47 -30 107 -30z" />
    <glyph glyph-name="ubreve" unicode="&#x16d;" horiz-adv-x="1251" 
d="M899 -20h-31v178q-18 -13 -75 -59q-42 -34 -85 -59q-50 -29 -101 -46q-57 -19 -120 -19q-50 0 -101 16q-47 15 -85 54q-36 37 -59 102q-23 64 -23 162v502q0 59 -45 76l-115 45v35l332 102h31v-774q0 -93 51 -130q52 -38 129 -38q80 0 147 31q66 31 111 67v586
q0 59 -45 76l-129 45v35l346 102h31v-862q0 -61 45 -76l109 -35v-35zM625 1290q59 0 106 30q49 31 78 93h76q-6 -36 -27 -88q-17 -41 -49 -82q-28 -35 -77 -60q-47 -24 -107 -24q-61 0 -108 24q-49 25 -77 60q-32 41 -49 82q-19 48 -26 88h75q29 -62 78 -93q47 -30 107 -30z
" />
    <glyph glyph-name="Uring" unicode="&#x16e;" horiz-adv-x="1591" 
d="M250 1247q0 55 -35 72l-127 63v31h537v-31l-127 -63q-35 -17 -35 -72v-895q0 -62 30 -111q30 -50 79 -87t117 -57q64 -19 142 -19q70 0 142 18q70 17 129 58q57 39 93 96t36 137v854q0 30 -7 45q-8 17 -28 27l-127 69v31h434v-31l-127 -69q-19 -10 -27 -27q-8 -18 -8 -45
v-860q0 -94 -43 -170q-44 -77 -117 -130q-76 -55 -175 -83q-102 -29 -215 -29q-108 0 -211 28q-95 26 -172 81q-74 53 -116 129t-42 174v866zM1008 1747q0 -43 -18 -81q-19 -40 -46 -67q-29 -29 -67 -45t-82 -16t-82 16q-40 17 -68 45q-27 27 -46 67q-17 35 -17 81t17 81
q18 38 46 66t68 45t82 17t82 -17q38 -16 67 -45q28 -28 46 -66t18 -81zM795 1624q50 0 84 37t34 86t-34 86t-84 37t-84 -37q-35 -38 -35 -86t35 -86q34 -37 84 -37z" />
    <glyph glyph-name="uring" unicode="&#x16f;" horiz-adv-x="1251" 
d="M899 -20h-31v178q-18 -13 -75 -59q-42 -34 -85 -59q-50 -29 -101 -46q-57 -19 -120 -19q-50 0 -101 16q-47 15 -85 54q-36 37 -59 102q-23 64 -23 162v502q0 59 -45 76l-115 45v35l332 102h31v-774q0 -93 51 -130q52 -38 129 -38q80 0 147 31q66 31 111 67v586
q0 59 -45 76l-129 45v35l346 102h31v-862q0 -61 45 -76l109 -35v-35zM838 1366q0 -44 -18 -81q-18 -38 -46 -66q-29 -29 -67 -45q-40 -17 -82 -17t-82 17t-68 45t-46 66q-17 35 -17 81t17 81q18 38 46 66q30 30 68 46t82 16t82 -16q36 -15 67 -46q28 -28 46 -66
q18 -37 18 -81zM625 1243q50 0 84 37t34 86t-34 86t-84 37t-84 -37q-35 -38 -35 -86t35 -86q34 -37 84 -37z" />
    <glyph glyph-name="Uhungarumlaut" unicode="&#x170;" horiz-adv-x="1591" 
d="M250 1247q0 55 -35 72l-127 63v31h537v-31l-127 -63q-35 -17 -35 -72v-895q0 -62 30 -111q30 -50 79 -87t117 -57q64 -19 142 -19q70 0 142 18q70 17 129 58q57 39 93 96t36 137v854q0 30 -7 45q-8 17 -28 27l-127 69v31h434v-31l-127 -69q-19 -10 -27 -27q-8 -18 -8 -45
v-860q0 -94 -43 -170q-44 -77 -117 -130q-76 -55 -175 -83q-102 -29 -215 -29q-108 0 -211 28q-95 26 -172 81q-74 53 -116 129t-42 174v866zM631 1544h-82l92 250h156zM877 1544h-82l92 250h155z" />
    <glyph glyph-name="uhungarumlaut" unicode="&#x171;" horiz-adv-x="1251" 
d="M899 -20h-31v178q-18 -13 -75 -59q-42 -34 -85 -59q-50 -29 -101 -46q-57 -19 -120 -19q-50 0 -101 16q-47 15 -85 54q-36 37 -59 102q-23 64 -23 162v502q0 59 -45 76l-115 45v35l332 102h31v-774q0 -93 51 -130q52 -38 129 -38q80 0 147 31q66 31 111 67v586
q0 59 -45 76l-129 45v35l346 102h31v-862q0 -61 45 -76l109 -35v-35zM461 1163h-82l92 250h156zM707 1163h-82l92 250h155z" />
    <glyph glyph-name="Uogonek" unicode="&#x172;" horiz-adv-x="1591" 
d="M967 -416q-55 -12 -105 -12q-98 0 -145 41t-47 100q0 38 16 74q14 33 41 71q19 27 52 62q19 20 52 49h-32q-113 0 -217 28q-97 26 -174 81q-74 53 -116 129t-42 174v866q0 55 -35 72l-127 63v31h537v-31l-127 -63q-35 -17 -35 -72v-895q0 -62 30 -111q30 -50 79 -87
t117 -57q64 -19 142 -19q70 0 142 18q70 17 129 58q57 39 93 96t36 137v854q0 30 -7 45q-8 17 -28 27l-127 69v31h434v-31l-127 -69q-19 -10 -27 -27q-8 -18 -8 -45v-860q0 -84 -32 -151q-32 -66 -90 -120q-55 -50 -137 -86q-81 -35 -169 -47q-20 -27 -35 -62
q-17 -40 -26 -67q-11 -33 -15 -61q-6 -38 -6 -47q0 -45 28 -71q26 -25 69 -25q21 0 39 6v-66z" />
    <glyph glyph-name="uogonek" unicode="&#x173;" horiz-adv-x="1251" 
d="M1217 -416q-55 -12 -105 -12q-98 0 -145 42t-47 97q0 44 25 88q22 39 61 88q35 44 71 83q38 41 62 71l-240 -61h-31v178q-31 -22 -84 -62q-41 -31 -92 -59q-47 -26 -105 -44q-57 -18 -120 -18q-50 0 -98 16q-44 15 -79 54q-34 38 -52 102q-19 67 -19 162v502q0 59 -45 76
l-115 45v35l332 102h31v-774q0 -92 34 -132t109 -40q83 0 160 34q84 37 135 68v586q0 59 -45 76l-129 45v35l346 102h31v-862q0 -61 45 -76l109 -35v-35q-30 -36 -50 -73q-27 -50 -44 -94q-14 -37 -30 -93q-12 -43 -12 -67q0 -36 28 -64q26 -26 69 -26q21 0 39 6v-66z" />
    <glyph glyph-name="Wcircumflex" unicode="&#x174;" horiz-adv-x="2103" 
d="M1509 -20h-139l-326 1034l-342 -1034h-139l-352 1183q-12 45 -26 76q-15 34 -31 55q-16 22 -48 45q-27 20 -73 43v31h524v-33l-98 -39q-44 -17 -48 -52q-5 -39 17 -120l250 -921l360 1114h109l338 -1114l270 897q27 91 22 133q-4 40 -57 63l-92 39v33h447v-31
q-29 -15 -73 -37q-27 -14 -52 -40q-23 -24 -41 -64q-19 -41 -39 -104zM1251 1532l-180 121l-178 -121h-78l176 250h158l180 -250h-78z" />
    <glyph glyph-name="wcircumflex" unicode="&#x175;" horiz-adv-x="1785" 
d="M180 856q-16 41 -38 62t-54 43l-53 34v37h497v-41l-71 -30q-21 -10 -37 -21q-15 -10 -21 -27q-6 -16 -3 -40q3 -20 14 -58l182 -584l272 789h99l272 -795l213 580q26 71 13 105q-14 36 -62 53l-76 28v41h434v-39l-73 -41q-15 -8 -28 -19q-13 -12 -28 -31q-13 -17 -29 -49
q-22 -44 -34 -73l-320 -800h-112l-260 776l-265 -776h-123zM1071 1163l-180 121l-178 -121h-78l176 250h158l180 -250h-78z" />
    <glyph glyph-name="Ycircumflex" unicode="&#x176;" horiz-adv-x="1304" 
d="M772 162q0 -55 35 -72l139 -59v-31h-561v31l139 59q35 17 35 72v456l-354 615q-35 58 -74 88q-43 33 -106 61v31h524v-31l-49 -18q-62 -23 -77 -55q-16 -35 21 -103l269 -497l252 495q14 26 23 54q8 24 3 42q-5 19 -24 33q-18 13 -60 29l-53 20v31h438v-31
q-34 -12 -63 -24q-25 -11 -54 -31q-25 -18 -50 -49q-20 -25 -50 -80l-303 -575v-461zM852 1532l-180 121l-178 -121h-78l176 250h158l180 -250h-78z" />
    <glyph glyph-name="ycircumflex" unicode="&#x177;" horiz-adv-x="1181" 
d="M596 0h-102l-287 809q-10 29 -20 52q-11 26 -20 38q-12 16 -28 31q-13 12 -41 31l-53 34v37h494v-41l-72 -30q-29 -12 -42 -27q-12 -14 -14 -36q-1 -18 7 -53q9 -38 22 -77l203 -635l234 672q27 73 13 106q-14 34 -63 52l-75 28v41h434v-39l-74 -41q-30 -17 -57 -50
q-30 -36 -62 -122l-356 -962q-72 -196 -159 -273q-85 -75 -185 -75q-47 0 -79 12q-30 11 -52 32q-21 20 -30 43q-9 24 -9 46q0 47 33 84t82 37q51 0 89 -41q37 -40 29 -109q46 15 94 81q49 67 101 216zM770 1163l-180 121l-178 -121h-78l176 250h158l180 -250h-78z" />
    <glyph glyph-name="Ydieresis" unicode="&#x178;" horiz-adv-x="1304" 
d="M772 162q0 -55 35 -72l139 -59v-31h-561v31l139 59q35 17 35 72v456l-354 615q-35 58 -74 88q-43 33 -106 61v31h524v-31l-49 -18q-62 -23 -77 -55q-16 -35 21 -103l269 -497l252 495q14 26 23 54q8 24 3 42q-5 19 -24 33q-18 13 -60 29l-53 20v31h438v-31
q-34 -12 -63 -24q-25 -11 -54 -31q-25 -18 -50 -49q-20 -25 -50 -80l-303 -575v-461zM950 1700q0 -46 -31 -78q-31 -33 -79 -33q-45 0 -78 33t-33 78t33 78q32 32 78 32q48 0 79 -32t31 -78zM655 1700q0 -46 -32 -78q-33 -33 -78 -33q-48 0 -79 33q-32 34 -32 78t32 78
q31 32 79 32q46 0 78 -32t32 -78z" />
    <glyph glyph-name="Zacute" unicode="&#x179;" horiz-adv-x="1159" 
d="M51 0v72l803 1253h-479q-30 0 -53 -10q-27 -12 -43 -25l-164 -125h-35l41 248h966v-90l-792 -1235h524q28 0 52 9q22 8 40 26l162 158h33l-39 -281h-1016zM610 1532h-102l145 250h234z" />
    <glyph glyph-name="zacute" unicode="&#x17a;" horiz-adv-x="1036" 
d="M92 0v80l610 864h-321q-62 0 -92 -35l-133 -139h-35l41 262h762v-94l-600 -850h362q58 0 92 39l150 154h37l-41 -281h-832zM430 1163h-102l145 250h234z" />
    <glyph glyph-name="Zdotaccent" unicode="&#x17b;" horiz-adv-x="1159" 
d="M51 0v72l803 1253h-479q-30 0 -53 -10q-27 -12 -43 -25l-164 -125h-35l41 248h966v-90l-792 -1235h524q28 0 52 9q22 8 40 26l162 158h33l-39 -281h-1016zM725 1655q0 -51 -36 -87t-87 -36t-87 36t-36 87t36 87t87 36t87 -36t36 -87z" />
    <glyph glyph-name="zdotaccent" unicode="&#x17c;" horiz-adv-x="1036" 
d="M92 0v80l610 864h-321q-62 0 -92 -35l-133 -139h-35l41 262h762v-94l-600 -850h362q58 0 92 39l150 154h37l-41 -281h-832zM641 1319q0 -51 -36 -87t-87 -36t-87 36t-36 87t36 87t87 36t87 -36t36 -87z" />
    <glyph glyph-name="Zcaron" unicode="&#x17d;" horiz-adv-x="1159" 
d="M31 0v72l803 1253h-480q-30 0 -53 -10q-27 -12 -43 -25l-164 -125h-35l41 248h967v-90l-793 -1235h525q28 0 52 9q22 8 40 26l162 158h32l-38 -281h-1016zM854 1782l-180 -250h-158l-176 250h78l178 -121l180 121h78z" />
    <glyph glyph-name="zcaron" unicode="&#x17e;" horiz-adv-x="995" 
d="M72 0v80l610 864h-322q-62 0 -92 -35l-133 -139h-35l41 262h762v-94l-600 -850h363q58 0 92 39l149 154h37l-41 -281h-831zM754 1413l-181 -250h-157l-176 250h77l179 -121l180 121h78z" />
    <glyph glyph-name="longs" unicode="&#x17f;" horiz-adv-x="708" 
d="M766 1300q-44 0 -79 27q-34 27 -34 74q0 29 14 60q15 32 23 42q-11 5 -25 6q-20 2 -28 2q-38 0 -70 -16t-55 -54q-22 -37 -36 -103q-13 -62 -13 -160v-1008q0 -55 35 -72l135 -67v-31h-522v31l114 59q20 10 28 27q7 15 7 45v999q0 114 29 195q29 80 80 130q53 51 119 73
q67 22 149 22q130 0 187 -48t57 -114q0 -52 -32 -86q-31 -33 -83 -33z" />
    <glyph glyph-name="florin" unicode="&#x192;" 
d="M451 612h-209l20 88h189v273q0 116 28 194q29 80 80 130q53 51 120 73q71 23 148 23q131 0 188 -48q56 -47 56 -114q0 -52 -32 -86q-31 -33 -83 -33q-44 0 -78 27t-34 73q0 32 13 61q13 30 24 42q-10 4 -26 6q-20 2 -28 2q-37 0 -69 -16q-33 -16 -56 -55
q-21 -35 -35 -102t-14 -161v-289h277v-88h-277v-680q0 -115 -28 -195q-29 -81 -80 -131q-53 -51 -120 -73t-149 -22q-131 0 -187 49t-56 114q0 52 32 86q31 33 82 33q46 0 79 -26q34 -27 34 -74q0 -32 -13 -61q-13 -30 -24 -42q10 -4 26 -6q20 -2 27 -2q36 0 70 17
q32 16 55 54q23 37 36 102q14 67 14 161v696z" />
    <glyph glyph-name="Scommaaccent" unicode="&#x218;" horiz-adv-x="1052" 
d="M104 354h35q43 -83 82 -140q37 -55 80 -91q41 -35 85 -50q46 -16 97 -16q59 0 111 19q47 17 83 50q33 30 52 74t19 91q0 80 -49 144t-119 118q-65 50 -156 107q-86 54 -156 112q-72 60 -120 132t-48 169q0 83 36 150q35 66 96 116q58 48 141 76q80 27 166 27
q87 0 174 -25q79 -22 166 -59v-240h-43q-76 123 -152 179q-76 57 -160 57q-42 0 -88 -16q-41 -14 -76 -43q-31 -26 -53 -66q-20 -37 -20 -86q0 -75 48 -134q49 -60 120 -113q73 -55 155 -106q86 -54 156 -115q73 -64 120 -139q48 -77 48 -178q0 -76 -32 -148
q-33 -73 -91 -124q-62 -55 -145 -85q-87 -32 -195 -32q-54 0 -102 7q-59 9 -99 19q-46 12 -90 27q-42 15 -76 33v299zM395 -588q43 56 57 95q15 42 15 71q0 26 -9 44q-8 16 -20 33q-9 13 -19 33q-9 18 -9 44q0 52 31 80t75 28q47 0 77 -35t30 -88q0 -38 -19 -86
q-16 -40 -46 -90q-27 -45 -60 -84q-27 -32 -64 -67z" />
    <glyph glyph-name="scommaaccent" unicode="&#x219;" horiz-adv-x="917" 
d="M102 291h39q46 -67 89 -113q41 -44 80 -72q33 -23 75 -37q37 -12 74 -12q91 0 144 48q52 48 52 114q0 57 -40 97q-39 39 -101 74q-41 23 -131 68q-76 38 -131 77q-62 44 -101 102q-40 59 -40 143q0 68 27 121q27 52 75 91t113 58q64 19 143 19q65 0 139 -15
q72 -15 146 -44v-207h-43q-43 57 -78 93q-29 30 -66 56q-31 22 -60 29q-32 8 -61 8q-83 0 -132 -41q-48 -40 -48 -102q0 -56 41 -97q38 -38 103 -73q59 -31 134 -66q79 -36 134 -75q62 -43 102 -105q41 -62 41 -151q0 -139 -101 -221q-103 -83 -286 -83q-76 0 -163 19
q-83 18 -169 65v232zM340 -588q41 53 56 95q16 45 16 71q0 24 -10 44q-10 21 -19 33q-9 13 -19 33t-10 44q0 51 32 80q31 28 75 28q47 0 77 -35q29 -33 29 -88q0 -41 -18 -86q-16 -40 -46 -90q-25 -41 -61 -84q-31 -36 -63 -67z" />
    <glyph glyph-name="uni021A" unicode="&#x21a;" horiz-adv-x="1347" 
d="M780 162q0 -55 35 -72l139 -59v-31h-561v31l139 59q35 17 35 72v1163h-200q-29 0 -53 -9q-22 -8 -40 -26l-157 -155h-41l41 278h1114l41 -278h-39l-158 155q-18 18 -40 26q-24 9 -52 9h-203v-1163zM561 -588q41 53 56 95q16 45 16 71t-9 44q-8 16 -20 33q-9 12 -19 33
q-10 20 -10 44q0 51 32 80q31 28 75 28q47 0 77 -35q29 -33 29 -88q0 -41 -18 -86q-16 -40 -46 -90q-27 -45 -60 -84q-27 -32 -64 -67z" />
    <glyph glyph-name="uni021B" unicode="&#x21b;" horiz-adv-x="774" 
d="M776 106q-16 -18 -42 -39q-31 -25 -59 -40q-39 -20 -78 -31q-43 -12 -99 -12q-121 0 -189 71q-69 72 -69 238v651h-205l20 88h185v228l178 112h28v-340h273v-88h-273v-655q0 -87 43 -137q44 -52 123 -52q35 0 81 11q48 11 61 20zM281 -588q41 53 56 95t15 71q0 26 -9 44
q-10 21 -19 33q-12 18 -20 33q-9 18 -9 44q0 51 32 80q31 28 74 28q47 0 77 -35t30 -88q0 -38 -19 -86q-16 -40 -46 -90q-27 -45 -60 -84q-27 -32 -64 -67z" />
    <glyph glyph-name="dotlessj" unicode="&#x237;" horiz-adv-x="604" 
d="M53 -483q74 47 125 134t51 224v934q0 30 -11 49q-12 22 -34 29l-129 45v35l342 102h35v-1114q0 -117 -36 -200q-36 -82 -90 -139q-52 -55 -116 -91q-60 -33 -112 -55z" />
    <glyph glyph-name="apostrophe" unicode="&#x2bc;" horiz-adv-x="456" 
d="M109 1014q41 53 56 95t15 71q0 26 -9 44q-8 17 -19 32q-12 17 -20 33q-9 18 -9 44q0 51 32 80t74 29q47 0 77 -35t30 -88q0 -39 -19 -86q-16 -40 -46 -90q-27 -45 -60 -84q-31 -37 -64 -68z" />
    <glyph glyph-name="circumflex" unicode="&#x2c6;" horiz-adv-x="624" 
d="M492 1163l-181 121l-178 -121h-78l176 250h158l180 -250h-77z" />
    <glyph glyph-name="caron" unicode="&#x2c7;" horiz-adv-x="624" 
d="M569 1413l-180 -250h-158l-176 250h78l178 -121l181 121h77z" />
    <glyph glyph-name="uni02C9" unicode="&#x2c9;" horiz-adv-x="581" 
d="M35 1243v109h512v-109h-512z" />
    <glyph glyph-name="breve" unicode="&#x2d8;" horiz-adv-x="643" 
d="M322 1290q60 0 106 30q49 31 78 93h76q-6 -36 -27 -88q-17 -41 -49 -82q-28 -35 -77 -60q-47 -24 -107 -24q-62 0 -108 24q-49 25 -77 60q-32 41 -49 82q-21 52 -27 88h76q29 -62 78 -93q47 -30 107 -30z" />
    <glyph glyph-name="dotaccent" unicode="&#x2d9;" horiz-adv-x="595" 
d="M430 1319q0 -51 -36 -87t-87 -36t-87 36t-36 87t36 87t87 36t87 -36t36 -87z" />
    <glyph glyph-name="ring" unicode="&#x2da;" horiz-adv-x="614" 
d="M520 1366q0 -46 -17 -81q-18 -38 -46 -66t-68 -45t-82 -17t-82 17q-38 16 -67 45q-28 28 -46 66q-18 37 -18 81t18 81q18 38 46 66q31 31 67 46q38 16 82 16t82 -16t68 -46q28 -28 46 -66q17 -35 17 -81zM307 1243q50 0 84 37q35 38 35 86t-35 86q-34 37 -84 37t-84 -37
q-35 -38 -35 -86t35 -86q34 -37 84 -37z" />
    <glyph glyph-name="ogonek" unicode="&#x2db;" horiz-adv-x="393" 
d="M352 -416q-55 -12 -104 -12q-99 0 -146 41t-47 100q0 45 24 89q26 47 55 83q32 39 66 69q43 37 54 46h63q-25 -29 -44 -65t-31 -72q-15 -45 -19 -70q-6 -33 -6 -53q0 -47 28 -72q27 -24 68 -24q21 0 39 6v-66z" />
    <glyph glyph-name="tilde" unicode="&#x2dc;" horiz-adv-x="702" 
d="M506 1337q31 0 59 23q25 21 41 57l41 -24q-6 -20 -17 -42q-16 -33 -37 -56q-28 -31 -57 -49q-34 -21 -81 -21q-37 0 -75 12q-29 9 -72 28q-40 17 -64 27q-33 13 -51 13q-28 0 -56 -23q-25 -21 -41 -57l-41 24q5 15 18 42q15 31 37 55q25 28 57 46q34 19 81 19
q37 0 70 -11q44 -15 70 -26q13 -6 36 -14.5t28 -10.5q30 -12 54 -12z" />
    <glyph glyph-name="hungarumlaut" unicode="&#x2dd;" horiz-adv-x="595" 
d="M137 1163h-82l92 250h156zM383 1163h-82l92 250h156z" />
    <glyph glyph-name="Delta" unicode="&#x394;" horiz-adv-x="1452" 
d="M35 0l688 1473l694 -1473h-1382zM662 1137l-476 -1043h940z" />
    <glyph glyph-name="Delta" unicode="&#x2206;" horiz-adv-x="1452" 
d="M35 0l688 1473l694 -1473h-1382zM662 1137l-476 -1043h940z" />
    <glyph glyph-name="Omega" unicode="&#x3a9;" horiz-adv-x="1517" 
d="M760 1442q109 0 229 -41q115 -39 217 -118q99 -77 162 -186q64 -111 64 -245q0 -114 -43 -204t-107 -174q-62 -82 -136 -163q-71 -78 -132 -170h190q55 0 82 35l92 117h31l-41 -293h-475v31q37 76 88 167q56 100 98 194q48 106 80 215q33 111 33 229q0 102 -30 196
q-30 95 -85 166q-56 72 -136 114q-81 42 -181 42q-102 0 -182 -42q-81 -43 -136 -114t-85 -166q-29 -91 -29 -196q0 -121 32 -229q32 -109 80 -215q38 -84 99 -194q51 -91 88 -167v-31h-475l-41 293h30l95 -117q27 -35 81 -35h189q-61 92 -132 170q-74 81 -136 163
q-64 84 -107 174t-43 204q0 134 64 245t161 186q102 79 217 118q120 41 230 41z" />
    <glyph glyph-name="Omega" unicode="&#x2126;" horiz-adv-x="1517" 
d="M760 1442q109 0 229 -41q115 -39 217 -118q99 -77 162 -186q64 -111 64 -245q0 -114 -43 -204t-107 -174q-62 -82 -136 -163q-71 -78 -132 -170h190q55 0 82 35l92 117h31l-41 -293h-475v31q37 76 88 167q56 100 98 194q48 106 80 215q33 111 33 229q0 102 -30 196
q-30 95 -85 166q-56 72 -136 114q-81 42 -181 42q-102 0 -182 -42q-81 -43 -136 -114t-85 -166q-29 -91 -29 -196q0 -121 32 -229q32 -109 80 -215q38 -84 99 -194q51 -91 88 -167v-31h-475l-41 293h30l95 -117q27 -35 81 -35h189q-61 92 -132 170q-74 81 -136 163
q-64 84 -107 174t-43 204q0 134 64 245t161 186q102 79 217 118q120 41 230 41z" />
    <glyph glyph-name="pi" unicode="&#x3c0;" horiz-adv-x="1236" 
d="M1155 16q-42 -16 -104 -28q-67 -13 -117 -13q-117 0 -168 66t-51 176q0 23 1 26t1 13l39 586h-252l-51 -381q-17 -128 -34 -211q-19 -93 -43 -152q-25 -61 -64 -92t-93 -31q-51 0 -78 24q-26 23 -26 58q0 36 28 76q24 -6 45 -6q35 0 55 16q21 17 38 62q13 34 33 121
q17 74 40 196l62 320h-137q-41 0 -77 -33q-37 -34 -57 -70h-65q17 72 39 132q22 59 49 92q28 33 71 52q40 17 101 17h831l-14 -190h-219l-37 -592v-33q0 -85 27 -116t84 -31q30 0 64 6q31 5 57 14z" />
    <glyph glyph-name="Wgrave" unicode="&#x1e80;" horiz-adv-x="2103" 
d="M1509 -20h-139l-326 1034l-342 -1034h-139l-352 1183q-12 45 -26 76q-15 34 -31 55q-16 22 -48 45q-27 20 -73 43v31h524v-33l-98 -39q-44 -17 -48 -52q-5 -39 17 -120l250 -921l360 1114h109l338 -1114l270 897q27 91 22 133q-4 40 -57 63l-92 39v33h447v-31
q-29 -15 -73 -37q-27 -14 -52 -40q-23 -24 -41 -64q-19 -41 -39 -104zM776 1782h234l145 -250h-102z" />
    <glyph glyph-name="wgrave" unicode="&#x1e81;" horiz-adv-x="1785" 
d="M180 856q-16 41 -38 62t-54 43l-53 34v37h497v-41l-71 -30q-21 -10 -37 -21q-15 -10 -21 -27q-6 -16 -3 -40q3 -20 14 -58l182 -584l272 789h99l272 -795l213 580q26 71 13 105q-14 36 -62 53l-76 28v41h434v-39l-73 -41q-15 -8 -28 -19q-13 -12 -28 -31q-13 -17 -29 -49
q-22 -44 -34 -73l-320 -800h-112l-260 776l-265 -776h-123zM702 1413h234l145 -250h-102z" />
    <glyph glyph-name="Wacute" unicode="&#x1e82;" horiz-adv-x="2103" 
d="M1509 -20h-139l-326 1034l-342 -1034h-139l-352 1183q-12 45 -26 76q-15 34 -31 55q-16 22 -48 45q-27 20 -73 43v31h524v-33l-98 -39q-44 -17 -48 -52q-5 -39 17 -120l250 -921l360 1114h109l338 -1114l270 897q27 91 22 133q-4 40 -57 63l-92 39v33h447v-31
q-29 -15 -73 -37q-27 -14 -52 -40q-23 -24 -41 -64q-19 -41 -39 -104zM1139 1532h-103l146 250h233z" />
    <glyph glyph-name="wacute" unicode="&#x1e83;" horiz-adv-x="1785" 
d="M180 856q-16 41 -38 62t-54 43l-53 34v37h497v-41l-71 -30q-21 -10 -37 -21q-15 -10 -21 -27q-6 -16 -3 -40q3 -20 14 -58l182 -584l272 789h99l272 -795l213 580q26 71 13 105q-14 36 -62 53l-76 28v41h434v-39l-73 -41q-15 -8 -28 -19q-13 -12 -28 -31q-13 -17 -29 -49
q-22 -44 -34 -73l-320 -800h-112l-260 776l-265 -776h-123zM805 1163h-103l146 250h233z" />
    <glyph glyph-name="Wdieresis" unicode="&#x1e84;" horiz-adv-x="2103" 
d="M1509 -20h-139l-326 1034l-342 -1034h-139l-352 1183q-12 45 -26 76q-15 34 -31 55q-16 22 -48 45q-27 20 -73 43v31h524v-33l-98 -39q-44 -17 -48 -52q-5 -39 17 -120l250 -921l360 1114h109l338 -1114l270 897q27 91 22 133q-4 40 -57 63l-92 39v33h447v-31
q-29 -15 -73 -37q-27 -14 -52 -40q-23 -24 -41 -64q-19 -41 -39 -104zM1339 1655q0 -52 -35 -87q-36 -36 -87 -36q-52 0 -88 36q-35 35 -35 87t35 87q36 36 88 36q51 0 87 -36q35 -35 35 -87zM1012 1655q0 -51 -36 -87t-87 -36t-87 36t-36 87t36 87t87 36t87 -36t36 -87z
" />
    <glyph glyph-name="wdieresis" unicode="&#x1e85;" horiz-adv-x="1785" 
d="M180 856q-16 41 -38 62t-54 43l-53 34v37h497v-41l-71 -30q-21 -10 -37 -21q-15 -10 -21 -27q-6 -16 -3 -40q3 -20 14 -58l182 -584l272 789h99l272 -795l213 580q26 71 13 105q-14 36 -62 53l-76 28v41h434v-39l-73 -41q-15 -8 -28 -19q-13 -12 -28 -31q-13 -17 -29 -49
q-22 -44 -34 -73l-320 -800h-112l-260 776l-265 -776h-123zM1151 1331q0 -44 -32 -78q-31 -32 -79 -32q-45 0 -77 32q-33 33 -33 78t33 78t77 33q48 0 79 -33q32 -34 32 -78zM856 1331q0 -45 -33 -78q-32 -32 -78 -32q-47 0 -78 32q-32 34 -32 78t32 78q31 33 78 33
q45 0 78 -33t33 -78z" />
    <glyph glyph-name="Ygrave" unicode="&#x1ef2;" horiz-adv-x="1304" 
d="M772 162q0 -55 35 -72l139 -59v-31h-561v31l139 59q35 17 35 72v456l-354 615q-35 58 -74 88q-43 33 -106 61v31h524v-31l-49 -18q-62 -23 -77 -55q-16 -35 21 -103l269 -497l252 495q14 26 23 54q8 24 3 42q-5 19 -24 33q-18 13 -60 29l-53 20v31h438v-31
q-34 -12 -63 -24q-25 -11 -54 -31q-25 -18 -50 -49q-20 -25 -50 -80l-303 -575v-461zM373 1782h233l146 -250h-103z" />
    <glyph glyph-name="ygrave" unicode="&#x1ef3;" horiz-adv-x="1181" 
d="M596 0h-102l-287 809q-10 29 -20 52q-11 26 -20 38q-12 16 -28 31q-13 12 -41 31l-53 34v37h494v-41l-72 -30q-29 -12 -42 -27q-12 -14 -14 -36q-1 -18 7 -53q9 -38 22 -77l203 -635l234 672q27 73 13 106q-14 34 -63 52l-75 28v41h434v-39l-74 -41q-30 -17 -57 -50
q-30 -36 -62 -122l-356 -962q-72 -196 -159 -273q-85 -75 -185 -75q-47 0 -79 12q-30 11 -52 32q-21 20 -30 43q-9 24 -9 46q0 47 33 84t82 37q51 0 89 -41q37 -40 29 -109q46 15 94 81q49 67 101 216zM401 1413h234l145 -250h-102z" />
    <glyph glyph-name="endash" unicode="&#x2013;" horiz-adv-x="1052" 
d="M14 508v145h1024v-145h-1024z" />
    <glyph glyph-name="emdash" unicode="&#x2014;" horiz-adv-x="2076" 
d="M14 508v145h2048v-145h-2048z" />
    <glyph glyph-name="quoteleft" unicode="&#x2018;" horiz-adv-x="456" 
d="M348 1417q-47 -61 -63 -105q-17 -48 -17 -79q0 -30 11 -50q15 -29 21 -37q8 -12 22 -36q10 -17 10 -49q0 -55 -35 -87t-82 -32q-53 0 -86 39t-33 96q0 45 20 97q18 47 50 100q31 51 67 93q43 49 72 75z" />
    <glyph glyph-name="quoteright" unicode="&#x2019;" horiz-adv-x="456" 
d="M96 967q49 64 64 105q16 45 16 79q0 31 -10 50q-11 21 -22 37q-4 5 -7.5 11t-7.5 13.5t-6 11.5q-10 17 -10 49q0 56 34 87q35 32 82 32q53 0 86 -39t33 -96q0 -48 -20 -97q-18 -44 -52 -100q-31 -51 -67 -93q-45 -53 -70 -75z" />
    <glyph glyph-name="quotesinglbase" unicode="&#x201a;" horiz-adv-x="456" 
d="M92 -236q49 63 64 106q16 45 16 79q0 31 -10 50q-11 21 -22 37l-21 36q-10 17 -10 49q0 56 34 87q35 32 82 32q53 0 86 -39t33 -97q0 -47 -20 -96q-18 -44 -52 -100q-31 -51 -67 -93q-45 -53 -70 -75z" />
    <glyph glyph-name="quotedblleft" unicode="&#x201c;" horiz-adv-x="802" 
d="M348 1417q-47 -61 -63 -105q-17 -48 -17 -79q0 -30 11 -50q15 -29 21 -37q8 -12 22 -36q10 -17 10 -49q0 -55 -35 -87t-82 -32q-53 0 -86 39t-33 96q0 45 20 97q18 47 50 100q31 51 67 93q43 49 72 75zM694 1417q-47 -61 -63 -105q-17 -48 -17 -79q0 -30 11 -50
q15 -29 21 -37q8 -12 22 -36q10 -17 10 -49q0 -55 -35 -87t-82 -32q-53 0 -86 39t-33 96q0 45 20 97q18 47 50 100q29 48 68 93q46 53 71 75z" />
    <glyph glyph-name="quotedblright" unicode="&#x201d;" horiz-adv-x="802" 
d="M96 967q49 64 64 105q16 45 16 79q0 31 -10 50q-11 21 -22 37q-4 5 -7.5 11t-7.5 13.5t-6 11.5q-10 17 -10 49q0 56 34 87q35 32 82 32q53 0 86 -39t33 -96q0 -48 -20 -97q-18 -44 -52 -100q-31 -51 -67 -93q-45 -53 -70 -75zM442 967q49 64 64 105q16 45 16 79
q0 31 -10 50q-15 29 -21 37q-8 12 -22 36q-10 17 -10 49q0 55 35 87t81 32q54 0 87 -39q32 -38 32 -96q0 -48 -20 -97t-51 -100q-29 -48 -68 -93q-45 -53 -70 -75z" />
    <glyph glyph-name="quotedblbase" unicode="&#x201e;" horiz-adv-x="802" 
d="M92 -236q49 63 64 106q16 45 16 79q0 31 -10 50q-11 21 -22 37l-21 36q-10 17 -10 49q0 56 34 87q35 32 82 32q53 0 86 -39t33 -97q0 -47 -20 -96q-18 -44 -52 -100q-31 -51 -67 -93q-45 -53 -70 -75zM438 -236q49 63 64 106q16 45 16 79q0 31 -10 50q-11 21 -22 37
l-21 36q-10 17 -10 49q0 56 34 87q35 32 82 32q53 0 86 -39t33 -97q0 -47 -20 -96q-18 -44 -52 -100q-31 -51 -67 -93q-45 -53 -70 -75z" />
    <glyph glyph-name="dagger" unicode="&#x2020;" horiz-adv-x="940" 
d="M440 -410l-47 621l41 651h-10l-344 -78h-25v226h25l344 -78h10v10l-78 447v24h226v-24l-78 -447v-10h12l342 76h27v-224h-27l-342 78h-12l59 -651l-41 -621h-82z" />
    <glyph glyph-name="daggerdbl" unicode="&#x2021;" horiz-adv-x="937" 
d="M356 -410v25l78 467v10h-12l-342 -76h-25v224h25l342 -78h12v700h-12l-342 -78h-25v224l25 2l342 -78h12v10l-78 447v24h226v-24l-78 -447v-10h12l342 76h25v-224h-25l-342 78h-12v-700h12l342 78h25v-224l-25 -2l-342 78h-12v-10l78 -467v-25h-226z" />
    <glyph glyph-name="bullet" unicode="&#x2022;" horiz-adv-x="1001" 
d="M502 227q-76 0 -143 29q-65 28 -115 78q-49 49 -78 116t-29 142q0 74 29 141q28 65 78 115q51 51 114 78q65 28 142 28t142 -28q67 -29 116 -78q50 -50 78 -115t28 -141q0 -77 -28 -142q-29 -67 -78 -116q-50 -50 -115 -78q-67 -29 -141 -29z" />
    <glyph glyph-name="ellipsis" unicode="&#x2026;" horiz-adv-x="1312" 
d="M229 -25q-55 0 -94 39t-39 95q0 53 39 92t94 39q54 0 93 -39q38 -38 38 -92q0 -57 -38 -95q-39 -39 -93 -39zM657 -25q-55 0 -94 39t-39 95q0 53 39 92t94 39q54 0 93 -39q38 -38 38 -92q0 -57 -38 -95q-39 -39 -93 -39zM1085 -25q-55 0 -94 39t-39 95q0 53 39 92t94 39
q54 0 93 -39t39 -92q0 -56 -39 -95t-93 -39z" />
    <glyph glyph-name="perthousand" unicode="&#x2030;" horiz-adv-x="2506" 
d="M391 -147l866 1462l-4 4q-18 -10 -56 -31.5t-58 -32.5q-55 -30 -129 -30q-78 0 -152 32q9 -26 13 -54q6 -46 6 -70q0 -70 -25 -159q-23 -83 -73 -159q-49 -74 -117 -122q-69 -48 -162 -48q-61 0 -119 25q-56 24 -96 67q-42 45 -65 103t-23 129q0 80 30 164q29 81 86 152
q56 70 132 113q77 44 167 44q67 0 110 -23q44 -24 80 -48q38 -25 84 -48q48 -23 120 -23q116 0 213 59q96 58 167 140h82l-979 -1646h-98zM518 721q69 0 122 47q51 45 87 114q34 64 52 141q18 75 18 130q0 30 -9 75q-7 37 -26 68q-19 32 -47 51t-72 19q-66 0 -117 -52
q-50 -52 -87 -125q-34 -68 -55 -150q-19 -75 -19 -128q0 -33 9 -68q9 -34 27 -61q16 -24 48 -44q27 -17 69 -17zM1298 -96q-69 0 -124 23q-60 25 -99 66q-41 42 -63 100q-23 60 -23 128q0 80 32 167q31 85 87 154q55 68 132 112t167 44q66 0 114 -22q49 -22 84 -63
q33 -38 51 -95q17 -52 17 -119q0 -79 -23 -162q-24 -88 -72 -161q-47 -72 -118 -123q-68 -49 -162 -49zM1311 -20q68 0 120 46q51 45 89 112q36 64 55 142q18 75 18 130q0 38 -9 76q-10 40 -30 69q-22 32 -51 49q-32 19 -73 19q-64 0 -114 -53t-86 -125t-54 -150
q-19 -82 -19 -129q0 -35 9 -68q8 -29 28 -59q17 -26 47 -43q28 -16 70 -16zM2056 -96q-70 0 -125 23q-58 24 -98 66q-42 44 -64 100q-22 57 -22 128q0 80 32 167q31 85 87 154q55 68 132 112t167 44q65 0 113 -22q50 -22 84 -63q34 -40 52 -95q17 -52 17 -119
q0 -75 -24 -162q-25 -91 -71 -161q-47 -72 -118 -123q-68 -49 -162 -49zM2068 -20q69 0 121 46q54 48 89 112q37 68 55 141t18 129q0 38 -9 77q-9 40 -30 70q-23 33 -50 49q-32 19 -73 19q-63 0 -114 -53q-52 -53 -86 -125q-36 -76 -55 -149q-19 -75 -19 -128q0 -34 9 -69
q8 -31 29 -60q19 -26 48 -43q28 -16 67 -16z" />
    <glyph glyph-name="guilsinglleft" unicode="&#x2039;" horiz-adv-x="630" 
d="M475 205l-409 338l409 340h76l-266 -340l266 -338h-76z" />
    <glyph glyph-name="guilsinglright" unicode="&#x203a;" horiz-adv-x="630" 
d="M156 205h-76l266 338l-266 340h76l409 -340z" />
    <glyph glyph-name="fraction" unicode="&#x2044;" horiz-adv-x="274" 
d="M-406 -96l977 1595h109l-975 -1595h-111z" />
    <glyph glyph-name="zerosuperior" unicode="&#x2070;" horiz-adv-x="806" 
d="M403 518q-93 0 -155 43q-63 44 -104 110q-40 65 -58 144q-18 78 -18 146q0 73 19 153q19 82 60 151q38 64 105 114q62 46 149 46t150 -45q64 -46 105 -113q43 -70 62 -150q19 -79 19 -154q0 -70 -18 -148q-18 -77 -59 -144t-103 -110t-154 -43zM403 586q51 0 80 45
q28 44 43 105q15 60 18 122t3 94q0 54 -4 115q-4 66 -20 135q-15 64 -44 112q-28 46 -76 46t-77 -47t-44 -112q-17 -74 -21 -133q-5 -77 -5 -112q0 -41 4 -97q4 -60 20 -123q15 -59 44 -105q28 -45 79 -45z" />
    <glyph glyph-name="foursuperior" unicode="&#x2074;" horiz-adv-x="806" 
d="M637 680q0 -30 7 -45q8 -17 28 -27l84 -45v-31h-420v31l94 51q20 12 27 27q8 18 8 45v88h-410v76l428 563h154v-555h102v-84h-102v-94zM465 1233l-277 -375h277v375z" />
    <glyph glyph-name="fivesuperior" unicode="&#x2075;" horiz-adv-x="806" 
d="M698 834q0 -77 -33 -133q-35 -59 -87 -99q-53 -41 -122 -62q-72 -22 -139 -22q-107 0 -169 46t-62 112q0 45 30 78q29 32 83 32q48 0 77 -29q31 -31 31 -73q0 -41 -20 -71q-22 -33 -35 -42q10 -1 18 -3q5 -1 21 -1q44 0 86 22q41 21 74 56q32 34 52 81q19 45 19 95
q0 77 -47 129q-46 51 -119 51q-48 0 -86 -19q-34 -17 -71 -44l-47 23l63 452h447v-147h-379l-29 -215q26 14 77 29q48 14 99 14q58 0 109 -20q50 -19 85 -55q35 -35 55 -83q19 -45 19 -102z" />
    <glyph glyph-name="sixsuperior" unicode="&#x2076;" horiz-adv-x="806" 
d="M629 1362q-136 -17 -222 -94q-88 -79 -122 -195q30 15 66 21t73 6q66 0 124 -20q55 -19 98 -54q42 -34 66 -84q23 -47 23 -111q0 -60 -24 -117q-23 -55 -68 -100q-42 -42 -102 -69t-129 -27q-74 0 -139 31q-61 29 -106 82q-44 52 -68 120q-23 66 -23 144q0 92 38 185
t109 164q73 73 174 122q100 49 232 61v-65zM389 1026q-27 0 -62 -9q-28 -7 -61 -22q-1 -15 -3 -41q-1 -16 -1 -53q0 -65 9 -124q9 -55 29 -101q19 -43 50 -69q29 -25 74 -25q39 0 65 20q27 21 42 51q16 33 22 68q6 37 6 72q0 98 -46 165q-47 68 -124 68z" />
    <glyph glyph-name="sevensuperior" unicode="&#x2077;" horiz-adv-x="806" 
d="M184 532l416 734h-528v147h657v-67l-385 -814h-160z" />
    <glyph glyph-name="eightsuperior" unicode="&#x2078;" horiz-adv-x="806" 
d="M709 1221q0 -35 -18 -67t-45 -57q-24 -23 -59 -46q-31 -20 -59 -33q44 -19 79 -42q42 -27 68 -53q30 -30 48 -67t18 -82q0 -58 -27 -104t-74 -81q-46 -34 -109 -52q-67 -19 -132 -19q-59 0 -123 16q-58 14 -105 45q-49 32 -74 72q-27 43 -27 97q0 44 18 79q19 36 47 64
t65 51q43 27 70 41q-75 35 -127 87q-53 53 -53 128q0 47 23 88q24 44 64 72q45 32 99 49q57 18 130 18t130 -18q55 -17 95 -48q39 -30 58 -67q20 -38 20 -71zM569 745q0 39 -18 68q-17 27 -49 51q-29 22 -71 42q-54 26 -81 38q-45 -25 -74 -64q-30 -40 -30 -106q0 -32 9 -66
t30 -61t50 -43t73 -16q77 0 119 49t42 108zM258 1225q0 -34 13 -57t39 -43q17 -13 61 -36q35 -18 78 -36q53 35 68 73q15 39 15 72q0 74 -39 116q-41 44 -102 44q-63 0 -98 -41t-35 -92z" />
    <glyph glyph-name="ninesuperior" unicode="&#x2079;" horiz-adv-x="806" 
d="M168 584q143 16 233 102q91 86 121 211q-69 -29 -155 -29q-63 0 -119 18q-58 19 -97 51q-42 35 -66 82q-24 48 -24 107q0 60 24 114q25 56 67 95q47 44 101 66q59 24 126 24q82 0 143 -32q65 -34 109 -88q43 -53 68 -126q24 -71 24 -147q0 -94 -38 -184
q-37 -87 -110 -157q-69 -67 -175 -114q-105 -47 -232 -59v66zM414 944q30 0 64 8q33 8 57 23q2 14 2 20v17q0 63 -10 133q-9 64 -28 112q-19 49 -53 78t-77 29q-39 0 -62 -17q-25 -19 -40 -47q-14 -27 -22 -64q-7 -34 -7 -73q0 -95 45 -157t131 -62z" />
    <glyph glyph-name="zeroinferior" unicode="&#x2080;" horiz-adv-x="806" 
d="M403 -14q-93 0 -155 43q-64 44 -104 109q-39 64 -58 145q-18 78 -18 145q0 74 19 154t60 150q39 66 105 115q62 46 149 46t150 -45t105 -114q43 -71 62 -149q19 -79 19 -155q0 -69 -18 -147t-59 -145q-40 -66 -103 -109q-62 -43 -154 -43zM403 53q51 0 80 45
q27 43 43 106q15 60 18 122q3 61 3 94q0 54 -4 115q-4 66 -20 135q-14 62 -44 111q-28 46 -76 46t-77 -47q-29 -48 -44 -111q-17 -74 -21 -133q-5 -77 -5 -112q0 -41 4 -97q4 -60 20 -123q15 -60 44 -106q28 -45 79 -45z" />
    <glyph glyph-name="oneinferior" unicode="&#x2081;" horiz-adv-x="806" 
d="M319 721l-159 -72l-37 49l258 183h119v-727q0 -55 35 -72l104 -51v-31h-469v31l115 51q34 16 34 72v567z" />
    <glyph glyph-name="twoinferior" unicode="&#x2082;" horiz-adv-x="806" 
d="M420 893q129 0 210 -59q83 -60 83 -170q0 -48 -18 -89q-17 -39 -48 -82q-26 -36 -75 -87q-58 -60 -99 -101l-168 -172h400v-133h-586v49l246 277q82 92 122 171q39 77 39 142q0 43 -15 75q-15 31 -40 53t-57 32q-31 10 -68 10q-46 0 -78 -14q28 -16 49 -45q21 -28 21 -64
q0 -40 -33 -75q-32 -33 -80 -33q-49 0 -83 35q-33 34 -33 79q0 33 21 69t61 64q41 29 99 48q60 20 130 20z" />
    <glyph glyph-name="threeinferior" unicode="&#x2083;" horiz-adv-x="806" 
d="M111 137q0 49 33 78q36 31 81 31t76 -29t31 -76q0 -33 -15 -57q-17 -27 -32 -41q10 -2 15 -2h13q44 0 85 19t74 52q31 31 52 75q21 43 21 94q0 43 -18 78t-45 57t-62 33q-33 10 -70 10q-18 0 -26 -1q-16 -2 -23 -3l-49 37l227 245h-358v144h547v-62l-217 -229
q52 -7 105 -31q51 -23 88 -57q38 -35 62 -83q23 -46 23 -106q0 -77 -37 -136q-38 -60 -95 -103q-58 -43 -128 -66q-67 -22 -135 -22q-98 0 -160 43q-63 43 -63 108z" />
    <glyph glyph-name="fourinferior" unicode="&#x2084;" horiz-adv-x="806" 
d="M637 147q0 -30 7 -45q7 -16 28 -26l84 -45v-31h-420v31l94 51q20 12 27 27q8 18 8 45v88h-410v75l428 564h154v-555h102v-84h-102v-95zM465 700l-277 -374h277v374z" />
    <glyph glyph-name="fiveinferior" unicode="&#x2085;" horiz-adv-x="806" 
d="M698 301q0 -76 -33 -132q-35 -59 -87 -99q-55 -43 -122 -63q-69 -21 -139 -21q-107 0 -169 46t-62 111q0 45 30 78t83 33q47 0 77 -30q31 -31 31 -72t-20 -71q-22 -33 -35 -42q10 -1 18 -3q5 -1 21 -1q45 0 86 21q39 20 74 57q32 34 52 81q19 45 19 95q0 77 -47 129
q-47 51 -119 51q-48 0 -86 -19q-34 -17 -71 -44l-47 22l63 453h447v-148h-379l-29 -215q29 16 77 30q45 13 99 13q61 0 109 -19t85 -56q35 -35 55 -83q19 -45 19 -102z" />
    <glyph glyph-name="sixinferior" unicode="&#x2086;" horiz-adv-x="806" 
d="M629 829q-136 -17 -222 -94q-88 -79 -122 -194q27 13 66 20q36 6 73 6q68 0 124 -19q55 -19 98 -54q42 -34 66 -84q23 -47 23 -111q0 -61 -24 -118q-23 -54 -68 -99q-44 -44 -102 -70t-129 -26q-76 0 -139 30q-61 29 -106 82q-44 52 -68 120q-23 66 -23 144q0 93 38 186
t109 164q73 73 174 122q100 49 232 61v-66zM389 494q-24 0 -62 -10q-33 -9 -61 -21q-1 -15 -3 -41q-1 -16 -1 -53q0 -65 9 -124q9 -57 29 -102q18 -41 50 -68q31 -26 74 -26q38 0 65 21t42 51q17 33 22 67q6 38 6 72q0 99 -46 166q-47 68 -124 68z" />
    <glyph glyph-name="seveninferior" unicode="&#x2087;" horiz-adv-x="806" 
d="M184 0l416 733h-528v148h657v-68l-385 -813h-160z" />
    <glyph glyph-name="eightinferior" unicode="&#x2088;" horiz-adv-x="806" 
d="M709 688q0 -34 -18 -66q-19 -34 -45 -58q-24 -23 -59 -46q-31 -20 -59 -33q44 -19 79 -42q42 -27 68 -53q31 -31 48 -66q18 -38 18 -82q0 -59 -27 -105t-74 -81q-46 -34 -109 -52t-132 -18q-63 0 -123 15q-58 14 -105 45q-48 31 -74 73q-27 43 -27 96q0 45 18 80
q17 33 47 63t65 52q43 27 70 41q-75 35 -127 87q-53 53 -53 128q0 47 23 88q23 42 64 71q45 32 99 49q60 19 130 19t130 -19q55 -17 95 -48q39 -30 58 -66q20 -38 20 -72zM569 213q0 39 -18 68q-17 27 -49 51q-29 22 -71 42q-54 26 -81 38q-44 -24 -74 -65t-30 -105
q0 -32 9 -67q8 -32 30 -60q21 -27 50 -43q31 -17 73 -17q77 0 119 49q42 50 42 109zM258 692q0 -33 13 -56t39 -43q21 -16 61 -37q35 -18 78 -36q53 35 68 74t15 72q0 73 -39 115q-41 44 -102 44q-63 0 -98 -41t-35 -92z" />
    <glyph glyph-name="nineinferior" unicode="&#x2089;" horiz-adv-x="806" 
d="M168 51q142 16 233 103q91 86 121 211q-69 -29 -155 -29q-67 0 -119 17q-58 19 -97 51q-42 35 -66 82q-24 48 -24 108t24 114q25 56 67 95q45 42 101 65q61 25 126 25q80 0 143 -33q65 -34 109 -88q43 -53 68 -126q24 -70 24 -146q0 -95 -38 -185q-36 -85 -110 -156
q-71 -68 -175 -115q-102 -46 -232 -58v65zM414 412q30 0 64 8q35 8 57 22q2 14 2 21v16q0 63 -10 133q-9 66 -28 113q-19 49 -53 78q-32 28 -77 28q-39 0 -62 -17q-26 -20 -40 -46q-14 -27 -22 -65q-7 -34 -7 -72q0 -97 45 -158t131 -61z" />
    <glyph glyph-name="Euro" unicode="&#x20ac;" 
d="M889 518h-434q34 -202 128 -322q93 -118 234 -118q33 0 67 6q31 5 63 15q8 2 55 19q21 7 42 17l50 -86q-48 -21 -138 -50q-74 -24 -168 -24q-112 0 -205 41q-88 39 -160 114q-67 70 -115 172q-44 94 -66 216h-127v100h112q-4 21 -4 51v54q0 17 2 49q2 25 6 53h-116v101
h137q23 89 72 186q47 93 113 163q66 71 153 115q86 44 188 44q123 0 195 -60q71 -59 71 -139q0 -61 -36 -97q-38 -38 -90 -38q-46 0 -81 30q-34 30 -34 78q0 39 16 68q19 35 31 49q-16 9 -41 16q-26 7 -51 7q-68 0 -118 -38q-49 -37 -86 -99q-34 -56 -59 -135
q-24 -76 -36 -150h465l-11 -101h-469q-4 -27 -4 -59v-51q0 -33 1 -49q0 -5 1 -15t1.5 -18t0.5 -15h453z" />
    <glyph glyph-name="afii61289" unicode="&#x2113;" horiz-adv-x="890" 
d="M397 520q61 46 107 117q49 76 79 156q30 81 49 171q17 82 17 164q0 104 -32 177q-31 71 -91 71q-72 0 -100 -101q-29 -104 -29 -280v-475zM223 971q0 102 22 193q21 89 61 149q40 61 96 95t126 34q54 0 105 -23q49 -22 86 -65q35 -41 57 -106q21 -63 21 -142
q0 -178 -106 -355q-106 -176 -294 -317v-43q0 -147 44 -227t149 -80q74 0 133 34t94 75l31 -21q-24 -37 -62 -80q-33 -38 -71 -64q-41 -29 -86 -43q-50 -16 -109 -16q-56 0 -113 19q-55 18 -96 59q-39 39 -64 110q-24 69 -24 169l-119 -88l-41 53l160 119v561z" />
    <glyph glyph-name="trademark" unicode="&#x2122;" horiz-adv-x="1411" 
d="M1262 973q1 -32 7 -45q4 -10 23 -21l31 -16v-21h-231v23l30 14q17 8 22 16t5 25v15l-23 307l-170 -400h-63l-172 402l-19 -301v-13q0 -43 25 -51l33 -10v-27h-195v25l33 12q29 11 31 64l24 352q0 18 -2 30q-1 9 -12 15l-37 23v22h205l154 -354l153 354h178v-22l-39 -21
q-7 -4 -12 -12q-4 -7 -4 -29v-12zM545 1266h-33l-68 82q-12 12 -22 12h-64v-408q0 -34 33 -45l35 -12v-25h-270v25l34 12q33 11 33 45v408h-63q-11 0 -23 -12l-67 -82h-19v147h494v-147z" />
    <glyph glyph-name="estimated" unicode="&#x212e;" horiz-adv-x="1771" 
d="M397 307q0 -66 56 -119q58 -55 136 -91t173 -58q92 -21 166 -21q66 0 140 19q67 17 136 50q63 30 124 77q60 46 106 98h116q-111 -135 -274 -211q-162 -76 -358 -76q-168 0 -321 58q-152 58 -262 156q-111 99 -176 234t-65 286q0 149 65 284q64 132 176 232
q109 97 260 155t318 58q169 0 319 -59q151 -60 258 -159q111 -103 173 -238q63 -136 63 -290h-1310q-19 0 -19 -22v-363zM1403 729q20 0 20 19v364q0 22 -9 49q-9 26 -25 47q-101 94 -222 144q-120 49 -258 49q-140 0 -256 -49t-217 -144q-14 -18 -27 -47q-12 -27 -12 -49
v-364q0 -19 19 -19h987z" />
    <glyph glyph-name="onethird" unicode="&#x2153;" horiz-adv-x="1986" 
d="M319 1253l-159 -71l-37 49l258 182h119v-727q0 -55 35 -72l104 -51v-31h-469v31l115 51q34 16 34 72v567zM451 -96l976 1595h109l-975 -1595h-110zM1245 137q0 48 34 78q36 31 81 31t76 -29q30 -28 30 -76q0 -35 -14 -57q-16 -25 -33 -41q10 -2 16 -2h13q44 0 85 19
t74 52q31 31 52 75q20 41 20 94q0 45 -17 78q-18 35 -45 57q-26 22 -63 33q-33 10 -69 10q-19 0 -27 -1t-22 -3l-50 37l228 245h-359v144h547v-62l-217 -229q54 -7 106 -31q51 -23 88 -57q36 -33 61 -83q24 -48 24 -106q0 -77 -37 -136q-38 -60 -95 -103q-58 -43 -128 -66
q-67 -22 -136 -22q-97 0 -159 43q-64 44 -64 108z" />
    <glyph glyph-name="twothirds" unicode="&#x2154;" horiz-adv-x="1986" 
d="M420 1425q129 0 210 -59q83 -60 83 -170q0 -48 -18 -88q-19 -42 -48 -83q-26 -36 -75 -87q-29 -30 -99 -100l-168 -172h400v-134h-586v50l246 276q82 92 122 171q39 77 39 142q0 43 -15 75q-15 31 -40 53t-57 32q-31 10 -68 10q-46 0 -78 -14q28 -16 49 -45
q21 -28 21 -63q0 -41 -33 -75t-80 -34q-49 0 -83 36q-33 34 -33 79q0 32 21 68q22 37 61 65q41 28 99 48q57 19 130 19zM451 -96l976 1595h109l-975 -1595h-110zM1245 137q0 48 34 78q36 31 81 31t76 -29q30 -28 30 -76q0 -35 -14 -57q-16 -25 -33 -41q10 -2 16 -2h13
q44 0 85 19t74 52q31 31 52 75q20 41 20 94q0 45 -17 78q-18 35 -45 57q-26 22 -63 33q-33 10 -69 10q-19 0 -27 -1t-22 -3l-50 37l228 245h-359v144h547v-62l-217 -229q54 -7 106 -31q51 -23 88 -57q36 -33 61 -83q24 -48 24 -106q0 -77 -37 -136q-38 -60 -95 -103
q-58 -43 -128 -66q-67 -22 -136 -22q-97 0 -159 43q-64 44 -64 108z" />
    </font>
</defs>
</svg>
