<?xml version="1.0" standalone="no"?>
<!DOCTYPE svg PUBLIC "-//W3C//DTD SVG 1.1//EN" "http://www.w3.org/Graphics/SVG/1.1/DTD/svg11.dtd" >
<svg xmlns="http://www.w3.org/2000/svg" xmlns:xlink="http://www.w3.org/1999/xlink" version="1.1">
<metadata>
Created by FontForge 20190801 at Sat Dec 12 15:15:52 1953
 By www-data
Copyright (c) 2015 by Jonas Hecksher, Playtype, e-Types AS. All rights reserved.
</metadata>
<defs>
<font id="PlayTypeDuNordMedium" horiz-adv-x="560" >
  <font-face 
    font-family="PlayTypeDuNordMedium"
    font-weight="500"
    font-stretch="normal"
    units-per-em="1000"
    panose-1="2 11 6 3 4 0 0 2 0 4"
    ascent="800"
    descent="-200"
    x-height="502"
    cap-height="693"
    bbox="-175 -204 1157 914"
    underline-thickness="50"
    underline-position="-210"
    unicode-range="U+000D-FB04"
  />
<missing-glyph horiz-adv-x="672" 
d="M121 650v-352h56v138h65q60 0 94 29.5t34 80.5q0 104 -128 104h-121zM313 543q0 -60 -78 -60h-58v121h58q78 0 78 -61zM512 295q28 0 39 5v44q-19 -6 -35 -6q-31 0 -31 30v143h66v43h-66v70h-51v-70h-44v-43h44v-142q0 -39 18 -56.5t60 -17.5zM60 693h552v-693h-552v693z
" />
    <glyph glyph-name="uniE0A3" unicode="fb" horiz-adv-x="901" 
d="M331 422h-131v-422h-96v422h-87v80h87v51q0 78 36.5 114t117.5 36q42 0 73 -9v-81q-36 9 -68 9q-63 0 -63 -61v-59h131v-80zM491 78h-1l-24 -78h-65v693h96v-265h1q25 41 64 64t85 23q89 0 149 -75t60 -186q0 -113 -62 -190t-154 -77q-98 0 -149 91zM495 249
q0 -81 35 -128.5t97 -47.5q60 0 95 48t35 129t-35.5 130t-95.5 49t-95.5 -49t-35.5 -131z" />
    <glyph glyph-name="uniE0A4" unicode="ffb" horiz-adv-x="1203" 
d="M792 78h-1l-24 -78h-64v693h95v-265h2q54 87 148 87q89 0 149 -74q60 -75 60 -186q0 -114 -62 -191t-153 -77q-99 0 -150 91zM633 422h-131v-422h-96v422h-206v-422h-96v422h-87v80h87v51q0 78 36.5 114t117.5 36q42 0 73 -9v-81q-34 9 -65 9q-66 0 -66 -61v-59h206v51
q0 78 36 114t116 36q44 0 75 -9v-81q-34 9 -65 9q-66 0 -66 -61v-59h131v-80zM797 248q0 -81 35 -128t96 -47q60 0 95 48t35 129q0 82 -35 130.5t-95 48.5t-95.5 -49.5t-35.5 -131.5z" />
    <glyph glyph-name="uniE0A5" unicode="fh" horiz-adv-x="875" 
d="M497 0h-96v693h96v-293l59 60q29 29 59 42q29 13 64 13q59 0 94 -38q34 -37 34 -104v-373h-96v367q0 29 -15 47q-15 17 -40 17q-16 0 -30 -7q-13 -6 -32 -23l-97 -90v-311zM17 422v80h87v51q0 78 37 114q36 36 117 36q42 0 73 -9v-81q-10 3 -32 7q-24 2 -36 2
q-32 0 -47 -15q-16 -15 -16 -46v-59h131v-80h-131v-422h-96v422h-87z" />
    <glyph glyph-name="uniE0A6" unicode="ffh" horiz-adv-x="1177" 
d="M104 422h-87v80h87v51q0 78 37 114q36 36 117 36q42 0 73 -9v-81q-9 3 -31 7q-24 2 -34 2q-33 0 -50 -14q-16 -15 -16 -47v-59h206v51q0 78 36 114t116 36q13 0 39 -2q12 -1 36 -7v-81q-9 3 -31 7q-24 2 -34 2q-33 0 -50 -14q-16 -15 -16 -47v-59h131v-80h-131v-422h-96
v422h-206v-422h-96v422zM703 693h95v-293l60 60q29 29 59 42q29 13 64 13q59 0 93 -38t34 -104v-373h-96v367q0 29 -15 47q-15 17 -39 17q-17 0 -31 -7q-13 -6 -32 -23l-97 -90v-311h-95v693z" />
    <glyph glyph-name="uniE0A7" unicode="fk" horiz-adv-x="845" 
d="M331 422h-131v-422h-96v422h-87v80h87v51q0 78 36.5 114t117.5 36q42 0 73 -9v-81q-36 9 -68 9q-63 0 -63 -61v-59h131v-80zM814 502l-168 -185l199 -317h-113l-147 252l-88 -96v-156h-96v693h96v-430h2l206 239h109z" />
    <glyph glyph-name="uniE0A8" unicode="ffk" horiz-adv-x="1146" 
d="M633 422h-131v-422h-96v422h-206v-422h-96v422h-87v80h87v51q0 78 36.5 114t117.5 36q42 0 73 -9v-81q-34 9 -65 9q-66 0 -66 -61v-59h206v51q0 78 36 114t116 36q44 0 75 -9v-81q-34 9 -65 9q-66 0 -66 -61v-59h131v-80zM1116 502l-168 -185l198 -317h-113l-146 252
l-89 -96v-156h-95v693h95v-430h3l206 239h109z" />
    <glyph glyph-name="uniE0A9" unicode="fj" horiz-adv-x="564" 
d="M331 422h-131v-422h-96v422h-87v80h87v51q0 78 37.5 114t120.5 36q39 0 69 -9v-81q-34 9 -65 9q-66 0 -66 -61v-59h131v-80zM494 -63q-6 -65 -39 -92q-35 -27 -127 -27v79h2q39 0 51 7.5t16 31.5q4 23 4 90v476h96v-482q0 -8 -3 -83zM400 693h98v-104h-98v104z" />
    <glyph glyph-name="uniE0AA" unicode="ffj" horiz-adv-x="865" 
d="M633 422h-131v-422h-96v422h-206v-422h-96v422h-87v80h87v51q0 78 36 114t115 36q45 0 76 -9v-81q-34 9 -65 9q-66 0 -66 -61v-59h206v51q0 78 36 114t115 36q45 0 76 -9v-81q-36 9 -65 9q-66 0 -66 -61v-59h131v-80zM795 -63q-6 -66 -39 -93q-34 -26 -127 -26v79h3
q39 0 51 7.5t16 31.5q4 23 4 90v476h95v-482q0 -8 -3 -83zM701 693h99v-104h-99v104z" />
    <glyph glyph-name="f_f" unicode="ff" horiz-adv-x="634" 
d="M633 422h-131v-422h-96v422h-206v-422h-96v422h-87v80h87v51q0 78 36.5 114t117.5 36q42 0 73 -9v-81q-34 9 -65 9q-66 0 -66 -61v-59h206v51q0 78 36 114t116 36q44 0 75 -9v-81q-34 9 -65 9q-66 0 -66 -61v-59h131v-80z" />
    <glyph glyph-name="fi" unicode="fi" horiz-adv-x="574" 
d="M331 422h-131v-422h-96v422h-87v80h87v51q0 78 36.5 114t117.5 36q42 0 73 -9v-81q-36 9 -68 9q-63 0 -63 -61v-59h131v-80zM404 693h99v-104h-99v104zM406 502h95v-502h-95v502z" />
    <glyph glyph-name="fl" unicode="fl" horiz-adv-x="576" 
d="M331 422h-131v-422h-96v422h-87v80h87v51q0 78 36.5 114t117.5 36q42 0 73 -9v-81q-36 9 -68 9q-63 0 -63 -61v-59h131v-80zM407 693h95v-693h-95v693z" />
    <glyph glyph-name="f_f_i" unicode="ffi" horiz-adv-x="876" 
d="M633 422h-131v-422h-96v422h-206v-422h-96v422h-87v80h87v51q0 78 36.5 114t117.5 36q42 0 73 -9v-81q-34 9 -65 9q-66 0 -66 -61v-59h206v51q0 78 36 114t116 36q44 0 75 -9v-81q-34 9 -65 9q-66 0 -66 -61v-59h131v-80zM707 502h96v-502h-96v502zM706 693h98v-104h-98
v104z" />
    <glyph glyph-name="f_f_l" unicode="ffl" horiz-adv-x="878" 
d="M633 422h-131v-422h-96v422h-206v-422h-96v422h-87v80h87v51q0 78 36.5 114t117.5 36q42 0 73 -9v-81q-34 9 -65 9q-66 0 -66 -61v-59h206v51q0 78 36 114t116 36q44 0 75 -9v-81q-34 9 -65 9q-66 0 -66 -61v-59h131v-80zM708 693h96v-693h-96v693z" />
    <glyph glyph-name=".notdef" horiz-adv-x="672" 
d="M121 650v-352h56v138h65q60 0 94 29.5t34 80.5q0 104 -128 104h-121zM313 543q0 -60 -78 -60h-58v121h58q78 0 78 -61zM512 295q28 0 39 5v44q-19 -6 -35 -6q-31 0 -31 30v143h66v43h-66v70h-51v-70h-44v-43h44v-142q0 -39 18 -56.5t60 -17.5zM60 693h552v-693h-552v693z
" />
    <glyph glyph-name="uni0000" horiz-adv-x="0" 
 />
    <glyph glyph-name="uni0000" horiz-adv-x="0" 
 />
    <glyph glyph-name="uni000D" unicode="&#xd;" horiz-adv-x="0" 
 />
    <glyph glyph-name="space" unicode=" " horiz-adv-x="220" 
 />
    <glyph glyph-name="exclam" unicode="!" horiz-adv-x="240" 
d="M60 693h121l-31 -503h-59zM65 112h110v-112h-110v112z" />
    <glyph glyph-name="quotedbl" unicode="&#x22;" horiz-adv-x="425" 
d="M258 693h86v-242h-86v242zM79 693h86v-242h-86v242z" />
    <glyph glyph-name="numbersign" unicode="#" horiz-adv-x="528" 
d="M204 408v-125h120v125h-120zM480 207h-80v-207h-76v207h-120v-207h-76v207h-81v76h81v125h-81v76h81v209h76v-209h120v209h76v-209h80v-76h-80v-125h80v-76z" />
    <glyph glyph-name="dollar" unicode="$" 
d="M138 512q0 -37 23.5 -62t76.5 -43v204q-47 -6 -73.5 -32t-26.5 -67zM428 180q0 40 -26 65.5t-86 44.5v-220q51 5 81.5 35t30.5 75zM316 -11v-96h-78v97q-81 9 -133 56t-84 139l100 28q32 -110 117 -136v235q-114 28 -156 72q-43 43 -43 114q0 83 53 135t146 59v90h78v-93
q148 -22 194 -185l-96 -15q-25 88 -98 113v-217q106 -27 146 -58q65 -47 65 -137q0 -86 -56.5 -140t-154.5 -61z" />
    <glyph glyph-name="percent" unicode="%" horiz-adv-x="854" 
d="M815 166q0 -72 -50 -124q-51 -52 -123 -52q-73 -1 -124 51q-51 53 -51 125t51 125q50 51 123 51t124 -51q50 -53 50 -125zM589 714h83l-398 -727h-83zM386 510q0 -72 -50 -124q-51 -51 -124 -51q-74 0 -123 51q-51 51 -51 124q0 72 51 125q49 51 123 51q73 0 124 -51
q50 -53 50 -125zM548 166q0 -44 26.5 -73t66.5 -29q41 0 67.5 29.5t26.5 72.5t-26.5 72.5t-67.5 29.5q-40 0 -66.5 -29t-26.5 -73zM118 510q0 -43 26.5 -72.5t67.5 -29.5q40 0 66.5 29t26.5 73t-26.5 73.5t-66.5 29.5q-41 0 -67.5 -29.5t-26.5 -73.5z" />
    <glyph glyph-name="ampersand" unicode="&#x26;" horiz-adv-x="649" 
d="M244 543q0 -47 53 -115h2q103 50 103 119q0 33 -21.5 53.5t-55.5 20.5q-36 0 -58.5 -21.5t-22.5 -56.5zM257 72q72 0 133 81l-138 177q-59 -30 -84 -63.5t-25 -78.5q0 -51 32.5 -83.5t81.5 -32.5zM619 357l-117 -191l130 -166h-121l-66 84q-79 -97 -195 -97
q-93 0 -151 52q-59 53 -59 139q0 141 165 211q-64 87 -64 157q0 71 52 116q53 44 135 44q78 0 125 -42t47 -109q0 -115 -156 -186l101 -131l70 119h104z" />
    <glyph glyph-name="quotesingle" unicode="'" horiz-adv-x="246" 
d="M79 693h86v-242h-86v242z" />
    <glyph glyph-name="parenleft" unicode="(" horiz-adv-x="320" 
d="M157 255q0 -99 36 -223q33 -122 88 -214h-93q-50 74 -90 204q-40 129 -40 233q0 103 42 233q40 128 93 205h88q-52 -85 -88 -213q-36 -126 -36 -225z" />
    <glyph glyph-name="parenright" unicode=")" horiz-adv-x="320" 
d="M261 255q0 -105 -40 -234t-90 -203h-92q52 85 88 213q35 126 35 224q0 99 -36 225q-36 128 -88 213h89q52 -76 93 -206q41 -132 41 -232z" />
    <glyph glyph-name="asterisk" unicode="*" horiz-adv-x="391" 
d="M360 546l-130 -25l91 -96l-59 -45l-66 115l-65 -116l-59 44l90 98l-130 24l22 72l121 -57l-16 133h75l-17 -133l121 57z" />
    <glyph glyph-name="plus" unicode="+" 
d="M496 251h-175v-196h-84v196h-173v81h173v195h84v-195h175v-81z" />
    <glyph glyph-name="comma" unicode="," horiz-adv-x="250" 
d="M182 112v-103l-55 -140h-60l47 131h-46v112h114z" />
    <glyph glyph-name="hyphen" unicode="-" horiz-adv-x="309" 
d="M30 331h249v-82h-249v82z" />
    <glyph glyph-name="period" unicode="." horiz-adv-x="250" 
d="M68 112h114v-112h-114v112z" />
    <glyph glyph-name="slash" unicode="/" horiz-adv-x="454" 
d="M371 706h84l-372 -719h-83z" />
    <glyph glyph-name="zero" unicode="0" 
d="M524 339q0 -157 -66 -254q-66 -98 -178 -98t-178 98q-66 97 -66 254q0 159 66 256q65 98 178 98t179 -98q65 -98 65 -256zM136 339q0 -127 38.5 -197.5t105.5 -70.5t105.5 70.5t38.5 197.5q0 128 -38.5 199t-105.5 71t-105.5 -71t-38.5 -199z" />
    <glyph glyph-name="one" unicode="1" 
d="M379 80h147v-80h-419v80h176v485q-16 -40 -67 -88q-52 -49 -101 -72l-28 85q58 26 117 82q60 59 82 111h93v-603z" />
    <glyph glyph-name="two" unicode="2" 
d="M174 86h328v-86h-460q11 100 74 175q25 30 52 53q30 26 93 72q91 66 118 103t27 79q0 52 -34 89t-86 37q-125 0 -148 -182l-92 26q11 109 76 175q66 66 168 66q94 0 156 -59q61 -60 61 -150q0 -81 -60 -147q-15 -17 -44 -43q-20 -17 -83 -61q-78 -54 -107 -85
q-29 -32 -39 -62z" />
    <glyph glyph-name="three" unicode="3" 
d="M416 212q0 60 -40.5 97t-105.5 37h-90v73l180 178h-298v86h417v-85l-178 -174q99 -2 159 -57q59 -56 59 -150q0 -106 -69 -167q-69 -63 -181 -63q-91 0 -156 51q-64 51 -82 139l99 14q29 -119 146 -119q67 0 103.5 36.5t36.5 103.5z" />
    <glyph glyph-name="four" unicode="4" 
d="M532 151h-82v-151h-95v151h-316v103l272 429h139v-453h82v-79zM354 609l-236 -379h237v379h-1z" />
    <glyph glyph-name="five" unicode="5" 
d="M124 683h360v-86h-286l-28 -204q21 17 57 28t71 11q96 0 160 -60t64 -154q0 -105 -69 -168t-183 -63q-91 0 -153 52q-65 53 -81 138l100 15q28 -120 144 -120q61 0 98 40q38 41 38 104q0 58 -38 96q-40 38 -101 38q-35 0 -67.5 -12.5t-50.5 -31.5l-88 4z" />
    <glyph glyph-name="six" unicode="6" 
d="M296 693q84 0 141.5 -48.5t74.5 -132.5l-103 -15q-13 57 -43 83.5t-82 26.5q-65 0 -101 -69.5t-37 -191.5q27 34 74 57q45 22 90 22q92 0 150 -58t58 -152q0 -95 -66 -162t-162 -67q-115 0 -180 98t-65 253q0 156 67 256t184 100zM297 346q-78 0 -146 -95q11 -81 48 -130
q38 -51 91 -51q55 0 91 38q35 38 35 97q0 65 -32 103t-87 38z" />
    <glyph glyph-name="seven" unicode="7" 
d="M414 597h-367v86h458v-86q-98 -149 -118 -186q-26 -46 -46 -94q-33 -78 -50 -153q-19 -83 -23 -164h-112q2 56 12 110q9 54 27 107q13 37 40 97q20 43 56 100q21 36 74 112q13 19 25.5 37t17.5 25.5t6 8.5z" />
    <glyph glyph-name="eight" unicode="8" 
d="M503 514q0 -48 -30 -88q-31 -41 -75 -61v-3q125 -55 125 -174q0 -90 -69 -145q-71 -56 -174 -56t-173 56q-70 55 -70 146q0 117 123 172v1q-46 21 -73 62q-30 42 -30 90q0 76 66 128q64 51 157 51q92 0 158 -51q65 -53 65 -128zM280 399q52 0 87 31q36 31 36 76t-35 74.5
t-88 29.5t-88 -29q-36 -30 -36 -75t36 -76q35 -31 88 -31zM280 70q58 0 102 35q42 35 42 86q0 58 -41 94q-41 35 -103 35q-64 0 -103.5 -35t-39.5 -94q0 -51 42 -86q41 -35 101 -35z" />
    <glyph glyph-name="nine" unicode="9" 
d="M260 333q81 0 147 95q-11 80 -48 131q-38 50 -91 50q-55 0 -91 -38q-36 -39 -36 -98q0 -64 32 -102t87 -38zM252 -13q-86 0 -148 50q-61 49 -78 131l103 14q25 -109 132 -109q72 0 111 68t40 191q-26 -33 -73 -56q-45 -22 -92 -22q-90 0 -148 58q-59 59 -59 151
q0 95 66 163q66 67 162 67q115 0 180 -98q65 -100 65 -254q0 -158 -68 -256q-69 -98 -193 -98z" />
    <glyph glyph-name="colon" unicode=":" horiz-adv-x="250" 
d="M68 502h114v-113h-114v113zM68 112h114v-112h-114v112z" />
    <glyph glyph-name="semicolon" unicode=";" horiz-adv-x="250" 
d="M68 502h114v-112h-114v112zM182 112v-103l-55 -140h-60l47 131h-46v112h114z" />
    <glyph glyph-name="less" unicode="&#x3c;" 
d="M153 291l343 -153v-91l-432 203v83l432 203v-91z" />
    <glyph glyph-name="equal" unicode="=" 
d="M64 425h432v-82h-432v82zM64 240h432v-82h-432v82z" />
    <glyph glyph-name="greater" unicode="&#x3e;" 
d="M64 536l432 -203v-83l-432 -203v91l343 153l-343 154v91z" />
    <glyph glyph-name="question" unicode="?" horiz-adv-x="470" 
d="M354 352q-51 -58 -65 -89q-15 -35 -15 -73h-91q0 58 18 105q18 46 73 107q39 44 51 69q11 27 11 53q0 45 -27 72t-73 27q-47 0 -81 -37t-51 -106l-92 30q23 93 83 144.5t146 51.5q90 0 143 -49q54 -50 54 -131q0 -44 -16 -80q-17 -39 -68 -94zM172 112h113v-112h-113v112
z" />
    <glyph glyph-name="at" unicode="@" horiz-adv-x="771" 
d="M393 -41q77 0 144 38l33 -51q-94 -49 -184 -49q-148 0 -247 102q-100 101 -100 253q0 155 103 259q102 105 249 105q143 0 246 -101q101 -103 101 -245q0 -97 -46 -158q-46 -63 -118 -63q-66 0 -85 51q-39 -58 -117 -58q-75 0 -118.5 56t-43.5 156q0 101 44.5 158.5
t120.5 57.5q58 0 98 -43v35h77v-266q0 -47 8.5 -66.5t29.5 -19.5q35 0 56.5 42t21.5 109q0 127 -76 209q-77 83 -193 83q-119 0 -198 -85q-80 -86 -80 -210q0 -126 79 -212q80 -87 195 -87zM386 113q40 0 62.5 27.5t22.5 75.5v78q0 104 -85 104q-94 0 -94 -141
q0 -144 94 -144z" />
    <glyph glyph-name="A" unicode="A" horiz-adv-x="645" 
d="M263 693h121l260 -693h-111l-72 199h-278l-70 -199h-112zM321 591l-109 -309h221l-110 309h-2z" />
    <glyph glyph-name="B" unicode="B" horiz-adv-x="604" 
d="M572 202q0 -90 -68 -146q-70 -56 -181 -56h-247v693h241q104 0 160.5 -47.5t56.5 -133.5q0 -49 -27 -85.5t-75 -53.5v-1q66 -17 103 -62t37 -108zM316 608h-134v-207h128q51 0 86 31q35 32 35 75q0 101 -115 101zM331 320h-149v-236h150q63 0 99.5 31.5t36.5 86.5
q0 53 -38.5 85.5t-98.5 32.5z" />
    <glyph glyph-name="C" unicode="C" horiz-adv-x="657" 
d="M342 76q131 0 173 162l104 -17q-27 -111 -99.5 -172.5t-178.5 -61.5q-132 0 -213 100q-81 101 -81 259q0 160 82 260t216 100q102 0 172 -57t99 -164l-105 -20q-42 153 -169 153q-86 0 -137 -76q-52 -76 -52 -195t52 -195q51 -76 137 -76z" />
    <glyph glyph-name="D" unicode="D" horiz-adv-x="666" 
d="M619 346q0 -158 -84 -252q-85 -94 -231 -94h-228v693h228q147 0 231 -93t84 -254zM303 610h-121v-527h121q97 0 154 70q56 71 56 193t-56 193q-57 71 -154 71z" />
    <glyph glyph-name="E" unicode="E" horiz-adv-x="548" 
d="M182 86h336v-86h-442v693h433v-86h-327v-204h271v-86h-271v-231z" />
    <glyph glyph-name="F" unicode="F" horiz-adv-x="537" 
d="M478 317h-296v-317h-106v693h446v-86h-340v-204h296v-86z" />
    <glyph glyph-name="G" unicode="G" horiz-adv-x="675" 
d="M342 76q75 0 122.5 53.5t58.5 147.5h-165v81h273q2 -173 -75 -272q-76 -99 -215 -99q-132 0 -213 101q-81 100 -81 259t82 259q81 100 213 100q104 0 174.5 -57t99.5 -165l-105 -19q-43 153 -169 153q-86 0 -137 -76q-52 -76 -52 -195q0 -118 52 -194q51 -77 137 -77z
" />
    <glyph glyph-name="H" unicode="H" horiz-adv-x="658" 
d="M475 693h106v-693h-106v317h-293v-317h-106v693h106v-291h293v291z" />
    <glyph glyph-name="I" unicode="I" horiz-adv-x="273" 
d="M83 693h106v-693h-106v693z" />
    <glyph glyph-name="J" unicode="J" horiz-adv-x="509" 
d="M229 75q101 0 101 128v490h105v-493q0 -99 -55.5 -156t-150.5 -57t-150 56t-55 155v34l104 15v-45q0 -65 24.5 -96t76.5 -31z" />
    <glyph glyph-name="K" unicode="K" horiz-adv-x="610" 
d="M76 693h106v-352h2l288 352h119l-224 -264l247 -429h-121l-193 351l-118 -139v-212h-106v693z" />
    <glyph glyph-name="L" unicode="L" horiz-adv-x="489" 
d="M182 86h297v-86h-403v693h106v-607z" />
    <glyph glyph-name="M" unicode="M" horiz-adv-x="781" 
d="M544 693h161v-693h-97v601h-2l-172 -451h-92l-168 451h-2v-601h-96v693h162l152 -416h2z" />
    <glyph glyph-name="N" unicode="N" horiz-adv-x="671" 
d="M497 693h97v-693h-119l-301 543h-1v-543h-97v693h119l299 -531h3v531z" />
    <glyph glyph-name="O" unicode="O" horiz-adv-x="695" 
d="M153 347q0 -117 53 -194t141 -77t142 77q53 77 53 194q0 118 -53 195q-54 76 -142 76q-89 0 -141 -76q-53 -77 -53 -195zM648 347q0 -158 -83 -259t-218 -101q-134 0 -217 101t-83 259t83 259q82 100 217 100q136 0 218 -100q83 -101 83 -259z" />
    <glyph glyph-name="P" unicode="P" horiz-adv-x="603" 
d="M312 274h-130v-274h-106v693h236q253 0 253 -205q0 -100 -67 -157t-186 -57zM299 607h-117v-246h117q159 0 159 122q0 65 -38.5 94.5t-120.5 29.5z" />
    <glyph glyph-name="Q" unicode="Q" horiz-adv-x="695" 
d="M592 -21h45v-94q-113 0 -156 25q-44 25 -58 87q-39 -10 -76 -10q-134 0 -217 101t-83 259t83 259q82 100 217 100q136 0 218 -100q83 -101 83 -259q0 -107 -40.5 -191.5t-112.5 -128.5q22 -48 97 -48zM153 347q0 -117 53 -194t141 -77t142 77q53 77 53 194q0 118 -53 195
q-54 76 -142 76q-89 0 -141 -76q-53 -77 -53 -195z" />
    <glyph glyph-name="R" unicode="R" horiz-adv-x="621" 
d="M429 316l173 -316h-124l-155 296h-141v-296h-106v693h262q108 0 166 -50t58 -140q0 -69 -34.5 -118t-98.5 -69zM327 607h-145v-227h141q63 0 96.5 30.5t33.5 88.5q0 108 -126 108z" />
    <glyph glyph-name="S" unicode="S" horiz-adv-x="575" 
d="M282 706q96 0 160 -50t90 -144l-103 -15q-16 57 -56.5 89.5t-97.5 32.5q-56 0 -91.5 -27.5t-35.5 -72.5q0 -58 62 -87q19 -9 38 -15q18 -6 70 -19q69 -18 103 -30q36 -16 55 -28q73 -49 73 -145q0 -93 -68 -150q-67 -58 -179 -58q-211 0 -278 202l110 28
q18 -67 64.5 -104.5t110.5 -37.5q62 0 99.5 30.5t37.5 79.5q0 60 -63 91q-25 11 -39 16q-6 2 -74 20q-61 15 -98 29q-34 13 -55 27q-72 46 -72 137t66 146q64 55 171 55z" />
    <glyph glyph-name="T" unicode="T" horiz-adv-x="546" 
d="M527 607h-201v-607h-106v607h-201v86h508v-86z" />
    <glyph glyph-name="U" unicode="U" horiz-adv-x="644" 
d="M322 76q65 0 103.5 38t38.5 103v476h105v-479q0 -103 -69 -164q-70 -63 -178 -63t-177 63q-70 61 -70 164v479h106v-476q0 -65 38 -103t103 -38z" />
    <glyph glyph-name="V" unicode="V" horiz-adv-x="630" 
d="M518 693h111l-255 -693h-121l-252 693h111l203 -591h2z" />
    <glyph glyph-name="W" unicode="W" horiz-adv-x="867" 
d="M755 693h107l-174 -693h-128l-127 532h-5l-127 -532h-121l-174 693h109l130 -582h2l135 582h105l135 -582h2z" />
    <glyph glyph-name="X" unicode="X" horiz-adv-x="620" 
d="M600 693l-234 -336l252 -357h-122l-195 275l-189 -275h-114l248 354l-239 339h122l182 -258l175 258h114z" />
    <glyph glyph-name="Y" unicode="Y" horiz-adv-x="565" 
d="M563 693l-228 -404v-289h-106v288l-227 405h116l167 -308l165 308h113z" />
    <glyph glyph-name="Z" unicode="Z" horiz-adv-x="527" 
d="M148 86h353v-86h-473v92l344 515h-334v86h456v-84z" />
    <glyph glyph-name="bracketleft" unicode="[" horiz-adv-x="322" 
d="M180 -105h120v-77h-215v875h215v-77h-120v-721z" />
    <glyph glyph-name="backslash" unicode="\" horiz-adv-x="454" 
d="M0 706h83l372 -719h-84z" />
    <glyph glyph-name="bracketright" unicode="]" horiz-adv-x="322" 
d="M22 693h215v-875h-215v77h120v721h-120v77z" />
    <glyph glyph-name="asciicircum" unicode="^" horiz-adv-x="303" 
d="M94 693h115l85 -209h-77l-65 157l-66 -157h-77z" />
    <glyph glyph-name="underscore" unicode="_" horiz-adv-x="386" 
d="M0 -62h386v-80h-386v80z" />
    <glyph glyph-name="grave" unicode="`" horiz-adv-x="247" 
d="M0 693h108l64 -121h-84z" />
    <glyph glyph-name="a" unicode="a" horiz-adv-x="528" 
d="M459 351v-351h-92l-2 68h-2q-49 -81 -161 -81q-76 0 -116 37.5t-40 108.5q0 64 34 99t117 54l27 6q4 0 13 1.5t24.5 4t30.5 4.5q44 6 59 15.5t15 29.5v4q0 86 -96 86q-46 0 -73 -20t-43 -67l-95 16q31 78 82 113.5t132 35.5q90 0 138 -42.5t48 -121.5zM228 62
q63 0 99.5 35t36.5 95v63q-29 -20 -100 -29q-76 -12 -99 -32t-23 -58q0 -74 86 -74z" />
    <glyph glyph-name="b" unicode="b" horiz-adv-x="568" 
d="M158 78h-1l-24 -78h-65v693h96v-265h1q25 41 64 64t85 23q89 0 149 -75t60 -186q0 -113 -62 -190t-154 -77q-98 0 -149 91zM162 249q0 -81 35 -128.5t97 -47.5q60 0 95 48t35 129t-35.5 130t-95.5 49t-95.5 -49t-35.5 -131z" />
    <glyph glyph-name="c" unicode="c" horiz-adv-x="504" 
d="M266 67q82 0 109 104l95 -14q-50 -170 -207 -170q-99 0 -158 72q-59 71 -59 193q0 120 60 192q60 71 158 71q72 0 124.5 -41.5t76.5 -117.5l-94 -16q-34 94 -108 94q-55 0 -89 -50t-34 -133q0 -81 36 -132q34 -52 90 -52z" />
    <glyph glyph-name="d" unicode="d" horiz-adv-x="568" 
d="M405 693h96v-693h-92v84h-1q-23 -46 -63.5 -71.5t-90.5 -25.5q-93 0 -150 73q-58 73 -58 188q0 118 61 192q61 75 154 75q48 0 87 -25.5t56 -67.5h1v271zM143 250q0 -87 34.5 -135t97.5 -48t98 49t35 134q0 82 -36.5 132.5t-96.5 50.5q-62 0 -97 -48.5t-35 -134.5z" />
    <glyph glyph-name="e" unicode="e" horiz-adv-x="535" 
d="M490 252v-22h-350q2 -74 39.5 -118.5t97.5 -44.5q84 0 120 97l89 -20q-26 -75 -81.5 -116t-132.5 -41q-103 0 -165 71q-61 70 -61 187q0 119 63 195q63 75 162 75q96 0 158 -74q61 -73 61 -189zM269 435q-51 0 -86.5 -38.5t-40.5 -99.5h252q-6 64 -39.5 101t-85.5 37z
" />
    <glyph glyph-name="f" unicode="f" horiz-adv-x="333" 
d="M331 422h-131v-422h-96v422h-87v80h87v51q0 78 36.5 114t117.5 36q42 0 73 -9v-81q-36 9 -68 9q-63 0 -63 -61v-59h131v-80z" />
    <glyph glyph-name="g" unicode="g" horiz-adv-x="483" 
d="M129 153q0 -29 42 -34l144 -14q160 -16 160 -134q0 -77 -66 -121q-68 -44 -175 -44q-99 0 -158 37q-60 37 -60 102q0 34 16.5 60t57.5 55q-20 10 -32 30t-12 42q0 24 17 49.5t41 40.5q-51 46 -51 121q0 73 53 123q52 49 132 49q46 0 100 -25q23 47 54.5 63.5t90.5 16.5
v-88q-83 0 -94 -33q37 -48 37 -109q0 -73 -53 -120q-52 -46 -136 -46q-48 0 -83 16q-25 -14 -25 -37zM382 -39q0 52 -71 59l-145 15q-27 -5 -45 -27t-18 -50q0 -39 36 -61t100 -22q67 0 105 22.5t38 63.5zM146 340q0 -43 25 -68.5t68 -25.5t68.5 26t25.5 69t-25.5 70
t-67.5 27q-43 0 -68.5 -27t-25.5 -71z" />
    <glyph glyph-name="h" unicode="h" horiz-adv-x="542" 
d="M68 0v693h96v-293l59 60q29 29 59 42q29 13 64 13q59 0 94 -38q34 -37 34 -104v-373h-96v367q0 29 -15 47q-15 17 -40 17q-16 0 -30 -7q-13 -6 -32 -23l-97 -90v-311h-96z" />
    <glyph glyph-name="i" unicode="i" horiz-adv-x="241" 
d="M71 693h99v-104h-99v104zM73 502h95v-502h-95v502z" />
    <glyph glyph-name="j" unicode="j" horiz-adv-x="231" 
d="M138 -135q-16 -26 -47 -36.5t-96 -10.5v79h2q39 0 51 7.5t16 31.5q4 23 4 90v476h96v-482q0 -115 -26 -155zM67 693h98v-104h-98v104z" />
    <glyph glyph-name="k" unicode="k" horiz-adv-x="512" 
d="M481 502l-168 -185l199 -317h-113l-147 252l-88 -96v-156h-96v693h96v-430h2l206 239h109z" />
    <glyph glyph-name="l" unicode="l" horiz-adv-x="243" 
d="M74 693h95v-693h-95v693z" />
    <glyph glyph-name="m" unicode="m" horiz-adv-x="835" 
d="M766 373v-373h-95v370q0 25 -15.5 43.5t-38.5 18.5q-18 0 -35 -10q-15 -9 -58 -50l-59 -57v-315h-96v370q0 25 -15 43.5t-38 18.5q-35 0 -93 -58l-59 -59v-315h-96v502h91v-99l54 53q59 58 123 58q51 0 85.5 -29.5t41.5 -78.5l47 45q36 35 64 49t62 14q60 0 95 -38.5
t35 -102.5z" />
    <glyph glyph-name="n" unicode="n" horiz-adv-x="542" 
d="M474 373v-373h-96v370q0 28 -14.5 45t-38.5 17q-34 0 -71 -34l-90 -83v-315h-96v502h93v-101l60 59q57 54 122 54q62 0 96.5 -37.5t34.5 -103.5z" />
    <glyph glyph-name="o" unicode="o" horiz-adv-x="566" 
d="M520 251q0 -115 -66 -189q-68 -75 -172 -75q-105 0 -170 74q-66 73 -66 190t66 190q65 74 170 74q104 0 172 -74q66 -73 66 -190zM140 251q0 -81 39 -132q39 -52 103 -52q65 0 104 52q39 51 39 132t-39 132t-104 51q-64 0 -103 -51t-39 -132z" />
    <glyph glyph-name="p" unicode="p" horiz-adv-x="568" 
d="M165 71h-1v-253h-96v684h94v-86h1q48 99 152 99q91 0 150 -74q58 -73 58 -187q0 -117 -61 -191q-61 -76 -156 -76q-93 0 -141 84zM162 250q0 -82 35 -131t95 -49t95.5 49.5t35.5 131.5t-34.5 131.5t-94.5 49.5t-96 -50t-36 -132z" />
    <glyph glyph-name="q" unicode="q" horiz-adv-x="568" 
d="M428 502h71v-684h-95v260h-3q-54 -91 -150 -91q-92 0 -149 73q-57 74 -57 190q0 114 62 190q61 75 155 75q48 0 87 -26t60 -72h1zM143 250q0 -83 35 -133t94 -50q63 0 98.5 49t35.5 134q0 81 -36 132q-38 51 -97 51q-61 0 -95 -51q-35 -52 -35 -132z" />
    <glyph glyph-name="r" unicode="r" horiz-adv-x="353" 
d="M229 367l-65 -63v-304h-96v502h93v-112l54 56q42 44 65 57q23 12 58 12v-101q-32 1 -56.5 -9.5t-52.5 -37.5z" />
    <glyph glyph-name="s" unicode="s" horiz-adv-x="491" 
d="M240 515q152 0 200 -132l-85 -22q-26 75 -119 75q-45 0 -72 -16.5t-27 -44.5q0 -27 24 -44t105 -33q94 -19 128 -39q62 -38 62 -111q0 -74 -57 -117q-59 -44 -151 -44q-87 0 -143 40t-74 115l88 22q28 -98 132 -98q49 0 80 19.5t31 52.5q0 29 -24 47q-25 18 -107 34
q-92 19 -124 39q-60 34 -60 107q0 69 54 109q53 41 139 41z" />
    <glyph glyph-name="t" unicode="t" horiz-adv-x="348" 
d="M263 73q35 0 68 10v-81q-27 -9 -75 -9q-83 0 -117.5 33t-34.5 111v285h-88v80h88v138h96v-138h131v-80h-131v-287q0 -62 63 -62z" />
    <glyph glyph-name="u" unicode="u" horiz-adv-x="535" 
d="M373 502h96v-502h-93v99l-59 -58q-55 -54 -118 -54q-59 0 -95 39.5t-36 104.5v371h96v-362q0 -27 15.5 -47t37.5 -20q30 0 64 31l92 89v309z" />
    <glyph glyph-name="v" unicode="v" horiz-adv-x="469" 
d="M361 502h105l-181 -502h-103l-179 502h106l126 -390h2z" />
    <glyph glyph-name="w" unicode="w" horiz-adv-x="720" 
d="M605 502h106l-147 -502h-98l-107 382h-2l-105 -382h-98l-145 502h105l94 -378h2l100 378h99l104 -378h2z" />
    <glyph glyph-name="x" unicode="x" horiz-adv-x="463" 
d="M453 502l-169 -249l172 -253h-107l-120 178l-119 -178h-103l171 254l-168 248h103l120 -173l116 173h104z" />
    <glyph glyph-name="y" unicode="y" horiz-adv-x="480" 
d="M67 -191h-37v85h36q37 0 60.5 19t46.5 72l6 14q11 24 -7 75l-163 428h104l127 -359h3l126 359h103l-206 -535q-34 -89 -77 -125q-42 -33 -122 -33z" />
    <glyph glyph-name="z" unicode="z" horiz-adv-x="427" 
d="M132 80h269v-80h-375v85l261 337h-250v80h359v-79z" />
    <glyph glyph-name="braceleft" unicode="{" horiz-adv-x="322" 
d="M278 -105h23v-77h-46q-78 0 -110 34t-32 114v159q0 102 -72 102h-11v78h11q72 0 72 102v138q0 80 32 114t110 34h46v-77h-23q-38 0 -54 -19t-16 -62v-153q0 -40 -21.5 -72t-54.5 -40v-2q33 -7 54.5 -41t21.5 -78v-173q0 -43 16 -62t54 -19z" />
    <glyph glyph-name="bar" unicode="|" horiz-adv-x="246" 
d="M84 706h78v-889h-78v889z" />
    <glyph glyph-name="braceright" unicode="}" horiz-adv-x="322" 
d="M67 -182h-46v77h23q38 0 54 19t16 62v173q0 44 21.5 78t54.5 41v2q-33 8 -54.5 40t-21.5 72v153q0 43 -16 62t-54 19h-23v77h46q78 0 110 -34t32 -114v-138q0 -102 72 -102h11v-78h-11q-72 0 -72 -102v-159q0 -80 -32 -114t-110 -34z" />
    <glyph glyph-name="asciitilde" unicode="~" 
d="M376 296q22 0 36 16.5t14 43.5h72q-2 -61 -35 -97q-35 -39 -88 -39q-47 0 -123 45q-47 28 -64 28q-18 0 -33.5 -19t-18.5 -45h-75q2 55 40 95q39 41 91 41q40 0 111 -40q52 -29 73 -29z" />
    <glyph glyph-name="uni00A0" unicode="&#xa0;" horiz-adv-x="220" 
 />
    <glyph glyph-name="exclamdown" unicode="&#xa1;" horiz-adv-x="240" 
d="M175 390h-110v112h110v-112zM181 -191h-121l31 503h59z" />
    <glyph glyph-name="cent" unicode="&#xa2;" horiz-adv-x="555" 
d="M152 343q0 -103 61 -155l59 337q-53 -5 -86 -56q-34 -50 -34 -126zM276 79h-7l-14 -79h-74l16 95q-66 27 -102.5 92t-36.5 156q0 120 64 191q63 72 164 72l15 86h74l-17 -98q98 -35 134 -147l-93 -16q-23 53 -56 75l-60 -347q92 1 120 104l94 -14q-49 -170 -221 -170z
" />
    <glyph glyph-name="sterling" unicode="&#xa3;" 
d="M178 83h339v-83h-468v83h7q76 0 98 143l13 92h-110v81h123l21 138q23 156 168 156q114 0 162 -117l-76 -35q-17 40 -36.5 56.5t-48.5 16.5q-32 0 -49.5 -21t-24.5 -66l-20 -128h181v-81h-193l-15 -94q-7 -49 -26 -86.5t-45 -54.5z" />
    <glyph glyph-name="currency" unicode="&#xa4;" 
d="M441 251l47 -45l-54 -54l-47 46q-47 -32 -107 -32q-61 0 -108 32l-46 -46l-54 54l45 45q-32 49 -32 110q0 60 32 107l-45 46l54 54l44 -46q52 34 110 34t108 -34l46 46l54 -54l-46 -45q33 -55 33 -108q0 -58 -34 -110zM280 242q50 0 85 35q34 34 34 84q0 51 -34 85
t-85 34q-50 0 -84 -34q-35 -35 -35 -85q0 -49 35 -84t84 -35z" />
    <glyph glyph-name="yen" unicode="&#xa5;" 
d="M334 217h162v-81h-162v-136h-101v136h-169v81h169v71h-169v81h138l-175 324h110l147 -290l142 290h107l-170 -324h133v-81h-162v-71z" />
    <glyph glyph-name="brokenbar" unicode="&#xa6;" horiz-adv-x="246" 
d="M84 706h78v-338h-78v338zM84 190h78v-372h-78v372z" />
    <glyph glyph-name="section" unicode="&#xa7;" horiz-adv-x="528" 
d="M129 308q0 -30 20 -48.5t74 -36.5l128 -41q43 39 43 85q0 33 -22 53.5t-73 35.5l-113 32q-26 -9 -41.5 -30.5t-15.5 -49.5zM365 39q0 27 -19 45q-18 17 -80 37l-110 36q-120 39 -120 139q0 82 79 130q-49 42 -49 104q0 71 56 118q56 45 140 45q75 0 123.5 -36t63.5 -105
l-90 -22q-18 78 -107 78q-43 0 -69 -19t-26 -51q0 -50 70 -72l124 -38q139 -43 139 -150q0 -80 -74 -131q45 -44 45 -101q0 -76 -56 -123q-58 -47 -147 -47q-81 0 -132.5 40t-64.5 115l91 23q7 -46 35.5 -70t74.5 -24t74.5 22t28.5 57z" />
    <glyph glyph-name="dieresis" unicode="&#xa8;" horiz-adv-x="247" 
d="M153 693h87v-103h-87v103zM7 693h87v-103h-87v103z" />
    <glyph glyph-name="copyright" unicode="&#xa9;" horiz-adv-x="798" 
d="M758 346q0 -152 -104 -256q-106 -104 -256 -104q-151 0 -255 104t-104 255t105 256q104 104 254 104t256 -104q104 -104 104 -255zM113 345q0 -122 83 -208t202 -86q120 0 204 86q83 86 83 208t-83 208q-84 86 -204 86q-119 0 -202 -86t-83 -208zM398 203q66 0 90 90
l76 -11q-16 -68 -59.5 -106.5t-106.5 -38.5q-78 0 -126 59q-49 58 -49 151q0 92 49 150t128 58q61 0 103 -35.5t59 -100.5l-78 -15q-23 87 -85 87q-44 0 -70.5 -40t-26.5 -104t26 -104t70 -40z" />
    <glyph glyph-name="ordfeminine" unicode="&#xaa;" horiz-adv-x="378" 
d="M173 418q40 0 62.5 19t22.5 52v30q-19 -6 -45 -7q-36 -3 -39 -4q-57 -7 -57 -49q0 -41 56 -41zM332 587v-221h-72v17q-1 9 -1 17q-40 -41 -103 -41q-54 0 -84 25.5t-30 72.5q0 43 26.5 67.5t83.5 33.5q4 0 12.5 1.5t20 2.5t27.5 1q29 2 37.5 7t8.5 18q0 20 -15.5 31.5
t-42.5 11.5q-29 0 -50.5 -11.5t-25.5 -29.5l-76 12q35 91 153 91q64 0 97.5 -27t33.5 -79zM41 300h296v-68h-296v68z" />
    <glyph glyph-name="guillemotleft" unicode="&#xab;" horiz-adv-x="484" 
d="M355 87l-130 195l130 192h97l-125 -192l125 -195h-97zM29 282l130 192h97l-125 -192l125 -195h-97z" />
    <glyph glyph-name="logicalnot" unicode="&#xac;" 
d="M64 332h432v-277h-84v196h-348v81z" />
    <glyph glyph-name="uni00AD" unicode="&#xad;" horiz-adv-x="309" 
 />
    <glyph glyph-name="registered" unicode="&#xae;" horiz-adv-x="798" 
d="M398 705q150 0 256 -104q104 -104 104 -256q0 -151 -105 -254q-105 -105 -255 -105q-151 0 -255 104t-104 255t105 256q104 104 254 104zM113 345q0 -122 83 -208t202 -86q120 0 204 86q83 86 83 208t-83 208q-84 86 -204 86q-119 0 -202 -86t-83 -208zM408 485h-70v-112
h69q62 0 62 59q0 53 -61 53zM478 324l96 -179h-89l-87 165h-60v-165h-79v402h156q65 0 100 -29.5t35 -84.5q0 -79 -72 -109z" />
    <glyph glyph-name="macron" unicode="&#xaf;" horiz-adv-x="247" 
d="M0 648h247v-73h-247v73z" />
    <glyph glyph-name="degree" unicode="&#xb0;" horiz-adv-x="416" 
d="M208 693q66 0 112 -45t46 -108t-47 -108q-46 -46 -111 -46t-111 46q-47 45 -47 108t47 108t111 45zM127 540q0 -36 23.5 -60.5t57.5 -24.5t57.5 24.5t23.5 60.5q0 35 -23.5 60t-57.5 25t-57.5 -25t-23.5 -60z" />
    <glyph glyph-name="plusminus" unicode="&#xb1;" 
d="M496 281h-175v-196h-84v196h-173v81h173v195h84v-195h175v-81zM62 81h432v-81h-432v81z" />
    <glyph glyph-name="twosuperior" unicode="&#xb2;" horiz-adv-x="353" 
d="M121 368h199v-65h-302q6 51 34 91q28 39 106 89q85 54 85 97q0 23 -18.5 38.5t-47.5 15.5q-66 0 -82 -99l-74 19q9 65 53 105t108 40q60 0 101 -33q40 -33 40 -84q0 -40 -27.5 -75.5t-91.5 -74.5q-47 -28 -60 -40q-14 -12 -23 -24z" />
    <glyph glyph-name="threesuperior" unicode="&#xb3;" horiz-adv-x="353" 
d="M248 428q0 29 -22 47t-57 18h-65v52l95 83h-168v65h275v-60l-98 -83q57 -6 89.5 -37.5t32.5 -81.5q0 -62 -44.5 -98.5t-118.5 -36.5q-60 0 -101.5 32.5t-54.5 88.5l79 8q18 -65 82 -65q36 0 56 17.5t20 50.5z" />
    <glyph glyph-name="acute" unicode="&#xb4;" horiz-adv-x="247" 
d="M140 693h108l-88 -121h-84z" />
    <glyph glyph-name="mu" unicode="&#xb5;" horiz-adv-x="535" 
d="M373 502h96v-502h-93v99l-59 -58q-53 -52 -117 -52q-22 0 -36 5v-176h-96v684h96v-362q0 -27 15.5 -47t37.5 -20q30 0 64 31l92 89v309z" />
    <glyph glyph-name="paragraph" unicode="&#xb6;" horiz-adv-x="608" 
d="M228 692h302v-874h-82v801h-138v-801h-82v490q-79 0 -134 55t-55 134t56 138q56 57 133 57z" />
    <glyph glyph-name="periodcentered" unicode="&#xb7;" horiz-adv-x="250" 
d="M68 418h114v-112h-114v112z" />
    <glyph glyph-name="cedilla" unicode="&#xb8;" horiz-adv-x="249" 
d="M102 -191q-63 0 -96 19l3 46q52 -15 96 -15q48 0 48 25q0 24 -40 24q-29 0 -55 -13l-15 38l65 67h58l-39 -40h7q43 0 68 -19t25 -53q0 -38 -32.5 -58.5t-92.5 -20.5z" />
    <glyph glyph-name="onesuperior" unicode="&#xb9;" horiz-adv-x="353" 
d="M244 364h89v-61h-273v61h107v234q-32 -48 -99 -75l-23 60q37 15 74 48q38 32 53 62h72v-329z" />
    <glyph glyph-name="ordmasculine" unicode="&#xba;" horiz-adv-x="378" 
d="M343 525q0 -73 -43 -119q-44 -47 -111 -47q-66 0 -110 47q-43 46 -43 119q0 74 43 120q44 47 110 47q67 0 111 -47q43 -46 43 -120zM112 525q0 -46 21 -74.5t56 -28.5t56 28.5t21 74.5t-21 74.5t-56 28.5t-56 -28.5t-21 -74.5zM41 300h296v-68h-296v68z" />
    <glyph glyph-name="guillemotright" unicode="&#xbb;" horiz-adv-x="484" 
d="M228 474h97l130 -192l-130 -195h-97l125 195zM129 87h-97l125 195l-125 192h97l130 -192z" />
    <glyph glyph-name="onequarter" unicode="&#xbc;" horiz-adv-x="806" 
d="M244 364h89v-61h-273v61h107v234q-32 -48 -99 -75l-23 60q37 15 74 48q38 32 53 62h72v-329zM584 706h84l-365 -719h-85zM792 83h-51v-83h-76v83h-194v66l171 241h99v-247h51v-60zM664 313l-120 -170h121z" />
    <glyph glyph-name="onehalf" unicode="&#xbd;" horiz-adv-x="806" 
d="M244 364h89v-61h-273v61h107v234q-32 -48 -99 -75l-23 60q37 15 74 48q38 32 53 62h72v-329zM564 706h84l-365 -719h-85zM574 65h199v-65h-302q6 51 34 91q28 39 106 89q85 54 85 97q0 23 -18.5 38.5t-47.5 15.5q-66 0 -82 -99l-74 19q9 65 53 105t108 40q61 0 101 -33
t40 -84q0 -40 -27.5 -75.5t-91.5 -74.5q-47 -28 -60 -40q-14 -12 -23 -24z" />
    <glyph glyph-name="threequarters" unicode="&#xbe;" horiz-adv-x="806" 
d="M248 428q0 29 -22 47t-57 18h-65v52l95 83h-168v65h275v-60l-98 -83q57 -6 89.5 -37.5t32.5 -81.5q0 -62 -44.5 -98.5t-118.5 -36.5q-60 0 -101.5 32.5t-54.5 88.5l79 8q18 -65 82 -65q36 0 56 17.5t20 50.5zM564 706h84l-365 -719h-85zM792 83h-51v-83h-76v83h-194v66
l171 241h99v-247h51v-60zM664 313l-120 -170h121z" />
    <glyph glyph-name="questiondown" unicode="&#xbf;" horiz-adv-x="470" 
d="M308 390h-113v112h113v-112zM126 150q51 58 65 89q15 35 15 73h91q0 -58 -18 -104q-18 -47 -73 -108q-40 -45 -50 -69q-12 -25 -12 -53q0 -45 27 -72t73 -27q47 0 81 37t51 106l92 -30q-23 -93 -83 -144.5t-146 -51.5q-90 0 -143 49q-54 50 -54 131q0 44 16 80
q17 39 68 94z" />
    <glyph glyph-name="Agrave" unicode="&#xc0;" horiz-adv-x="645" 
d="M263 693h121l260 -693h-111l-72 199h-278l-70 -199h-112zM321 591l-109 -309h221l-110 309h-2zM198 858h108l64 -121h-84z" />
    <glyph glyph-name="Aacute" unicode="&#xc1;" horiz-adv-x="645" 
d="M263 693h121l260 -693h-111l-72 199h-278l-70 -199h-112zM321 591l-109 -309h221l-110 309h-2zM338 858h108l-88 -121h-84z" />
    <glyph glyph-name="Acircumflex" unicode="&#xc2;" horiz-adv-x="645" 
d="M263 693h121l260 -693h-111l-72 199h-278l-70 -199h-112zM321 591l-109 -309h221l-110 309h-2zM268 858h106l71 -121h-69l-55 69l-54 -69h-69z" />
    <glyph glyph-name="Atilde" unicode="&#xc3;" horiz-adv-x="645" 
d="M263 693h121l260 -693h-111l-72 199h-278l-70 -199h-112zM321 591l-109 -309h221l-110 309h-2zM373 800q12 0 19.5 12t7.5 32h51q-1 -50 -22 -81t-55 -31q-29 0 -65 30q-24 19 -34 19q-23 0 -23 -44h-56q1 49 23 80.5t55 31.5q25 0 64 -30q24 -19 35 -19z" />
    <glyph glyph-name="Adieresis" unicode="&#xc4;" horiz-adv-x="645" 
d="M263 693h121l260 -693h-111l-72 199h-278l-70 -199h-112zM321 591l-109 -309h221l-110 309h-2zM351 858h87v-103h-87v103zM205 858h87v-103h-87v103z" />
    <glyph glyph-name="Aring" unicode="&#xc5;" horiz-adv-x="645" 
d="M263 693h121l260 -693h-111l-72 199h-278l-70 -199h-112zM321 591l-109 -309h221l-110 309h-2zM418 818q0 -40 -27.5 -68t-67.5 -28t-68 28t-28 68t28 68t68 28t67.5 -28t27.5 -68zM276 818q0 -20 13.5 -33.5t33.5 -13.5q19 0 32.5 13.5t13.5 33.5t-13.5 33.5t-32.5 13.5
q-20 0 -33.5 -13.5t-13.5 -33.5z" />
    <glyph glyph-name="AE" unicode="&#xc6;" horiz-adv-x="896" 
d="M547 86h320v-86h-426v206h-237l-96 -206h-111l336 693h530v-86h-316v-204h256v-86h-256v-231zM391 607l-151 -320h201v320h-50z" />
    <glyph glyph-name="Ccedilla" unicode="&#xc7;" horiz-adv-x="657" 
d="M321 -191q-63 0 -96 19l3 46q52 -15 96 -15q48 0 48 25q0 24 -40 24q-29 0 -55 -13l-15 38l53 55q-122 11 -195 109q-73 97 -73 249q0 160 82 260t216 100q102 0 172 -57t99 -164l-105 -20q-42 153 -169 153q-86 0 -137 -76q-52 -76 -52 -195t52 -195q51 -76 137 -76
q131 0 173 162l104 -17q-25 -103 -88.5 -163t-156.5 -69l-28 -29h7q43 0 68 -19t25 -53q0 -38 -32.5 -58.5t-92.5 -20.5z" />
    <glyph glyph-name="Egrave" unicode="&#xc8;" horiz-adv-x="548" 
d="M182 86h336v-86h-442v693h433v-86h-327v-204h271v-86h-271v-231zM178 858h108l64 -121h-84z" />
    <glyph glyph-name="Eacute" unicode="&#xc9;" horiz-adv-x="548" 
d="M182 86h336v-86h-442v693h433v-86h-327v-204h271v-86h-271v-231zM318 858h108l-88 -121h-84z" />
    <glyph glyph-name="Ecircumflex" unicode="&#xca;" horiz-adv-x="548" 
d="M182 86h336v-86h-442v693h433v-86h-327v-204h271v-86h-271v-231zM248 858h106l71 -121h-69l-55 69l-54 -69h-69z" />
    <glyph glyph-name="Edieresis" unicode="&#xcb;" horiz-adv-x="548" 
d="M182 86h336v-86h-442v693h433v-86h-327v-204h271v-86h-271v-231zM331 858h87v-103h-87v103zM185 858h87v-103h-87v103z" />
    <glyph glyph-name="Igrave" unicode="&#xcc;" horiz-adv-x="273" 
d="M83 693h106v-693h-106v693zM13 858h108l64 -121h-84z" />
    <glyph glyph-name="Iacute" unicode="&#xcd;" horiz-adv-x="273" 
d="M83 693h106v-693h-106v693zM153 858h108l-88 -121h-84z" />
    <glyph glyph-name="Icircumflex" unicode="&#xce;" horiz-adv-x="273" 
d="M83 693h106v-693h-106v693zM83 858h106l71 -121h-69l-55 69l-54 -69h-69z" />
    <glyph glyph-name="Idieresis" unicode="&#xcf;" horiz-adv-x="273" 
d="M83 693h106v-693h-106v693zM166 858h87v-103h-87v103zM20 858h87v-103h-87v103z" />
    <glyph glyph-name="Eth" unicode="&#xd0;" horiz-adv-x="666" 
d="M619 346q0 -158 -84 -252q-85 -94 -231 -94h-228v318h-65v82h65v293h228q147 0 231 -93t84 -254zM335 318h-153v-235h121q97 0 154 70q56 71 56 193t-56 193q-57 71 -154 71h-121v-210h153v-82z" />
    <glyph glyph-name="Ntilde" unicode="&#xd1;" horiz-adv-x="671" 
d="M497 693h97v-693h-119l-301 543h-1v-543h-97v693h119l299 -531h3v531zM392 800q12 0 19.5 12t7.5 32h51q-1 -50 -22 -81t-55 -31q-29 0 -65 30q-24 19 -34 19q-23 0 -23 -44h-56q1 49 23 80.5t55 31.5q25 0 64 -30q24 -19 35 -19z" />
    <glyph glyph-name="Ograve" unicode="&#xd2;" horiz-adv-x="695" 
d="M153 347q0 -117 53 -194t141 -77t142 77q53 77 53 194q0 118 -53 195q-54 76 -142 76q-89 0 -141 -76q-53 -77 -53 -195zM648 347q0 -158 -83 -259t-218 -101q-134 0 -217 101t-83 259t83 259q82 100 217 100q136 0 218 -100q83 -101 83 -259zM224 858h108l64 -121h-84z
" />
    <glyph glyph-name="Oacute" unicode="&#xd3;" horiz-adv-x="695" 
d="M153 347q0 -117 53 -194t141 -77t142 77q53 77 53 194q0 118 -53 195q-54 76 -142 76q-89 0 -141 -76q-53 -77 -53 -195zM648 347q0 -158 -83 -259t-218 -101q-134 0 -217 101t-83 259t83 259q82 100 217 100q136 0 218 -100q83 -101 83 -259zM364 858h108l-88 -121h-84z
" />
    <glyph glyph-name="Ocircumflex" unicode="&#xd4;" horiz-adv-x="695" 
d="M153 347q0 -117 53 -194t141 -77t142 77q53 77 53 194q0 118 -53 195q-54 76 -142 76q-89 0 -141 -76q-53 -77 -53 -195zM648 347q0 -158 -83 -259t-218 -101q-134 0 -217 101t-83 259t83 259q82 100 217 100q136 0 218 -100q83 -101 83 -259zM294 858h106l71 -121h-69
l-55 69l-54 -69h-69z" />
    <glyph glyph-name="Otilde" unicode="&#xd5;" horiz-adv-x="695" 
d="M153 347q0 -117 53 -194t141 -77t142 77q53 77 53 194q0 118 -53 195q-54 76 -142 76q-89 0 -141 -76q-53 -77 -53 -195zM648 347q0 -158 -83 -259t-218 -101q-134 0 -217 101t-83 259t83 259q82 100 217 100q136 0 218 -100q83 -101 83 -259zM398 800q12 0 19.5 12
t7.5 32h51q-1 -50 -22 -81t-55 -31q-29 0 -65 30q-24 19 -34 19q-23 0 -23 -44h-56q1 49 23 80.5t55 31.5q25 0 64 -30q24 -19 35 -19z" />
    <glyph glyph-name="Odieresis" unicode="&#xd6;" horiz-adv-x="695" 
d="M153 347q0 -117 53 -194t141 -77t142 77q53 77 53 194q0 118 -53 195q-54 76 -142 76q-89 0 -141 -76q-53 -77 -53 -195zM648 347q0 -158 -83 -259t-218 -101q-134 0 -217 101t-83 259t83 259q82 100 217 100q136 0 218 -100q83 -101 83 -259zM377 858h87v-103h-87v103z
M231 858h87v-103h-87v103z" />
    <glyph glyph-name="multiply" unicode="&#xd7;" 
d="M337 291l153 -152l-58 -58l-152 152l-152 -152l-58 58l152 152l-152 152l58 58l152 -153l152 153l58 -58z" />
    <glyph glyph-name="Oslash" unicode="&#xd8;" horiz-adv-x="695" 
d="M234 10l-39 -86l-64 31l42 90q-60 47 -93 126t-33 176q0 158 83 259q82 100 217 100q66 0 120 -26l38 83l65 -27l-44 -93q58 -48 90 -125.5t32 -170.5q0 -158 -83 -259t-218 -101q-59 0 -113 23zM153 347q0 -132 64 -208l211 457q-35 22 -81 22q-89 0 -141 -76
q-53 -77 -53 -195zM542 347q0 123 -59 201l-211 -455q30 -17 75 -17q88 0 142 77q53 77 53 194z" />
    <glyph glyph-name="Ugrave" unicode="&#xd9;" horiz-adv-x="644" 
d="M322 76q65 0 103.5 38t38.5 103v476h105v-479q0 -103 -69 -164q-70 -63 -178 -63t-177 63q-70 61 -70 164v479h106v-476q0 -65 38 -103t103 -38zM202 858h108l64 -121h-84z" />
    <glyph glyph-name="Uacute" unicode="&#xda;" horiz-adv-x="644" 
d="M322 76q65 0 103.5 38t38.5 103v476h105v-479q0 -103 -69 -164q-70 -63 -178 -63t-177 63q-70 61 -70 164v479h106v-476q0 -65 38 -103t103 -38zM342 858h108l-88 -121h-84z" />
    <glyph glyph-name="Ucircumflex" unicode="&#xdb;" horiz-adv-x="644" 
d="M322 76q65 0 103.5 38t38.5 103v476h105v-479q0 -103 -69 -164q-70 -63 -178 -63t-177 63q-70 61 -70 164v479h106v-476q0 -65 38 -103t103 -38zM272 858h106l71 -121h-69l-55 69l-54 -69h-69z" />
    <glyph glyph-name="Udieresis" unicode="&#xdc;" horiz-adv-x="644" 
d="M322 76q65 0 103.5 38t38.5 103v476h105v-479q0 -103 -69 -164q-70 -63 -178 -63t-177 63q-70 61 -70 164v479h106v-476q0 -65 38 -103t103 -38zM355 858h87v-103h-87v103zM209 858h87v-103h-87v103z" />
    <glyph glyph-name="Yacute" unicode="&#xdd;" horiz-adv-x="565" 
d="M563 693l-228 -404v-289h-106v288l-227 405h116l167 -308l165 308h113zM301 858h108l-88 -121h-84z" />
    <glyph glyph-name="Thorn" unicode="&#xde;" horiz-adv-x="603" 
d="M312 152h-130v-152h-106v693h106v-122h130q253 0 253 -205q0 -100 -67 -157t-186 -57zM299 485h-117v-246h117q159 0 159 122q0 65 -38.5 94.5t-120.5 29.5z" />
    <glyph glyph-name="germandbls" unicode="&#xdf;" horiz-adv-x="545" 
d="M495 212q0 -95 -64 -153q-65 -59 -168 -59h-27v81h30q60 0 97 39q37 37 37 99q0 58 -35.5 91t-97.5 33h-31v80h27q46 0 73 29t27 77q0 45 -25.5 71t-70.5 26q-46 0 -72.5 -28t-26.5 -75v-523h-95v534q0 75 55 124q54 48 140 48t138 -46t52 -123q0 -52 -25.5 -90
t-72.5 -54v-1q64 -18 99.5 -65t35.5 -115z" />
    <glyph glyph-name="agrave" unicode="&#xe0;" horiz-adv-x="528" 
d="M459 351v-351h-92l-2 68h-2q-49 -81 -161 -81q-76 0 -116 37.5t-40 108.5q0 64 34 99t117 54l27 6q4 0 13 1.5t24.5 4t30.5 4.5q44 6 59 15.5t15 29.5v4q0 86 -96 86q-46 0 -73 -20t-43 -67l-95 16q31 78 82 113.5t132 35.5q90 0 138 -42.5t48 -121.5zM228 62
q63 0 99.5 35t36.5 95v63q-29 -20 -100 -29q-76 -12 -99 -32t-23 -58q0 -74 86 -74zM146 693h108l64 -121h-84z" />
    <glyph glyph-name="aacute" unicode="&#xe1;" horiz-adv-x="528" 
d="M459 351v-351h-92l-2 68h-2q-49 -81 -161 -81q-76 0 -116 37.5t-40 108.5q0 64 34 99t117 54l27 6q4 0 13 1.5t24.5 4t30.5 4.5q44 6 59 15.5t15 29.5v4q0 86 -96 86q-46 0 -73 -20t-43 -67l-95 16q31 78 82 113.5t132 35.5q90 0 138 -42.5t48 -121.5zM228 62
q63 0 99.5 35t36.5 95v63q-29 -20 -100 -29q-76 -12 -99 -32t-23 -58q0 -74 86 -74zM286 693h108l-88 -121h-84z" />
    <glyph glyph-name="acircumflex" unicode="&#xe2;" horiz-adv-x="528" 
d="M459 351v-351h-92l-2 68h-2q-49 -81 -161 -81q-76 0 -116 37.5t-40 108.5q0 64 34 99t117 54l27 6q4 0 13 1.5t24.5 4t30.5 4.5q44 6 59 15.5t15 29.5v4q0 86 -96 86q-46 0 -73 -20t-43 -67l-95 16q31 78 82 113.5t132 35.5q90 0 138 -42.5t48 -121.5zM228 62
q63 0 99.5 35t36.5 95v63q-29 -20 -100 -29q-76 -12 -99 -32t-23 -58q0 -74 86 -74zM216 693h106l71 -121h-69l-55 69l-54 -69h-69z" />
    <glyph glyph-name="atilde" unicode="&#xe3;" horiz-adv-x="528" 
d="M459 351v-351h-92l-2 68h-2q-49 -81 -161 -81q-76 0 -116 37.5t-40 108.5q0 64 34 99t117 54l27 6q4 0 13 1.5t24.5 4t30.5 4.5q44 6 59 15.5t15 29.5v4q0 86 -96 86q-46 0 -73 -20t-43 -67l-95 16q31 78 82 113.5t132 35.5q90 0 138 -42.5t48 -121.5zM228 62
q63 0 99.5 35t36.5 95v63q-29 -20 -100 -29q-76 -12 -99 -32t-23 -58q0 -74 86 -74zM320 635q12 0 19.5 12t7.5 32h51q-1 -50 -22 -81t-55 -31q-29 0 -65 30q-24 19 -34 19q-23 0 -23 -44h-56q1 49 23 80.5t55 31.5q25 0 64 -30q24 -19 35 -19z" />
    <glyph glyph-name="adieresis" unicode="&#xe4;" horiz-adv-x="528" 
d="M459 351v-351h-92l-2 68h-2q-49 -81 -161 -81q-76 0 -116 37.5t-40 108.5q0 64 34 99t117 54l27 6q4 0 13 1.5t24.5 4t30.5 4.5q44 6 59 15.5t15 29.5v4q0 86 -96 86q-46 0 -73 -20t-43 -67l-95 16q31 78 82 113.5t132 35.5q90 0 138 -42.5t48 -121.5zM228 62
q63 0 99.5 35t36.5 95v63q-29 -20 -100 -29q-76 -12 -99 -32t-23 -58q0 -74 86 -74zM299 693h87v-103h-87v103zM153 693h87v-103h-87v103z" />
    <glyph glyph-name="aring" unicode="&#xe5;" horiz-adv-x="528" 
d="M459 351v-351h-92l-2 68h-2q-49 -81 -161 -81q-76 0 -116 37.5t-40 108.5q0 64 34 99t117 54l27 6q4 0 13 1.5t24.5 4t30.5 4.5q44 6 59 15.5t15 29.5v4q0 86 -96 86q-46 0 -73 -20t-43 -67l-95 16q31 78 82 113.5t132 35.5q90 0 138 -42.5t48 -121.5zM228 62
q63 0 99.5 35t36.5 95v63q-29 -20 -100 -29q-76 -12 -99 -32t-23 -58q0 -74 86 -74zM365 653q0 -40 -27.5 -68t-67.5 -28t-68 28t-28 68t28 68t68 28t67.5 -28t27.5 -68zM223 653q0 -20 13.5 -33.5t33.5 -13.5q19 0 32.5 13.5t13.5 33.5t-13.5 33.5t-32.5 13.5
q-20 0 -33.5 -13.5t-13.5 -33.5z" />
    <glyph glyph-name="ae" unicode="&#xe6;" horiz-adv-x="848" 
d="M584 515q102 0 160 -78q59 -79 59 -207h-350q2 -75 39 -119t98 -44q88 0 119 97l90 -20q-26 -75 -82 -116t-134 -41q-133 0 -187 112h-3q-58 -112 -188 -112q-78 0 -118.5 37t-40.5 108q0 72 43 109q44 38 161 54q30 4 54 8l15 3q47 9 47 41v4q0 86 -96 86q-46 0 -73 -20
t-43 -67l-95 16q25 69 78 108.5t122 39.5q131 0 169 -75q61 76 156 76zM227 62q62 0 99.5 35.5t37.5 94.5v63q-29 -20 -100 -29q-76 -12 -99 -32t-23 -58q0 -74 85 -74zM582 435q-53 0 -88 -39t-39 -99h252q-6 64 -39.5 101t-85.5 37z" />
    <glyph glyph-name="ccedilla" unicode="&#xe7;" horiz-adv-x="504" 
d="M239 -191q-63 0 -96 19l3 46q52 -15 96 -15q48 0 48 25q0 24 -40 24q-29 0 -55 -13l-15 38l54 56q-87 10 -137.5 80t-50.5 183q0 120 60 192q60 71 158 71q72 0 124.5 -41.5t76.5 -117.5l-94 -16q-34 94 -108 94q-55 0 -89 -50t-34 -133q0 -81 36 -132q34 -52 90 -52
q82 0 109 104l95 -14q-44 -154 -178 -168l-28 -29h7q43 0 68 -19t25 -53q0 -38 -32.5 -58.5t-92.5 -20.5z" />
    <glyph glyph-name="egrave" unicode="&#xe8;" horiz-adv-x="535" 
d="M490 252v-22h-350q2 -74 39.5 -118.5t97.5 -44.5q84 0 120 97l89 -20q-26 -75 -81.5 -116t-132.5 -41q-103 0 -165 71q-61 70 -61 187q0 119 63 195q63 75 162 75q96 0 158 -74q61 -73 61 -189zM269 435q-51 0 -86.5 -38.5t-40.5 -99.5h252q-6 64 -39.5 101t-85.5 37z
M146 693h108l64 -121h-84z" />
    <glyph glyph-name="eacute" unicode="&#xe9;" horiz-adv-x="535" 
d="M490 252v-22h-350q2 -74 39.5 -118.5t97.5 -44.5q84 0 120 97l89 -20q-26 -75 -81.5 -116t-132.5 -41q-103 0 -165 71q-61 70 -61 187q0 119 63 195q63 75 162 75q96 0 158 -74q61 -73 61 -189zM269 435q-51 0 -86.5 -38.5t-40.5 -99.5h252q-6 64 -39.5 101t-85.5 37z
M286 693h108l-88 -121h-84z" />
    <glyph glyph-name="ecircumflex" unicode="&#xea;" horiz-adv-x="535" 
d="M490 252v-22h-350q2 -74 39.5 -118.5t97.5 -44.5q84 0 120 97l89 -20q-26 -75 -81.5 -116t-132.5 -41q-103 0 -165 71q-61 70 -61 187q0 119 63 195q63 75 162 75q96 0 158 -74q61 -73 61 -189zM269 435q-51 0 -86.5 -38.5t-40.5 -99.5h252q-6 64 -39.5 101t-85.5 37z
M216 693h106l71 -121h-69l-55 69l-54 -69h-69z" />
    <glyph glyph-name="edieresis" unicode="&#xeb;" horiz-adv-x="535" 
d="M490 252v-22h-350q2 -74 39.5 -118.5t97.5 -44.5q84 0 120 97l89 -20q-26 -75 -81.5 -116t-132.5 -41q-103 0 -165 71q-61 70 -61 187q0 119 63 195q63 75 162 75q96 0 158 -74q61 -73 61 -189zM269 435q-51 0 -86.5 -38.5t-40.5 -99.5h252q-6 64 -39.5 101t-85.5 37z
M299 693h87v-103h-87v103zM153 693h87v-103h-87v103z" />
    <glyph glyph-name="igrave" unicode="&#xec;" horiz-adv-x="241" 
d="M71 502h95v-502h-95v502zM0 693h108l64 -121h-84z" />
    <glyph glyph-name="iacute" unicode="&#xed;" horiz-adv-x="241" 
d="M71 502h95v-502h-95v502zM140 693h108l-88 -121h-84z" />
    <glyph glyph-name="icircumflex" unicode="&#xee;" horiz-adv-x="241" 
d="M73 502h95v-502h-95v502zM68 693h106l71 -121h-69l-55 69l-54 -69h-69z" />
    <glyph glyph-name="idieresis" unicode="&#xef;" horiz-adv-x="241" 
d="M71 502h95v-502h-95v502zM153 693h87v-103h-87v103zM7 693h87v-103h-87v103z" />
    <glyph glyph-name="eth" unicode="&#xf0;" horiz-adv-x="566" 
d="M294 657l79 29l23 -56l-51 -19q82 -79 129 -175q46 -93 46 -185q0 -115 -66 -189q-68 -75 -172 -75q-105 0 -170 74q-66 73 -66 190t66 190q65 74 170 74q15 0 43 -6q-44 50 -64 70l-93 -35l-23 56l65 24q-53 43 -95 69h130q17 -11 49 -36zM140 251q0 -81 39 -132
q39 -52 103 -52q65 0 104 52q39 51 39 132t-39 132t-104 51q-64 0 -103 -51t-39 -132z" />
    <glyph glyph-name="ntilde" unicode="&#xf1;" horiz-adv-x="542" 
d="M474 373v-373h-96v370q0 28 -14.5 45t-38.5 17q-34 0 -71 -34l-90 -83v-315h-96v502h93v-101l60 59q57 54 122 54q62 0 96.5 -37.5t34.5 -103.5zM322 635q12 0 19.5 12t7.5 32h51q-1 -50 -22 -81t-55 -31q-29 0 -65 30q-24 19 -34 19q-23 0 -23 -44h-56q1 49 23 80.5
t55 31.5q25 0 64 -30q24 -19 35 -19z" />
    <glyph glyph-name="ograve" unicode="&#xf2;" horiz-adv-x="566" 
d="M520 251q0 -115 -66 -189q-68 -75 -172 -75q-105 0 -170 74q-66 73 -66 190t66 190q65 74 170 74q104 0 172 -74q66 -73 66 -190zM140 251q0 -81 39 -132q39 -52 103 -52q65 0 104 52q39 51 39 132t-39 132t-104 51q-64 0 -103 -51t-39 -132zM159 693h108l64 -121h-84z
" />
    <glyph glyph-name="oacute" unicode="&#xf3;" horiz-adv-x="566" 
d="M520 251q0 -115 -66 -189q-68 -75 -172 -75q-105 0 -170 74q-66 73 -66 190t66 190q65 74 170 74q104 0 172 -74q66 -73 66 -190zM140 251q0 -81 39 -132q39 -52 103 -52q65 0 104 52q39 51 39 132t-39 132t-104 51q-64 0 -103 -51t-39 -132zM299 693h108l-88 -121h-84z
" />
    <glyph glyph-name="ocircumflex" unicode="&#xf4;" horiz-adv-x="566" 
d="M520 251q0 -115 -66 -189q-68 -75 -172 -75q-105 0 -170 74q-66 73 -66 190t66 190q65 74 170 74q104 0 172 -74q66 -73 66 -190zM140 251q0 -81 39 -132q39 -52 103 -52q65 0 104 52q39 51 39 132t-39 132t-104 51q-64 0 -103 -51t-39 -132zM229 693h106l71 -121h-69
l-55 69l-54 -69h-69z" />
    <glyph glyph-name="otilde" unicode="&#xf5;" horiz-adv-x="566" 
d="M520 251q0 -115 -66 -189q-68 -75 -172 -75q-105 0 -170 74q-66 73 -66 190t66 190q65 74 170 74q104 0 172 -74q66 -73 66 -190zM140 251q0 -81 39 -132q39 -52 103 -52q65 0 104 52q39 51 39 132t-39 132t-104 51q-64 0 -103 -51t-39 -132zM333 635q12 0 19.5 12
t7.5 32h51q-1 -50 -22 -81t-55 -31q-29 0 -65 30q-24 19 -34 19q-23 0 -23 -44h-56q1 49 23 80.5t55 31.5q25 0 64 -30q24 -19 35 -19z" />
    <glyph glyph-name="odieresis" unicode="&#xf6;" horiz-adv-x="566" 
d="M520 251q0 -115 -66 -189q-68 -75 -172 -75q-105 0 -170 74q-66 73 -66 190t66 190q65 74 170 74q104 0 172 -74q66 -73 66 -190zM140 251q0 -81 39 -132q39 -52 103 -52q65 0 104 52q39 51 39 132t-39 132t-104 51q-64 0 -103 -51t-39 -132zM312 693h87v-103h-87v103z
M166 693h87v-103h-87v103z" />
    <glyph glyph-name="divide" unicode="&#xf7;" 
d="M223 542h114v-113h-114v113zM223 152h114v-112h-114v112zM64 332h432v-81h-432v81z" />
    <glyph glyph-name="oslash" unicode="&#xf8;" horiz-adv-x="566" 
d="M215 -4l-30 -73l-58 26l29 72q-52 34 -81 94.5t-29 135.5q0 117 66 190q65 74 170 74q34 0 72 -12l31 74l58 -25l-31 -75q51 -35 79.5 -94.5t28.5 -131.5q0 -115 -66 -189q-68 -75 -172 -75q-32 0 -67 9zM140 251q0 -94 51 -145l133 321q-17 7 -42 7q-64 0 -103 -51
t-39 -132zM425 251q0 89 -48 140l-131 -319q19 -5 36 -5q65 0 104 52q39 51 39 132z" />
    <glyph glyph-name="ugrave" unicode="&#xf9;" horiz-adv-x="535" 
d="M373 502h96v-502h-93v99l-59 -58q-55 -54 -118 -54q-59 0 -95 39.5t-36 104.5v371h96v-362q0 -27 15.5 -47t37.5 -20q30 0 64 31l92 89v309zM150 693h108l64 -121h-84z" />
    <glyph glyph-name="uacute" unicode="&#xfa;" horiz-adv-x="535" 
d="M373 502h96v-502h-93v99l-59 -58q-55 -54 -118 -54q-59 0 -95 39.5t-36 104.5v371h96v-362q0 -27 15.5 -47t37.5 -20q30 0 64 31l92 89v309zM290 693h108l-88 -121h-84z" />
    <glyph glyph-name="ucircumflex" unicode="&#xfb;" horiz-adv-x="535" 
d="M373 502h96v-502h-93v99l-59 -58q-55 -54 -118 -54q-59 0 -95 39.5t-36 104.5v371h96v-362q0 -27 15.5 -47t37.5 -20q30 0 64 31l92 89v309zM220 693h106l71 -121h-69l-55 69l-54 -69h-69z" />
    <glyph glyph-name="udieresis" unicode="&#xfc;" horiz-adv-x="535" 
d="M373 502h96v-502h-93v99l-59 -58q-55 -54 -118 -54q-59 0 -95 39.5t-36 104.5v371h96v-362q0 -27 15.5 -47t37.5 -20q30 0 64 31l92 89v309zM303 693h87v-103h-87v103zM157 693h87v-103h-87v103z" />
    <glyph glyph-name="yacute" unicode="&#xfd;" horiz-adv-x="480" 
d="M67 -191h-37v85h36q37 0 60.5 19t46.5 72l6 14q11 24 -7 75l-163 428h104l127 -359h3l126 359h103l-206 -535q-34 -89 -77 -125q-42 -33 -122 -33zM256 693h108l-88 -121h-84z" />
    <glyph glyph-name="thorn" unicode="&#xfe;" horiz-adv-x="568" 
d="M165 71h-1v-253h-96v875h96v-275h1q47 97 150 97q91 0 150 -74q58 -73 58 -187q0 -117 -61 -191q-61 -76 -156 -76q-93 0 -141 84zM162 250q0 -82 35 -131t95 -49t95.5 49.5t35.5 131.5t-34.5 131.5t-94.5 49.5t-96 -50t-36 -132z" />
    <glyph glyph-name="ydieresis" unicode="&#xff;" horiz-adv-x="480" 
d="M67 -191h-37v85h36q37 0 60.5 19t46.5 72l6 14q11 24 -7 75l-163 428h104l127 -359h3l126 359h103l-206 -535q-34 -89 -77 -125q-42 -33 -122 -33zM269 693h87v-103h-87v103zM123 693h87v-103h-87v103z" />
    <glyph glyph-name="Amacron" unicode="&#x100;" horiz-adv-x="645" 
d="M263 693h121l260 -693h-111l-72 199h-278l-70 -199h-112zM321 591l-109 -309h221l-110 309h-2zM198 813h247v-73h-247v73z" />
    <glyph glyph-name="amacron" unicode="&#x101;" horiz-adv-x="528" 
d="M459 351v-351h-92l-2 68h-2q-49 -81 -161 -81q-76 0 -116 37.5t-40 108.5q0 64 34 99t117 54l27 6q4 0 13 1.5t24.5 4t30.5 4.5q44 6 59 15.5t15 29.5v4q0 86 -96 86q-46 0 -73 -20t-43 -67l-95 16q31 78 82 113.5t132 35.5q90 0 138 -42.5t48 -121.5zM228 62
q63 0 99.5 35t36.5 95v63q-29 -20 -100 -29q-76 -12 -99 -32t-23 -58q0 -74 86 -74zM146 648h247v-73h-247v73z" />
    <glyph glyph-name="Abreve" unicode="&#x102;" horiz-adv-x="645" 
d="M263 693h121l260 -693h-111l-72 199h-278l-70 -199h-112zM321 591l-109 -309h221l-110 309h-2zM321 795q53 0 58 63h65q-2 -58 -34 -89.5t-89 -31.5t-89 31.5t-34 89.5h66q5 -63 57 -63z" />
    <glyph glyph-name="abreve" unicode="&#x103;" horiz-adv-x="528" 
d="M459 351v-351h-92l-2 68h-2q-49 -81 -161 -81q-76 0 -116 37.5t-40 108.5q0 64 34 99t117 54l27 6q4 0 13 1.5t24.5 4t30.5 4.5q44 6 59 15.5t15 29.5v4q0 86 -96 86q-46 0 -73 -20t-43 -67l-95 16q31 78 82 113.5t132 35.5q90 0 138 -42.5t48 -121.5zM228 62
q63 0 99.5 35t36.5 95v63q-29 -20 -100 -29q-76 -12 -99 -32t-23 -58q0 -74 86 -74zM269 630q53 0 58 63h65q-2 -58 -34 -89.5t-89 -31.5t-89 31.5t-34 89.5h66q5 -63 57 -63z" />
    <glyph glyph-name="Aogonek" unicode="&#x104;" horiz-adv-x="645" 
d="M592 -130q21 0 41 4v-52q-33 -10 -59 -10q-86 0 -86 69q0 21 18 61q3 7 14.5 31.5t12.5 26.5l-72 199h-278l-70 -199h-112l262 693h121l260 -693q-31 -18 -54 -52q-25 -34 -25 -54q0 -24 27 -24zM321 591l-109 -309h221l-110 309h-2z" />
    <glyph glyph-name="aogonek" unicode="&#x105;" horiz-adv-x="528" 
d="M416 -130q21 0 41 4v-52q-33 -10 -59 -10q-86 0 -86 69q0 21 17 57q16 34 38 62l-2 68h-2q-49 -81 -161 -81q-76 0 -116 37.5t-40 108.5q0 64 34 99t117 54l27 6q4 0 13 1.5t24.5 4t30.5 4.5q44 6 59 15.5t15 29.5v4q0 86 -96 86q-46 0 -73 -20t-43 -67l-95 16
q31 78 82 113.5t132 35.5q90 0 138 -42.5t48 -121.5v-351q-24 -18 -47 -54q-23 -35 -23 -52q0 -24 27 -24zM228 62q63 0 99.5 35t36.5 95v63q-29 -20 -100 -29q-76 -12 -99 -32t-23 -58q0 -74 86 -74z" />
    <glyph glyph-name="Cacute" unicode="&#x106;" horiz-adv-x="657" 
d="M342 76q131 0 173 162l104 -17q-27 -111 -99.5 -172.5t-178.5 -61.5q-132 0 -213 100q-81 101 -81 259q0 160 82 260t216 100q102 0 172 -57t99 -164l-105 -20q-42 153 -169 153q-86 0 -137 -76q-52 -76 -52 -195t52 -195q51 -76 137 -76zM360 858h108l-88 -121h-84z" />
    <glyph glyph-name="cacute" unicode="&#x107;" horiz-adv-x="504" 
d="M266 67q82 0 109 104l95 -14q-50 -170 -207 -170q-99 0 -158 72q-59 71 -59 193q0 120 60 192q60 71 158 71q72 0 124.5 -41.5t76.5 -117.5l-94 -16q-34 94 -108 94q-55 0 -89 -50t-34 -133q0 -81 36 -132q34 -52 90 -52zM241 693h108l-88 -121h-84z" />
    <glyph glyph-name="Ccircumflex" unicode="&#x108;" horiz-adv-x="657" 
d="M342 76q131 0 173 162l104 -17q-27 -111 -99.5 -172.5t-178.5 -61.5q-132 0 -213 100q-81 101 -81 259q0 160 82 260t216 100q102 0 172 -57t99 -164l-105 -20q-42 153 -169 153q-86 0 -137 -76q-52 -76 -52 -195t52 -195q51 -76 137 -76zM290 858h106l71 -121h-69
l-55 69l-54 -69h-69z" />
    <glyph glyph-name="ccircumflex" unicode="&#x109;" horiz-adv-x="504" 
d="M266 67q82 0 109 104l95 -14q-50 -170 -207 -170q-99 0 -158 72q-59 71 -59 193q0 120 60 192q60 71 158 71q72 0 124.5 -41.5t76.5 -117.5l-94 -16q-34 94 -108 94q-55 0 -89 -50t-34 -133q0 -81 36 -132q34 -52 90 -52zM202 693h106l71 -121h-69l-55 69l-54 -69h-69z
" />
    <glyph glyph-name="Cdotaccent" unicode="&#x10a;" horiz-adv-x="657" 
d="M342 76q131 0 173 162l104 -17q-27 -111 -99.5 -172.5t-178.5 -61.5q-132 0 -213 100q-81 101 -81 259q0 160 82 260t216 100q102 0 172 -57t99 -164l-105 -20q-42 153 -169 153q-86 0 -137 -76q-52 -76 -52 -195t52 -195q51 -76 137 -76zM294 858h99v-103h-99v103z" />
    <glyph glyph-name="cdotaccent" unicode="&#x10b;" horiz-adv-x="504" 
d="M266 67q82 0 109 104l95 -14q-50 -170 -207 -170q-99 0 -158 72q-59 71 -59 193q0 120 60 192q60 71 158 71q72 0 124.5 -41.5t76.5 -117.5l-94 -16q-34 94 -108 94q-55 0 -89 -50t-34 -133q0 -81 36 -132q34 -52 90 -52zM207 693h99v-103h-99v103z" />
    <glyph glyph-name="Ccaron" unicode="&#x10c;" horiz-adv-x="657" 
d="M342 76q131 0 173 162l104 -17q-27 -111 -99.5 -172.5t-178.5 -61.5q-132 0 -213 100q-81 101 -81 259q0 160 82 260t216 100q102 0 172 -57t99 -164l-105 -20q-42 153 -169 153q-86 0 -137 -76q-52 -76 -52 -195t52 -195q51 -76 137 -76zM398 858h69l-71 -121h-106
l-70 121h69l54 -69z" />
    <glyph glyph-name="ccaron" unicode="&#x10d;" horiz-adv-x="504" 
d="M266 67q82 0 109 104l95 -14q-50 -170 -207 -170q-99 0 -158 72q-59 71 -59 193q0 120 60 192q60 71 158 71q72 0 124.5 -41.5t76.5 -117.5l-94 -16q-34 94 -108 94q-55 0 -89 -50t-34 -133q0 -81 36 -132q34 -52 90 -52zM310 693h69l-71 -121h-106l-70 121h69l54 -69z
" />
    <glyph glyph-name="Dcaron" unicode="&#x10e;" horiz-adv-x="666" 
d="M619 346q0 -158 -84 -252q-85 -94 -231 -94h-228v693h228q147 0 231 -93t84 -254zM303 610h-121v-527h121q97 0 154 70q56 71 56 193t-56 193q-57 71 -154 71zM389 863h69l-71 -121h-106l-70 121h69l54 -69z" />
    <glyph glyph-name="dcaron" unicode="&#x10f;" horiz-adv-x="590" 
d="M405 693h96v-693h-92v84h-1q-23 -46 -63.5 -71.5t-90.5 -25.5q-93 0 -150 73q-58 73 -58 188q0 118 61 192q61 75 154 75q48 0 87 -25.5t56 -67.5h1v271zM143 250q0 -87 34.5 -135t97.5 -48t98 49t35 134q0 82 -36.5 132.5t-96.5 50.5q-62 0 -97 -48.5t-35 -134.5z
M629 693v-38l-34 -113h-57v151h91z" />
    <glyph glyph-name="Dcroat" unicode="&#x110;" horiz-adv-x="666" 
d="M619 346q0 -158 -84 -252q-85 -94 -231 -94h-228v318h-65v82h65v293h228q147 0 231 -93t84 -254zM335 318h-153v-235h121q97 0 154 70q56 71 56 193t-56 193q-57 71 -154 71h-121v-210h153v-82z" />
    <glyph glyph-name="dcroat" unicode="&#x111;" horiz-adv-x="568" 
d="M556 556h-55v-556h-92v84h-1q-51 -97 -156 -97q-91 0 -148 74q-58 73 -58 187q0 116 61 192q61 75 151 75q50 0 89 -25.5t57 -67.5h1v134h-127v73h127v64h96v-64h55v-73zM143 249q0 -86 34.5 -134t97.5 -48t98 48.5t35 132.5q0 85 -36 135t-99 50q-61 0 -95.5 -49
t-34.5 -135z" />
    <glyph glyph-name="Emacron" unicode="&#x112;" horiz-adv-x="548" 
d="M182 86h336v-86h-442v693h433v-86h-327v-204h271v-86h-271v-231zM178 813h247v-73h-247v73z" />
    <glyph glyph-name="emacron" unicode="&#x113;" horiz-adv-x="535" 
d="M490 252v-22h-350q2 -74 39.5 -118.5t97.5 -44.5q84 0 120 97l89 -20q-26 -75 -81.5 -116t-132.5 -41q-103 0 -165 71q-61 70 -61 187q0 119 63 195q63 75 162 75q96 0 158 -74q61 -73 61 -189zM269 435q-51 0 -86.5 -38.5t-40.5 -99.5h252q-6 64 -39.5 101t-85.5 37z
M146 648h247v-73h-247v73z" />
    <glyph glyph-name="Ebreve" unicode="&#x114;" horiz-adv-x="548" 
d="M182 86h336v-86h-442v693h433v-86h-327v-204h271v-86h-271v-231zM301 795q53 0 58 63h65q-2 -58 -34 -89.5t-89 -31.5t-89 31.5t-34 89.5h66q5 -63 57 -63z" />
    <glyph glyph-name="ebreve" unicode="&#x115;" horiz-adv-x="535" 
d="M490 252v-22h-350q2 -74 39.5 -118.5t97.5 -44.5q84 0 120 97l89 -20q-26 -75 -81.5 -116t-132.5 -41q-103 0 -165 71q-61 70 -61 187q0 119 63 195q63 75 162 75q96 0 158 -74q61 -73 61 -189zM269 435q-51 0 -86.5 -38.5t-40.5 -99.5h252q-6 64 -39.5 101t-85.5 37z
M269 630q53 0 58 63h65q-2 -58 -34 -89.5t-89 -31.5t-89 31.5t-34 89.5h66q5 -63 57 -63z" />
    <glyph glyph-name="Edotaccent" unicode="&#x116;" horiz-adv-x="548" 
d="M182 86h336v-86h-442v693h433v-86h-327v-204h271v-86h-271v-231zM252 858h99v-103h-99v103z" />
    <glyph glyph-name="edotaccent" unicode="&#x117;" horiz-adv-x="535" 
d="M490 252v-22h-350q2 -74 39.5 -118.5t97.5 -44.5q84 0 120 97l89 -20q-26 -75 -81.5 -116t-132.5 -41q-103 0 -165 71q-61 70 -61 187q0 119 63 195q63 75 162 75q96 0 158 -74q61 -73 61 -189zM269 435q-51 0 -86.5 -38.5t-40.5 -99.5h252q-6 64 -39.5 101t-85.5 37z
M221 693h99v-103h-99v103z" />
    <glyph glyph-name="Eogonek" unicode="&#x118;" horiz-adv-x="548" 
d="M334 -119q0 26 21 62q21 38 46 57h-325v693h433v-86h-327v-204h271v-86h-271v-231h336v-86h-36q-27 -20 -48 -53q-23 -35 -23 -53q0 -24 27 -24q21 0 41 4v-52q-33 -10 -59 -10q-86 0 -86 69z" />
    <glyph glyph-name="eogonek" unicode="&#x119;" horiz-adv-x="535" 
d="M343 -130q21 0 41 4v-52q-33 -10 -59 -10q-86 0 -86 69q0 22 16 53.5t38 53.5q-2 0 -10 -0.5t-11 -0.5q-103 0 -165 71q-61 70 -61 187q0 119 63 195q63 75 162 75q96 0 158 -74q61 -73 61 -189v-22h-350q2 -74 39.5 -118.5t97.5 -44.5q84 0 120 97l89 -20
q-25 -75 -80 -116q-26 -18 -57 -67q-33 -49 -33 -67q0 -24 27 -24zM269 435q-51 0 -86.5 -38.5t-40.5 -99.5h252q-6 64 -39.5 101t-85.5 37z" />
    <glyph glyph-name="Ecaron" unicode="&#x11a;" horiz-adv-x="548" 
d="M182 86h336v-86h-442v693h433v-86h-327v-204h271v-86h-271v-231zM356 858h69l-71 -121h-106l-70 121h69l54 -69z" />
    <glyph glyph-name="ecaron" unicode="&#x11b;" horiz-adv-x="535" 
d="M490 252v-22h-350q2 -74 39.5 -118.5t97.5 -44.5q84 0 120 97l89 -20q-26 -75 -81.5 -116t-132.5 -41q-103 0 -165 71q-61 70 -61 187q0 119 63 195q63 75 162 75q96 0 158 -74q61 -73 61 -189zM269 435q-51 0 -86.5 -38.5t-40.5 -99.5h252q-6 64 -39.5 101t-85.5 37z
M324 693h69l-71 -121h-106l-70 121h69l54 -69z" />
    <glyph glyph-name="Gcircumflex" unicode="&#x11c;" horiz-adv-x="675" 
d="M342 76q75 0 122.5 53.5t58.5 147.5h-165v81h273q2 -173 -75 -272q-76 -99 -215 -99q-132 0 -213 101q-81 100 -81 259t82 259q81 100 213 100q104 0 174.5 -57t99.5 -165l-105 -19q-43 153 -169 153q-86 0 -137 -76q-52 -76 -52 -195q0 -118 52 -194q51 -77 137 -77z
M288 858h106l71 -121h-69l-55 69l-54 -69h-69z" />
    <glyph glyph-name="gcircumflex" unicode="&#x11d;" horiz-adv-x="483" 
d="M129 153q0 -29 42 -34l144 -14q160 -16 160 -134q0 -77 -66 -121q-68 -44 -175 -44q-99 0 -158 37q-60 37 -60 102q0 34 16.5 60t57.5 55q-20 10 -32 30t-12 42q0 24 17 49.5t41 40.5q-51 46 -51 121q0 73 53 123q52 49 132 49q46 0 100 -25q23 47 54.5 63.5t90.5 16.5
v-88q-83 0 -94 -33q37 -48 37 -109q0 -73 -53 -120q-52 -46 -136 -46q-48 0 -83 16q-25 -14 -25 -37zM382 -39q0 52 -71 59l-145 15q-27 -5 -45 -27t-18 -50q0 -39 36 -61t100 -22q67 0 105 22.5t38 63.5zM146 340q0 -43 25 -68.5t68 -25.5t68.5 26t25.5 69t-25.5 70
t-67.5 27q-43 0 -68.5 -27t-25.5 -71zM186 693h106l71 -121h-69l-55 69l-54 -69h-69z" />
    <glyph glyph-name="Gbreve" unicode="&#x11e;" horiz-adv-x="675" 
d="M342 76q75 0 122.5 53.5t58.5 147.5h-165v81h273q2 -173 -75 -272q-76 -99 -215 -99q-132 0 -213 101q-81 100 -81 259t82 259q81 100 213 100q104 0 174.5 -57t99.5 -165l-105 -19q-43 153 -169 153q-86 0 -137 -76q-52 -76 -52 -195q0 -118 52 -194q51 -77 137 -77z
M341 795q53 0 58 63h65q-2 -58 -34 -89.5t-89 -31.5t-89 31.5t-34 89.5h66q5 -63 57 -63z" />
    <glyph glyph-name="gbreve" unicode="&#x11f;" horiz-adv-x="483" 
d="M129 153q0 -29 42 -34l144 -14q160 -16 160 -134q0 -77 -66 -121q-68 -44 -175 -44q-99 0 -158 37q-60 37 -60 102q0 34 16.5 60t57.5 55q-20 10 -32 30t-12 42q0 24 17 49.5t41 40.5q-51 46 -51 121q0 73 53 123q52 49 132 49q46 0 100 -25q23 47 54.5 63.5t90.5 16.5
v-88q-83 0 -94 -33q37 -48 37 -109q0 -73 -53 -120q-52 -46 -136 -46q-48 0 -83 16q-25 -14 -25 -37zM382 -39q0 52 -71 59l-145 15q-27 -5 -45 -27t-18 -50q0 -39 36 -61t100 -22q67 0 105 22.5t38 63.5zM146 340q0 -43 25 -68.5t68 -25.5t68.5 26t25.5 69t-25.5 70
t-67.5 27q-43 0 -68.5 -27t-25.5 -71zM239 630q53 0 58 63h65q-2 -58 -34 -89.5t-89 -31.5t-89 31.5t-34 89.5h66q5 -63 57 -63z" />
    <glyph glyph-name="Gdotaccent" unicode="&#x120;" horiz-adv-x="675" 
d="M342 76q75 0 122.5 53.5t58.5 147.5h-165v81h273q2 -173 -75 -272q-76 -99 -215 -99q-132 0 -213 101q-81 100 -81 259t82 259q81 100 213 100q104 0 174.5 -57t99.5 -165l-105 -19q-43 153 -169 153q-86 0 -137 -76q-52 -76 -52 -195q0 -118 52 -194q51 -77 137 -77z
M292 858h99v-103h-99v103z" />
    <glyph glyph-name="gdotaccent" unicode="&#x121;" horiz-adv-x="483" 
d="M129 153q0 -29 42 -34l144 -14q160 -16 160 -134q0 -77 -66 -121q-68 -44 -175 -44q-99 0 -158 37q-60 37 -60 102q0 34 16.5 60t57.5 55q-20 10 -32 30t-12 42q0 24 17 49.5t41 40.5q-51 46 -51 121q0 73 53 123q52 49 132 49q46 0 100 -25q23 47 54.5 63.5t90.5 16.5
v-88q-83 0 -94 -33q37 -48 37 -109q0 -73 -53 -120q-52 -46 -136 -46q-48 0 -83 16q-25 -14 -25 -37zM382 -39q0 52 -71 59l-145 15q-27 -5 -45 -27t-18 -50q0 -39 36 -61t100 -22q67 0 105 22.5t38 63.5zM146 340q0 -43 25 -68.5t68 -25.5t68.5 26t25.5 69t-25.5 70
t-67.5 27q-43 0 -68.5 -27t-25.5 -71zM191 693h99v-103h-99v103z" />
    <glyph glyph-name="uni0122" unicode="&#x122;" horiz-adv-x="675" 
d="M128 88q-81 100 -81 259t82 259q81 100 213 100q105 0 175 -57q71 -57 99 -165l-105 -19q-43 153 -169 153q-86 0 -137 -76q-52 -76 -52 -195q0 -118 52 -194q51 -77 137 -77q75 0 123 54t58 147h-165v81h273q2 -173 -75 -272q-76 -99 -215 -99q-132 0 -213 101z
M288 -186l36 65h-36v81h108v-72l-52 -74h-56z" />
    <glyph glyph-name="uni0123" unicode="&#x123;" horiz-adv-x="483" 
d="M16 -55q0 34 16 60q18 28 58 55q-20 10 -32 30t-12 42q0 24 17 50q16 24 41 40q-23 22 -37 54q-14 33 -14 67q0 73 53 123q52 49 132 49q25 0 49 -6q25 -7 51 -19q22 47 56 64q31 16 89 16v-88q-83 0 -94 -33q17 -21 28 -51q9 -28 9 -58q0 -73 -53 -120q-52 -46 -136 -46
q-48 0 -83 16q-13 -8 -18 -16q-7 -10 -7 -21q0 -29 42 -34l144 -14q79 -7 120 -41q40 -34 40 -93q0 -77 -66 -121q-68 -44 -175 -44q-99 0 -158 37q-60 37 -60 102zM103 -42q0 -39 36 -61t100 -22q67 0 105 22q38 23 38 64q0 52 -71 59l-145 15q-27 -5 -45 -27t-18 -50z
M146 340q0 -43 25 -68q26 -26 68 -26q43 0 69 26q25 25 25 69q0 43 -25.5 70t-67.5 27t-68 -27q-26 -28 -26 -71zM188 575v72l52 73h56l-36 -64h36v-81h-108z" />
    <glyph glyph-name="Hcircumflex" unicode="&#x124;" horiz-adv-x="658" 
d="M475 693h106v-693h-106v317h-293v-317h-106v693h106v-291h293v291zM274 858h106l71 -121h-69l-55 69l-54 -69h-69z" />
    <glyph glyph-name="hcircumflex" unicode="&#x125;" horiz-adv-x="542" 
d="M164 0h-96v693h96v-293l59 60q29 29 59 42q29 13 64 13q59 0 94 -38q34 -37 34 -104v-373h-96v367q0 29 -15 47q-15 17 -40 17q-16 0 -30 -7q-13 -6 -32 -23l-97 -90v-311zM-5 737l70 121h106l71 -121h-69l-55 69l-54 -69h-69z" />
    <glyph glyph-name="Hbar" unicode="&#x126;" horiz-adv-x="658" 
d="M647 495h-66v-495h-106v317h-293v-317h-106v495h-65v83h65v115h106v-115h293v115h106v-115h66v-83zM182 495v-93h293v93h-293z" />
    <glyph glyph-name="hbar" unicode="&#x127;" horiz-adv-x="542" 
d="M16 629h52v64h96v-64h129v-73h-129v-156l59 60q29 29 59 42q29 13 64 13q59 0 94 -38q34 -37 34 -104v-373h-96v367q0 29 -15 47q-15 17 -40 17q-16 0 -30 -7q-13 -6 -32 -23l-97 -90v-311h-96v556h-52v73z" />
    <glyph glyph-name="Itilde" unicode="&#x128;" horiz-adv-x="273" 
d="M83 693h106v-693h-106v693zM188 800q12 0 19.5 12t7.5 32h51q-1 -50 -22 -81t-55 -31q-29 0 -65 30q-24 19 -34 19q-23 0 -23 -44h-56q1 49 23 80.5t55 31.5q25 0 64 -30q24 -19 35 -19z" />
    <glyph glyph-name="itilde" unicode="&#x129;" horiz-adv-x="241" 
d="M71 502h95v-502h-95v502zM174 635q12 0 19.5 12t7.5 32h51q-1 -50 -22 -81t-55 -31q-29 0 -65 30q-24 19 -34 19q-23 0 -23 -44h-56q1 49 23 80.5t55 31.5q25 0 64 -30q24 -19 35 -19z" />
    <glyph glyph-name="Imacron" unicode="&#x12a;" horiz-adv-x="273" 
d="M83 693h106v-693h-106v693zM13 813h247v-73h-247v73z" />
    <glyph glyph-name="imacron" unicode="&#x12b;" horiz-adv-x="241" 
d="M71 502h95v-502h-95v502zM0 648h247v-73h-247v73z" />
    <glyph glyph-name="Ibreve" unicode="&#x12c;" horiz-adv-x="273" 
d="M83 693h106v-693h-106v693zM136 795q53 0 58 63h65q-2 -58 -34 -89.5t-89 -31.5t-89 31.5t-34 89.5h66q5 -63 57 -63z" />
    <glyph glyph-name="ibreve" unicode="&#x12d;" horiz-adv-x="241" 
d="M71 502h95v-502h-95v502zM123 630q53 0 58 63h65q-2 -58 -34 -89.5t-89 -31.5t-89 31.5t-34 89.5h66q5 -63 57 -63z" />
    <glyph glyph-name="Iogonek" unicode="&#x12e;" horiz-adv-x="273" 
d="M137 -130q21 0 41 4v-52q-33 -10 -59 -10q-86 0 -86 69q0 36 50 119v693h106v-693q-31 -18 -54 -52q-25 -34 -25 -54q0 -24 27 -24z" />
    <glyph glyph-name="iogonek" unicode="&#x12f;" horiz-adv-x="241" 
d="M121 -130q21 0 41 4v-52q-33 -10 -59 -10q-86 0 -86 69q0 23 18 58q15 34 38 61v502h95v-502q-27 -18 -50 -53q-24 -35 -24 -53q0 -24 27 -24zM71 693h99v-104h-99v104z" />
    <glyph glyph-name="Idotaccent" unicode="&#x130;" horiz-adv-x="273" 
d="M83 693h106v-693h-106v693zM88 858h99v-103h-99v103z" />
    <glyph glyph-name="dotlessi" unicode="&#x131;" horiz-adv-x="241" 
d="M73 502h95v-502h-95v502z" />
    <glyph glyph-name="IJ" unicode="&#x132;" horiz-adv-x="782" 
d="M83 693h106v-693h-106v693zM502 75q101 0 101 128v490h105v-493q0 -99 -55.5 -156t-150.5 -57t-150 56t-55 155v34l104 15v-45q0 -65 24.5 -96t76.5 -31z" />
    <glyph glyph-name="ij" unicode="&#x133;" horiz-adv-x="472" 
d="M71 693h99v-104h-99v104zM73 502h95v-502h-95v502zM379 -135q-16 -26 -46.5 -36.5t-96.5 -10.5v79h2q39 0 51 7.5t16 31.5q4 23 4 90v476h96v-482q0 -115 -26 -155zM308 693h98v-104h-98v104z" />
    <glyph glyph-name="Jcircumflex" unicode="&#x134;" horiz-adv-x="509" 
d="M229 75q101 0 101 128v490h105v-493q0 -99 -55.5 -156t-150.5 -57t-150 56t-55 155v34l104 15v-45q0 -65 24.5 -96t76.5 -31zM329 858h106l71 -121h-69l-55 69l-54 -69h-69z" />
    <glyph glyph-name="jcircumflex" unicode="&#x135;" horiz-adv-x="231" 
d="M138 -135q-16 -26 -47 -36.5t-96 -10.5v79h2q39 0 51 7.5t16 31.5q4 23 4 90v476h96v-482q0 -115 -26 -155zM62 693h106l71 -121h-69l-55 69l-54 -69h-69z" />
    <glyph glyph-name="uni0136" unicode="&#x136;" horiz-adv-x="610" 
d="M76 693h106v-352h2l288 352h119l-224 -264l247 -429h-121l-193 351l-118 -139v-212h-106v693zM292 -121h-36v81h108v-72l-52 -74h-56z" />
    <glyph glyph-name="uni0137" unicode="&#x137;" horiz-adv-x="512" 
d="M164 0h-96v693h96v-430h2l206 239h109l-168 -185l199 -317h-113l-147 252l-88 -96v-156zM275 -186h-56l36 65h-36v81h108v-72z" />
    <glyph glyph-name="kgreenlandic" unicode="&#x138;" horiz-adv-x="512" 
d="M481 502l-168 -185l199 -317h-113l-147 252l-88 -96v-156h-96v502h96v-239h2l206 239h109z" />
    <glyph glyph-name="Lacute" unicode="&#x139;" horiz-adv-x="489" 
d="M182 86h297v-86h-403v693h106v-607zM149 858h108l-88 -121h-84z" />
    <glyph glyph-name="lacute" unicode="&#x13a;" horiz-adv-x="243" 
d="M74 693h95v-693h-95v693zM140 858h108l-88 -121h-84z" />
    <glyph glyph-name="uni013B" unicode="&#x13b;" horiz-adv-x="489" 
d="M479 0h-403v693h106v-607h297v-86zM216 -186l36 65h-36v81h108v-72l-52 -74h-56z" />
    <glyph glyph-name="uni013C" unicode="&#x13c;" horiz-adv-x="243" 
d="M74 0v693h95v-693h-95zM105 -121h-36v81h108v-72l-52 -74h-56z" />
    <glyph glyph-name="Lcaron" unicode="&#x13d;" horiz-adv-x="489" 
d="M182 86h297v-86h-403v693h106v-607zM330 693v-38l-34 -113h-57v151h91z" />
    <glyph glyph-name="lcaron" unicode="&#x13e;" horiz-adv-x="259" 
d="M74 693h95v-693h-95v693zM298 693v-38l-34 -113h-57v151h91z" />
    <glyph glyph-name="Ldot" unicode="&#x13f;" horiz-adv-x="489" 
d="M182 86h297v-86h-403v693h106v-607z" />
    <glyph glyph-name="ldot" unicode="&#x140;" horiz-adv-x="323" 
d="M74 693h95v-693h-95v693z" />
    <glyph glyph-name="Lslash" unicode="&#x141;" horiz-adv-x="489" 
d="M182 86h297v-86h-403v240l-46 -17l-27 75l73 27v368h106v-330l118 43l27 -75l-145 -53v-192z" />
    <glyph glyph-name="lslash" unicode="&#x142;" horiz-adv-x="243" 
d="M259 437l-90 -33v-404h-95v369l-61 -22l-27 75l88 32v239h95v-204l62 23z" />
    <glyph glyph-name="Nacute" unicode="&#x143;" horiz-adv-x="671" 
d="M497 693h97v-693h-119l-301 543h-1v-543h-97v693h119l299 -531h3v531zM358 858h108l-88 -121h-84z" />
    <glyph glyph-name="nacute" unicode="&#x144;" horiz-adv-x="542" 
d="M474 373v-373h-96v370q0 28 -14.5 45t-38.5 17q-34 0 -71 -34l-90 -83v-315h-96v502h93v-101l60 59q57 54 122 54q62 0 96.5 -37.5t34.5 -103.5zM288 693h108l-88 -121h-84z" />
    <glyph glyph-name="uni0145" unicode="&#x145;" horiz-adv-x="671" 
d="M76 693h119l299 -531h3v531h97v-693h-119l-301 543h-1v-543h-97v693zM341 -186h-56l36 65h-36v81h108v-72z" />
    <glyph glyph-name="uni0146" unicode="&#x146;" horiz-adv-x="542" 
d="M68 0v502h93v-101l60 59q57 54 122 54q62 0 96.5 -37.5t34.5 -103.5v-373h-96v370q0 28 -14 45q-15 17 -39 17q-17 0 -35 -9q-20 -9 -36 -25l-90 -83v-315h-96zM253 -121h-36v81h108v-72l-52 -74h-56z" />
    <glyph glyph-name="Ncaron" unicode="&#x147;" horiz-adv-x="671" 
d="M497 693h97v-693h-119l-301 543h-1v-543h-97v693h119l299 -531h3v531zM396 858h69l-71 -121h-106l-70 121h69l54 -69z" />
    <glyph glyph-name="ncaron" unicode="&#x148;" horiz-adv-x="542" 
d="M474 373v-373h-96v370q0 28 -14.5 45t-38.5 17q-34 0 -71 -34l-90 -83v-315h-96v502h93v-101l60 59q57 54 122 54q62 0 96.5 -37.5t34.5 -103.5zM326 693h69l-71 -121h-106l-70 121h69l54 -69z" />
    <glyph glyph-name="napostrophe" unicode="&#x149;" horiz-adv-x="542" 
d="M68 0v502h93v-101l60 59q57 54 122 54q62 0 96.5 -37.5t34.5 -103.5v-373h-96v370q0 28 -14 45q-15 17 -39 17q-17 0 -35 -9q-20 -9 -36 -25l-90 -83v-315h-96zM218 547l36 65h-36v81h108v-72l-52 -74h-56z" />
    <glyph glyph-name="Eng" unicode="&#x14a;" horiz-adv-x="671" 
d="M76 693h119l299 -526h3v526h97v-732q0 -78 -34 -111q-35 -32 -130 -32h-34v79h30q47 0 59 14q11 13 12 51v12l-323 569h-1v-543h-97v693z" />
    <glyph glyph-name="eng" unicode="&#x14b;" horiz-adv-x="542" 
d="M472 -59q-4 -67 -38 -95t-129 -28v79h3q37 0 48 6t17 26q5 19 5 81v360q0 27 -14.5 44.5t-37.5 17.5q-35 0 -72 -34l-90 -83v-315h-96v502h93v-101l60 59q56 55 123 55q61 0 95.5 -37.5t34.5 -104.5v-366q0 -8 -0.5 -16.5t-1 -23t-0.5 -26.5z" />
    <glyph glyph-name="Omacron" unicode="&#x14c;" horiz-adv-x="695" 
d="M153 347q0 -117 53 -194t141 -77t142 77q53 77 53 194q0 118 -53 195q-54 76 -142 76q-89 0 -141 -76q-53 -77 -53 -195zM648 347q0 -158 -83 -259t-218 -101q-134 0 -217 101t-83 259t83 259q82 100 217 100q136 0 218 -100q83 -101 83 -259zM224 813h247v-73h-247v73z
" />
    <glyph glyph-name="omacron" unicode="&#x14d;" horiz-adv-x="566" 
d="M520 251q0 -115 -66 -189q-68 -75 -172 -75q-105 0 -170 74q-66 73 -66 190t66 190q65 74 170 74q104 0 172 -74q66 -73 66 -190zM140 251q0 -81 39 -132q39 -52 103 -52q65 0 104 52q39 51 39 132t-39 132t-104 51q-64 0 -103 -51t-39 -132zM159 648h247v-73h-247v73z
" />
    <glyph glyph-name="Obreve" unicode="&#x14e;" horiz-adv-x="695" 
d="M153 347q0 -117 53 -194t141 -77t142 77q53 77 53 194q0 118 -53 195q-54 76 -142 76q-89 0 -141 -76q-53 -77 -53 -195zM648 347q0 -158 -83 -259t-218 -101q-134 0 -217 101t-83 259t83 259q82 100 217 100q136 0 218 -100q83 -101 83 -259zM347 795q53 0 58 63h65
q-2 -58 -34 -89.5t-89 -31.5t-89 31.5t-34 89.5h66q5 -63 57 -63z" />
    <glyph glyph-name="obreve" unicode="&#x14f;" horiz-adv-x="566" 
d="M520 251q0 -115 -66 -189q-68 -75 -172 -75q-105 0 -170 74q-66 73 -66 190t66 190q65 74 170 74q104 0 172 -74q66 -73 66 -190zM140 251q0 -81 39 -132q39 -52 103 -52q65 0 104 52q39 51 39 132t-39 132t-104 51q-64 0 -103 -51t-39 -132zM282 630q53 0 58 63h65
q-2 -58 -34 -89.5t-89 -31.5t-89 31.5t-34 89.5h66q5 -63 57 -63z" />
    <glyph glyph-name="Ohungarumlaut" unicode="&#x150;" horiz-adv-x="695" 
d="M47 347q0 158 83 259q82 100 217 100q136 0 218 -100q83 -101 83 -259t-83 -259t-218 -101q-134 0 -217 101t-83 259zM153 347q0 -117 53 -194t141 -77t142 77q53 77 53 194q0 118 -53 195q-54 76 -142 76q-89 0 -141 -76q-53 -77 -53 -195zM373 737l42 121h90l-60 -121
h-72zM319 737h-72l42 121h89z" />
    <glyph glyph-name="ohungarumlaut" unicode="&#x151;" horiz-adv-x="566" 
d="M112 61q-66 73 -66 190t66 190q65 74 170 74q104 0 172 -74q66 -73 66 -190q0 -115 -66 -189q-68 -75 -172 -75q-105 0 -170 74zM179 383q-39 -51 -39 -132t39 -132q39 -52 103 -52q65 0 104 52q39 51 39 132t-39 132t-104 51q-64 0 -103 -51zM308 572l42 121h90
l-60 -121h-72zM254 572h-72l42 121h89z" />
    <glyph glyph-name="OE" unicode="&#x152;" horiz-adv-x="1011" 
d="M646 86h336v-86h-442v87q-72 -100 -195 -100q-133 0 -216 101q-82 100 -82 259t82 259t216 100q123 0 195 -101v88h433v-86h-327v-204h271v-86h-271v-231zM153 347q0 -117 53 -194t141 -77t142 77q53 77 53 194q0 118 -53 195q-54 76 -142 76q-89 0 -141 -76
q-53 -77 -53 -195z" />
    <glyph glyph-name="oe" unicode="&#x153;" horiz-adv-x="909" 
d="M864 252q0 -18 -1 -22h-349q2 -72 38 -117q37 -46 94 -46q46 0 75.5 23t48.5 74l90 -20q-26 -75 -82 -116t-132 -41q-127 0 -180 103q-61 -103 -184 -103q-105 0 -170 74q-66 73 -66 190t66 190q65 74 170 74q127 0 187 -109q28 52 73 80.5t100 28.5q100 0 161 -73
t61 -190zM140 251q0 -81 39 -132q39 -52 103 -52q65 0 104 52q39 51 39 132t-39 132t-104 51q-64 0 -103 -51t-39 -132zM641 435q-51 0 -86 -39t-39 -99h251q-6 65 -39.5 101.5t-86.5 36.5z" />
    <glyph glyph-name="Racute" unicode="&#x154;" horiz-adv-x="621" 
d="M429 316l173 -316h-124l-155 296h-141v-296h-106v693h262q108 0 166 -50t58 -140q0 -69 -34.5 -118t-98.5 -69zM327 607h-145v-227h141q63 0 96.5 30.5t33.5 88.5q0 108 -126 108zM315 863h108l-88 -121h-84z" />
    <glyph glyph-name="racute" unicode="&#x155;" horiz-adv-x="353" 
d="M229 367l-65 -63v-304h-96v502h93v-112l54 56q42 44 65 57q23 12 58 12v-101q-32 1 -56.5 -9.5t-52.5 -37.5zM219 693h108l-88 -121h-84z" />
    <glyph glyph-name="uni0156" unicode="&#x156;" horiz-adv-x="621" 
d="M182 0h-106v693h262q108 0 166 -50t58 -140q0 -69 -34 -118t-99 -69l173 -316h-124l-155 296h-141v-296zM182 380h141q63 0 97 31q33 30 33 88q0 55 -31 82q-32 26 -95 26h-145v-227zM308 -186h-56l36 65h-36v81h108v-72z" />
    <glyph glyph-name="uni0157" unicode="&#x157;" horiz-adv-x="353" 
d="M68 0v502h93v-112l54 56q42 44 65 57q23 12 58 12v-101q-32 2 -56 -9q-23 -9 -53 -38l-65 -63v-304h-96zM98 -121h-36v81h108v-72l-52 -74h-56z" />
    <glyph glyph-name="Rcaron" unicode="&#x158;" horiz-adv-x="621" 
d="M429 316l173 -316h-124l-155 296h-141v-296h-106v693h262q108 0 166 -50t58 -140q0 -69 -34.5 -118t-98.5 -69zM327 607h-145v-227h141q63 0 96.5 30.5t33.5 88.5q0 108 -126 108zM360 863h69l-71 -121h-106l-70 121h69l54 -69z" />
    <glyph glyph-name="rcaron" unicode="&#x159;" horiz-adv-x="353" 
d="M229 367l-65 -63v-304h-96v502h93v-112l54 56q42 44 65 57q23 12 58 12v-101q-32 1 -56.5 -9.5t-52.5 -37.5zM257 693h69l-71 -121h-106l-70 121h69l54 -69z" />
    <glyph glyph-name="Sacute" unicode="&#x15a;" horiz-adv-x="575" 
d="M282 706q96 0 160 -50t90 -144l-103 -15q-16 57 -56.5 89.5t-97.5 32.5q-56 0 -91.5 -27.5t-35.5 -72.5q0 -58 62 -87q19 -9 38 -15q18 -6 70 -19q69 -18 103 -30q36 -16 55 -28q73 -49 73 -145q0 -93 -68 -150q-67 -58 -179 -58q-211 0 -278 202l110 28
q18 -67 64.5 -104.5t110.5 -37.5q62 0 99.5 30.5t37.5 79.5q0 60 -63 91q-25 11 -39 16q-6 2 -74 20q-61 15 -98 29q-34 13 -55 27q-72 46 -72 137t66 146q64 55 171 55zM300 858h108l-88 -121h-84z" />
    <glyph glyph-name="sacute" unicode="&#x15b;" horiz-adv-x="491" 
d="M240 515q152 0 200 -132l-85 -22q-26 75 -119 75q-45 0 -72 -16.5t-27 -44.5q0 -27 24 -44t105 -33q94 -19 128 -39q62 -38 62 -111q0 -74 -57 -117q-59 -44 -151 -44q-87 0 -143 40t-74 115l88 22q28 -98 132 -98q49 0 80 19.5t31 52.5q0 29 -24 47q-25 18 -107 34
q-92 19 -124 39q-60 34 -60 107q0 69 54 109q53 41 139 41zM262 693h108l-88 -121h-84z" />
    <glyph glyph-name="Scircumflex" unicode="&#x15c;" horiz-adv-x="575" 
d="M282 706q96 0 160 -50t90 -144l-103 -15q-16 57 -56.5 89.5t-97.5 32.5q-56 0 -91.5 -27.5t-35.5 -72.5q0 -58 62 -87q19 -9 38 -15q18 -6 70 -19q69 -18 103 -30q36 -16 55 -28q73 -49 73 -145q0 -93 -68 -150q-67 -58 -179 -58q-211 0 -278 202l110 28
q18 -67 64.5 -104.5t110.5 -37.5q62 0 99.5 30.5t37.5 79.5q0 60 -63 91q-25 11 -39 16q-6 2 -74 20q-61 15 -98 29q-34 13 -55 27q-72 46 -72 137t66 146q64 55 171 55zM230 858h106l71 -121h-69l-55 69l-54 -69h-69z" />
    <glyph glyph-name="scircumflex" unicode="&#x15d;" horiz-adv-x="491" 
d="M240 515q152 0 200 -132l-85 -22q-26 75 -119 75q-45 0 -72 -16.5t-27 -44.5q0 -27 24 -44t105 -33q94 -19 128 -39q62 -38 62 -111q0 -74 -57 -117q-59 -44 -151 -44q-87 0 -143 40t-74 115l88 22q28 -98 132 -98q49 0 80 19.5t31 52.5q0 29 -24 47q-25 18 -107 34
q-92 19 -124 39q-60 34 -60 107q0 69 54 109q53 41 139 41zM192 693h106l71 -121h-69l-55 69l-54 -69h-69z" />
    <glyph glyph-name="Scedilla" unicode="&#x15e;" horiz-adv-x="575" 
d="M271 -191q-63 0 -96 19l3 46q52 -15 96 -15q48 0 48 25q0 24 -40 24q-29 0 -55 -13l-15 38l54 56q-180 14 -242 200l110 28q18 -67 64.5 -104.5t110.5 -37.5q62 0 99.5 30.5t37.5 79.5q0 60 -63 91q-25 11 -39 16q-6 2 -74 20q-61 15 -98 29q-34 13 -55 27
q-72 46 -72 137t66 146q64 55 171 55q96 0 160 -50t90 -144l-103 -15q-16 57 -56.5 89.5t-97.5 32.5q-56 0 -91.5 -27.5t-35.5 -72.5q0 -58 62 -87q19 -9 38 -15q18 -6 70 -19q69 -18 103 -30q36 -16 55 -28q73 -49 73 -145q0 -90 -61 -145q-62 -58 -165 -62l-27 -28h7
q43 0 68 -19t25 -53q0 -38 -32.5 -58.5t-92.5 -20.5z" />
    <glyph glyph-name="scedilla" unicode="&#x15f;" horiz-adv-x="491" 
d="M224 -191q-63 0 -96 19l3 46q52 -15 96 -15q48 0 48 25q0 24 -40 24q-29 0 -55 -13l-15 38l53 55q-155 14 -187 154l88 22q28 -98 132 -98q49 0 80 19.5t31 52.5q0 29 -24 47q-25 18 -107 34q-92 19 -124 39q-60 34 -60 107q0 69 54 109q53 41 139 41q152 0 200 -132
l-85 -22q-26 75 -119 75q-45 0 -72 -16.5t-27 -44.5q0 -27 24 -44t105 -33q94 -19 128 -39q62 -38 62 -111q0 -66 -49 -109t-131 -50l-27 -29h7q43 0 68 -19t25 -53q0 -38 -32.5 -58.5t-92.5 -20.5z" />
    <glyph glyph-name="Scaron" unicode="&#x160;" horiz-adv-x="575" 
d="M282 706q96 0 160 -50t90 -144l-103 -15q-16 57 -56.5 89.5t-97.5 32.5q-56 0 -91.5 -27.5t-35.5 -72.5q0 -58 62 -87q19 -9 38 -15q18 -6 70 -19q69 -18 103 -30q36 -16 55 -28q73 -49 73 -145q0 -93 -68 -150q-67 -58 -179 -58q-211 0 -278 202l110 28
q18 -67 64.5 -104.5t110.5 -37.5q62 0 99.5 30.5t37.5 79.5q0 60 -63 91q-25 11 -39 16q-6 2 -74 20q-61 15 -98 29q-34 13 -55 27q-72 46 -72 137t66 146q64 55 171 55zM338 858h69l-71 -121h-106l-70 121h69l54 -69z" />
    <glyph glyph-name="scaron" unicode="&#x161;" horiz-adv-x="491" 
d="M240 515q152 0 200 -132l-85 -22q-26 75 -119 75q-45 0 -72 -16.5t-27 -44.5q0 -27 24 -44t105 -33q94 -19 128 -39q62 -38 62 -111q0 -74 -57 -117q-59 -44 -151 -44q-87 0 -143 40t-74 115l88 22q28 -98 132 -98q49 0 80 19.5t31 52.5q0 29 -24 47q-25 18 -107 34
q-92 19 -124 39q-60 34 -60 107q0 69 54 109q53 41 139 41zM300 693h69l-71 -121h-106l-70 121h69l54 -69z" />
    <glyph glyph-name="uni0162" unicode="&#x162;" horiz-adv-x="546" 
d="M19 607v86h508v-86h-201v-607h-106v607h-201zM219 -121v81h108v-72l-52 -74h-56l36 65h-36z" />
    <glyph glyph-name="uni0163" unicode="&#x163;" horiz-adv-x="348" 
d="M16 502h88v138h96v-138h131v-80h-131v-287q0 -32 16 -47q15 -15 47 -15q17 0 34 3q13 1 34 7v-81q-22 -6 -33 -7q-24 -2 -42 -2q-84 0 -118 34q-34 33 -34 110v285h-88v80zM100 -186l36 65h-36v81h108v-72l-52 -74h-56z" />
    <glyph glyph-name="Tcaron" unicode="&#x164;" horiz-adv-x="546" 
d="M527 607h-201v-607h-106v607h-201v86h508v-86zM329 863h69l-71 -121h-106l-70 121h69l54 -69z" />
    <glyph glyph-name="tcaron" unicode="&#x165;" horiz-adv-x="348" 
d="M16 422v80h88v138h96v-138h131v-80h-131v-287q0 -32 16 -47q15 -15 47 -15q17 0 34 3q13 1 34 7v-81q-22 -6 -33 -7q-24 -2 -42 -2q-84 0 -118 34q-34 33 -34 110v285h-88zM257 612v81h108v-72l-52 -74h-56l36 65h-36z" />
    <glyph glyph-name="Tbar" unicode="&#x166;" horiz-adv-x="546" 
d="M435 318h-109v-318h-106v318h-109v82h109v207h-201v86h508v-86h-201v-207h109v-82z" />
    <glyph glyph-name="tbar" unicode="&#x167;" horiz-adv-x="348" 
d="M263 73q27 0 68 10v-81q-27 -9 -77 -9q-87 0 -118 37q-32 37 -32 131v63h-88v80h88v118h-88v80h88v138h96v-138h131v-80h-131v-118h131v-80h-131v-89q0 -62 63 -62z" />
    <glyph glyph-name="Utilde" unicode="&#x168;" horiz-adv-x="644" 
d="M322 76q65 0 103.5 38t38.5 103v476h105v-479q0 -103 -69 -164q-70 -63 -178 -63t-177 63q-70 61 -70 164v479h106v-476q0 -65 38 -103t103 -38zM376 800q12 0 19.5 12t7.5 32h51q-1 -50 -22 -81t-55 -31q-29 0 -65 30q-24 19 -34 19q-23 0 -23 -44h-56q1 49 23 80.5
t55 31.5q25 0 64 -30q24 -19 35 -19z" />
    <glyph glyph-name="utilde" unicode="&#x169;" horiz-adv-x="535" 
d="M373 502h96v-502h-93v99l-59 -58q-55 -54 -118 -54q-59 0 -95 39.5t-36 104.5v371h96v-362q0 -27 15.5 -47t37.5 -20q30 0 64 31l92 89v309zM324 635q12 0 19.5 12t7.5 32h51q-1 -50 -22 -81t-55 -31q-29 0 -65 30q-24 19 -34 19q-23 0 -23 -44h-56q1 49 23 80.5t55 31.5
q25 0 64 -30q24 -19 35 -19z" />
    <glyph glyph-name="Umacron" unicode="&#x16a;" horiz-adv-x="644" 
d="M322 76q65 0 103.5 38t38.5 103v476h105v-479q0 -103 -69 -164q-70 -63 -178 -63t-177 63q-70 61 -70 164v479h106v-476q0 -65 38 -103t103 -38zM202 813h247v-73h-247v73z" />
    <glyph glyph-name="umacron" unicode="&#x16b;" horiz-adv-x="535" 
d="M373 502h96v-502h-93v99l-59 -58q-55 -54 -118 -54q-59 0 -95 39.5t-36 104.5v371h96v-362q0 -27 15.5 -47t37.5 -20q30 0 64 31l92 89v309zM150 648h247v-73h-247v73z" />
    <glyph glyph-name="Ubreve" unicode="&#x16c;" horiz-adv-x="644" 
d="M322 76q65 0 103.5 38t38.5 103v476h105v-479q0 -103 -69 -164q-70 -63 -178 -63t-177 63q-70 61 -70 164v479h106v-476q0 -65 38 -103t103 -38zM325 795q53 0 58 63h65q-2 -58 -34 -89.5t-89 -31.5t-89 31.5t-34 89.5h66q5 -63 57 -63z" />
    <glyph glyph-name="ubreve" unicode="&#x16d;" horiz-adv-x="535" 
d="M373 502h96v-502h-93v99l-59 -58q-55 -54 -118 -54q-59 0 -95 39.5t-36 104.5v371h96v-362q0 -27 15.5 -47t37.5 -20q30 0 64 31l92 89v309zM273 630q53 0 58 63h65q-2 -58 -34 -89.5t-89 -31.5t-89 31.5t-34 89.5h66q5 -63 57 -63z" />
    <glyph glyph-name="Uring" unicode="&#x16e;" horiz-adv-x="644" 
d="M322 76q65 0 103.5 38t38.5 103v476h105v-479q0 -103 -69 -164q-70 -63 -178 -63t-177 63q-70 61 -70 164v479h106v-476q0 -65 38 -103t103 -38zM421 818q0 -40 -27.5 -68t-67.5 -28t-68 28t-28 68t28 68t68 28t67.5 -28t27.5 -68zM279 818q0 -20 13.5 -33.5t33.5 -13.5
q19 0 32.5 13.5t13.5 33.5t-13.5 33.5t-32.5 13.5q-20 0 -33.5 -13.5t-13.5 -33.5z" />
    <glyph glyph-name="uring" unicode="&#x16f;" horiz-adv-x="535" 
d="M373 502h96v-502h-93v99l-59 -58q-55 -54 -118 -54q-59 0 -95 39.5t-36 104.5v371h96v-362q0 -27 15.5 -47t37.5 -20q30 0 64 31l92 89v309zM369 653q0 -40 -27.5 -68t-67.5 -28t-68 28t-28 68t28 68t68 28t67.5 -28t27.5 -68zM227 653q0 -20 13.5 -33.5t33.5 -13.5
q19 0 32.5 13.5t13.5 33.5t-13.5 33.5t-32.5 13.5q-20 0 -33.5 -13.5t-13.5 -33.5z" />
    <glyph glyph-name="Uhungarumlaut" unicode="&#x170;" horiz-adv-x="644" 
d="M75 214v479h106v-476q0 -65 38 -103t103 -38q64 0 104 38q38 38 38 103v476h105v-479q0 -103 -69 -164q-70 -63 -178 -63t-177 63q-70 61 -70 164zM423 737h-72l42 121h90zM297 737h-72l42 121h89z" />
    <glyph glyph-name="uhungarumlaut" unicode="&#x171;" horiz-adv-x="535" 
d="M104 27q-36 39 -36 104v371h96v-362q0 -28 16 -47q15 -20 37 -20q14 0 32 8q18 9 32 23l92 89v309h96v-502h-93v99l-59 -58q-32 -30 -58 -42q-29 -12 -60 -12q-59 0 -95 40zM299 572l42 121h90l-60 -121h-72zM173 572l42 121h89l-59 -121h-72z" />
    <glyph glyph-name="Uogonek" unicode="&#x172;" horiz-adv-x="644" 
d="M342 -130q21 0 41 4v-52q-33 -10 -59 -10q-86 0 -86 69q0 23 15.5 54t38.5 54q-99 9 -157 70q-60 61 -60 155v479h106v-476q0 -65 38 -103t103 -38t103.5 38t38.5 103v476h105v-479q0 -87 -53 -148t-141 -74q-24 -22 -41 -51q-19 -29 -19 -47q0 -24 27 -24z" />
    <glyph glyph-name="uogonek" unicode="&#x173;" horiz-adv-x="535" 
d="M422 -130q21 0 41 4v-52q-33 -10 -59 -10q-86 0 -86 69q0 23 18 59q18 38 40 60v99l-59 -58q-55 -54 -118 -54q-59 0 -95 39.5t-36 104.5v371h96v-362q0 -27 15.5 -47t37.5 -20q30 0 64 31l92 89v309h96v-502q-27 -18 -50 -53q-24 -35 -24 -53q0 -24 27 -24z" />
    <glyph glyph-name="Wcircumflex" unicode="&#x174;" horiz-adv-x="867" 
d="M755 693h107l-174 -693h-128l-127 532h-5l-127 -532h-121l-174 693h109l130 -582h2l135 582h105l135 -582h2zM378 858h106l71 -121h-69l-55 69l-54 -69h-69z" />
    <glyph glyph-name="wcircumflex" unicode="&#x175;" horiz-adv-x="720" 
d="M605 502h106l-147 -502h-98l-107 382h-2l-105 -382h-98l-145 502h105l94 -378h2l100 378h99l104 -378h2zM304 693h106l71 -121h-69l-55 69l-54 -69h-69z" />
    <glyph glyph-name="Ycircumflex" unicode="&#x176;" horiz-adv-x="565" 
d="M563 693l-228 -404v-289h-106v288l-227 405h116l167 -308l165 308h113zM231 858h106l71 -121h-69l-55 69l-54 -69h-69z" />
    <glyph glyph-name="ycircumflex" unicode="&#x177;" horiz-adv-x="480" 
d="M67 -191h-37v85h36q37 0 60.5 19t46.5 72l6 14q11 24 -7 75l-163 428h104l127 -359h3l126 359h103l-206 -535q-34 -89 -77 -125q-42 -33 -122 -33zM186 693h106l71 -121h-69l-55 69l-54 -69h-69z" />
    <glyph glyph-name="Ydieresis" unicode="&#x178;" horiz-adv-x="565" 
d="M563 693l-228 -404v-289h-106v288l-227 405h116l167 -308l165 308h113zM314 858h87v-103h-87v103zM168 858h87v-103h-87v103z" />
    <glyph glyph-name="Zacute" unicode="&#x179;" horiz-adv-x="527" 
d="M148 86h353v-86h-473v92l344 515h-334v86h456v-84zM278 858h108l-88 -121h-84z" />
    <glyph glyph-name="zacute" unicode="&#x17a;" horiz-adv-x="427" 
d="M132 80h269v-80h-375v85l261 337h-250v80h359v-79zM222 693h108l-88 -121h-84z" />
    <glyph glyph-name="Zdotaccent" unicode="&#x17b;" horiz-adv-x="527" 
d="M148 86h353v-86h-473v92l344 515h-334v86h456v-84zM212 858h99v-103h-99v103z" />
    <glyph glyph-name="zdotaccent" unicode="&#x17c;" horiz-adv-x="427" 
d="M132 80h269v-80h-375v85l261 337h-250v80h359v-79zM157 693h99v-103h-99v103z" />
    <glyph glyph-name="Zcaron" unicode="&#x17d;" horiz-adv-x="527" 
d="M148 86h353v-86h-473v92l344 515h-334v86h456v-84zM316 858h69l-71 -121h-106l-70 121h69l54 -69z" />
    <glyph glyph-name="zcaron" unicode="&#x17e;" horiz-adv-x="427" 
d="M132 80h269v-80h-375v85l261 337h-250v80h359v-79zM260 693h69l-71 -121h-106l-70 121h69l54 -69z" />
    <glyph glyph-name="longs" unicode="&#x17f;" horiz-adv-x="333" 
d="M200 561v-561h-96v422h-87v80h87v51q0 150 142 150q49 0 85 -9v-81q-36 9 -68 9q-63 0 -63 -61z" />
    <glyph glyph-name="florin" unicode="&#x192;" horiz-adv-x="370" 
d="M70 -109q63 0 63 61v366h-106v81h106v151q0 76 36.5 113t113.5 37q45 0 77 -9v-81q-33 10 -69 10q-63 0 -63 -61v-160h117v-81h-117v-357q0 -76 -36.5 -113t-113.5 -37q-45 0 -77 9v80q36 -9 69 -9z" />
    <glyph glyph-name="uni0218" unicode="&#x218;" horiz-adv-x="575" 
d="M24 189l110 28q18 -66 65 -104t110 -38t100 31q37 30 37 79q0 31 -15 53q-15 21 -48 38q-25 11 -39 16q-6 2 -74 20q-61 15 -98 29q-34 13 -55 27q-72 46 -72 137t66 146q64 55 171 55q96 0 161 -50q64 -50 89 -144l-103 -15q-17 58 -56 90q-41 32 -98 32t-91 -27
q-36 -28 -36 -73q0 -29 15 -50q14 -21 47 -37q19 -9 38 -15q18 -6 70 -19q69 -18 103 -30q36 -16 55 -28q73 -49 73 -145q0 -93 -68 -150q-67 -58 -179 -58q-105 0 -174 51q-69 48 -104 151zM250 -121v81h108v-72l-52 -74h-56l36 65h-36z" />
    <glyph glyph-name="uni0219" unicode="&#x219;" horiz-adv-x="491" 
d="M31 142l88 22q14 -50 47 -74q32 -24 85 -24q48 0 80 20q31 19 31 52q0 29 -24 47q-25 18 -107 34q-52 10 -80 20q-23 7 -44 19q-31 16 -45 44q-15 26 -15 63q0 69 54 109q53 41 139 41q152 0 200 -132l-85 -22q-13 37 -43 56q-31 19 -76 19q-46 0 -72 -16
q-27 -16 -27 -45q0 -27 24 -44t105 -33q46 -9 83 -19q23 -8 45 -20q30 -19 47 -46q15 -27 15 -65q0 -74 -57 -117q-59 -44 -151 -44q-87 0 -143 40t-74 115zM200 -40h108v-72l-52 -74h-56l36 65h-36v81z" />
    <glyph glyph-name="uni021A" unicode="&#x21a;" horiz-adv-x="546" 
d="M19 607v86h508v-86h-201v-607h-106v607h-201zM219 -121v81h108v-72l-52 -74h-56l36 65h-36z" />
    <glyph glyph-name="uni021B" unicode="&#x21b;" horiz-adv-x="348" 
d="M16 502h88v138h96v-138h131v-80h-131v-287q0 -32 16 -47q15 -15 47 -15q17 0 34 3q13 1 34 7v-81q-22 -6 -33 -7q-24 -2 -42 -2q-84 0 -118 34q-34 33 -34 110v285h-88v80zM100 -186l36 65h-36v81h108v-72l-52 -74h-56z" />
    <glyph glyph-name="uni0237" unicode="&#x237;" horiz-adv-x="231" 
d="M138 -135q-16 -26 -47 -36.5t-96 -10.5v79h2q39 0 51 7.5t16 31.5q4 23 4 90v476h96v-482q0 -115 -26 -155z" />
    <glyph glyph-name="uni02BC" unicode="&#x2bc;" horiz-adv-x="247" 
d="M126 547h-56l36 65h-36v81h108v-72z" />
    <glyph glyph-name="circumflex" unicode="&#x2c6;" horiz-adv-x="247" 
d="M70 693h106l71 -121h-69l-55 69l-54 -69h-69z" />
    <glyph glyph-name="caron" unicode="&#x2c7;" horiz-adv-x="247" 
d="M178 693h69l-71 -121h-106l-70 121h69l54 -69z" />
    <glyph glyph-name="breve" unicode="&#x2d8;" horiz-adv-x="247" 
d="M123 630q53 0 58 63h65q-2 -58 -34 -89.5t-89 -31.5t-89 31.5t-34 89.5h66q5 -63 57 -63z" />
    <glyph glyph-name="dotaccent" unicode="&#x2d9;" horiz-adv-x="247" 
d="M74 693h99v-103h-99v103z" />
    <glyph glyph-name="ring" unicode="&#x2da;" horiz-adv-x="247" 
d="M219 653q0 -40 -27.5 -68t-67.5 -28t-68 28t-28 68t28 68t68 28t67.5 -28t27.5 -68zM77 653q0 -20 13.5 -33.5t33.5 -13.5q19 0 32.5 13.5t13.5 33.5t-13.5 33.5t-32.5 13.5q-20 0 -33.5 -13.5t-13.5 -33.5z" />
    <glyph glyph-name="ogonek" unicode="&#x2db;" horiz-adv-x="249" 
d="M124 -130q21 0 41 4v-52q-33 -10 -59 -10q-86 0 -86 69q0 26 21 62q21 38 46 57h81q-27 -20 -48 -53q-23 -35 -23 -53q0 -24 27 -24z" />
    <glyph glyph-name="tilde" unicode="&#x2dc;" horiz-adv-x="247" 
d="M173 635q12 0 19.5 12t7.5 32h51q-1 -50 -22 -81t-55 -31q-29 0 -65 30q-24 19 -34 19q-23 0 -23 -44h-56q1 49 23 80.5t55 31.5q25 0 64 -30q24 -19 35 -19z" />
    <glyph glyph-name="hungarumlaut" unicode="&#x2dd;" horiz-adv-x="247" 
d="M149 572l42 121h90l-60 -121h-72zM23 572l42 121h89l-59 -121h-72z" />
    <glyph glyph-name="uni0394" unicode="&#x394;" horiz-adv-x="645" 
d="M263 693h121l260 -693h-643zM321 591l-180 -506h362l-180 506h-2z" />
    <glyph glyph-name="uni03A9" unicode="&#x3a9;" horiz-adv-x="695" 
d="M526 86h117v-86h-238v82q63 51 100 130q37 78 37 164q0 107 -53 175q-52 67 -142 67q-89 0 -141 -67q-53 -68 -53 -175q0 -86 37 -164q37 -79 100 -130v-82h-239v86h118q-40 49 -62 83q-15 23 -28 51q-32 75 -32 159q0 144 83 236q82 91 217 91q136 0 218 -91
q83 -92 83 -236q0 -89 -33 -159q-11 -26 -27 -51t-62 -83z" />
    <glyph glyph-name="pi" unicode="&#x3c0;" horiz-adv-x="589" 
d="M543 73q3 0 6.5 0.5t9.5 1t12 0.5v-80q-42 -2 -44 -2q-77 0 -110 34t-33 110v285h-184v-422h-96v422h-88v80h555v-80h-91v-287q0 -62 63 -62z" />
    <glyph glyph-name="Wgrave" unicode="&#x1e80;" horiz-adv-x="867" 
d="M755 693h107l-174 -693h-128l-127 532h-5l-127 -532h-121l-174 693h109l130 -582h2l135 582h105l135 -582h2zM308 858h108l64 -121h-84z" />
    <glyph glyph-name="wgrave" unicode="&#x1e81;" horiz-adv-x="720" 
d="M605 502h106l-147 -502h-98l-107 382h-2l-105 -382h-98l-145 502h105l94 -378h2l100 378h99l104 -378h2zM234 693h108l64 -121h-84z" />
    <glyph glyph-name="Wacute" unicode="&#x1e82;" horiz-adv-x="867" 
d="M755 693h107l-174 -693h-128l-127 532h-5l-127 -532h-121l-174 693h109l130 -582h2l135 582h105l135 -582h2zM448 858h108l-88 -121h-84z" />
    <glyph glyph-name="wacute" unicode="&#x1e83;" horiz-adv-x="720" 
d="M605 502h106l-147 -502h-98l-107 382h-2l-105 -382h-98l-145 502h105l94 -378h2l100 378h99l104 -378h2zM374 693h108l-88 -121h-84z" />
    <glyph glyph-name="Wdieresis" unicode="&#x1e84;" horiz-adv-x="867" 
d="M755 693h107l-174 -693h-128l-127 532h-5l-127 -532h-121l-174 693h109l130 -582h2l135 582h105l135 -582h2zM461 858h87v-103h-87v103zM315 858h87v-103h-87v103z" />
    <glyph glyph-name="wdieresis" unicode="&#x1e85;" horiz-adv-x="720" 
d="M605 502h106l-147 -502h-98l-107 382h-2l-105 -382h-98l-145 502h105l94 -378h2l100 378h99l104 -378h2zM387 693h87v-103h-87v103zM241 693h87v-103h-87v103z" />
    <glyph glyph-name="Ygrave" unicode="&#x1ef2;" horiz-adv-x="565" 
d="M563 693l-228 -404v-289h-106v288l-227 405h116l167 -308l165 308h113zM161 858h108l64 -121h-84z" />
    <glyph glyph-name="ygrave" unicode="&#x1ef3;" horiz-adv-x="480" 
d="M67 -191h-37v85h36q37 0 60.5 19t46.5 72l6 14q11 24 -7 75l-163 428h104l127 -359h3l126 359h103l-206 -535q-34 -89 -77 -125q-42 -33 -122 -33zM116 693h108l64 -121h-84z" />
    <glyph glyph-name="endash" unicode="&#x2013;" horiz-adv-x="500" 
d="M57 332h386v-80h-386v80z" />
    <glyph glyph-name="emdash" unicode="&#x2014;" horiz-adv-x="1000" 
d="M57 332h886v-80h-886v80z" />
    <glyph glyph-name="quoteleft" unicode="&#x2018;" horiz-adv-x="246" 
d="M135 562h44v-111h-112v107l50 135h63z" />
    <glyph glyph-name="quoteright" unicode="&#x2019;" horiz-adv-x="246" 
d="M179 693v-107l-50 -135h-63l45 130h-44v112h112z" />
    <glyph glyph-name="quotesinglbase" unicode="&#x201a;" horiz-adv-x="246" 
d="M179 111v-107l-50 -135h-63l45 131h-44v111h112z" />
    <glyph glyph-name="quotedblleft" unicode="&#x201c;" horiz-adv-x="425" 
d="M314 562h44v-111h-112v107l50 135h63zM135 562h44v-111h-112v107l50 135h63z" />
    <glyph glyph-name="quotedblright" unicode="&#x201d;" horiz-adv-x="425" 
d="M358 693v-107l-50 -135h-63l45 130h-44v112h112zM179 693v-107l-50 -135h-63l45 130h-44v112h112z" />
    <glyph glyph-name="quotedblbase" unicode="&#x201e;" horiz-adv-x="425" 
d="M358 111v-107l-50 -135h-63l45 131h-44v111h112zM179 111v-107l-50 -135h-63l45 131h-44v111h112z" />
    <glyph glyph-name="dagger" unicode="&#x2020;" horiz-adv-x="433" 
d="M402 421h-138v-603h-95v603h-138v81h138v191h95v-191h138v-81z" />
    <glyph glyph-name="daggerdbl" unicode="&#x2021;" horiz-adv-x="433" 
d="M402 421h-138v-138h-95v138h-138v81h138v191h95v-191h138v-81zM402 0h-138v-183h-95v183h-138v80h138v147h95v-147h138v-80z" />
    <glyph glyph-name="bullet" unicode="&#x2022;" horiz-adv-x="485" 
d="M243 533q70 0 120 -50q49 -49 49 -120q0 -70 -49 -119q-50 -50 -120 -50t-120 50t-50 119q0 70 50 120t120 50z" />
    <glyph glyph-name="ellipsis" unicode="&#x2026;" horiz-adv-x="751" 
d="M569 112h113v-112h-113v112zM319 112h113v-112h-113v112zM68 112h114v-112h-114v112z" />
    <glyph glyph-name="perthousand" unicode="&#x2030;" horiz-adv-x="1178" 
d="M569 714h83l-399 -727h-82zM359 510q0 -76 -45 -125q-45 -50 -116 -50t-115 50q-45 49 -45 125t45 126q44 50 115 50t116 -50t45 -126zM119 510q0 -48 20.5 -75t58.5 -27t59 27t21 75t-21 75.5t-59 27.5t-58.5 -27.5t-20.5 -75.5zM772 166q0 -75 -45 -125t-116 -50
q-70 0 -113 49t-43 126q0 78 43 127t113 49q71 0 116 -50t45 -126zM535 166q0 -49 19.5 -75.5t56.5 -26.5q38 0 58.5 27t20.5 75t-20.5 75.5t-58.5 27.5q-37 0 -56.5 -27t-19.5 -76zM1140 166q0 -75 -45 -125t-116 -50q-70 0 -113 49t-43 126q0 78 43 127t113 49
q71 0 116 -50t45 -126zM903 166q0 -49 19.5 -75.5t56.5 -26.5q38 0 58.5 27t20.5 75t-20.5 75.5t-58.5 27.5q-37 0 -56.5 -27t-19.5 -76z" />
    <glyph glyph-name="guilsinglleft" unicode="&#x2039;" horiz-adv-x="288" 
d="M256 474l-125 -192l125 -195h-97l-130 195l130 192h97z" />
    <glyph glyph-name="guilsinglright" unicode="&#x203a;" horiz-adv-x="288" 
d="M129 474l130 -192l-130 -195h-97l125 195l-125 192h97z" />
    <glyph glyph-name="fraction" unicode="&#x2044;" horiz-adv-x="100" 
d="M191 706h84l-365 -719h-85z" />
    <glyph glyph-name="uni2070" unicode="&#x2070;" horiz-adv-x="353" 
d="M95 497q0 -65 21.5 -101.5t57.5 -36.5t57.5 36.5t21.5 101.5q0 66 -21 102t-58 36q-36 0 -57.5 -36.5t-21.5 -101.5zM333 497q0 -90 -43 -145q-44 -56 -116 -56q-73 0 -115 56q-43 55 -43 145q0 91 43 146q42 56 115 56q72 0 116 -56q43 -55 43 -146z" />
    <glyph glyph-name="uni2074" unicode="&#x2074;" horiz-adv-x="353" 
d="M339 386h-51v-83h-76v83h-194v66l171 241h99v-247h51v-60zM211 616l-120 -170h121z" />
    <glyph glyph-name="uni2075" unicode="&#x2075;" horiz-adv-x="353" 
d="M70 693h235v-65h-175l-15 -84q31 14 71 14q62 0 105 -35q41 -36 41 -92q0 -62 -44.5 -98.5t-119.5 -36.5q-58 0 -100.5 33t-53.5 88l80 9q16 -66 81 -66q37 0 56.5 18t19.5 51q0 29 -22 47.5t-57 18.5q-43 0 -67 -24l-69 3z" />
    <glyph glyph-name="uni2076" unicode="&#x2076;" horiz-adv-x="353" 
d="M183 700q108 0 138 -111l-81 -10q-17 56 -64 56q-71 0 -82 -124q42 42 96 42q58 0 95.5 -33.5t37.5 -86.5q0 -57 -42 -97q-41 -40 -105 -40q-74 0 -118 54q-43 53 -43 141q0 93 45 151q43 58 123 58zM181 493q-43 0 -82 -47q8 -40 29 -63t51 -23q27 0 45.5 19t18.5 49
t-17 47.5t-45 17.5z" />
    <glyph glyph-name="uni2077" unicode="&#x2077;" horiz-adv-x="338" 
d="M216 480q-38 -78 -46 -177h-86q1 76 30 145q30 71 100 157l19 23h-215v65h298v-59q-63 -87 -73 -105q-17 -28 -27 -49z" />
    <glyph glyph-name="uni2078" unicode="&#x2078;" horiz-adv-x="353" 
d="M321 591q0 -49 -58 -80q68 -37 68 -96q0 -54 -44 -86q-45 -33 -113 -33t-112 33q-45 31 -45 86q0 59 66 95q-55 33 -55 81q0 46 43 77t103 31q61 0 104 -30q43 -31 43 -78zM174 359q33 0 55.5 16t22.5 41q0 29 -21 45.5t-57 16.5q-34 0 -55.5 -17t-21.5 -45q0 -25 22 -41
t55 -16zM174 539q29 0 48 14t19 35t-19 34.5t-48 13.5q-28 0 -46.5 -13.5t-18.5 -34.5t18.5 -35t46.5 -14z" />
    <glyph glyph-name="uni2079" unicode="&#x2079;" horiz-adv-x="353" 
d="M160 296q-119 0 -148 112l81 9q8 -27 26.5 -42t42.5 -15q41 0 62.5 29.5t26.5 94.5q-39 -42 -95 -42q-57 0 -95 33t-38 86q0 57 42 98q40 40 104 40q74 0 118 -56t44 -138q0 -98 -45 -153.5t-126 -55.5zM165 502q40 0 81 46q-7 40 -28 63.5t-51 23.5q-28 0 -46 -19
t-18 -50q0 -29 17 -46.5t45 -17.5z" />
    <glyph glyph-name="uni2080" unicode="&#x2080;" horiz-adv-x="353" 
d="M95 194q0 -65 21.5 -101.5t57.5 -36.5t57.5 36.5t21.5 101.5q0 66 -21 102t-58 36q-36 0 -57.5 -36.5t-21.5 -101.5zM333 194q0 -90 -43 -145q-44 -56 -116 -56q-73 0 -115 56q-43 55 -43 145q0 91 43 146q42 56 115 56q72 0 116 -56q43 -55 43 -146z" />
    <glyph glyph-name="uni2081" unicode="&#x2081;" horiz-adv-x="353" 
d="M244 61h89v-61h-273v61h107v234q-32 -48 -99 -75l-23 60q37 15 74 48q38 32 53 62h72v-329z" />
    <glyph glyph-name="uni2082" unicode="&#x2082;" horiz-adv-x="353" 
d="M121 65h199v-65h-302q6 51 34 91q28 39 106 89q85 54 85 97q0 23 -18.5 38.5t-47.5 15.5q-66 0 -82 -99l-74 19q9 65 53 105t108 40q60 0 101 -33q40 -33 40 -84q0 -40 -27.5 -75.5t-91.5 -74.5q-47 -28 -60 -40q-14 -12 -23 -24z" />
    <glyph glyph-name="uni2083" unicode="&#x2083;" horiz-adv-x="353" 
d="M248 125q0 29 -22 47t-57 18h-65v52l95 83h-168v65h275v-60l-98 -83q57 -6 89.5 -37.5t32.5 -81.5q0 -62 -44.5 -98.5t-118.5 -36.5q-60 0 -101.5 32.5t-54.5 88.5l79 8q18 -65 82 -65q36 0 56 17.5t20 50.5z" />
    <glyph glyph-name="uni2084" unicode="&#x2084;" horiz-adv-x="353" 
d="M339 83h-51v-83h-76v83h-194v66l171 241h99v-247h51v-60zM211 313l-120 -170h121z" />
    <glyph glyph-name="uni2085" unicode="&#x2085;" horiz-adv-x="353" 
d="M70 390h235v-65h-175l-15 -84q31 14 71 14q62 0 105 -35q41 -36 41 -92q0 -62 -44.5 -98.5t-119.5 -36.5q-58 0 -100.5 33t-53.5 88l80 9q16 -66 81 -66q37 0 56.5 18t19.5 51q0 29 -22 47.5t-57 18.5q-43 0 -67 -24l-69 3z" />
    <glyph glyph-name="uni2086" unicode="&#x2086;" horiz-adv-x="353" 
d="M183 397q108 0 138 -111l-81 -10q-17 56 -64 56q-71 0 -82 -124q42 42 96 42q58 0 95.5 -33.5t37.5 -86.5q0 -56 -42 -97q-41 -40 -105 -40q-74 0 -118 54q-43 53 -43 141q0 92 45 151q43 58 123 58zM181 190q-43 0 -82 -47q8 -40 29 -63t51 -23q27 0 45.5 19t18.5 49
t-17 47.5t-45 17.5z" />
    <glyph glyph-name="uni2087" unicode="&#x2087;" horiz-adv-x="338" 
d="M216 177q-38 -78 -46 -177h-86q1 76 30 145q30 71 100 157l19 23h-215v65h298v-59q-63 -87 -73 -105q-17 -28 -27 -49z" />
    <glyph glyph-name="uni2088" unicode="&#x2088;" horiz-adv-x="353" 
d="M321 288q0 -49 -58 -80q68 -37 68 -96q0 -54 -44 -86q-45 -33 -113 -33t-112 33q-45 31 -45 86q0 59 66 95q-55 33 -55 81q0 46 43 77t103 31q61 0 104 -30q43 -31 43 -78zM174 56q33 0 55.5 16t22.5 41q0 29 -21 45.5t-57 16.5q-34 0 -55.5 -17t-21.5 -45q0 -25 22 -41
t55 -16zM174 236q29 0 48 14t19 35t-19 34.5t-48 13.5q-28 0 -46.5 -13.5t-18.5 -34.5t18.5 -35t46.5 -14z" />
    <glyph glyph-name="uni2089" unicode="&#x2089;" horiz-adv-x="353" 
d="M160 -7q-119 0 -148 112l81 9q8 -27 26.5 -42t42.5 -15q41 0 62.5 29.5t26.5 94.5q-39 -42 -95 -42q-57 0 -95 33t-38 86q0 58 42 98q40 40 104 40q74 0 118 -56t44 -138q0 -98 -45 -153.5t-126 -55.5zM165 199q40 0 81 46q-7 40 -28 63.5t-51 23.5q-28 0 -46 -19
t-18 -50q0 -29 17 -46.5t45 -17.5z" />
    <glyph glyph-name="Euro" unicode="&#x20ac;" 
d="M335 71q37 0 67 25t49 72l94 -23q-63 -158 -214 -158q-90 0 -150.5 64t-81.5 179h-74v76h66q-1 8 -1 33q0 32 1 41h-66v77h75q23 111 85 173.5t151 62.5q136 0 203 -144l-87 -34q-19 44 -50 69t-66 25q-49 0 -84 -39.5t-49 -112.5h219v-77h-228q-1 -9 -1 -41q0 -26 1 -33
h228v-76h-220q13 -77 47.5 -118t85.5 -41z" />
    <glyph glyph-name="uni2113" unicode="&#x2113;" horiz-adv-x="446" 
d="M49 104l-24 68l84 57v239q0 115 36 170t113 55q64 0 97.5 -38.5t33.5 -111.5q0 -88 -47 -174q-47 -84 -146 -169q2 -65 20 -95q20 -32 58 -32q25 0 49 15q23 14 52 49l47 -53q-31 -45 -73 -68q-42 -24 -91 -24q-126 0 -145 154zM211 582q-15 -33 -15 -101v-187
q50 60 80 126q27 62 27 117q0 39 -12 59q-12 19 -36 19q-31 0 -44 -33z" />
    <glyph glyph-name="trademark" unicode="&#x2122;" horiz-adv-x="656" 
d="M263 639h-84v-259h-66v259h-84v54h234v-54zM512 693h84v-313h-64v216l-61 -139h-51l-57 138v-215h-64v313h84l63 -152h2z" />
    <glyph glyph-name="Omega" unicode="&#x2126;" horiz-adv-x="695" 
d="M526 86h117v-86h-238v82q63 51 100 130q37 78 37 164q0 107 -53 175q-52 67 -142 67q-89 0 -141 -67q-53 -68 -53 -175q0 -86 37 -164q37 -79 100 -130v-82h-239v86h118q-40 49 -62 83q-15 23 -28 51q-32 75 -32 159q0 144 83 236q82 91 217 91q136 0 218 -91
q83 -92 83 -236q0 -89 -33 -159q-11 -26 -27 -51t-62 -83z" />
    <glyph glyph-name="estimated" unicode="&#x212e;" horiz-adv-x="883" 
d="M441 8q150 0 258 119h57q-55 -67 -137 -103.5t-178 -36.5q-159 0 -276 100q-125 106 -125 262q0 73 33 140.5t93 118.5q117 98 275 98q162 0 279 -101q59 -52 91 -121t32 -145h-645q-9 0 -9 -11v-178q0 -61 102 -107q80 -35 150 -35zM694 366v180q0 26 -18 47
q-100 94 -235 94q-133 0 -233 -94q-19 -26 -19 -47v-180q0 -8 9 -8h486q10 0 10 8z" />
    <glyph glyph-name="onethird" unicode="&#x2153;" horiz-adv-x="806" 
d="M244 364h89v-61h-273v61h107v234q-32 -48 -99 -75l-23 60q37 15 74 48q38 32 53 62h72v-329zM552 706h84l-365 -719h-85zM701 125q0 29 -22 47t-57 18h-65v52l95 83h-168v65h275v-60l-98 -83q57 -6 89.5 -37.5t32.5 -81.5q0 -62 -44.5 -98.5t-118.5 -36.5
q-60 0 -101.5 32.5t-54.5 88.5l79 8q18 -65 82 -65q36 0 56 17.5t20 50.5z" />
    <glyph glyph-name="twothirds" unicode="&#x2154;" horiz-adv-x="806" 
d="M121 368h199v-65h-302q6 51 34 91q28 39 106 89q85 54 85 97q0 23 -18.5 38.5t-47.5 15.5q-66 0 -82 -99l-74 19q9 65 53 105t108 40q60 0 101 -33q40 -33 40 -84q0 -40 -27.5 -75.5t-91.5 -74.5q-47 -28 -60 -40q-14 -12 -23 -24zM544 706h84l-365 -719h-85zM701 125
q0 29 -22 47t-57 18h-65v52l95 83h-168v65h275v-60l-98 -83q57 -6 89.5 -37.5t32.5 -81.5q0 -62 -44.5 -98.5t-118.5 -36.5q-60 0 -101.5 32.5t-54.5 88.5l79 8q18 -65 82 -65q36 0 56 17.5t20 50.5z" />
    <glyph glyph-name="oneeighth" unicode="&#x215b;" horiz-adv-x="806" 
d="M244 364h89v-61h-273v61h107v234q-32 -48 -99 -75l-23 60q37 15 74 48q38 32 53 62h72v-329zM564 706h84l-365 -719h-85zM774 288q0 -49 -58 -80q68 -37 68 -96q0 -54 -44 -86q-45 -33 -113 -33q-69 0 -112 33q-45 31 -45 86q0 59 66 95q-55 33 -55 81q0 46 43 77t103 31
q61 0 104 -30q43 -31 43 -78zM627 56q33 0 55.5 16t22.5 41q0 29 -21 45.5t-57 16.5q-34 0 -55.5 -17t-21.5 -45q0 -25 22 -41t55 -16zM627 236q29 0 48 14t19 35t-19 34.5t-48 13.5q-28 0 -46.5 -13.5t-18.5 -34.5t18.5 -35t46.5 -14z" />
    <glyph glyph-name="threeeighths" unicode="&#x215c;" horiz-adv-x="806" 
d="M248 428q0 29 -22 47t-57 18h-65v52l95 83h-168v65h275v-60l-98 -83q57 -6 89.5 -37.5t32.5 -81.5q0 -62 -44.5 -98.5t-118.5 -36.5q-60 0 -101.5 32.5t-54.5 88.5l79 8q18 -65 82 -65q36 0 56 17.5t20 50.5zM544 706h84l-365 -719h-85zM774 288q0 -49 -58 -80
q68 -37 68 -96q0 -54 -44 -86q-45 -33 -113 -33q-69 0 -112 33q-45 31 -45 86q0 59 66 95q-55 33 -55 81q0 46 43 77t103 31q61 0 104 -30q43 -31 43 -78zM627 56q33 0 55.5 16t22.5 41q0 29 -21 45.5t-57 16.5q-34 0 -55.5 -17t-21.5 -45q0 -25 22 -41t55 -16zM627 236
q29 0 48 14t19 35t-19 34.5t-48 13.5q-28 0 -46.5 -13.5t-18.5 -34.5t18.5 -35t46.5 -14z" />
    <glyph glyph-name="fiveeighths" unicode="&#x215d;" horiz-adv-x="806" 
d="M70 693h235v-65h-175l-15 -84q31 14 71 14q62 0 105 -35q41 -36 41 -92q0 -62 -44.5 -98.5t-119.5 -36.5q-58 0 -100.5 33t-53.5 88l80 9q16 -66 81 -66q37 0 56.5 18t19.5 51q0 29 -22 47.5t-57 18.5q-43 0 -67 -24l-69 3zM544 706h84l-365 -719h-85zM774 288
q0 -49 -58 -80q68 -37 68 -96q0 -54 -44 -86q-45 -33 -113 -33q-69 0 -112 33q-45 31 -45 86q0 59 66 95q-55 33 -55 81q0 46 43 77t103 31q61 0 104 -30q43 -31 43 -78zM627 56q33 0 55.5 16t22.5 41q0 29 -21 45.5t-57 16.5q-34 0 -55.5 -17t-21.5 -45q0 -25 22 -41
t55 -16zM627 236q29 0 48 14t19 35t-19 34.5t-48 13.5q-28 0 -46.5 -13.5t-18.5 -34.5t18.5 -35t46.5 -14z" />
    <glyph glyph-name="seveneighths" unicode="&#x215e;" horiz-adv-x="791" 
d="M216 480q-38 -78 -46 -177h-86q1 76 30 145q30 71 100 157l19 23h-215v65h298v-59q-63 -87 -73 -105q-17 -28 -27 -49zM499 706h84l-365 -719h-85zM759 288q0 -49 -58 -80q68 -37 68 -96q0 -54 -44 -86q-45 -33 -113 -33t-112 33q-45 31 -45 86q0 59 66 95q-55 33 -55 81
q0 46 43 77t103 31t104 -30q43 -31 43 -78zM612 56q33 0 55.5 16t22.5 41q0 29 -21 45.5t-57 16.5q-34 0 -55.5 -17t-21.5 -45q0 -25 22 -41t55 -16zM612 236q29 0 48 14t19 35t-19 34.5t-48 13.5q-28 0 -46.5 -13.5t-18.5 -34.5t18.5 -35t46.5 -14z" />
    <glyph glyph-name="partialdiff" unicode="&#x2202;" horiz-adv-x="566" 
d="M325 509q-84 106 -210 184h130q117 -75 196 -198q79 -124 79 -244q0 -115 -66 -189q-68 -75 -172 -75q-105 0 -170 74q-66 73 -66 190t66 190q65 74 170 74q15 0 43 -6zM140 251q0 -81 39 -132q39 -52 103 -52q65 0 104 52q39 51 39 132t-39 132t-104 51q-64 0 -103 -51
t-39 -132z" />
    <glyph glyph-name="Delta" unicode="&#x2206;" horiz-adv-x="645" 
d="M263 693h121l260 -693h-643zM321 591l-180 -506h362l-180 506h-2z" />
    <glyph glyph-name="product" unicode="&#x220f;" horiz-adv-x="658" 
d="M76 693h505v-693h-106v607h-293v-607h-106v693z" />
    <glyph glyph-name="summation" unicode="&#x2211;" horiz-adv-x="548" 
d="M171 86h347v-86h-473v84l241 269l-241 257v83h464v-86h-332l226 -233l1 -29z" />
    <glyph glyph-name="minus" unicode="&#x2212;" 
d="M64 332h432v-81h-432v81z" />
    <glyph glyph-name="uni2215" unicode="&#x2215;" horiz-adv-x="100" 
d="M191 706h84l-365 -719h-85z" />
    <glyph glyph-name="radical" unicode="&#x221a;" horiz-adv-x="469" 
d="M396 692h105l-216 -692h-103l-179 502h106l126 -390h2z" />
    <glyph glyph-name="infinity" unicode="&#x221e;" horiz-adv-x="552" 
d="M384 186q-24 0 -45 12q-21 10 -62 51l-2 -2q-52 -46 -68 -52q-19 -9 -40 -9q-46 0 -75.5 29t-29.5 76t29.5 76t75.5 29q23 0 47 -11q21 -11 62 -52q33 36 56.5 49.5t50.5 13.5q47 0 76.5 -28.5t29.5 -75.5t-30 -76.5t-75 -29.5zM383 339q-19 0 -68 -48q39 -35 47 -40
q12 -9 21 -9q17 0 28.5 14t11.5 35q0 20 -11.5 34t-28.5 14zM168 242q10 0 22 9q7 4 46 40q-49 48 -67 48q-17 0 -29 -13.5t-12 -33.5t12 -35t28 -15z" />
    <glyph glyph-name="integral" unicode="&#x222b;" horiz-adv-x="370" 
d="M70 -109q63 0 63 61v598q0 150 142 150q49 0 85 -9v-81q-33 10 -69 10q-63 0 -63 -61v-598q0 -150 -142 -150q-49 0 -85 9v80q36 -9 69 -9z" />
    <glyph glyph-name="approxequal" unicode="&#x2248;" 
d="M376 386q22 0 36 16.5t14 43.5h72q-2 -61 -35 -97q-35 -39 -88 -39q-47 0 -123 45q-47 28 -64 28q-18 0 -33.5 -19t-18.5 -45h-75q2 55 40 95q39 41 91 41q40 0 111 -40q52 -29 73 -29zM376 206q22 0 36 16.5t14 43.5h72q-2 -61 -35 -97q-35 -39 -88 -39q-47 0 -123 45
q-47 28 -64 28q-18 0 -33.5 -19t-18.5 -45h-75q2 55 40 95q39 41 91 41q40 0 111 -40q52 -29 73 -29z" />
    <glyph glyph-name="notequal" unicode="&#x2260;" 
d="M298 240h198v-82h-244l-88 -151h-88l87 151h-99v82h146l60 103h-206v82h252l81 139h89l-81 -139h91v-82h-137z" />
    <glyph glyph-name="lessequal" unicode="&#x2264;" 
d="M153 338l343 -153v-91l-432 203v83l432 203v-91zM64 81h432v-81h-432v81z" />
    <glyph glyph-name="greaterequal" unicode="&#x2265;" 
d="M64 583l432 -203v-83l-432 -203v91l343 153l-343 154v91zM64 81h432v-81h-432v81z" />
    <glyph glyph-name="lozenge" unicode="&#x25ca;" horiz-adv-x="515" 
d="M257 717l242 -369l-242 -381l-240 381zM257 561l-131 -215l131 -222l131 222z" />
    <glyph glyph-name="uniE027" unicode="&#xe027;" 
d="M524 339q0 -157 -66 -254q-66 -98 -178 -98t-178 98q-66 97 -66 254q0 159 66 256q65 98 178 98t179 -98q65 -98 65 -256zM136 339q0 -127 38.5 -197.5t105.5 -70.5t105.5 70.5t38.5 197.5q0 128 -38.5 199t-105.5 71t-105.5 -71t-38.5 -199z" />
    <glyph glyph-name="uniE028" unicode="&#xe028;" horiz-adv-x="490" 
d="M316 80h147v-80h-419v80h177v485q-18 -41 -68 -88q-52 -49 -101 -72l-28 85q59 26 118 82q60 59 82 111h92v-603z" />
    <glyph glyph-name="uniE029" unicode="&#xe029;" horiz-adv-x="539" 
d="M168 86h328v-86h-460q11 100 74 175q25 30 52 53q30 26 93 72q91 66 118 103t27 79q0 52 -34 89t-86 37q-125 0 -148 -182l-92 26q10 109 76 175t168 66q94 0 156 -59q61 -60 61 -150q0 -81 -60 -147q-15 -17 -44 -43q-20 -17 -83 -61q-78 -54 -107 -85q-29 -32 -39 -62z
" />
    <glyph glyph-name="uniE02A" unicode="&#xe02a;" horiz-adv-x="549" 
d="M407 212q0 60 -40.5 97t-105.5 37h-90v73l180 178h-298v86h417v-85l-178 -174q99 -2 159 -57q59 -56 59 -150q0 -106 -69 -167q-69 -63 -181 -63q-92 0 -156 51t-82 139l99 14q29 -119 146 -119q67 0 103.5 36.5t36.5 103.5z" />
    <glyph glyph-name="uniE02B" unicode="&#xe02b;" horiz-adv-x="547" 
d="M519 151h-82v-151h-95v151h-316v103l272 429h139v-453h82v-79zM341 609l-236 -379h237v379h-1z" />
    <glyph glyph-name="uniE02C" unicode="&#xe02c;" horiz-adv-x="550" 
d="M109 683h360v-86h-286l-28 -204q21 17 57 28t71 11q95 0 160 -60q64 -60 64 -154q0 -105 -69 -168t-183 -63q-91 0 -153 52q-64 53 -81 138l100 15q29 -120 144 -120q61 0 98 40q38 41 38 104q0 58 -38 96q-40 38 -101 38q-35 0 -67.5 -12.5t-50.5 -31.5l-88 4z" />
    <glyph glyph-name="uniE02D" unicode="&#xe02d;" 
d="M294 693q84 0 141.5 -48.5t74.5 -132.5l-103 -15q-13 57 -43 83.5t-82 26.5q-65 0 -101 -69.5t-37 -191.5q27 34 74 57q45 22 90 22q92 0 150 -58t58 -152q0 -95 -66 -162t-162 -67q-115 0 -180 98t-65 253q0 156 67 256t184 100zM295 346q-78 0 -146 -95q11 -81 48 -130
q37 -51 91 -51q55 0 91 38q35 38 35 97q0 65 -32 103t-87 38z" />
    <glyph glyph-name="uniE02E" unicode="&#xe02e;" horiz-adv-x="528" 
d="M404 597h-367v86h458v-86q-98 -149 -118 -186q-26 -46 -46 -94q-33 -78 -50 -153q-19 -83 -23 -164h-112q2 56 12 110q9 54 27 107q13 37 40 97q20 43 56 100q21 36 74 112q13 19 25.5 37t17.5 25.5t6 8.5z" />
    <glyph glyph-name="uniE02F" unicode="&#xe02f;" 
d="M503 514q0 -47 -30 -88.5t-76 -60.5v-3q62 -26 95.5 -71t33.5 -103q0 -90 -70 -145q-71 -56 -176 -56t-176 56t-71 146q0 115 127 172v1q-45 19 -74 61.5t-29 90.5q0 77 65 128t158 51q92 0 158 -51q65 -53 65 -128zM280 399q52 0 87 31q36 31 36 76t-35 74.5t-88 29.5
t-88 -29q-36 -30 -36 -75t36 -76q35 -31 88 -31zM280 70q60 0 104 35q43 34 43 86q0 58 -42 94q-43 35 -105 35t-105 -35q-42 -36 -42 -94q0 -53 43 -87q41 -34 104 -34z" />
    <glyph glyph-name="uniE030" unicode="&#xe030;" 
d="M269 333q81 0 147 95q-11 80 -48 131q-38 50 -91 50q-55 0 -91 -38q-36 -39 -36 -98q0 -64 32 -102t87 -38zM261 -13q-86 0 -148 50q-61 49 -78 131l103 14q25 -109 132 -109q72 0 111 68t40 191q-26 -33 -73 -56q-45 -22 -92 -22q-90 0 -148 58q-59 59 -59 151
q0 95 66 163q66 67 162 67q115 0 180 -98q65 -100 65 -254q0 -158 -68 -256q-69 -98 -193 -98z" />
    <glyph glyph-name="uniE039" unicode="&#xe039;" 
d="M524 339q0 -157 -66 -254q-66 -98 -178 -98t-178 98q-66 97 -66 254q0 159 66 256q65 98 178 98t179 -98q65 -98 65 -256zM136 339q0 -127 38.5 -197.5t105.5 -70.5t105.5 70.5t38.5 197.5q0 128 -38.5 199t-105.5 71t-105.5 -71t-38.5 -199z" />
    <glyph glyph-name="uniE03A" unicode="&#xe03a;" 
d="M379 80h147v-80h-419v80h176v485q-16 -40 -67 -88q-52 -49 -101 -72l-28 85q58 26 117 82q60 59 82 111h93v-603z" />
    <glyph glyph-name="uniE03B" unicode="&#xe03b;" 
d="M174 86h328v-86h-460q11 100 74 175q25 30 52 53q30 26 93 72q91 66 118 103t27 79q0 52 -34 89t-86 37q-125 0 -148 -182l-92 26q11 109 76 175q66 66 168 66q94 0 156 -59q61 -60 61 -150q0 -81 -60 -147q-15 -17 -44 -43q-20 -17 -83 -61q-78 -54 -107 -85
q-29 -32 -39 -62z" />
    <glyph glyph-name="uniE03C" unicode="&#xe03c;" 
d="M416 212q0 60 -40.5 97t-105.5 37h-90v73l180 178h-298v86h417v-85l-178 -174q99 -2 159 -57q59 -56 59 -150q0 -106 -69 -167q-69 -63 -181 -63q-91 0 -156 51q-64 51 -82 139l99 14q29 -119 146 -119q67 0 103.5 36.5t36.5 103.5z" />
    <glyph glyph-name="uniE03D" unicode="&#xe03d;" 
d="M532 151h-82v-151h-95v151h-316v103l272 429h139v-453h82v-79zM354 609l-236 -379h237v379h-1z" />
    <glyph glyph-name="uniE03E" unicode="&#xe03e;" 
d="M124 683h360v-86h-286l-28 -204q21 17 57 28t71 11q96 0 160 -60t64 -154q0 -105 -69 -168t-183 -63q-91 0 -153 52q-65 53 -81 138l100 15q28 -120 144 -120q61 0 98 40q38 41 38 104q0 58 -38 96q-40 38 -101 38q-35 0 -67.5 -12.5t-50.5 -31.5l-88 4z" />
    <glyph glyph-name="uniE03F" unicode="&#xe03f;" 
d="M296 693q84 0 141.5 -48.5t74.5 -132.5l-103 -15q-13 57 -43 83.5t-82 26.5q-65 0 -101 -69.5t-37 -191.5q27 34 74 57q45 22 90 22q92 0 150 -58t58 -152q0 -95 -66 -162t-162 -67q-115 0 -180 98t-65 253q0 156 67 256t184 100zM297 346q-78 0 -146 -95q11 -81 48 -130
q38 -51 91 -51q55 0 91 38q35 38 35 97q0 65 -32 103t-87 38z" />
    <glyph glyph-name="uniE040" unicode="&#xe040;" 
d="M424 596h-367v86h458v-86q-98 -149 -118 -186q-26 -46 -46 -94q-33 -78 -50 -153q-19 -83 -23 -164h-112q2 56 12 110q9 54 27 107q13 37 40 97q20 43 56 100q21 36 74 112q13 19 25.5 37t17.5 25.5t6 8.5z" />
    <glyph glyph-name="uniE041" unicode="&#xe041;" 
d="M503 514q0 -48 -30 -88q-31 -41 -75 -61v-3q125 -55 125 -174q0 -90 -69 -145q-71 -56 -174 -56t-173 56q-70 55 -70 146q0 117 123 172v1q-46 21 -73 62q-30 42 -30 90q0 76 66 128q64 51 157 51q92 0 158 -51q65 -53 65 -128zM280 399q52 0 87 31q36 31 36 76t-35 74.5
t-88 29.5t-88 -29q-36 -30 -36 -75t36 -76q35 -31 88 -31zM280 70q58 0 102 35q42 35 42 86q0 58 -41 94q-41 35 -103 35q-64 0 -103.5 -35t-39.5 -94q0 -51 42 -86q41 -35 101 -35z" />
    <glyph glyph-name="uniE042" unicode="&#xe042;" 
d="M260 333q81 0 147 95q-11 80 -48 131q-38 50 -91 50q-55 0 -91 -38q-36 -39 -36 -98q0 -64 32 -102t87 -38zM252 -13q-86 0 -148 50q-61 49 -78 131l103 14q25 -109 132 -109q72 0 111 68t40 191q-26 -33 -73 -56q-45 -22 -92 -22q-90 0 -148 58q-59 59 -59 151
q0 95 66 163q66 67 162 67q115 0 180 -98q65 -100 65 -254q0 -158 -68 -256q-69 -98 -193 -98z" />
    <glyph glyph-name="uniE04B" unicode="&#xe04b;" 
d="M517 251q0 -115 -66 -189q-66 -75 -171 -75t-171 74q-66 73 -66 190t66 190q66 74 171 74t171 -74q66 -73 66 -190zM137 251q0 -80 40 -132q39 -52 103 -52t104 52q39 53 39 132q0 81 -39 132t-104 51t-104 -51t-39 -132z" />
    <glyph glyph-name="uniE04C" unicode="&#xe04c;" 
d="M365 80h124v-80h-359v80h139v314q-35 -62 -131 -99l-28 79q120 43 162 138h93v-432z" />
    <glyph glyph-name="uniE04D" unicode="&#xe04d;" 
d="M201 78h275v-78h-405q8 61 45 110t145 119q73 47 97 74q22 25 22 54q0 37 -26.5 60.5t-70.5 23.5q-98 0 -118 -124l-91 20q9 82 66.5 130t147.5 48q84 0 139 -44q53 -44 53 -113q0 -48 -31 -88t-131 -99q-60 -35 -83 -55q-25 -22 -34 -38z" />
    <glyph glyph-name="uniE04E" unicode="&#xe04e;" 
d="M407 34q0 61 -38 98t-101 37h-90v71l174 176h-292v86h411v-84l-172 -172q97 -1 152.5 -56t55.5 -151q0 -105 -66 -167q-68 -62 -178 -62q-91 0 -153.5 51t-80.5 139l99 13q28 -118 142 -118q67 0 102 35.5t35 103.5z" />
    <glyph glyph-name="uniE04F" unicode="&#xe04f;" 
d="M520 0h-82v-180h-94v180h-304v81l260 422h138v-425h82v-78zM342 429l-210 -351h212v351h-2z" />
    <glyph glyph-name="uniE050" unicode="&#xe050;" 
d="M127 502h350v-86h-276l-28 -200q21 17 57 28t71 11q96 0 154 -58q59 -59 59 -154q0 -107 -65 -170t-176 -63q-91 0 -153 52q-64 52 -81 138l100 15q29 -122 144 -122q60 0 98 41t38 105q0 58 -38 98q-40 38 -101 38q-33 0 -66 -13.5t-52 -32.5l-88 4z" />
    <glyph glyph-name="uniE051" unicode="&#xe051;" 
d="M296 693q84 0 141.5 -48.5t74.5 -132.5l-103 -15q-13 57 -43 83.5t-82 26.5q-65 0 -101 -69.5t-37 -191.5q27 34 74 57q45 22 90 22q92 0 150 -58t58 -152q0 -95 -66 -162t-162 -67q-115 0 -180 98t-65 253q0 156 67 256t184 100zM297 346q-78 0 -146 -95q11 -81 48 -130
q38 -51 91 -51q55 0 91 38q35 38 35 97q0 65 -32 103t-87 38z" />
    <glyph glyph-name="uniE052" unicode="&#xe052;" horiz-adv-x="536" 
d="M263 -19q-19 -81 -23 -162h-106q4 163 80 318q38 80 108 179l69 100h-351v86h442v-86q-2 -3 -6.5 -9.5t-13.5 -20t-18 -26.5q-44 -67 -52 -80q-49 -78 -77 -144q-34 -75 -52 -155z" />
    <glyph glyph-name="uniE053" unicode="&#xe053;" 
d="M499 515q0 -48 -29 -90t-72 -60v-3q121 -54 121 -174q0 -90 -67 -145q-68 -56 -171 -56t-171 56t-68 146q0 118 119 172v1q-43 18 -71 61t-28 91q0 77 64 128q63 51 155 51q91 0 155 -51q63 -51 63 -127zM281 68q59 0 102 35q42 35 42 88q0 58 -41 94t-103 36t-103 -35
q-41 -36 -41 -95q0 -53 42 -88q41 -35 102 -35zM281 398q50 0 87 32q36 31 36 76q0 44 -35 76q-35 31 -88 31q-54 0 -88 -30q-36 -31 -36 -77q0 -45 36 -76q37 -32 88 -32z" />
    <glyph glyph-name="uniE054" unicode="&#xe054;" 
d="M254 -189q-86 0 -148 50q-61 49 -78 131l103 14q24 -109 132 -109q72 0 111 67t40 190q-26 -33 -73 -56q-45 -22 -91 -22q-91 0 -149 58q-59 59 -59 151q0 95 66 163q66 67 162 67q115 0 180 -98q65 -100 65 -254q0 -157 -68 -255q-69 -97 -193 -97zM263 155q80 0 146 94
q-11 82 -47 131q-38 51 -92 51q-55 0 -90 -38q-36 -39 -36 -98q0 -64 32 -102t87 -38z" />
    <glyph glyph-name="uniE05D" unicode="&#xe05d;" horiz-adv-x="566" 
d="M520 251q0 -115 -66 -189q-68 -75 -172 -75q-105 0 -170 74q-66 73 -66 190t66 190q65 74 170 74q104 0 172 -74q66 -73 66 -190zM140 251q0 -81 39 -132q39 -52 103 -52q65 0 104 52q39 51 39 132t-39 132t-104 51q-64 0 -103 -51t-39 -132z" />
    <glyph glyph-name="uniE05E" unicode="&#xe05e;" horiz-adv-x="429" 
d="M292 80h124v-80h-359v80h139v314q-36 -62 -132 -99l-27 79q120 43 162 138h93v-432z" />
    <glyph glyph-name="uniE05F" unicode="&#xe05f;" horiz-adv-x="475" 
d="M160 78h274v-78h-404q8 61 45 110t145 119q73 47 97 74q22 25 22 54q0 37 -26.5 60.5t-70.5 23.5q-100 0 -118 -124l-92 20q10 82 68 130t147 48q84 0 139 -44q53 -44 53 -113q0 -48 -31 -88t-131 -99q-60 -35 -83 -55q-25 -22 -34 -38z" />
    <glyph glyph-name="uniE060" unicode="&#xe060;" horiz-adv-x="514" 
d="M386 34q0 61 -37.5 98t-100.5 37h-91v71l174 176h-291v86h410v-84l-172 -172q97 -1 153 -56t56 -151q0 -106 -67 -167q-68 -62 -178 -62q-91 0 -153.5 51t-79.5 139l99 13q28 -118 142 -118q66 0 101 35.5t35 103.5z" />
    <glyph glyph-name="uniE061" unicode="&#xe061;" horiz-adv-x="525" 
d="M504 0h-82v-180h-95v180h-303v81l260 422h138v-425h82v-78zM326 429l-211 -351h212v351h-1z" />
    <glyph glyph-name="uniE062" unicode="&#xe062;" horiz-adv-x="527" 
d="M111 502h350v-86h-276l-28 -200q21 17 57 28t71 11q96 0 154 -58q59 -59 59 -154q0 -107 -65 -170q-64 -63 -176 -63q-91 0 -153 52q-64 52 -81 138l100 15q29 -122 144 -122q60 0 98 41t38 105q0 58 -38 98q-40 38 -101 38q-33 0 -66 -13.5t-52 -32.5l-88 4z" />
    <glyph glyph-name="uniE063" unicode="&#xe063;" 
d="M296 693q84 0 141.5 -48.5t74.5 -132.5l-103 -15q-13 57 -43 83.5t-82 26.5q-65 0 -101 -69.5t-37 -191.5q27 34 74 57q45 22 90 22q92 0 150 -58t58 -152q0 -95 -66 -162t-162 -67q-115 0 -180 98t-65 253q0 156 67 256t184 100zM297 346q-78 0 -146 -95q11 -81 48 -130
q38 -51 91 -51q55 0 91 38q35 38 35 97q0 65 -32 103t-87 38z" />
    <glyph glyph-name="uniE064" unicode="&#xe064;" horiz-adv-x="506" 
d="M248 -19q-19 -81 -23 -162h-106q4 163 80 318q38 80 108 179l69 100h-351v86h442v-86q-2 -3 -6.5 -9.5t-13.5 -20t-18 -26.5q-44 -67 -52 -80q-49 -78 -77 -144q-34 -75 -52 -155z" />
    <glyph glyph-name="uniE065" unicode="&#xe065;" horiz-adv-x="561" 
d="M499 515q0 -48 -29 -90t-72 -60v-3q121 -54 121 -174q0 -90 -67 -145q-68 -56 -171 -56t-171 56t-68 146q0 118 119 172v1q-43 18 -71 61t-28 91q0 77 64 128q63 51 155 51q91 0 155 -51q63 -51 63 -127zM281 68q59 0 102 35q42 35 42 88q0 58 -41 94t-103 36t-103 -35
q-41 -36 -41 -95q0 -53 42 -88q41 -35 102 -35zM281 398q50 0 87 32q36 31 36 76q0 44 -35 76q-35 31 -88 31q-54 0 -88 -30q-36 -31 -36 -77q0 -45 36 -76q37 -32 88 -32z" />
    <glyph glyph-name="uniE066" unicode="&#xe066;" 
d="M251 -189q-86 0 -148 50q-61 49 -78 131l103 14q24 -109 132 -109q72 0 111 67t40 190q-26 -33 -73 -56q-45 -22 -91 -22q-91 0 -149 58q-59 59 -59 151q0 95 66 163q66 67 162 67q115 0 180 -98q65 -100 65 -254q0 -157 -68 -255q-69 -97 -193 -97zM260 155q80 0 146 94
q-11 82 -47 131q-37 51 -92 51t-90 -38q-36 -39 -36 -98q0 -64 32 -102t87 -38z" />
    <glyph glyph-name="uniE07C" unicode="&#xe07c;" horiz-adv-x="806" 
d="M244 364h89v-61h-273v61h107v234q-32 -48 -99 -75l-23 60q37 15 74 48q38 32 53 62h72v-329zM564 706h84l-365 -719h-85zM523 390h235v-65h-175l-15 -84q31 14 71 14q62 0 105 -35q41 -36 41 -92q0 -62 -44.5 -98.5t-119.5 -36.5q-58 0 -100.5 33t-53.5 88l80 9
q17 -66 81 -66q37 0 56.5 18t19.5 51q0 29 -22 47.5t-57 18.5q-43 0 -67 -24l-69 3z" />
    <glyph glyph-name="uniE07D" unicode="&#xe07d;" horiz-adv-x="806" 
d="M121 368h199v-65h-302q6 51 34 91q28 39 106 89q85 54 85 97q0 23 -18.5 38.5t-47.5 15.5q-66 0 -82 -99l-74 19q9 65 53 105t108 40q60 0 101 -33q40 -33 40 -84q0 -40 -27.5 -75.5t-91.5 -74.5q-47 -28 -60 -40q-14 -12 -23 -24zM564 706h84l-365 -719h-85zM523 390
h235v-65h-175l-15 -84q31 14 71 14q62 0 105 -35q41 -36 41 -92q0 -62 -44.5 -98.5t-119.5 -36.5q-58 0 -100.5 33t-53.5 88l80 9q17 -66 81 -66q37 0 56.5 18t19.5 51q0 29 -22 47.5t-57 18.5q-43 0 -67 -24l-69 3z" />
    <glyph glyph-name="uniE07E" unicode="&#xe07e;" horiz-adv-x="806" 
d="M248 428q0 29 -22 47t-57 18h-65v52l95 83h-168v65h275v-60l-98 -83q57 -6 89.5 -37.5t32.5 -81.5q0 -62 -44.5 -98.5t-118.5 -36.5q-60 0 -101.5 32.5t-54.5 88.5l79 8q18 -65 82 -65q36 0 56 17.5t20 50.5zM544 706h84l-365 -719h-85zM523 390h235v-65h-175l-15 -84
q31 14 71 14q62 0 105 -35q41 -36 41 -92q0 -62 -44.5 -98.5t-119.5 -36.5q-58 0 -100.5 33t-53.5 88l80 9q17 -66 81 -66q37 0 56.5 18t19.5 51q0 29 -22 47.5t-57 18.5q-43 0 -67 -24l-69 3z" />
    <glyph glyph-name="uniE07F" unicode="&#xe07f;" horiz-adv-x="806" 
d="M339 386h-51v-83h-76v83h-194v66l171 241h99v-247h51v-60zM211 616l-120 -170h121zM554 706h84l-365 -719h-85zM523 390h235v-65h-175l-15 -84q31 14 71 14q62 0 105 -35q41 -36 41 -92q0 -62 -44.5 -98.5t-119.5 -36.5q-58 0 -100.5 33t-53.5 88l80 9q17 -66 81 -66
q37 0 56.5 18t19.5 51q0 29 -22 47.5t-57 18.5q-43 0 -67 -24l-69 3z" />
    <glyph glyph-name="uniE080" unicode="&#xe080;" horiz-adv-x="806" 
d="M244 364h89v-61h-273v61h107v234q-32 -48 -99 -75l-23 60q37 15 74 48q38 32 53 62h72v-329zM573 706h84l-365 -719h-85zM636 397q108 0 138 -111l-81 -10q-17 56 -64 56q-71 0 -82 -124q42 42 96 42q58 0 95.5 -33.5t37.5 -86.5q0 -56 -42 -97q-41 -40 -105 -40
q-75 0 -118 54q-43 53 -43 141q0 92 45 151q43 58 123 58zM634 190q-43 0 -82 -47q8 -40 29 -63t51 -23q27 0 45.5 19t18.5 49t-17 47.5t-45 17.5z" />
    <glyph glyph-name="uniE081" unicode="&#xe081;" horiz-adv-x="806" 
d="M70 693h235v-65h-175l-15 -84q31 14 71 14q62 0 105 -35q41 -36 41 -92q0 -62 -44.5 -98.5t-119.5 -36.5q-58 0 -100.5 33t-53.5 88l80 9q16 -66 81 -66q37 0 56.5 18t19.5 51q0 29 -22 47.5t-57 18.5q-43 0 -67 -24l-69 3zM544 706h84l-365 -719h-85zM636 397
q108 0 138 -111l-81 -10q-17 56 -64 56q-71 0 -82 -124q42 42 96 42q58 0 95.5 -33.5t37.5 -86.5q0 -56 -42 -97q-41 -40 -105 -40q-75 0 -118 54q-43 53 -43 141q0 92 45 151q43 58 123 58zM634 190q-43 0 -82 -47q8 -40 29 -63t51 -23q27 0 45.5 19t18.5 49t-17 47.5
t-45 17.5z" />
    <glyph glyph-name="uniE082" unicode="&#xe082;" horiz-adv-x="791" 
d="M244 364h89v-61h-273v61h107v234q-32 -48 -99 -75l-23 60q37 15 74 48q38 32 53 62h72v-329zM543 706h84l-365 -719h-85zM669 177q-38 -78 -46 -177h-86q1 76 30 145q30 71 100 157l19 23h-215v65h298v-59q-63 -87 -73 -105q-17 -28 -27 -49z" />
    <glyph glyph-name="uniE083" unicode="&#xe083;" horiz-adv-x="791" 
d="M121 368h199v-65h-302q6 51 34 91q28 39 106 89q85 54 85 97q0 23 -18.5 38.5t-47.5 15.5q-66 0 -82 -99l-74 19q9 65 53 105t108 40q60 0 101 -33q40 -33 40 -84q0 -40 -27.5 -75.5t-91.5 -74.5q-47 -28 -60 -40q-14 -12 -23 -24zM535 706h84l-365 -719h-85zM669 177
q-38 -78 -46 -177h-86q1 76 30 145q30 71 100 157l19 23h-215v65h298v-59q-63 -87 -73 -105q-17 -28 -27 -49z" />
    <glyph glyph-name="uniE084" unicode="&#xe084;" horiz-adv-x="791" 
d="M248 428q0 29 -22 47t-57 18h-65v52l95 83h-168v65h275v-60l-98 -83q57 -6 89.5 -37.5t32.5 -81.5q0 -62 -44.5 -98.5t-118.5 -36.5q-60 0 -101.5 32.5t-54.5 88.5l79 8q18 -65 82 -65q36 0 56 17.5t20 50.5zM524 706h84l-365 -719h-85zM669 177q-38 -78 -46 -177h-86
q1 76 30 145q30 71 100 157l19 23h-215v65h298v-59q-63 -87 -73 -105q-17 -28 -27 -49z" />
    <glyph glyph-name="uniE085" unicode="&#xe085;" horiz-adv-x="791" 
d="M339 386h-51v-83h-76v83h-194v66l171 241h99v-247h51v-60zM211 616l-120 -170h121zM525 706h84l-365 -719h-85zM669 177q-38 -78 -46 -177h-86q1 76 30 145q30 71 100 157l19 23h-215v65h298v-59q-63 -87 -73 -105q-17 -28 -27 -49z" />
    <glyph glyph-name="uniE086" unicode="&#xe086;" horiz-adv-x="791" 
d="M70 693h235v-65h-175l-15 -84q31 14 71 14q62 0 105 -35q41 -36 41 -92q0 -62 -44.5 -98.5t-119.5 -36.5q-58 0 -100.5 33t-53.5 88l80 9q16 -66 81 -66q37 0 56.5 18t19.5 51q0 29 -22 47.5t-57 18.5q-43 0 -67 -24l-69 3zM524 706h84l-365 -719h-85zM669 177
q-38 -78 -46 -177h-86q1 76 30 145q30 71 100 157l19 23h-215v65h298v-59q-63 -87 -73 -105q-17 -28 -27 -49z" />
    <glyph glyph-name="uniE087" unicode="&#xe087;" horiz-adv-x="791" 
d="M183 700q108 0 138 -111l-81 -10q-17 56 -64 56q-71 0 -82 -124q42 42 96 42q58 0 95.5 -33.5t37.5 -86.5q0 -57 -42 -97q-41 -40 -105 -40q-74 0 -118 54q-43 53 -43 141q0 93 45 151q43 58 123 58zM181 493q-43 0 -82 -47q8 -40 29 -63t51 -23q27 0 45.5 19t18.5 49
t-17 47.5t-45 17.5zM514 706h84l-365 -719h-85zM669 177q-38 -78 -46 -177h-86q1 76 30 145q30 71 100 157l19 23h-215v65h298v-59q-63 -87 -73 -105q-17 -28 -27 -49z" />
    <glyph glyph-name="uniE088" unicode="&#xe088;" horiz-adv-x="806" 
d="M244 364h89v-61h-273v61h107v234q-32 -48 -99 -75l-23 60q37 15 74 48q38 32 53 62h72v-329zM565 706h84l-365 -719h-85zM613 -7q-119 0 -148 112l81 9q8 -27 26.5 -42t42.5 -15q41 0 62.5 29.5t26.5 94.5q-39 -42 -95 -42q-57 0 -95 33t-38 86q0 58 42 98q40 40 104 40
q74 0 118 -56t44 -138q0 -98 -45 -153.5t-126 -55.5zM618 199q40 0 81 46q-7 40 -28 63.5t-51 23.5q-28 0 -46 -19t-18 -50q0 -29 17 -46.5t45 -17.5z" />
    <glyph glyph-name="uniE089" unicode="&#xe089;" horiz-adv-x="806" 
d="M121 368h199v-65h-302q6 51 34 91q28 39 106 89q85 54 85 97q0 23 -18.5 38.5t-47.5 15.5q-66 0 -82 -99l-74 19q9 65 53 105t108 40q60 0 101 -33q40 -33 40 -84q0 -40 -27.5 -75.5t-91.5 -74.5q-47 -28 -60 -40q-14 -12 -23 -24zM564 706h84l-365 -719h-85zM613 -7
q-119 0 -148 112l81 9q8 -27 26.5 -42t42.5 -15q41 0 62.5 29.5t26.5 94.5q-39 -42 -95 -42q-57 0 -95 33t-38 86q0 58 42 98q40 40 104 40q74 0 118 -56t44 -138q0 -98 -45 -153.5t-126 -55.5zM618 199q40 0 81 46q-7 40 -28 63.5t-51 23.5q-28 0 -46 -19t-18 -50
q0 -29 17 -46.5t45 -17.5z" />
    <glyph glyph-name="uniE08A" unicode="&#xe08a;" horiz-adv-x="806" 
d="M339 386h-51v-83h-76v83h-194v66l171 241h99v-247h51v-60zM211 616l-120 -170h121zM555 706h84l-365 -719h-85zM613 -7q-119 0 -148 112l81 9q8 -27 26.5 -42t42.5 -15q41 0 62.5 29.5t26.5 94.5q-39 -42 -95 -42q-57 0 -95 33t-38 86q0 58 42 98q40 40 104 40
q74 0 118 -56t44 -138q0 -98 -45 -153.5t-126 -55.5zM618 199q40 0 81 46q-7 40 -28 63.5t-51 23.5q-28 0 -46 -19t-18 -50q0 -29 17 -46.5t45 -17.5z" />
    <glyph glyph-name="uniE08B" unicode="&#xe08b;" horiz-adv-x="806" 
d="M70 693h235v-65h-175l-15 -84q31 14 71 14q62 0 105 -35q41 -36 41 -92q0 -62 -44.5 -98.5t-119.5 -36.5q-58 0 -100.5 33t-53.5 88l80 9q16 -66 81 -66q37 0 56.5 18t19.5 51q0 29 -22 47.5t-57 18.5q-43 0 -67 -24l-69 3zM544 706h84l-365 -719h-85zM613 -7
q-119 0 -148 112l81 9q8 -27 26.5 -42t42.5 -15q41 0 62.5 29.5t26.5 94.5q-39 -42 -95 -42q-57 0 -95 33t-38 86q0 58 42 98q40 40 104 40q74 0 118 -56t44 -138q0 -98 -45 -153.5t-126 -55.5zM618 199q40 0 81 46q-7 40 -28 63.5t-51 23.5q-28 0 -46 -19t-18 -50
q0 -29 17 -46.5t45 -17.5z" />
    <glyph glyph-name="uniE08C" unicode="&#xe08c;" horiz-adv-x="791" 
d="M216 480q-38 -78 -46 -177h-86q1 76 30 145q30 71 100 157l19 23h-215v65h298v-59q-63 -87 -73 -105q-17 -28 -27 -49zM499 706h84l-365 -719h-85zM598 -7q-119 0 -148 112l81 9q8 -27 26.5 -42t42.5 -15q41 0 62.5 29.5t26.5 94.5q-39 -42 -95 -42q-58 0 -95 33
q-38 33 -38 86q0 58 42 98q40 40 104 40q74 0 118 -56t44 -138q0 -98 -45 -153.5t-126 -55.5zM603 199q40 0 81 46q-7 40 -28 63.5t-51 23.5q-28 0 -46 -19t-18 -50q0 -29 17 -46.5t45 -17.5z" />
    <glyph glyph-name="uniE08D" unicode="&#xe08d;" horiz-adv-x="806" 
d="M321 591q0 -49 -58 -80q68 -37 68 -96q0 -54 -44 -86q-45 -33 -113 -33t-112 33q-45 31 -45 86q0 59 66 95q-55 33 -55 81q0 46 43 77t103 31q61 0 104 -30q43 -31 43 -78zM174 359q33 0 55.5 16t22.5 41q0 29 -21 45.5t-57 16.5q-34 0 -55.5 -17t-21.5 -45q0 -25 22 -41
t55 -16zM174 539q29 0 48 14t19 35t-19 34.5t-48 13.5q-28 0 -46.5 -13.5t-18.5 -34.5t18.5 -35t46.5 -14zM544 706h84l-365 -719h-85zM613 -7q-119 0 -148 112l81 9q8 -27 26.5 -42t42.5 -15q41 0 62.5 29.5t26.5 94.5q-39 -42 -95 -42q-57 0 -95 33t-38 86q0 58 42 98
q40 40 104 40q74 0 118 -56t44 -138q0 -98 -45 -153.5t-126 -55.5zM618 199q40 0 81 46q-7 40 -28 63.5t-51 23.5q-28 0 -46 -19t-18 -50q0 -29 17 -46.5t45 -17.5z" />
    <glyph glyph-name="uniE08E" unicode="&#xe08e;" horiz-adv-x="353" 
d="M95 617q0 -65 21.5 -101.5t57.5 -36.5t57.5 36.5t21.5 101.5q0 66 -21 102t-58 36q-36 0 -57.5 -36.5t-21.5 -101.5zM333 617q0 -90 -43 -145q-44 -56 -116 -56q-73 0 -115 56q-43 55 -43 145q0 91 43 146q42 56 115 56q72 0 116 -56q43 -55 43 -146z" />
    <glyph glyph-name="uniE08F" unicode="&#xe08f;" horiz-adv-x="353" 
d="M244 484h89v-61h-273v61h107v234q-32 -48 -99 -75l-23 60q37 15 74 48q38 32 53 62h72v-329z" />
    <glyph glyph-name="uniE090" unicode="&#xe090;" horiz-adv-x="353" 
d="M121 488h199v-65h-302q6 51 34 91q28 39 106 89q85 54 85 97q0 23 -18.5 38.5t-47.5 15.5q-66 0 -82 -99l-74 19q9 65 53 105t108 40q60 0 101 -33q40 -33 40 -84q0 -40 -27.5 -75.5t-91.5 -74.5q-47 -28 -60 -40q-14 -12 -23 -24z" />
    <glyph glyph-name="uniE091" unicode="&#xe091;" horiz-adv-x="353" 
d="M248 548q0 29 -22 47t-57 18h-65v52l95 83h-168v65h275v-60l-98 -83q57 -6 89.5 -37.5t32.5 -81.5q0 -62 -44.5 -98.5t-118.5 -36.5q-60 0 -101.5 32.5t-54.5 88.5l79 8q18 -65 82 -65q36 0 56 17.5t20 50.5z" />
    <glyph glyph-name="uniE092" unicode="&#xe092;" horiz-adv-x="353" 
d="M339 506h-51v-83h-76v83h-194v66l171 241h99v-247h51v-60zM211 736l-120 -170h121z" />
    <glyph glyph-name="uniE093" unicode="&#xe093;" horiz-adv-x="353" 
d="M70 813h235v-65h-175l-15 -84q31 14 71 14q62 0 105 -35q41 -36 41 -92q0 -62 -44.5 -98.5t-119.5 -36.5q-58 0 -100.5 33t-53.5 88l80 9q16 -66 81 -66q37 0 56.5 18t19.5 51q0 29 -22 47.5t-57 18.5q-43 0 -67 -24l-69 3z" />
    <glyph glyph-name="uniE094" unicode="&#xe094;" horiz-adv-x="353" 
d="M183 820q108 0 138 -111l-81 -10q-17 56 -64 56q-71 0 -82 -124q42 42 96 42q58 0 95.5 -33.5t37.5 -86.5q0 -56 -42 -97q-41 -40 -105 -40q-74 0 -118 54q-43 53 -43 141q0 93 45 151q43 58 123 58zM181 613q-43 0 -82 -47q8 -40 29 -63t51 -23q27 0 45.5 19t18.5 49
t-17 47.5t-45 17.5z" />
    <glyph glyph-name="uniE095" unicode="&#xe095;" horiz-adv-x="338" 
d="M216 600q-38 -78 -46 -177h-86q1 76 30 145q30 71 100 157l19 23h-215v65h298v-59q-63 -87 -73 -105q-17 -28 -27 -49z" />
    <glyph glyph-name="uniE096" unicode="&#xe096;" horiz-adv-x="353" 
d="M321 711q0 -49 -58 -80q68 -37 68 -96q0 -54 -44 -86q-45 -33 -113 -33t-112 33q-45 31 -45 86q0 59 66 95q-55 33 -55 81q0 46 43 77t103 31q61 0 104 -30q43 -31 43 -78zM174 479q33 0 55.5 16t22.5 41q0 29 -21 45.5t-57 16.5q-34 0 -55.5 -17t-21.5 -45q0 -25 22 -41
t55 -16zM174 659q29 0 48 14t19 35t-19 34.5t-48 13.5q-28 0 -46.5 -13.5t-18.5 -34.5t18.5 -35t46.5 -14z" />
    <glyph glyph-name="uniE097" unicode="&#xe097;" horiz-adv-x="353" 
d="M160 416q-119 0 -148 112l81 9q8 -27 26.5 -42t42.5 -15q41 0 62.5 29.5t26.5 94.5q-39 -42 -95 -42q-57 0 -95 33t-38 86q0 57 42 98q40 40 104 40q74 0 118 -56t44 -138q0 -98 -45 -153.5t-126 -55.5zM165 622q40 0 81 46q-7 40 -28 63.5t-51 23.5q-28 0 -46 -19
t-18 -50q0 -29 17 -46.5t45 -17.5z" />
    <glyph glyph-name="uniE098" unicode="&#xe098;" horiz-adv-x="353" 
d="M95 74q0 -65 21.5 -101.5t57.5 -36.5t57.5 36.5t21.5 101.5q0 66 -21 102t-58 36q-36 0 -57.5 -36.5t-21.5 -101.5zM333 74q0 -90 -43 -145q-44 -56 -116 -56q-73 0 -115 56q-43 55 -43 145q0 91 43 146q42 56 115 56q72 0 116 -56q43 -55 43 -146z" />
    <glyph glyph-name="uniE099" unicode="&#xe099;" horiz-adv-x="353" 
d="M244 -59h89v-61h-273v61h107v234q-32 -48 -99 -75l-23 60q37 15 74 48q38 32 53 62h72v-329z" />
    <glyph glyph-name="uniE09A" unicode="&#xe09a;" horiz-adv-x="353" 
d="M121 -55h199v-65h-302q6 51 34 91q28 39 106 89q85 54 85 97q0 23 -18.5 38.5t-47.5 15.5q-66 0 -82 -99l-74 19q9 65 53 105t108 40q60 0 101 -33q40 -33 40 -84q0 -40 -27.5 -75.5t-91.5 -74.5q-47 -28 -60 -40q-14 -12 -23 -24z" />
    <glyph glyph-name="uniE09B" unicode="&#xe09b;" horiz-adv-x="353" 
d="M248 5q0 29 -22 47t-57 18h-65v52l95 83h-168v65h275v-60l-98 -83q57 -6 89.5 -37.5t32.5 -81.5q0 -62 -44.5 -98.5t-118.5 -36.5q-60 0 -101.5 32.5t-54.5 88.5l79 8q18 -65 82 -65q36 0 56 17.5t20 50.5z" />
    <glyph glyph-name="uniE09C" unicode="&#xe09c;" horiz-adv-x="353" 
d="M339 -37h-51v-83h-76v83h-194v66l171 241h99v-247h51v-60zM211 193l-120 -170h121z" />
    <glyph glyph-name="uniE09D" unicode="&#xe09d;" horiz-adv-x="353" 
d="M70 270h235v-65h-175l-15 -84q31 14 71 14q62 0 105 -35q41 -36 41 -92q0 -62 -44.5 -98.5t-119.5 -36.5q-58 0 -100.5 33t-53.5 88l80 9q16 -66 81 -66q37 0 56.5 18t19.5 51q0 29 -22 47.5t-57 18.5q-43 0 -67 -24l-69 3z" />
    <glyph glyph-name="uniE09E" unicode="&#xe09e;" horiz-adv-x="353" 
d="M183 277q108 0 138 -111l-81 -10q-17 56 -64 56q-71 0 -82 -124q42 42 96 42q58 0 95.5 -33.5t37.5 -86.5q0 -56 -42 -97q-41 -40 -105 -40q-74 0 -118 54q-43 53 -43 141q0 93 45 151q43 58 123 58zM181 70q-43 0 -82 -47q8 -40 29 -63t51 -23q27 0 45.5 19t18.5 49
t-17 47.5t-45 17.5z" />
    <glyph glyph-name="uniE09F" unicode="&#xe09f;" horiz-adv-x="338" 
d="M216 57q-38 -78 -46 -177h-86q1 76 30 145q30 71 100 157l19 23h-215v65h298v-59q-63 -87 -73 -105q-17 -28 -27 -49z" />
    <glyph glyph-name="uniE0A0" unicode="&#xe0a0;" horiz-adv-x="353" 
d="M321 168q0 -49 -58 -80q68 -37 68 -96q0 -54 -44 -87q-46 -32 -113 -32q-68 0 -112 32q-45 33 -45 87q0 59 66 95q-55 33 -55 81q0 46 43 77t103 31q61 0 104 -30q43 -31 43 -78zM174 -64q33 0 55.5 16t22.5 41q0 29 -21 45.5t-57 16.5q-34 0 -55.5 -17t-21.5 -45
q0 -25 22 -41t55 -16zM174 116q29 0 48 14t19 35t-19 34.5t-48 13.5q-28 0 -46.5 -13.5t-18.5 -34.5t18.5 -35t46.5 -14z" />
    <glyph glyph-name="uniE0A1" unicode="&#xe0a1;" horiz-adv-x="353" 
d="M160 -127q-119 0 -148 112l81 9q8 -27 26.5 -42t42.5 -15q41 0 62.5 29.5t26.5 94.5q-39 -42 -95 -42q-57 0 -95 33t-38 86q0 58 42 98q40 40 104 40q74 0 118 -56t44 -138q0 -98 -45 -153.5t-126 -55.5zM165 79q40 0 81 46q-7 40 -28 63.5t-51 23.5q-28 0 -46 -19
t-18 -50q0 -29 17 -46.5t45 -17.5z" />
    <glyph glyph-name="uniE166" unicode="&#xe166;" horiz-adv-x="241" 
d="M71 693h99v-104h-99v104zM73 502h95v-502h-95v502z" />
    <glyph glyph-name="uniE189" unicode="&#xe189;" horiz-adv-x="249" 
d="M164 693v-38l-34 -113h-57v151h91z" />
    <glyph glyph-name="uniE18A" unicode="&#xe18a;" horiz-adv-x="249" 
d="M179 575h-108v72l52 73h56l-36 -64h36v-81z" />
    <glyph glyph-name="uniE1E8" unicode="&#xe1e8;" horiz-adv-x="320" 
d="M157 345q0 -99 36 -223q33 -122 88 -214h-93q-50 74 -90 204q-40 129 -40 233q0 103 42 233q40 128 93 205h88q-52 -85 -88 -213q-36 -126 -36 -225z" />
    <glyph glyph-name="uniE1E9" unicode="&#xe1e9;" horiz-adv-x="320" 
d="M261 345q0 -105 -40 -234t-90 -203h-92q52 85 88 213q35 126 35 224q0 99 -36 225q-36 128 -88 213h89q52 -76 93 -206q41 -132 41 -232z" />
    <glyph glyph-name="uniE1EA" unicode="&#xe1ea;" horiz-adv-x="322" 
d="M278 -15h23v-77h-46q-78 0 -110 34t-32 114v159q0 102 -72 102h-11v78h11q72 0 72 102v138q0 80 32 114t110 34h46v-77h-23q-38 0 -54 -19t-16 -62v-153q0 -40 -21.5 -72t-54.5 -40v-2q33 -7 54.5 -41t21.5 -78v-173q0 -43 16 -62t54 -19z" />
    <glyph glyph-name="uniE1EB" unicode="&#xe1eb;" horiz-adv-x="322" 
d="M67 -92h-46v77h23q38 0 54 19t16 62v173q0 44 21.5 78t54.5 41v2q-33 8 -54.5 40t-21.5 72v153q0 43 -16 62t-54 19h-23v77h46q78 0 110 -34t32 -114v-138q0 -102 72 -102h11v-78h-11q-72 0 -72 -102v-159q0 -80 -32 -114t-110 -34z" />
    <glyph glyph-name="uniE1EC" unicode="&#xe1ec;" horiz-adv-x="322" 
d="M180 -15h120v-77h-215v875h215v-77h-120v-721z" />
    <glyph glyph-name="uniE1ED" unicode="&#xe1ed;" horiz-adv-x="322" 
d="M22 783h215v-875h-215v77h120v721h-120v77z" />
    <glyph glyph-name="uniE1EE" unicode="&#xe1ee;" horiz-adv-x="500" 
d="M57 398h386v-80h-386v80z" />
    <glyph glyph-name="uniE1EF" unicode="&#xe1ef;" horiz-adv-x="1000" 
d="M57 398h886v-80h-886v80z" />
    <glyph glyph-name="uniE1F0" unicode="&#xe1f0;" horiz-adv-x="484" 
d="M355 167l-130 195l130 192h97l-125 -192l125 -195h-97zM29 362l130 192h97l-125 -192l125 -195h-97z" />
    <glyph glyph-name="uniE1F1" unicode="&#xe1f1;" horiz-adv-x="484" 
d="M228 554h97l130 -192l-130 -195h-97l125 195zM129 167h-97l125 195l-125 192h97l130 -192z" />
    <glyph glyph-name="uniE1F2" unicode="&#xe1f2;" horiz-adv-x="288" 
d="M256 554l-125 -192l125 -195h-97l-130 195l130 192h97z" />
    <glyph glyph-name="uniE1F3" unicode="&#xe1f3;" horiz-adv-x="288" 
d="M129 554l130 -192l-130 -195h-97l125 195l-125 192h97z" />
    <glyph glyph-name="uniE1F6" unicode="&#xe1f6;" horiz-adv-x="470" 
d="M303 581h-113v112h113v-112zM121 341q51 58 65 89q15 34 15 73h91q0 -57 -18 -104t-73 -108q-40 -45 -50 -69q-12 -26 -12 -53q0 -45 27 -72t73 -27q47 0 81 37t51 106l92 -30q-23 -93 -83 -144.5t-146 -51.5q-88 0 -143 50q-54 50 -54 130q0 44 16 80q17 39 68 94z" />
    <glyph glyph-name="uniE1F7" unicode="&#xe1f7;" horiz-adv-x="240" 
d="M175 581h-110v112h110v-112zM181 0h-121l31 503h59z" />
    <glyph glyph-name="uniE1F8" unicode="&#xe1f8;" horiz-adv-x="309" 
d="M30 397h249v-82h-249v82z" />
    <glyph glyph-name="uniE1F9" unicode="&#xe1f9;" horiz-adv-x="246" 
d="M84 796h78v-889h-78v889z" />
    <glyph glyph-name="uniE1FB" unicode="&#xe1fb;" horiz-adv-x="771" 
d="M393 49q77 0 144 38l33 -51q-94 -49 -184 -49q-148 0 -247 102q-100 101 -100 253q0 155 103 259q102 105 249 105q143 0 246 -101q101 -103 101 -245q0 -97 -46 -158q-46 -63 -118 -63q-66 0 -85 51q-39 -58 -117 -58q-75 0 -118.5 56t-43.5 156q0 101 44.5 158.5
t120.5 57.5q58 0 98 -43v35h77v-266q0 -47 8.5 -66.5t29.5 -19.5q35 0 56.5 42t21.5 109q0 127 -76 209q-77 83 -193 83q-119 0 -198 -85q-80 -86 -80 -210q0 -126 79 -212q80 -87 195 -87zM386 203q40 0 62.5 27.5t22.5 75.5v78q0 104 -85 104q-94 0 -94 -141
q0 -144 94 -144z" />
    <glyph glyph-name="uniF6C3" unicode="&#xf6c3;" horiz-adv-x="249" 
d="M126 -186h-56l36 65h-36v81h108v-72z" />
    <glyph glyph-name="M.alt" horiz-adv-x="796" 
d="M558 693h162v-693h-97v599h-2l-179 -599h-92l-176 599h-2v-599h-96v693h163l160 -546z" />
    <glyph glyph-name="a.alt" horiz-adv-x="568" 
d="M408 502h93v-502h-92v84h-1q-51 -97 -156 -97q-91 0 -148 74q-58 73 -58 187q0 116 61 192q61 75 151 75q51 0 91 -25.5t58 -67.5h1v80zM143 249q0 -86 34.5 -134t96.5 -48t97 48.5t35 132.5q0 85 -35.5 135t-97.5 50q-61 0 -95.5 -49t-34.5 -135z" />
    <glyph glyph-name="ae.alt" horiz-adv-x="891" 
d="M846 252v-22h-350q2 -70 39 -117q37 -46 94 -46q46 0 75.5 23t48.5 74l89 -20q-25 -74 -81 -115.5t-132 -41.5q-85 0 -138 47v-34h-82v84h-1q-23 -46 -63.5 -71.5t-90.5 -25.5q-93 0 -150 73q-58 73 -58 188q0 118 61 192q61 75 154 75q48 0 88 -25.5t59 -67.5v80h83v-43
q56 56 133 56q100 0 161 -73t61 -190zM143 250q0 -87 34.5 -135t97.5 -48q62 0 96.5 49.5t34.5 134.5q0 82 -35.5 132t-95.5 50q-62 0 -97 -48.5t-35 -134.5zM623 435q-51 0 -85 -39q-36 -40 -40 -99h252q-6 64 -40 101t-87 37z" />
    <glyph glyph-name="kgreenlandic.case" horiz-adv-x="664" 
d="M76 693h106v-352h2l288 352h119l-224 -264l247 -429h-121l-193 351l-118 -139v-212h-106v693zM699 575h-108v72l52 73h56l-36 -64h36v-81z" />
    <glyph glyph-name="napostrophe.case" horiz-adv-x="671" 
d="M76 0v693h119l299 -531h3v531h97v-693h-119l-301 543h-1v-543h-97zM116 792h-36v81h108v-72l-52 -74h-56z" />
    <glyph glyph-name="aacute.alt" horiz-adv-x="568" 
d="M408 502h93v-502h-92v84h-1q-51 -97 -156 -97q-91 0 -148 74q-58 73 -58 187q0 116 61 192q61 75 151 75q51 0 91 -25.5t58 -67.5h1v80zM143 249q0 -86 34.5 -134t96.5 -48t97 48.5t35 132.5q0 85 -35.5 135t-97.5 50q-61 0 -95.5 -49t-34.5 -135zM290 693h108l-88 -121
h-84z" />
    <glyph glyph-name="acircumflex.alt" horiz-adv-x="568" 
d="M408 502h93v-502h-92v84h-1q-51 -97 -156 -97q-91 0 -148 74q-58 73 -58 187q0 116 61 192q61 75 151 75q51 0 91 -25.5t58 -67.5h1v80zM143 249q0 -86 34.5 -134t96.5 -48t97 48.5t35 132.5q0 85 -35.5 135t-97.5 50q-61 0 -95.5 -49t-34.5 -135zM230 693h106l71 -121
h-69l-55 69l-54 -69h-69z" />
    <glyph glyph-name="adieresis.alt" horiz-adv-x="568" 
d="M408 502h93v-502h-92v84h-1q-51 -97 -156 -97q-91 0 -148 74q-58 73 -58 187q0 116 61 192q61 75 151 75q51 0 91 -25.5t58 -67.5h1v80zM143 249q0 -86 34.5 -134t96.5 -48t97 48.5t35 132.5q0 85 -35.5 135t-97.5 50q-61 0 -95.5 -49t-34.5 -135zM313 693h87v-103h-87
v103zM167 693h87v-103h-87v103z" />
    <glyph glyph-name="agrave.alt" horiz-adv-x="568" 
d="M408 502h93v-502h-92v84h-1q-51 -97 -156 -97q-91 0 -148 74q-58 73 -58 187q0 116 61 192q61 75 151 75q51 0 91 -25.5t58 -67.5h1v80zM143 249q0 -86 34.5 -134t96.5 -48t97 48.5t35 132.5q0 85 -35.5 135t-97.5 50q-61 0 -95.5 -49t-34.5 -135zM149 693h108l64 -121
h-84z" />
    <glyph glyph-name="aring.alt" horiz-adv-x="568" 
d="M408 502h93v-502h-92v84h-1q-51 -97 -156 -97q-91 0 -148 74q-58 73 -58 187q0 116 61 192q61 75 151 75q51 0 91 -25.5t58 -67.5h1v80zM143 249q0 -86 34.5 -134t96.5 -48t97 48.5t35 132.5q0 85 -35.5 135t-97.5 50q-61 0 -95.5 -49t-34.5 -135zM380 653
q0 -40 -27.5 -68t-67.5 -28t-68 28t-28 68t28 68t68 28t67.5 -28t27.5 -68zM238 653q0 -20 13.5 -33.5t33.5 -13.5q19 0 32.5 13.5t13.5 33.5t-13.5 33.5t-32.5 13.5q-20 0 -33.5 -13.5t-13.5 -33.5z" />
    <glyph glyph-name="atilde.alt" horiz-adv-x="568" 
d="M408 502h93v-502h-92v84h-1q-51 -97 -156 -97q-91 0 -148 74q-58 73 -58 187q0 116 61 192q61 75 151 75q51 0 91 -25.5t58 -67.5h1v80zM143 249q0 -86 34.5 -134t96.5 -48t97 48.5t35 132.5q0 85 -35.5 135t-97.5 50q-61 0 -95.5 -49t-34.5 -135zM333 635q12 0 19.5 12
t7.5 32h51q-1 -50 -22 -81t-55 -31q-29 0 -65 30q-24 19 -34 19q-23 0 -23 -44h-56q1 49 23 80.5t55 31.5q25 0 64 -30q24 -19 35 -19z" />
    <glyph glyph-name="abreve.alt" horiz-adv-x="568" 
d="M408 502h93v-502h-92v84h-1q-51 -97 -156 -97q-91 0 -148 74q-58 73 -58 187q0 116 61 192q61 75 151 75q51 0 91 -25.5t58 -67.5h1v80zM143 249q0 -86 34.5 -134t96.5 -48t97 48.5t35 132.5q0 85 -35.5 135t-97.5 50q-61 0 -95.5 -49t-34.5 -135zM283 630q53 0 58 63h65
q-2 -58 -34 -89.5t-89 -31.5t-89 31.5t-34 89.5h66q5 -63 57 -63z" />
    <glyph glyph-name="amacron.alt" horiz-adv-x="568" 
d="M408 502h93v-502h-92v84h-1q-51 -97 -156 -97q-91 0 -148 74q-58 73 -58 187q0 116 61 192q61 75 151 75q51 0 91 -25.5t58 -67.5h1v80zM143 249q0 -86 34.5 -134t96.5 -48t97 48.5t35 132.5q0 85 -35.5 135t-97.5 50q-61 0 -95.5 -49t-34.5 -135zM160 648h247v-73h-247
v73z" />
    <glyph glyph-name="aogonek.alt" horiz-adv-x="568" 
d="M143 249q0 -86 34.5 -134t96.5 -48t97 48.5t35 132.5q0 85 -35.5 135t-97.5 50q-61 0 -95.5 -49t-34.5 -135zM350 -119q0 26 21 62q21 38 46 57h-8v84h-1q-51 -97 -156 -97q-91 0 -148 74q-58 73 -58 187q0 116 61 192q61 75 151 75q51 0 91 -25.5t58 -67.5h1v80h93v-502
h-3q-27 -20 -48 -53q-23 -35 -23 -53q0 -24 27 -24q21 0 41 4v-52q-33 -10 -59 -10q-86 0 -86 69z" />
    <glyph glyph-name="registered.alt" horiz-adv-x="427" 
d="M215 701q73 0 125 -51q51 -52 51 -124t-51 -123q-52 -52 -125 -52q-72 0 -123 52q-52 51 -52 123t52 124q51 51 123 51zM72 526q0 -60 42 -102q42 -43 101 -43t101 43q42 42 42 102t-42 103q-42 42 -101 42t-101 -42q-42 -43 -42 -103zM221 604h-39v-67h37q35 0 35 34
q0 18 -7.5 25.5t-25.5 7.5zM251 518l52 -94h-39l-46 88h-36v-88h-35v207h77q65 0 65 -58q0 -42 -38 -55z" />
    <glyph glyph-name="plus.case" 
d="M496 320h-175v-196h-84v196h-173v81h173v195h84v-195h175v-81z" />
    <glyph glyph-name="minus.case" 
d="M64 401h432v-81h-432v81z" />
    <glyph glyph-name="multiply.case" 
d="M337 360l153 -152l-58 -58l-152 152l-152 -152l-58 58l152 152l-152 152l58 58l152 -153l152 153l58 -58z" />
    <glyph glyph-name="divide.case" 
d="M223 613h114v-113h-114v113zM64 403h432v-81h-432v81zM223 223h114v-112h-114v112z" />
    <glyph glyph-name="equal.case" 
d="M64 494h432v-82h-432v82zM64 309h432v-82h-432v82z" />
    <glyph glyph-name="logicalnot.case" 
d="M64 401h432v-277h-84v196h-348v81z" />
    <glyph glyph-name="less.case" 
d="M153 360l343 -153v-91l-432 203v83l432 203v-91z" />
    <glyph glyph-name="greater.case" 
d="M64 605l432 -203v-83l-432 -203v91l343 153l-343 154v91z" />
    <glyph glyph-name="notequal.case" 
d="M298 309h198v-82h-244l-88 -151h-88l87 151h-99v82h146l60 103h-206v82h252l81 139h89l-81 -139h91v-82h-137z" />
    <glyph glyph-name="approxequal.case" 
d="M376 457q22 0 36 16.5t14 43.5h72q-2 -61 -35 -97q-35 -39 -88 -39q-47 0 -123 45q-47 28 -64 28q-18 0 -33.5 -19t-18.5 -45h-75q2 55 40 95q39 41 91 41q40 0 111 -40q52 -29 73 -29zM376 277q22 0 36 16.5t14 43.5h72q-2 -61 -35 -97q-35 -39 -88 -39q-47 0 -123 45
q-47 28 -64 28q-18 0 -33.5 -19t-18.5 -45h-75q2 55 40 95q39 41 91 41q40 0 111 -40q52 -29 73 -29z" />
    <glyph glyph-name="infinity.case" horiz-adv-x="552" 
d="M168 301q10 0 22 9q7 4 46 40q-52 48 -67 48q-17 0 -29 -13.5t-12 -33.5t12 -35t28 -15zM383 398q-19 0 -68 -48q39 -35 47 -40q12 -9 21 -9q17 0 28.5 14t11.5 35q0 20 -11.5 34t-28.5 14zM363 248q-31 5 -86 60l-23 -21q-47 -42 -87 -42q-46 0 -75.5 29t-29.5 76
q0 44 27 73t69 31q17 2 33 -2q36 -10 85 -60q33 36 56.5 49.5t50.5 13.5q47 0 76.5 -28.5t29.5 -75.5q0 -44 -27 -73.5t-69 -31.5q-20 -2 -30 2z" />
    </font>
</defs>
</svg>
