<?xml version="1.0" standalone="no"?>
<!DOCTYPE svg PUBLIC "-//W3C//DTD SVG 1.1//EN" "http://www.w3.org/Graphics/SVG/1.1/DTD/svg11.dtd" >
<svg xmlns="http://www.w3.org/2000/svg" xmlns:xlink="http://www.w3.org/1999/xlink" version="1.1">
<metadata>
Created by FontForge 20190801 at Sat Dec 12 15:15:35 1953
 By www-data
Copyright (c) 2015 by Jonas Hecksher, Playtype, e-Types AS. All rights reserved.
</metadata>
<defs>
<font id="PlayTypeDuNordRegular" horiz-adv-x="560" >
  <font-face 
    font-family="PlayTypeDuNordRegular"
    font-weight="400"
    font-stretch="normal"
    units-per-em="1000"
    panose-1="2 11 5 3 4 0 0 2 0 4"
    ascent="800"
    descent="-200"
    x-height="500"
    cap-height="693"
    bbox="-175 -206 1151 914"
    underline-thickness="50"
    underline-position="-210"
    unicode-range="U+000D-FB04"
  />
<missing-glyph horiz-adv-x="672" 
d="M241 650h-116v-352h47v143h69q61 0 94.5 28.5t33.5 79.5q0 101 -128 101zM321 545q0 -64 -87 -64h-62v130h62q45 0 66 -15.5t21 -50.5zM509 294q25 0 41 6v38q-24 -8 -38 -8q-34 0 -34 34v152h72v38h-72v70h-42v-70h-47v-38h47v-148q0 -39 17 -56.5t56 -17.5zM60 693h552
v-693h-552v693z" />
    <glyph glyph-name="uniE0A3" unicode="fb" horiz-adv-x="900" 
d="M333 434h-143v-434h-77v434h-93v66h93v50q0 156 142 156q46 0 78 -12v-67q-37 13 -72 13q-71 0 -71 -71v-69h143v-66zM482 82h-1l-27 -82h-45v693h77v-269h1q59 89 157 89q85 0 145 -77q60 -76 60 -187q0 -109 -62 -186q-61 -76 -153 -76q-97 0 -152 95zM485 249
q0 -88 38.5 -138t107.5 -50q64 0 100.5 50.5t36.5 137.5q0 85 -38 138t-102 53q-66 0 -104.5 -52t-38.5 -139z" />
    <glyph glyph-name="uniE0A4" unicode="ffb" horiz-adv-x="1202" 
d="M784 82h-1l-27 -82h-45v693h77v-269h1q59 89 157 89q85 0 145 -77q60 -76 60 -187q0 -109 -62 -186q-61 -76 -153 -76q-97 0 -152 95zM635 434h-143v-434h-77v434h-225v-434h-77v434h-93v66h93v50q0 156 142 156q46 0 78 -12v-67q-37 13 -72 13q-71 0 -71 -71v-69h225v50
q0 156 142 156q46 0 78 -12v-67q-37 13 -72 13q-71 0 -71 -71v-69h143v-66zM787 249q0 -88 38.5 -138t107.5 -50q64 0 100.5 50.5t36.5 137.5q0 85 -38 138t-102 53q-66 0 -104.5 -52t-38.5 -139z" />
    <glyph glyph-name="uniE0A5" unicode="fh" horiz-adv-x="875" 
d="M486 0h-77v693h77v-304l71 71q53 53 117 53q56 0 91 -36q34 -35 34 -96v-381h-77v373q0 31 -17 51t-43 20q-19 0 -36 -7t-33 -23l-107 -99v-315zM20 434v66h93v50q0 78 35 118q35 38 107 38q22 0 44 -2q18 -3 34 -10v-67q-11 4 -35 10q-18 3 -37 3q-36 0 -53 -17
q-18 -18 -18 -54v-69h143v-66h-143v-434h-77v434h-93z" />
    <glyph glyph-name="uniE0A6" unicode="ffh" horiz-adv-x="1177" 
d="M113 434h-93v66h93v50q0 78 35 118q35 38 107 38q22 0 44 -2q18 -3 34 -10v-67q-11 4 -35 10q-18 3 -37 3q-36 0 -53 -17q-18 -18 -18 -54v-69h225v50q0 78 35 118q35 38 107 38q22 0 44 -2q18 -3 34 -10v-67q-11 4 -35 10q-18 3 -37 3q-36 0 -53 -17q-18 -18 -18 -54
v-69h143v-66h-143v-434h-77v434h-225v-434h-77v434zM711 0v693h77v-304l71 71q53 53 117 53q56 0 91 -36q34 -35 34 -96v-381h-77v373q0 31 -17 51t-43 20q-19 0 -36 -7t-33 -23l-107 -99v-315h-77z" />
    <glyph glyph-name="uniE0A7" unicode="fk" horiz-adv-x="841" 
d="M409 0v693h77v-452h2l223 259h89l-168 -188l206 -312h-93l-161 259l-98 -108v-151h-77zM113 434h-93v66h93v50q0 78 35 118q35 38 107 38q22 0 44 -2q18 -3 34 -10v-67q-11 4 -35 10q-18 3 -37 3q-36 0 -53 -17q-18 -18 -18 -54v-69h143v-66h-143v-434h-77v434z" />
    <glyph glyph-name="uniE0A8" unicode="ffk" horiz-adv-x="1143" 
d="M113 434h-93v66h93v50q0 78 35 118q35 38 107 38q22 0 44 -2q18 -3 34 -10v-67q-11 4 -35 10q-18 3 -37 3q-36 0 -53 -17q-18 -18 -18 -54v-69h225v50q0 78 35 118q35 38 107 38q22 0 44 -2q18 -3 34 -10v-67q-11 4 -35 10q-18 3 -37 3q-36 0 -53 -17q-18 -18 -18 -54
v-69h143v-66h-143v-434h-77v434h-225v-434h-77v434zM711 0v693h77v-452h2l223 259h89l-168 -188l206 -312h-93l-161 259l-98 -108v-151h-77z" />
    <glyph glyph-name="uniE0A9" unicode="fj" horiz-adv-x="562" 
d="M333 434h-143v-434h-77v434h-93v66h93v50q0 156 142 156q46 0 78 -12v-67q-37 13 -72 13q-71 0 -71 -71v-69h143v-66zM333 -182v65q48 0 60 11q16 16 16 60v546h77v-551q0 -71 -32 -101t-121 -30zM407 693h81v-94h-81v94z" />
    <glyph glyph-name="uniE0AA" unicode="ffj" horiz-adv-x="864" 
d="M635 434h-143v-434h-77v434h-225v-434h-77v434h-93v66h93v50q0 156 142 156q46 0 78 -12v-67q-37 13 -72 13q-71 0 -71 -71v-69h225v50q0 156 142 156q46 0 78 -12v-67q-37 13 -72 13q-71 0 -71 -71v-69h143v-66zM635 -182v65q48 0 60 11q16 16 16 60v546h77v-551
q0 -71 -32 -101t-121 -30zM709 693h81v-94h-81v94z" />
    <glyph glyph-name="f_f" unicode="ff" horiz-adv-x="635" 
d="M635 434h-143v-434h-77v434h-225v-434h-77v434h-93v66h93v50q0 156 142 156q46 0 78 -12v-67q-37 13 -72 13q-71 0 -71 -71v-69h225v50q0 156 142 156q46 0 78 -12v-67q-37 13 -72 13q-71 0 -71 -71v-69h143v-66z" />
    <glyph glyph-name="fi" unicode="fi" horiz-adv-x="574" 
d="M333 434h-143v-434h-77v434h-93v66h93v50q0 156 142 156q46 0 78 -12v-67q-37 13 -72 13q-71 0 -71 -71v-69h143v-66zM413 693h81v-94h-81v94zM415 500h77v-500h-77v500z" />
    <glyph glyph-name="fl" unicode="fl" horiz-adv-x="574" 
d="M333 434h-143v-434h-77v434h-93v66h93v50q0 156 142 156q46 0 78 -12v-67q-37 13 -72 13q-71 0 -71 -71v-69h143v-66zM415 693h77v-693h-77v693z" />
    <glyph glyph-name="f_f_i" unicode="ffi" horiz-adv-x="876" 
d="M635 434h-143v-434h-77v434h-225v-434h-77v434h-93v66h93v50q0 156 142 156q46 0 78 -12v-67q-37 13 -72 13q-71 0 -71 -71v-69h225v50q0 156 142 156q46 0 78 -12v-67q-37 13 -72 13q-71 0 -71 -71v-69h143v-66zM717 500h77v-500h-77v500zM715 693h81v-94h-81v94z" />
    <glyph glyph-name="f_f_l" unicode="ffl" horiz-adv-x="876" 
d="M635 434h-143v-434h-77v434h-225v-434h-77v434h-93v66h93v50q0 156 142 156q46 0 78 -12v-67q-37 13 -72 13q-71 0 -71 -71v-69h225v50q0 156 142 156q46 0 78 -12v-67q-37 13 -72 13q-71 0 -71 -71v-69h143v-66zM717 693h77v-693h-77v693z" />
    <glyph glyph-name=".notdef" horiz-adv-x="672" 
d="M241 650h-116v-352h47v143h69q61 0 94.5 28.5t33.5 79.5q0 101 -128 101zM321 545q0 -64 -87 -64h-62v130h62q45 0 66 -15.5t21 -50.5zM509 294q25 0 41 6v38q-24 -8 -38 -8q-34 0 -34 34v152h72v38h-72v70h-42v-70h-47v-38h47v-148q0 -39 17 -56.5t56 -17.5zM60 693h552
v-693h-552v693z" />
    <glyph glyph-name="uni0000" horiz-adv-x="0" 
 />
    <glyph glyph-name="uni0000" horiz-adv-x="0" 
 />
    <glyph glyph-name="uni000D" unicode="&#xd;" horiz-adv-x="0" 
 />
    <glyph glyph-name="space" unicode=" " horiz-adv-x="220" 
 />
    <glyph glyph-name="exclam" unicode="!" horiz-adv-x="227" 
d="M64 693h100l-27 -512h-46zM65 97h97v-97h-97v97z" />
    <glyph glyph-name="quotedbl" unicode="&#x22;" horiz-adv-x="424" 
d="M262 693h72v-222h-72v222zM88 693h72v-222h-72v222z" />
    <glyph glyph-name="numbersign" unicode="#" horiz-adv-x="528" 
d="M480 210h-80v-210h-71v210h-130v-210h-71v210h-81v71h81v130h-81v71h81v211h71v-211h130v211h71v-211h80v-71h-80v-130h80v-71zM199 411v-130h130v130h-130z" />
    <glyph glyph-name="dollar" unicode="$" 
d="M311 -12v-95h-71v97q-76 10 -127.5 56t-86.5 136l84 23q37 -118 130 -144v258q-110 30 -151 72q-41 43 -41 110q0 81 51.5 132.5t140.5 58.5v90h71v-93q137 -19 189 -179l-80 -13q-29 96 -109 121v-240q99 -26 143 -58q63 -47 63 -136q0 -85 -55.5 -137.5t-150.5 -58.5z
M438 177q0 45 -29 73t-98 49v-244q58 5 92.5 38t34.5 84zM128 514q0 -42 26 -69.5t86 -46.5v227q-51 -6 -81.5 -36t-30.5 -75z" />
    <glyph glyph-name="percent" unicode="%" horiz-adv-x="854" 
d="M812 165q0 -74 -49 -124q-49 -51 -121 -51t-122 51q-50 52 -50 124q0 71 50 123q50 51 122 51t121 -51q49 -50 49 -123zM593 717h75l-397 -730h-74zM383 512q0 -73 -50 -123q-49 -51 -121 -51q-70 0 -120 51q-50 50 -50 123q0 72 50 124q50 50 120 50q71 0 121 -50
q50 -52 50 -124zM542 165q0 -48 28 -79t72 -31q43 0 71 31.5t28 78.5t-28 78t-71 31q-44 0 -72 -31t-28 -78zM112 512q0 -47 28.5 -78.5t71.5 -31.5t71.5 31.5t28.5 78.5t-28.5 78.5t-71.5 31.5t-71.5 -31.5t-28.5 -78.5z" />
    <glyph glyph-name="ampersand" unicode="&#x26;" horiz-adv-x="637" 
d="M603 350l-114 -185l128 -165h-100l-74 95q-81 -108 -195 -108q-87 0 -145 53q-58 52 -58 138q0 146 168 213q-65 88 -65 160q0 68 50 112q49 43 129 43q75 0 119.5 -40.5t44.5 -106.5q0 -117 -160 -189l111 -144l72 124h89zM252 59q77 0 145 95l-145 187
q-121 -58 -121 -156q0 -56 35 -91t86 -35zM236 547q0 -28 11.5 -54.5t43.5 -69.5l2 -3q112 49 112 132q0 36 -23 59t-59 23q-38 0 -62.5 -24t-24.5 -63z" />
    <glyph glyph-name="quotesingle" unicode="'" horiz-adv-x="250" 
d="M88 693h72v-222h-72v222z" />
    <glyph glyph-name="parenleft" unicode="(" horiz-adv-x="300" 
d="M141 251q0 -99 36 -223q36 -126 88 -210h-78q-48 72 -88 203q-40 126 -40 230q0 102 42 234q41 131 92 208h72q-51 -83 -87 -212q-37 -129 -37 -230z" />
    <glyph glyph-name="parenright" unicode=")" horiz-adv-x="300" 
d="M241 251q0 -103 -39 -230q-42 -133 -89 -203h-78q52 84 88 210q36 124 36 223t-36 230q-37 130 -88 212h72q50 -76 93 -208q41 -134 41 -234z" />
    <glyph glyph-name="asterisk" unicode="*" horiz-adv-x="391" 
d="M359 549l-131 -27l91 -99l-54 -42l-69 117l-67 -118l-54 41l90 101l-132 26l21 66l123 -56l-15 135h69l-15 -135l123 56z" />
    <glyph glyph-name="plus" unicode="+" 
d="M496 255h-180v-201h-73v201h-179v71h179v200h73v-200h180v-71z" />
    <glyph glyph-name="comma" unicode="," horiz-adv-x="250" 
d="M174 97v-88l-47 -135h-53l42 126h-40v97h98z" />
    <glyph glyph-name="hyphen" unicode="-" horiz-adv-x="285" 
d="M27 325h231v-72h-231v72z" />
    <glyph glyph-name="period" unicode="." horiz-adv-x="250" 
d="M76 97h98v-97h-98v97z" />
    <glyph glyph-name="slash" unicode="/" horiz-adv-x="454" 
d="M379 706h76l-379 -719h-76z" />
    <glyph glyph-name="zero" unicode="0" 
d="M123 339q0 -133 42.5 -208t114.5 -75t114.5 75t42.5 208q0 136 -43 210q-44 75 -114 75t-113 -75q-44 -76 -44 -210zM519 339q0 -157 -65 -255q-64 -97 -174 -97t-174 97q-65 98 -65 255q0 158 65 256t174 98t174 -98t65 -256z" />
    <glyph glyph-name="one" unicode="1" 
d="M375 66h149v-66h-410v66h184v524q-17 -41 -73 -96q-58 -56 -104 -77l-28 71q55 24 117 84q62 58 84 111h81v-617z" />
    <glyph glyph-name="two" unicode="2" 
d="M158 70h337v-70h-449q12 87 78 164q21 24 50 50q26 24 89 69q99 73 127 113q29 41 29 86q0 56 -39 100q-39 42 -95 42q-68 0 -107 -47.5t-52 -147.5l-74 22q9 111 73 176q63 66 163 66q90 0 152 -59q61 -60 61 -148q0 -81 -63 -150q-15 -17 -44 -43q-33 -28 -83 -64
q-81 -60 -112 -93q-31 -34 -41 -66z" />
    <glyph glyph-name="three" unicode="3" 
d="M424 210q0 67 -43 108t-113 41h-85v62l189 192h-308v70h402v-73l-183 -184h8q95 0 157 -59t62 -153q0 -103 -68 -165q-70 -62 -181 -62q-84 0 -146 51q-62 50 -79 131l84 12q25 -124 152 -124q74 0 113 39t39 114z" />
    <glyph glyph-name="four" unicode="4" 
d="M531 151h-86v-151h-77v151h-321v90l287 442h111v-464h86v-68zM366 618l-254 -399h256v399h-2z" />
    <glyph glyph-name="five" unicode="5" 
d="M270 -13q-84 0 -146 51q-62 50 -79 131l84 12q25 -124 152 -124q150 0 150 153q0 66 -43 108q-44 41 -114 41q-79 0 -122 -46h-71l53 370h350v-70h-289l-31 -225q22 16 58.5 27t69.5 11q96 0 161 -59q64 -60 64 -153q0 -103 -68 -165t-179 -62z" />
    <glyph glyph-name="six" unicode="6" 
d="M298 693q82 0 138 -49t73 -133l-84 -12q-24 124 -130 124q-78 0 -118.5 -74t-40.5 -215q33 40 80 63.5t97 23.5q84 0 143 -59t59 -149q0 -97 -64 -161q-65 -66 -158 -66q-112 0 -176 100t-64 253t65 254q64 100 180 100zM301 356q-89 0 -160 -106q16 -91 57 -143t98 -52
q56 0 97 42q39 42 39 110q0 66 -36 107.5t-95 41.5z" />
    <glyph glyph-name="seven" unicode="7" 
d="M338 324q-63 -145 -75 -324h-93q5 116 41 222q30 94 96 203q20 32 70 107q43 64 54 81h-372v70h446v-70q-22 -35 -66 -104q-64 -99 -101 -185z" />
    <glyph glyph-name="eight" unicode="8" 
d="M498 514q0 -44 -29 -85.5t-75 -63.5v-2q57 -25 89.5 -71.5t32.5 -103.5q0 -90 -67 -145q-68 -56 -169 -56t-169 56t-68 145q0 116 120 173v1q-43 20 -71 63q-30 42 -30 89q0 75 64 127t154 52t154 -52t64 -127zM280 56q62 0 109 38q46 37 46 93q0 63 -44 102
q-45 39 -111 39t-110 -39q-45 -39 -45 -102q0 -56 46 -93q47 -38 109 -38zM280 394q56 0 96 34t40 82q0 49 -39 82q-40 32 -97 32t-97 -32q-39 -33 -39 -82q0 -48 40 -82t96 -34z" />
    <glyph glyph-name="nine" unicode="9" 
d="M253 -13q-83 0 -144 51t-78 131l84 12q25 -124 149 -124q77 0 118.5 76t41.5 213q-33 -39 -79 -62q-49 -25 -95 -25q-87 0 -146 59t-59 151q0 94 65 159t158 65q112 0 176 -100q63 -100 63 -257q0 -153 -67 -250q-68 -99 -187 -99zM260 324q87 0 159 106q-13 82 -55 140
q-40 54 -96 54q-59 0 -100 -41q-40 -41 -40 -105q0 -72 35 -113t97 -41z" />
    <glyph glyph-name="colon" unicode=":" horiz-adv-x="250" 
d="M76 501h98v-97h-98v97zM76 97h98v-97h-98v97z" />
    <glyph glyph-name="semicolon" unicode=";" horiz-adv-x="250" 
d="M76 500h98v-97h-98v97zM174 97v-88l-47 -135h-53l42 126h-40v97h98z" />
    <glyph glyph-name="less" unicode="&#x3c;" 
d="M138 290l358 -163v-80l-432 207v73l432 207v-80z" />
    <glyph glyph-name="equal" unicode="=" 
d="M64 416h432v-71h-432v71zM64 236h432v-71h-432v71z" />
    <glyph glyph-name="greater" unicode="&#x3e;" 
d="M64 534l432 -207v-73l-432 -207v80l358 163l-358 164v80z" />
    <glyph glyph-name="question" unicode="?" horiz-adv-x="454" 
d="M335 356q-50 -60 -65 -96q-16 -36 -16 -79h-72q0 59 18 105q17 47 71 112q40 47 52 76q12 27 12 57q0 49 -29.5 78t-78.5 29q-48 0 -85.5 -38.5t-58.5 -108.5l-74 27q27 89 85.5 138.5t137.5 49.5q83 0 135 -47q50 -48 50 -127q0 -42 -15 -79q-17 -38 -67 -97zM169 97h98
v-97h-98v97z" />
    <glyph glyph-name="at" unicode="@" horiz-adv-x="763" 
d="M389 -48q77 0 145 37l29 -45q-93 -47 -181 -47q-145 0 -243 101q-97 100 -97 253q0 156 100 260q100 105 246 105q143 0 242 -101q98 -103 98 -246q0 -97 -43 -158q-44 -62 -113 -62q-67 0 -84 54q-41 -61 -121 -61q-73 0 -115 56.5t-42 158.5q0 99 45 156t118 57
q61 0 102 -47v39h68v-268q0 -49 10 -70t33 -21q37 0 58 42.5t21 114.5q0 131 -76 216t-195 85q-122 0 -201 -87q-80 -89 -80 -217q0 -129 79 -217t197 -88zM381 104q44 0 68 28.5t24 80.5v84q0 53 -23.5 81.5t-66.5 28.5q-49 0 -75 -37.5t-26 -109.5q0 -156 99 -156z" />
    <glyph glyph-name="A" unicode="A" horiz-adv-x="633" 
d="M271 693h93l267 -693h-89l-80 213h-292l-78 -213h-90zM315 604l-119 -322h241l-120 322h-2z" />
    <glyph glyph-name="B" unicode="B" horiz-adv-x="606" 
d="M570 201q0 -91 -66 -146q-65 -55 -173 -55h-249v693h241q103 0 156.5 -46.5t53.5 -134.5q0 -51 -28.5 -88t-79.5 -52v-1q68 -17 106.5 -62t38.5 -108zM323 623h-155v-228h146q54 0 95 35q40 34 40 82q0 111 -126 111zM335 327h-167v-257h167q70 0 110.5 34t40.5 93
q0 58 -42 94q-44 36 -109 36z" />
    <glyph glyph-name="C" unicode="C" horiz-adv-x="661" 
d="M343 60q140 0 187 169l87 -12q-29 -110 -100 -170t-174 -60q-131 0 -211 101t-80 260q0 157 80 258q79 100 212 100q100 0 169 -55.5t100 -159.5l-88 -16q-49 159 -182 159q-94 0 -149 -81q-56 -82 -56 -205t56 -206q55 -82 149 -82z" />
    <glyph glyph-name="D" unicode="D" horiz-adv-x="667" 
d="M615 346q0 -156 -85 -250q-86 -96 -228 -96h-220v693h220q144 0 229 -94q84 -95 84 -253zM301 623h-133v-553h133q105 0 166 73t61 203q0 127 -62 203q-62 74 -165 74z" />
    <glyph glyph-name="E" unicode="E" horiz-adv-x="546" 
d="M168 70h348v-70h-434v693h424v-70h-338v-227h278v-70h-278v-256z" />
    <glyph glyph-name="F" unicode="F" horiz-adv-x="532" 
d="M466 326h-298v-326h-86v693h434v-70h-348v-227h298v-70z" />
    <glyph glyph-name="G" unicode="G" horiz-adv-x="677" 
d="M354 283v70h275v-15q0 -157 -77 -254q-78 -97 -209 -97t-211 101t-80 260q0 157 80 258q79 100 211 100q100 0 169.5 -55.5t100.5 -159.5l-88 -16q-49 159 -182 159q-94 0 -149 -81q-56 -82 -56 -205t56 -206q55 -82 149 -82q81 0 133.5 60t64.5 163h-187z" />
    <glyph glyph-name="H" unicode="H" horiz-adv-x="653" 
d="M485 693h86v-693h-86v326h-317v-326h-86v693h86v-298h317v298z" />
    <glyph glyph-name="I" unicode="I" horiz-adv-x="266" 
d="M90 693h86v-693h-86v693z" />
    <glyph glyph-name="J" unicode="J" horiz-adv-x="494" 
d="M220 60q56 0 82.5 33.5t26.5 105.5v494h85v-500q0 -96 -51.5 -151t-142.5 -55t-142.5 54t-51.5 150v36l85 14v-44q0 -72 26 -104.5t83 -32.5z" />
    <glyph glyph-name="K" unicode="K" horiz-adv-x="590" 
d="M82 693h86v-373h2l308 373h100l-227 -268l247 -425h-100l-202 360l-128 -151v-209h-86v693z" />
    <glyph glyph-name="L" unicode="L" horiz-adv-x="481" 
d="M168 70h304v-70h-390v693h86v-623z" />
    <glyph glyph-name="M" unicode="M" horiz-adv-x="768" 
d="M555 693h131v-693h-80v611h-3l-184 -411h-73l-183 411h-2v-611h-79v693h132l170 -394h2z" />
    <glyph glyph-name="N" unicode="N" horiz-adv-x="668" 
d="M507 693h79v-693h-105l-319 581h-2v-581h-78v693h105l316 -564h4v564z" />
    <glyph glyph-name="O" unicode="O" horiz-adv-x="694" 
d="M138 348q0 -123 58 -205q59 -83 151 -83t151 83q58 82 58 205q0 122 -57 205q-59 81 -152 81q-94 0 -151 -81q-58 -82 -58 -205zM642 348q0 -158 -81 -259q-82 -102 -214 -102t-213 102q-82 100 -82 259q0 158 82 258q81 100 213 100t214 -100q81 -100 81 -258z" />
    <glyph glyph-name="P" unicode="P" horiz-adv-x="604" 
d="M307 285h-139v-285h-86v693h225q129 0 191 -48.5t62 -149.5q0 -100 -65.5 -155t-187.5 -55zM294 623h-126v-267h126q179 0 179 131q0 72 -43 104t-136 32z" />
    <glyph glyph-name="Q" unicode="Q" horiz-adv-x="694" 
d="M427 -2q-39 -11 -80 -11q-132 0 -213 102q-82 100 -82 259q0 158 82 258q81 100 213 100t214 -100q81 -100 81 -258q0 -107 -40.5 -192.5t-111.5 -129.5q18 -54 102 -54h45v-81q-91 0 -130 13q-64 22 -80 94zM138 348q0 -123 58 -205q59 -83 151 -83t151 83q58 82 58 205
q0 122 -57 205q-59 81 -152 81q-94 0 -151 -81q-58 -82 -58 -205z" />
    <glyph glyph-name="R" unicode="R" horiz-adv-x="616" 
d="M411 323l179 -323h-102l-166 310h-154v-310h-86v693h256q101 0 157.5 -49t56.5 -134q0 -70 -37 -119.5t-104 -67.5zM324 623h-156v-245h151q145 0 145 129q0 60 -34 88t-106 28z" />
    <glyph glyph-name="S" unicode="S" horiz-adv-x="565" 
d="M278 706q181 0 241 -187l-85 -13q-18 60 -61 94t-102 34q-60 0 -98 -31t-38 -82q0 -61 62 -94q17 -9 40 -17q21 -7 74 -21q70 -17 100 -30q34 -14 54 -28q71 -49 71 -142q0 -91 -63 -147q-64 -55 -172 -55q-197 0 -274 199l92 23q22 -71 71 -110t118 -39q66 0 106 34
t40 88q0 65 -64 98q-16 10 -41 18q-40 12 -77 22q-61 15 -97 29q-28 9 -53 26q-70 45 -70 134q0 87 63 142q61 55 163 55z" />
    <glyph glyph-name="T" unicode="T" horiz-adv-x="540" 
d="M520 623h-207v-623h-86v623h-207v70h500v-70z" />
    <glyph glyph-name="U" unicode="U" horiz-adv-x="638" 
d="M319 60q70 0 111.5 42t41.5 113v478h86v-484q0 -99 -67 -160q-68 -62 -172 -62q-103 0 -171 62t-68 160v484h86v-478q0 -71 41.5 -113t111.5 -42z" />
    <glyph glyph-name="V" unicode="V" horiz-adv-x="613" 
d="M522 693h89l-259 -693h-93l-257 693h90l215 -604h2z" />
    <glyph glyph-name="W" unicode="W" horiz-adv-x="872" 
d="M780 693h87l-182 -693h-110l-140 559h-6l-141 -559h-100l-182 693h87l148 -608h2l151 608h84l151 -608h2z" />
    <glyph glyph-name="X" unicode="X" horiz-adv-x="603" 
d="M584 693l-236 -336l257 -357h-100l-210 292l-204 -292h-93l251 355l-242 338h100l195 -273l189 273h93z" />
    <glyph glyph-name="Y" unicode="Y" horiz-adv-x="546" 
d="M544 693l-228 -398v-295h-86v295l-228 398h97l177 -317l175 317h93z" />
    <glyph glyph-name="Z" unicode="Z" horiz-adv-x="524" 
d="M494 0h-464v78l357 545h-347v70h446v-70l-359 -553h367v-70z" />
    <glyph glyph-name="bracketleft" unicode="[" horiz-adv-x="303" 
d="M161 -120h122v-62h-198v875h198v-62h-122v-751z" />
    <glyph glyph-name="backslash" unicode="\" horiz-adv-x="454" 
d="M0 706h76l379 -719h-76z" />
    <glyph glyph-name="bracketright" unicode="]" horiz-adv-x="303" 
d="M20 693h198v-875h-198v62h122v751h-122v62z" />
    <glyph glyph-name="asciicircum" unicode="^" horiz-adv-x="284" 
d="M94 693h96l85 -209h-64l-69 161l-69 -161h-64z" />
    <glyph glyph-name="underscore" unicode="_" horiz-adv-x="382" 
d="M0 -60h382v-69h-382v69z" />
    <glyph glyph-name="grave" unicode="`" horiz-adv-x="249" 
d="M0 693h94l73 -118h-69z" />
    <glyph glyph-name="a" unicode="a" horiz-adv-x="528" 
d="M452 351v-351h-74v69h-4q-53 -82 -165 -82q-156 0 -156 144q0 71 45 109q44 38 171 54q75 11 91 20q18 10 18 32v4q0 100 -108 100q-49 0 -78.5 -21.5t-46.5 -72.5l-80 10q32 79 82 113t126 34q86 0 132.5 -43t46.5 -119zM224 50q66 0 110 39q42 39 42 101v73
q-24 -17 -94 -28q-57 -10 -70 -13q-18 -5 -29 -9q-52 -23 -52 -80q0 -83 93 -83z" />
    <glyph glyph-name="b" unicode="b" horiz-adv-x="567" 
d="M149 82h-1l-27 -82h-45v693h77v-269h1q59 89 157 89q85 0 145 -77q60 -76 60 -187q0 -109 -62 -186q-61 -76 -153 -76q-97 0 -152 95zM152 249q0 -88 38.5 -138t107.5 -50q64 0 100.5 50.5t36.5 137.5q0 85 -38 138t-102 53q-66 0 -104.5 -52t-38.5 -139z" />
    <glyph glyph-name="c" unicode="c" horiz-adv-x="503" 
d="M264 53q46 0 74 26t45 84l78 -13q-27 -84 -75 -123.5t-124 -39.5q-96 0 -153 71q-58 70 -58 192q0 121 58 192q59 71 153 71q139 0 194 -152l-77 -17q-41 103 -117 103q-61 0 -98 -55q-38 -56 -38 -142t40 -141q41 -56 98 -56z" />
    <glyph glyph-name="d" unicode="d" horiz-adv-x="567" 
d="M416 693h77v-693h-74v88h-1q-24 -47 -66 -74t-92 -27q-91 0 -150 74q-58 73 -58 188q0 116 61 190q62 74 153 74q49 0 90 -28t59 -73h1v281zM130 249q0 -93 37.5 -144.5t105.5 -51.5t106 52.5t38 143.5q0 85 -39 141q-40 55 -105 55q-67 0 -105 -52.5t-38 -143.5z" />
    <glyph glyph-name="e" unicode="e" horiz-adv-x="536" 
d="M274 53q51 0 83 25t54 82l73 -17q-27 -74 -82 -115t-128 -41q-104 0 -163 71q-60 70 -60 192q0 110 63 186q63 77 154 77q96 0 158 -74q60 -75 60 -189v-14h-358q0 -78 42 -131q40 -52 104 -52zM268 447q-56 0 -95 -45t-42 -109h276q-6 71 -43.5 112.5t-95.5 41.5z" />
    <glyph glyph-name="f" unicode="f" horiz-adv-x="333" 
d="M333 434h-143v-434h-77v434h-93v66h93v50q0 156 142 156q46 0 78 -12v-67q-37 13 -72 13q-71 0 -71 -71v-69h143v-66z" />
    <glyph glyph-name="g" unicode="g" horiz-adv-x="478" 
d="M123 152q0 -31 46 -37l140 -16q155 -18 155 -130q0 -74 -65 -118q-65 -42 -168 -42q-96 0 -152.5 37.5t-56.5 105.5q0 75 75 116v1q-41 20 -41 70q0 26 14.5 49t39.5 35q-51 49 -51 120q0 72 52 121t126 49q48 0 102 -29q25 46 56 61q31 14 83 14v-72q-89 0 -101 -37
q38 -49 38 -109q0 -71 -51 -117q-52 -47 -128 -47q-44 0 -84 18q-29 -19 -29 -43zM390 -35q0 29 -18 45t-59 21l-148 17q-30 -4 -51 -30t-21 -59q0 -43 38.5 -67.5t104.5 -24.5q71 0 112.5 25.5t41.5 72.5zM236 238q47 0 76.5 29t29.5 75t-29 76t-75 30q-47 0 -76.5 -30
t-29.5 -77q0 -46 28.5 -74.5t75.5 -28.5z" />
    <glyph glyph-name="h" unicode="h" horiz-adv-x="542" 
d="M76 0v693h77v-304l71 71q53 53 117 53q57 0 91 -36q34 -35 34 -96v-381h-77v373q0 31 -17 51t-43 20q-19 0 -36 -7t-33 -23l-107 -99v-315h-77z" />
    <glyph glyph-name="i" unicode="i" horiz-adv-x="241" 
d="M80 693h81v-94h-81v94zM82 500h77v-500h-77v500z" />
    <glyph glyph-name="j" unicode="j" horiz-adv-x="229" 
d="M0 -182v65q48 0 60 11q16 16 16 60v546h77v-551q0 -71 -32 -101q-31 -30 -121 -30zM74 693h81v-94h-81v94z" />
    <glyph glyph-name="k" unicode="k" horiz-adv-x="508" 
d="M153 0h-77v693h77v-452h2l223 259h89l-168 -188l206 -312h-93l-161 259l-98 -108v-151z" />
    <glyph glyph-name="l" unicode="l" horiz-adv-x="241" 
d="M82 693h77v-693h-77v693z" />
    <glyph glyph-name="m" unicode="m" horiz-adv-x="839" 
d="M763 381v-381h-76v373q0 27 -19 49t-45 22q-31 0 -66 -35l-99 -94v-315h-77v373q0 28 -19 49.5t-45 21.5q-31 0 -65 -32l-99 -97v-315h-77v500h74v-106l66 64q59 55 116 55q51 0 86.5 -32.5t40.5 -83.5l62 61q55 55 116 55q55 0 91 -38q35 -38 35 -94z" />
    <glyph glyph-name="n" unicode="n" horiz-adv-x="542" 
d="M466 381v-381h-77v373q0 31 -17 51t-43 20q-39 0 -69 -30l-107 -99v-315h-77v500h76v-112l74 74q51 51 115 51q56 0 90.5 -36t34.5 -96z" />
    <glyph glyph-name="o" unicode="o" horiz-adv-x="568" 
d="M516 250q0 -114 -65 -188q-65 -75 -168 -75t-167 75q-65 74 -65 188q0 113 65 189q65 74 167 74q103 0 168 -74q65 -76 65 -189zM126 250q0 -85 44 -141t113 -56q70 0 114 56q43 55 43 141t-43 141q-44 56 -114 56q-69 0 -113 -56t-44 -141z" />
    <glyph glyph-name="p" unicode="p" horiz-adv-x="566" 
d="M154 77h-1v-259h-77v682h75v-91h1q50 104 156 104q91 0 150 -74q58 -74 58 -186t-62 -189q-63 -77 -157 -77q-46 0 -80 21t-63 69zM152 249q0 -88 37.5 -140.5t102.5 -52.5t103.5 53t38.5 141t-37.5 141t-102.5 53q-67 0 -104 -54q-38 -55 -38 -141z" />
    <glyph glyph-name="q" unicode="q" horiz-adv-x="567" 
d="M438 500h53v-682h-77v265h-3q-58 -96 -153 -96q-92 0 -150 75q-58 73 -58 187q0 113 62 189q62 75 155 75q48 0 88.5 -27.5t61.5 -73.5h2zM130 249q0 -85 39 -141q37 -55 102 -55q68 0 106 52.5t38 143.5q0 85 -39 141q-40 55 -105 55t-102 -55q-39 -56 -39 -141z" />
    <glyph glyph-name="r" unicode="r" horiz-adv-x="351" 
d="M228 387l-75 -73v-314h-77v500h74v-116l66 66q43 43 65 54q20 9 52 9v-80q-33 0 -56 -10t-49 -36z" />
    <glyph glyph-name="s" unicode="s" horiz-adv-x="492" 
d="M240 513q150 0 197 -124l-72 -23q-29 81 -128 81q-50 0 -79.5 -18t-29.5 -49t25 -50t110 -37q58 -13 82 -21q23 -8 45 -20q60 -36 60 -110q0 -70 -55 -112q-55 -43 -146 -43q-176 0 -212 153l74 16q15 -54 47.5 -78.5t90.5 -24.5q56 0 90 22t34 59q0 33 -25 54
q-27 21 -112 37q-45 10 -79 20q-21 6 -43 19q-58 35 -58 106q0 66 50 104.5t134 38.5z" />
    <glyph glyph-name="t" unicode="t" horiz-adv-x="353" 
d="M261 56q35 0 72 13v-66q-35 -12 -78 -12q-75 0 -108.5 34.5t-33.5 109.5v299h-93v66h93v141h77v-141h143v-66h-143v-307q0 -71 71 -71z" />
    <glyph glyph-name="u" unicode="u" horiz-adv-x="531" 
d="M381 500h77v-500h-74v105l-67 -65q-54 -53 -118 -53q-54 0 -88 37q-35 38 -35 93v383h77v-374q0 -27 17.5 -49t40.5 -22q36 0 69 31l101 98v316z" />
    <glyph glyph-name="v" unicode="v" horiz-adv-x="456" 
d="M367 500h85l-186 -500h-76l-186 500h86l139 -400h2z" />
    <glyph glyph-name="w" unicode="w" horiz-adv-x="717" 
d="M618 500h89l-152 -500h-78l-118 404h-2l-116 -404h-78l-153 500h89l104 -391h2l110 391h87l113 -391h2z" />
    <glyph glyph-name="x" unicode="x" horiz-adv-x="447" 
d="M436 500l-170 -247l173 -253h-91l-125 189l-127 -189h-87l171 252l-169 248h87l126 -184l124 184h88z" />
    <glyph glyph-name="y" unicode="y" horiz-adv-x="470" 
d="M52 -191h-27v73h27q44 0 72 21.5t51 77.5l5 12q9 23 9 39q0 18 -13 48l-165 420h85l139 -371h3l138 371h84l-207 -522q-40 -101 -81 -136q-40 -33 -120 -33z" />
    <glyph glyph-name="z" unicode="z" horiz-adv-x="425" 
d="M112 66h283v-66h-365v73l273 361h-261v66h348v-67z" />
    <glyph glyph-name="braceleft" unicode="{" horiz-adv-x="303" 
d="M261 -120h23v-62h-32q-78 0 -110 34t-32 114v165q0 102 -72 102h-11v66h11q72 0 72 102v144q0 80 32 114t110 34h32v-62h-23q-75 0 -75 -86v-163q0 -40 -21.5 -72t-54.5 -40v-2q33 -7 54.5 -41t21.5 -78v-183q0 -86 75 -86z" />
    <glyph glyph-name="bar" unicode="|" horiz-adv-x="239" 
d="M84 706h71v-889h-71v889z" />
    <glyph glyph-name="braceright" unicode="}" horiz-adv-x="303" 
d="M51 -182h-32v62h23q75 0 75 86v183q0 44 21.5 78t54.5 41v2q-33 8 -54.5 40t-21.5 72v163q0 86 -75 86h-23v62h32q78 0 110 -34t32 -114v-144q0 -102 72 -102h11v-66h-11q-72 0 -72 -102v-165q0 -80 -32 -114t-110 -34z" />
    <glyph glyph-name="asciitilde" unicode="~" 
d="M378 289q24 0 39.5 17.5t15.5 44.5h63q-2 -56 -35 -91q-34 -37 -84 -37q-46 0 -122 46q-49 30 -68 30q-20 0 -37 -20t-20 -47h-67q1 52 39 91q38 38 89 38q39 0 110 -41q55 -31 77 -31z" />
    <glyph glyph-name="uni00A0" unicode="&#xa0;" horiz-adv-x="220" 
 />
    <glyph glyph-name="exclamdown" unicode="&#xa1;" horiz-adv-x="227" 
d="M162 403h-97v97h97v-97zM164 -193h-100l27 512h46z" />
    <glyph glyph-name="cent" unicode="&#xa2;" 
d="M284 80h-17l-14 -80h-69l16 96q-64 27 -100.5 92t-36.5 155q0 116 62 190q61 73 159 73h5l15 86h69l-17 -98q93 -33 132 -140l-77 -17q-24 60 -67 86l-66 -377h8q97 0 129 110l78 -13q-53 -163 -209 -163zM138 343q0 -116 75 -172l64 369q-61 -5 -99 -59
q-40 -55 -40 -138z" />
    <glyph glyph-name="sterling" unicode="&#xa3;" 
d="M164 66h351v-66h-463v66h5q81 0 100 143l17 118h-111v66h121l21 144q23 156 165 156q114 0 162 -117l-68 -31q-19 44 -41 63t-55 19q-37 0 -57.5 -23t-28.5 -73l-21 -138h194v-66h-203l-18 -120q-7 -47 -26 -85.5t-44 -55.5z" />
    <glyph glyph-name="currency" unicode="&#xa4;" 
d="M440 249l46 -45l-50 -50l-46 46q-49 -34 -110 -34q-64 0 -110 34l-46 -46l-50 50l45 45q-34 47 -34 112q0 61 34 110l-45 45l50 50l44 -45q50 35 112 35t111 -35l45 45l50 -50l-45 -45q34 -52 34 -110q0 -62 -35 -112zM280 236q52 0 89 37q36 36 36 88q0 51 -36 89
q-37 36 -89 36t-88 -36q-37 -37 -37 -89t37 -88q36 -37 88 -37z" />
    <glyph glyph-name="yen" unicode="&#xa5;" 
d="M326 216h170v-71h-170v-145h-82v145h-180v71h180v79h-180v71h154l-189 327h92l164 -293l157 293h89l-182 -327h147v-71h-170v-79z" />
    <glyph glyph-name="brokenbar" unicode="&#xa6;" horiz-adv-x="239" 
d="M84 706h71v-338h-71v338zM84 190h71v-372h-71v372z" />
    <glyph glyph-name="section" unicode="&#xa7;" horiz-adv-x="528" 
d="M379 31q0 31 -21 52q-24 21 -88 41l-113 37q-116 37 -116 133q0 85 86 133q-55 44 -55 107q0 70 54 115q55 44 138 44q72 0 119 -33.5t60 -95.5l-71 -21q-8 39 -38.5 60.5t-78.5 21.5q-51 0 -80.5 -22t-29.5 -60q0 -59 79 -83l127 -39q136 -43 136 -144q0 -84 -81 -134
q50 -49 50 -106q0 -74 -55 -119t-143 -45q-78 0 -128 37t-62 106l73 21q6 -46 37.5 -71.5t83.5 -25.5q53 0 85 25t32 66zM219 211l126 -40h2q28 12 45.5 39.5t17.5 58.5q0 34 -24.5 56.5t-81.5 39.5l-106 31h-4q-35 -7 -57 -33t-22 -59q0 -32 23.5 -53t80.5 -40z" />
    <glyph glyph-name="dieresis" unicode="&#xa8;" horiz-adv-x="249" 
d="M158 693h81v-94h-81v94zM10 693h81v-94h-81v94z" />
    <glyph glyph-name="copyright" unicode="&#xa9;" horiz-adv-x="803" 
d="M400 194q70 0 96 95l70 -9q-17 -69 -60.5 -107t-105.5 -38q-79 0 -127 60q-48 59 -48 153q0 92 48 150t127 58q124 0 163 -134l-71 -13q-26 90 -92 90q-48 0 -76.5 -42t-28.5 -109q0 -69 28.5 -111.5t76.5 -42.5zM761 346q0 -152 -104 -256q-106 -104 -256 -104
q-151 0 -255 104t-104 255t105 256q104 104 254 104t256 -104q104 -104 104 -255zM108 345q0 -124 86 -213q85 -88 207 -88q124 0 209 88t85 213t-86 214q-85 88 -208 88q-122 0 -207 -88q-86 -89 -86 -214z" />
    <glyph glyph-name="ordfeminine" unicode="&#xaa;" horiz-adv-x="380" 
d="M332 587v-220h-62v36q-43 -43 -109 -43q-57 0 -87.5 25t-30.5 72q0 52 36.5 77.5t118.5 27.5q44 1 59 7q11 5 11 20q0 22 -18 35t-50 13q-33 0 -56 -11t-27 -29l-69 7q36 89 154 89q63 0 96.5 -27.5t33.5 -78.5zM172 414q45 0 70.5 20.5t25.5 54.5v34q-26 -7 -80 -8
q-79 -1 -79 -55q0 -46 63 -46zM43 300h294v-63h-294v63z" />
    <glyph glyph-name="guillemotleft" unicode="&#xab;" horiz-adv-x="482" 
d="M362 94l-137 195l137 192h84l-132 -192l132 -195h-84zM35 289l137 192h84l-132 -192l132 -195h-84z" />
    <glyph glyph-name="logicalnot" unicode="&#xac;" 
d="M64 326h432v-272h-73v201h-359v71z" />
    <glyph glyph-name="uni00AD" unicode="&#xad;" horiz-adv-x="0" 
 />
    <glyph glyph-name="registered" unicode="&#xae;" horiz-adv-x="803" 
d="M473 327l102 -184h-81l-94 174h-67v-174h-71v406h155q62 0 96 -29.5t34 -81.5q0 -39 -19.5 -68.5t-54.5 -42.5zM408 493h-75v-119h73q70 0 70 63q0 56 -68 56zM401 705q150 0 256 -104q104 -104 104 -256q0 -151 -105 -254q-105 -105 -255 -105q-151 0 -255 104t-104 255
t105 256q104 104 254 104zM108 345q0 -124 86 -213q85 -88 207 -88q124 0 209 88t85 213t-86 214q-85 88 -208 88q-122 0 -207 -88q-86 -89 -86 -214z" />
    <glyph glyph-name="macron" unicode="&#xaf;" horiz-adv-x="249" 
d="M0 638h249v-63h-249v63z" />
    <glyph glyph-name="degree" unicode="&#xb0;" horiz-adv-x="421" 
d="M211 693q63 0 110 -44q46 -45 46 -107t-46 -107q-47 -45 -110 -45t-110 45q-46 45 -46 107t46 107q47 44 110 44zM125 542q0 -37 25 -63.5t61 -26.5q35 0 60 26.5t25 63.5t-25 63t-60 26q-36 0 -61 -26.5t-25 -62.5z" />
    <glyph glyph-name="plusminus" unicode="&#xb1;" 
d="M496 295h-180v-201h-73v201h-179v71h179v200h73v-200h180v-71zM62 71h432v-71h-432v71z" />
    <glyph glyph-name="twosuperior" unicode="&#xb2;" horiz-adv-x="353" 
d="M110 359h206v-56h-297q7 47 36 84q28 37 104 87q91 60 91 106q0 27 -20.5 45t-51.5 18q-39 0 -61 -25.5t-30 -81.5l-63 18q8 64 51 104q43 41 104 41q60 0 101 -33q40 -33 40 -84q0 -37 -28 -73t-94 -80q-54 -36 -67 -47t-21 -23z" />
    <glyph glyph-name="threesuperior" unicode="&#xb3;" horiz-adv-x="353" 
d="M253 427q0 32 -23.5 52t-62.5 20h-62v47l101 91h-175v56h267v-52l-99 -88q57 -6 91.5 -39.5t34.5 -84.5q0 -61 -44.5 -97t-118.5 -36q-55 0 -96.5 32.5t-52.5 83.5l71 8q17 -68 85 -68q84 0 84 75z" />
    <glyph glyph-name="acute" unicode="&#xb4;" horiz-adv-x="249" 
d="M156 693h94l-98 -118h-69z" />
    <glyph glyph-name="mu" unicode="&#xb5;" horiz-adv-x="531" 
d="M381 500h77v-500h-74v105l-67 -65q-54 -53 -118 -53q-27 0 -46 9v-178h-77v682h77v-374q0 -27 17.5 -49t40.5 -22q36 0 69 31l101 98v316z" />
    <glyph glyph-name="paragraph" unicode="&#xb6;" horiz-adv-x="608" 
d="M229 692h297v-874h-77v805h-143v-805h-77v490q-79 0 -134 55t-55 134t56 138q56 57 133 57z" />
    <glyph glyph-name="periodcentered" unicode="&#xb7;" horiz-adv-x="250" 
d="M76 410h98v-97h-98v97z" />
    <glyph glyph-name="cedilla" unicode="&#xb8;" horiz-adv-x="249" 
d="M102 -191q-63 0 -96 19l3 46q52 -15 96 -15q53 0 53 25q0 24 -42 24q-32 0 -58 -13l-15 38l65 67h58l-39 -40h7q43 0 68 -19t25 -53q0 -38 -32.5 -58.5t-92.5 -20.5z" />
    <glyph glyph-name="onesuperior" unicode="&#xb9;" horiz-adv-x="353" 
d="M242 357h92v-54h-271v54h113v257q-37 -56 -105 -83l-23 52q37 15 74 47q39 34 54 63h66v-336z" />
    <glyph glyph-name="ordmasculine" unicode="&#xba;" horiz-adv-x="380" 
d="M342 525q0 -71 -43 -117q-43 -48 -109 -48t-108 48q-43 46 -43 117q0 73 43 120q42 47 108 47t109 -48q43 -47 43 -119zM106 525q0 -47 23.5 -78t60.5 -31t60.5 31t23.5 78q0 48 -23 79t-61 31t-61 -31t-23 -79zM43 300h294v-63h-294v63z" />
    <glyph glyph-name="guillemotright" unicode="&#xbb;" horiz-adv-x="482" 
d="M226 481h84l137 -192l-137 -195h-84l132 195zM120 94h-84l132 195l-132 192h84l137 -192z" />
    <glyph glyph-name="onequarter" unicode="&#xbc;" horiz-adv-x="806" 
d="M242 357h92v-54h-271v54h113v257q-37 -56 -105 -83l-23 52q37 15 74 47q39 34 54 63h66v-336zM594 706h74l-375 -719h-75zM792 83h-54v-83h-66v83h-197v59l180 248h83v-253h54v-54zM671 319l-132 -182h133z" />
    <glyph glyph-name="onehalf" unicode="&#xbd;" horiz-adv-x="806" 
d="M242 357h92v-54h-271v54h113v257q-37 -56 -105 -83l-23 52q37 15 74 47q39 34 54 63h66v-336zM584 706h74l-375 -719h-75zM563 56h206v-56h-297q8 46 36 84q28 37 104 87q91 60 91 106q0 27 -20.5 45t-51.5 18q-39 0 -61 -25.5t-30 -81.5l-63 18q8 64 51 104
q43 41 104 41q60 0 101 -33q40 -33 40 -84q0 -37 -28 -73t-94 -80q-54 -36 -67 -47t-21 -23z" />
    <glyph glyph-name="threequarters" unicode="&#xbe;" horiz-adv-x="806" 
d="M253 427q0 32 -23.5 52t-62.5 20h-62v47l101 91h-175v56h267v-52l-99 -88q57 -6 91.5 -39.5t34.5 -84.5q0 -61 -44.5 -97t-118.5 -36q-55 0 -96.5 32.5t-52.5 83.5l71 8q17 -68 85 -68q84 0 84 75zM574 706h74l-375 -719h-75zM792 83h-54v-83h-66v83h-197v59l180 248h83
v-253h54v-54zM671 319l-132 -182h133z" />
    <glyph glyph-name="questiondown" unicode="&#xbf;" horiz-adv-x="454" 
d="M293 403h-98v97h98v-97zM127 144q49 58 66 96q15 38 15 79h72q0 -57 -17 -105q-19 -48 -72 -112q-39 -47 -52 -75q-12 -29 -12 -58q0 -49 29.5 -78t78.5 -29q48 0 85.5 38.5t58.5 108.5l74 -27q-27 -89 -85.5 -138.5t-137.5 -49.5q-84 0 -134 47q-51 48 -51 127
q0 43 16 79q15 37 66 97z" />
    <glyph glyph-name="Agrave" unicode="&#xc0;" horiz-adv-x="633" 
d="M271 693h93l267 -693h-89l-80 213h-292l-78 -213h-90zM315 604l-119 -322h241l-120 322h-2zM191 858h94l73 -118h-69z" />
    <glyph glyph-name="Aacute" unicode="&#xc1;" horiz-adv-x="633" 
d="M271 693h93l267 -693h-89l-80 213h-292l-78 -213h-90zM315 604l-119 -322h241l-120 322h-2zM347 858h94l-98 -118h-69z" />
    <glyph glyph-name="Acircumflex" unicode="&#xc2;" horiz-adv-x="633" 
d="M271 693h93l267 -693h-89l-80 213h-292l-78 -213h-90zM315 604l-119 -322h241l-120 322h-2zM267 858h96l77 -118h-64l-61 70l-60 -70h-64z" />
    <glyph glyph-name="Atilde" unicode="&#xc3;" horiz-adv-x="633" 
d="M271 693h93l267 -693h-89l-80 213h-292l-78 -213h-90zM315 604l-119 -322h241l-120 322h-2zM364 795q27 0 27 44h49q-1 -45 -21.5 -74.5t-53.5 -29.5q-28 0 -64 30q-23 19 -33 19q-24 0 -24 -44h-53q1 44 22.5 74t53.5 30q24 0 63 -30q24 -19 34 -19z" />
    <glyph glyph-name="Adieresis" unicode="&#xc4;" horiz-adv-x="633" 
d="M271 693h93l267 -693h-89l-80 213h-292l-78 -213h-90zM315 604l-119 -322h241l-120 322h-2zM349 858h81v-94h-81v94zM201 858h81v-94h-81v94z" />
    <glyph glyph-name="Aring" unicode="&#xc5;" horiz-adv-x="597" 
d="M371 623l224 -623h-89l-77 223h-262l-75 -223h-90l224 621q-52 36 -52 101q0 51 36 87t87 36t87 -36t36 -87q0 -61 -49 -99zM295 599l-108 -317h222l-109 317h-5zM297 663q24 0 41.5 17.5t17.5 41.5t-17.5 41.5t-41.5 17.5t-41.5 -17.5t-17.5 -41.5t17.5 -41.5
t41.5 -17.5z" />
    <glyph glyph-name="AE" unicode="&#xc6;" horiz-adv-x="885" 
d="M528 70h327v-70h-413v213h-251l-104 -213h-91l351 693h505v-70h-324v-227h258v-70h-258v-256zM391 623l-167 -341h218v341h-51z" />
    <glyph glyph-name="Ccedilla" unicode="&#xc7;" horiz-adv-x="661" 
d="M319 -191q-63 0 -96 19l3 46q52 -15 96 -15q53 0 53 25q0 24 -42 24q-32 0 -58 -13l-15 38l53 55q-119 10 -189 111q-72 101 -72 249q0 157 80 258q79 100 212 100q100 0 169 -55.5t100 -159.5l-88 -16q-49 159 -182 159q-94 0 -149 -81q-56 -82 -56 -205t56 -206
q55 -82 149 -82q140 0 187 169l87 -12q-27 -102 -90 -161t-156 -68l-27 -28h7q43 0 68 -19t25 -53q0 -38 -32.5 -58.5t-92.5 -20.5z" />
    <glyph glyph-name="Egrave" unicode="&#xc8;" horiz-adv-x="546" 
d="M168 70h348v-70h-434v693h424v-70h-338v-227h278v-70h-278v-256zM182 858h94l73 -118h-69z" />
    <glyph glyph-name="Eacute" unicode="&#xc9;" horiz-adv-x="546" 
d="M168 70h348v-70h-434v693h424v-70h-338v-227h278v-70h-278v-256zM338 858h94l-98 -118h-69z" />
    <glyph glyph-name="Ecircumflex" unicode="&#xca;" horiz-adv-x="546" 
d="M168 70h348v-70h-434v693h424v-70h-338v-227h278v-70h-278v-256zM258 858h96l77 -118h-64l-61 70l-60 -70h-64z" />
    <glyph glyph-name="Edieresis" unicode="&#xcb;" horiz-adv-x="546" 
d="M168 70h348v-70h-434v693h424v-70h-338v-227h278v-70h-278v-256zM340 858h81v-94h-81v94zM192 858h81v-94h-81v94z" />
    <glyph glyph-name="Igrave" unicode="&#xcc;" horiz-adv-x="266" 
d="M90 693h86v-693h-86v693zM9 858h94l73 -118h-69z" />
    <glyph glyph-name="Iacute" unicode="&#xcd;" horiz-adv-x="266" 
d="M90 693h86v-693h-86v693zM165 858h94l-98 -118h-69z" />
    <glyph glyph-name="Icircumflex" unicode="&#xce;" horiz-adv-x="266" 
d="M90 693h86v-693h-86v693zM85 858h96l77 -118h-64l-61 70l-60 -70h-64z" />
    <glyph glyph-name="Idieresis" unicode="&#xcf;" horiz-adv-x="266" 
d="M90 693h86v-693h-86v693zM167 858h81v-94h-81v94zM19 858h81v-94h-81v94z" />
    <glyph glyph-name="Eth" unicode="&#xd0;" horiz-adv-x="667" 
d="M615 346q0 -156 -85 -250q-86 -96 -228 -96h-220v326h-70v69h70v298h220q144 0 229 -94q84 -95 84 -253zM333 326h-165v-256h133q105 0 166 73t61 203q0 127 -62 203q-62 74 -165 74h-133v-228h165v-69z" />
    <glyph glyph-name="Ntilde" unicode="&#xd1;" horiz-adv-x="668" 
d="M507 693h79v-693h-105l-319 581h-2v-581h-78v693h105l316 -564h4v564zM391 795q27 0 27 44h49q-1 -45 -21.5 -74.5t-53.5 -29.5q-28 0 -64 30q-23 19 -33 19q-24 0 -24 -44h-53q1 44 22.5 74t53.5 30q24 0 63 -30q24 -19 34 -19z" />
    <glyph glyph-name="Ograve" unicode="&#xd2;" horiz-adv-x="694" 
d="M138 348q0 -123 58 -205q59 -83 151 -83t151 83q58 82 58 205q0 122 -57 205q-59 81 -152 81q-94 0 -151 -81q-58 -82 -58 -205zM642 348q0 -158 -81 -259q-82 -102 -214 -102t-213 102q-82 100 -82 259q0 158 82 258q81 100 213 100t214 -100q81 -100 81 -258zM223 858
h94l73 -118h-69z" />
    <glyph glyph-name="Oacute" unicode="&#xd3;" horiz-adv-x="694" 
d="M138 348q0 -123 58 -205q59 -83 151 -83t151 83q58 82 58 205q0 122 -57 205q-59 81 -152 81q-94 0 -151 -81q-58 -82 -58 -205zM642 348q0 -158 -81 -259q-82 -102 -214 -102t-213 102q-82 100 -82 259q0 158 82 258q81 100 213 100t214 -100q81 -100 81 -258zM379 858
h94l-98 -118h-69z" />
    <glyph glyph-name="Ocircumflex" unicode="&#xd4;" horiz-adv-x="694" 
d="M138 348q0 -123 58 -205q59 -83 151 -83t151 83q58 82 58 205q0 122 -57 205q-59 81 -152 81q-94 0 -151 -81q-58 -82 -58 -205zM642 348q0 -158 -81 -259q-82 -102 -214 -102t-213 102q-82 100 -82 259q0 158 82 258q81 100 213 100t214 -100q81 -100 81 -258zM299 858
h96l77 -118h-64l-61 70l-60 -70h-64z" />
    <glyph glyph-name="Otilde" unicode="&#xd5;" horiz-adv-x="694" 
d="M138 348q0 -123 58 -205q59 -83 151 -83t151 83q58 82 58 205q0 122 -57 205q-59 81 -152 81q-94 0 -151 -81q-58 -82 -58 -205zM642 348q0 -158 -81 -259q-82 -102 -214 -102t-213 102q-82 100 -82 259q0 158 82 258q81 100 213 100t214 -100q81 -100 81 -258zM396 795
q27 0 27 44h49q-1 -45 -21.5 -74.5t-53.5 -29.5q-28 0 -64 30q-23 19 -33 19q-24 0 -24 -44h-53q1 44 22.5 74t53.5 30q24 0 63 -30q24 -19 34 -19z" />
    <glyph glyph-name="Odieresis" unicode="&#xd6;" horiz-adv-x="694" 
d="M138 348q0 -123 58 -205q59 -83 151 -83t151 83q58 82 58 205q0 122 -57 205q-59 81 -152 81q-94 0 -151 -81q-58 -82 -58 -205zM642 348q0 -158 -81 -259q-82 -102 -214 -102t-213 102q-82 100 -82 259q0 158 82 258q81 100 213 100t214 -100q81 -100 81 -258zM381 858
h81v-94h-81v94zM233 858h81v-94h-81v94z" />
    <glyph glyph-name="multiply" unicode="&#xd7;" 
d="M330 290l156 -156l-50 -50l-156 156l-156 -156l-50 50l156 156l-156 156l50 50l156 -156l156 156l50 -50z" />
    <glyph glyph-name="Oslash" unicode="&#xd8;" horiz-adv-x="694" 
d="M230 12l-39 -86l-55 27l42 91q-60 47 -93 127t-33 177q0 158 82 258q81 100 213 100q69 0 124 -28l39 83l56 -23l-44 -94q57 -48 88.5 -125.5t31.5 -170.5q0 -158 -81 -259q-82 -102 -214 -102q-61 0 -117 25zM138 348q0 -145 75 -228l226 488q-43 26 -92 26
q-94 0 -151 -81q-58 -82 -58 -205zM556 348q0 136 -69 219l-225 -486q35 -21 85 -21q92 0 151 83q58 82 58 205z" />
    <glyph glyph-name="Ugrave" unicode="&#xd9;" horiz-adv-x="638" 
d="M319 60q70 0 111.5 42t41.5 113v478h86v-484q0 -99 -67 -160q-68 -62 -172 -62q-103 0 -171 62t-68 160v484h86v-478q0 -71 41.5 -113t111.5 -42zM199 858h94l73 -118h-69z" />
    <glyph glyph-name="Uacute" unicode="&#xda;" horiz-adv-x="638" 
d="M319 60q70 0 111.5 42t41.5 113v478h86v-484q0 -99 -67 -160q-68 -62 -172 -62q-103 0 -171 62t-68 160v484h86v-478q0 -71 41.5 -113t111.5 -42zM355 858h94l-98 -118h-69z" />
    <glyph glyph-name="Ucircumflex" unicode="&#xdb;" horiz-adv-x="638" 
d="M319 60q70 0 111.5 42t41.5 113v478h86v-484q0 -99 -67 -160q-68 -62 -172 -62q-103 0 -171 62t-68 160v484h86v-478q0 -71 41.5 -113t111.5 -42zM275 858h96l77 -118h-64l-61 70l-60 -70h-64z" />
    <glyph glyph-name="Udieresis" unicode="&#xdc;" horiz-adv-x="638" 
d="M319 60q70 0 111.5 42t41.5 113v478h86v-484q0 -99 -67 -160q-68 -62 -172 -62q-103 0 -171 62t-68 160v484h86v-478q0 -71 41.5 -113t111.5 -42zM357 858h81v-94h-81v94zM209 858h81v-94h-81v94z" />
    <glyph glyph-name="Yacute" unicode="&#xdd;" horiz-adv-x="546" 
d="M544 693l-228 -398v-295h-86v295l-228 398h97l177 -317l175 317h93zM307 858h94l-98 -118h-69z" />
    <glyph glyph-name="Thorn" unicode="&#xde;" horiz-adv-x="604" 
d="M307 159h-139v-159h-86v693h86v-126h139q129 0 191 -48.5t62 -149.5q0 -100 -65.5 -155t-187.5 -55zM294 497h-126v-267h126q179 0 179 131q0 72 -43 104t-136 32z" />
    <glyph glyph-name="germandbls" unicode="&#xdf;" horiz-adv-x="525" 
d="M478 214q0 -93 -63 -153q-64 -61 -162 -61h-26v66h30q63 0 104 42q41 43 41 109q0 64 -38.5 100t-105.5 36h-31v66h30q47 0 75.5 32.5t28.5 84.5q0 49 -27.5 76.5t-74.5 27.5q-48 0 -77 -30.5t-29 -79.5v-530h-77v527q0 79 51 129q50 50 132 50q79 0 129 -45
q49 -46 49 -119q0 -52 -26.5 -90t-74.5 -54q64 -16 103 -65.5t39 -118.5z" />
    <glyph glyph-name="agrave" unicode="&#xe0;" horiz-adv-x="528" 
d="M452 351v-351h-74v69h-4q-53 -82 -165 -82q-156 0 -156 144q0 71 45 109q44 38 171 54q75 11 91 20q18 10 18 32v4q0 100 -108 100q-49 0 -78.5 -21.5t-46.5 -72.5l-80 10q32 79 82 113t126 34q86 0 132.5 -43t46.5 -119zM224 50q66 0 110 39q42 39 42 101v73
q-24 -17 -94 -28q-57 -10 -70 -13q-18 -5 -29 -9q-52 -23 -52 -80q0 -83 93 -83zM145 693h94l73 -118h-69z" />
    <glyph glyph-name="aacute" unicode="&#xe1;" horiz-adv-x="528" 
d="M452 351v-351h-74v69h-4q-53 -82 -165 -82q-156 0 -156 144q0 71 45 109q44 38 171 54q75 11 91 20q18 10 18 32v4q0 100 -108 100q-49 0 -78.5 -21.5t-46.5 -72.5l-80 10q32 79 82 113t126 34q86 0 132.5 -43t46.5 -119zM224 50q66 0 110 39q42 39 42 101v73
q-24 -17 -94 -28q-57 -10 -70 -13q-18 -5 -29 -9q-52 -23 -52 -80q0 -83 93 -83zM301 693h94l-98 -118h-69z" />
    <glyph glyph-name="acircumflex" unicode="&#xe2;" horiz-adv-x="528" 
d="M452 351v-351h-74v69h-4q-53 -82 -165 -82q-156 0 -156 144q0 71 45 109q44 38 171 54q75 11 91 20q18 10 18 32v4q0 100 -108 100q-49 0 -78.5 -21.5t-46.5 -72.5l-80 10q32 79 82 113t126 34q86 0 132.5 -43t46.5 -119zM224 50q66 0 110 39q42 39 42 101v73
q-24 -17 -94 -28q-57 -10 -70 -13q-18 -5 -29 -9q-52 -23 -52 -80q0 -83 93 -83zM221 693h96l77 -118h-64l-61 70l-60 -70h-64z" />
    <glyph glyph-name="atilde" unicode="&#xe3;" horiz-adv-x="528" 
d="M452 351v-351h-74v69h-4q-53 -82 -165 -82q-156 0 -156 144q0 71 45 109q44 38 171 54q75 11 91 20q18 10 18 32v4q0 100 -108 100q-49 0 -78.5 -21.5t-46.5 -72.5l-80 10q32 79 82 113t126 34q86 0 132.5 -43t46.5 -119zM224 50q66 0 110 39q42 39 42 101v73
q-24 -17 -94 -28q-57 -10 -70 -13q-18 -5 -29 -9q-52 -23 -52 -80q0 -83 93 -83zM318 630q27 0 27 44h49q-1 -45 -21.5 -74.5t-53.5 -29.5q-28 0 -64 30q-23 19 -33 19q-24 0 -24 -44h-53q1 44 22.5 74t53.5 30q24 0 63 -30q24 -19 34 -19z" />
    <glyph glyph-name="adieresis" unicode="&#xe4;" horiz-adv-x="528" 
d="M452 351v-351h-74v69h-4q-53 -82 -165 -82q-156 0 -156 144q0 71 45 109q44 38 171 54q75 11 91 20q18 10 18 32v4q0 100 -108 100q-49 0 -78.5 -21.5t-46.5 -72.5l-80 10q32 79 82 113t126 34q86 0 132.5 -43t46.5 -119zM224 50q66 0 110 39q42 39 42 101v73
q-24 -17 -94 -28q-57 -10 -70 -13q-18 -5 -29 -9q-52 -23 -52 -80q0 -83 93 -83zM303 693h81v-94h-81v94zM155 693h81v-94h-81v94z" />
    <glyph glyph-name="aring" unicode="&#xe5;" horiz-adv-x="528" 
d="M452 351v-351h-74v69h-4q-53 -82 -165 -82q-156 0 -156 144q0 71 45 109q44 38 171 54q75 11 91 20q18 10 18 32v4q0 100 -108 100q-49 0 -78.5 -21.5t-46.5 -72.5l-80 10q32 79 82 113t126 34q86 0 132.5 -43t46.5 -119zM224 50q66 0 110 39q42 39 42 101v73
q-24 -17 -94 -28q-57 -10 -70 -13q-18 -5 -29 -9q-52 -23 -52 -80q0 -83 93 -83zM365 653q0 -40 -27.5 -68t-67.5 -28t-68 28t-28 68t28 68t68 28t67.5 -28t27.5 -68zM221 653q0 -21 14 -35t35 -14t34.5 14t13.5 35t-13.5 35t-34.5 14t-35 -14t-14 -35z" />
    <glyph glyph-name="ae" unicode="&#xe6;" horiz-adv-x="856" 
d="M594 53q51 0 83 25t54 82l73 -17q-27 -74 -82 -115t-128 -41q-134 0 -188 115h-3q-32 -60 -78.5 -87.5t-115.5 -27.5q-156 0 -156 144q0 71 45 109q44 38 171 54q75 11 91 20q18 10 18 32v4q0 100 -108 100q-49 0 -78.5 -21.5t-46.5 -72.5l-80 10q32 79 82 113t126 34
q120 0 157 -87q61 87 158 87q96 0 158 -74q60 -75 60 -189v-14h-358q0 -78 42 -131q40 -52 104 -52zM224 50q66 0 110 39q42 39 42 101v73q-24 -17 -94 -28q-57 -10 -70 -13q-18 -5 -29 -9q-52 -23 -52 -80q0 -83 93 -83zM588 447q-56 0 -95 -45t-42 -109h276
q-6 71 -43.5 112.5t-95.5 41.5z" />
    <glyph glyph-name="ccedilla" unicode="&#xe7;" horiz-adv-x="503" 
d="M237 -191q-63 0 -96 19l3 46q52 -15 96 -15q53 0 53 25q0 24 -42 24q-32 0 -58 -13l-15 38l54 56q-84 11 -132.5 80.5t-48.5 180.5q0 121 58 192q59 71 153 71q139 0 194 -152l-77 -17q-41 103 -117 103q-61 0 -98 -55q-38 -56 -38 -142t40 -141q41 -56 98 -56
q46 0 74 26t45 84l78 -13q-47 -148 -172 -161l-27 -29h7q43 0 68 -19t25 -53q0 -38 -32.5 -58.5t-92.5 -20.5z" />
    <glyph glyph-name="egrave" unicode="&#xe8;" horiz-adv-x="536" 
d="M274 53q51 0 83 25t54 82l73 -17q-27 -74 -82 -115t-128 -41q-104 0 -163 71q-60 70 -60 192q0 110 63 186q63 77 154 77q96 0 158 -74q60 -75 60 -189v-14h-358q0 -78 42 -131q40 -52 104 -52zM268 447q-56 0 -95 -45t-42 -109h276q-6 71 -43.5 112.5t-95.5 41.5z
M145 693h94l73 -118h-69z" />
    <glyph glyph-name="eacute" unicode="&#xe9;" horiz-adv-x="536" 
d="M274 53q51 0 83 25t54 82l73 -17q-27 -74 -82 -115t-128 -41q-104 0 -163 71q-60 70 -60 192q0 110 63 186q63 77 154 77q96 0 158 -74q60 -75 60 -189v-14h-358q0 -78 42 -131q40 -52 104 -52zM268 447q-56 0 -95 -45t-42 -109h276q-6 71 -43.5 112.5t-95.5 41.5z
M301 693h94l-98 -118h-69z" />
    <glyph glyph-name="ecircumflex" unicode="&#xea;" horiz-adv-x="536" 
d="M274 53q51 0 83 25t54 82l73 -17q-27 -74 -82 -115t-128 -41q-104 0 -163 71q-60 70 -60 192q0 110 63 186q63 77 154 77q96 0 158 -74q60 -75 60 -189v-14h-358q0 -78 42 -131q40 -52 104 -52zM268 447q-56 0 -95 -45t-42 -109h276q-6 71 -43.5 112.5t-95.5 41.5z
M221 693h96l77 -118h-64l-61 70l-60 -70h-64z" />
    <glyph glyph-name="edieresis" unicode="&#xeb;" horiz-adv-x="536" 
d="M274 53q51 0 83 25t54 82l73 -17q-27 -74 -82 -115t-128 -41q-104 0 -163 71q-60 70 -60 192q0 110 63 186q63 77 154 77q96 0 158 -74q60 -75 60 -189v-14h-358q0 -78 42 -131q40 -52 104 -52zM268 447q-56 0 -95 -45t-42 -109h276q-6 71 -43.5 112.5t-95.5 41.5z
M303 693h81v-94h-81v94zM155 693h81v-94h-81v94z" />
    <glyph glyph-name="igrave" unicode="&#xec;" horiz-adv-x="241" 
d="M82 500h77v-500h-77v500zM-2 693h94l73 -118h-69z" />
    <glyph glyph-name="iacute" unicode="&#xed;" horiz-adv-x="241" 
d="M82 500h77v-500h-77v500zM154 693h94l-98 -118h-69z" />
    <glyph glyph-name="icircumflex" unicode="&#xee;" horiz-adv-x="241" 
d="M82 500h77v-500h-77v500zM74 693h96l77 -118h-64l-61 70l-60 -70h-64z" />
    <glyph glyph-name="idieresis" unicode="&#xef;" horiz-adv-x="241" 
d="M82 500h77v-500h-77v500zM156 693h81v-94h-81v94zM8 693h81v-94h-81v94z" />
    <glyph glyph-name="eth" unicode="&#xf0;" horiz-adv-x="568" 
d="M294 650l86 31l19 -53l-58 -21q81 -81 128 -176q47 -96 47 -181q0 -114 -65 -188q-65 -75 -168 -75t-167 75q-65 74 -65 188q0 113 65 189q65 74 167 74q23 0 55 -7q-42 49 -69 76l-93 -33l-19 52l65 23q-36 32 -94 69h108q29 -18 58 -43zM126 250q0 -85 44 -141t113 -56
q70 0 114 56q43 55 43 141t-43 141q-44 56 -114 56q-69 0 -113 -56t-44 -141z" />
    <glyph glyph-name="ntilde" unicode="&#xf1;" horiz-adv-x="542" 
d="M466 381v-381h-77v373q0 31 -17 51t-43 20q-39 0 -69 -30l-107 -99v-315h-77v500h76v-112l74 74q51 51 115 51q56 0 90.5 -36t34.5 -96zM321 630q27 0 27 44h49q-1 -45 -21.5 -74.5t-53.5 -29.5q-28 0 -64 30q-23 19 -33 19q-24 0 -24 -44h-53q1 44 22.5 74t53.5 30
q24 0 63 -30q24 -19 34 -19z" />
    <glyph glyph-name="ograve" unicode="&#xf2;" horiz-adv-x="568" 
d="M516 250q0 -114 -65 -188q-65 -75 -168 -75t-167 75q-65 74 -65 188q0 113 65 189q65 74 167 74q103 0 168 -74q65 -76 65 -189zM126 250q0 -85 44 -141t113 -56q70 0 114 56q43 55 43 141t-43 141q-44 56 -114 56q-69 0 -113 -56t-44 -141zM159 693h94l73 -118h-69z" />
    <glyph glyph-name="oacute" unicode="&#xf3;" horiz-adv-x="568" 
d="M516 250q0 -114 -65 -188q-65 -75 -168 -75t-167 75q-65 74 -65 188q0 113 65 189q65 74 167 74q103 0 168 -74q65 -76 65 -189zM126 250q0 -85 44 -141t113 -56q70 0 114 56q43 55 43 141t-43 141q-44 56 -114 56q-69 0 -113 -56t-44 -141zM315 693h94l-98 -118h-69z
" />
    <glyph glyph-name="ocircumflex" unicode="&#xf4;" horiz-adv-x="568" 
d="M516 250q0 -114 -65 -188q-65 -75 -168 -75t-167 75q-65 74 -65 188q0 113 65 189q65 74 167 74q103 0 168 -74q65 -76 65 -189zM126 250q0 -85 44 -141t113 -56q70 0 114 56q43 55 43 141t-43 141q-44 56 -114 56q-69 0 -113 -56t-44 -141zM235 693h96l77 -118h-64
l-61 70l-60 -70h-64z" />
    <glyph glyph-name="otilde" unicode="&#xf5;" horiz-adv-x="568" 
d="M516 250q0 -114 -65 -188q-65 -75 -168 -75t-167 75q-65 74 -65 188q0 113 65 189q65 74 167 74q103 0 168 -74q65 -76 65 -189zM126 250q0 -85 44 -141t113 -56q70 0 114 56q43 55 43 141t-43 141q-44 56 -114 56q-69 0 -113 -56t-44 -141zM332 630q27 0 27 44h49
q-1 -45 -21.5 -74.5t-53.5 -29.5q-28 0 -64 30q-23 19 -33 19q-24 0 -24 -44h-53q1 44 22.5 74t53.5 30q24 0 63 -30q24 -19 34 -19z" />
    <glyph glyph-name="odieresis" unicode="&#xf6;" horiz-adv-x="568" 
d="M516 250q0 -114 -65 -188q-65 -75 -168 -75t-167 75q-65 74 -65 188q0 113 65 189q65 74 167 74q103 0 168 -74q65 -76 65 -189zM126 250q0 -85 44 -141t113 -56q70 0 114 56q43 55 43 141t-43 141q-44 56 -114 56q-69 0 -113 -56t-44 -141zM317 693h81v-94h-81v94z
M169 693h81v-94h-81v94z" />
    <glyph glyph-name="divide" unicode="&#xf7;" 
d="M231 541h98v-97h-98v97zM64 326h432v-71h-432v71zM231 137h98v-97h-98v97z" />
    <glyph glyph-name="oslash" unicode="&#xf8;" horiz-adv-x="568" 
d="M214 -3l-30 -73l-53 23l30 74q-52 34 -81 94.5t-29 134.5q0 113 65 189q65 74 167 74q39 0 75 -13l31 75l53 -22l-32 -78q50 -35 78 -94.5t28 -130.5q0 -114 -65 -188q-65 -75 -168 -75q-35 0 -69 10zM126 250q0 -107 63 -162l144 350q-27 9 -50 9q-69 0 -113 -56
t-44 -141zM440 250q0 99 -58 157l-143 -348q23 -6 44 -6q70 0 114 56q43 55 43 141z" />
    <glyph glyph-name="ugrave" unicode="&#xf9;" horiz-adv-x="531" 
d="M381 500h77v-500h-74v105l-67 -65q-54 -53 -118 -53q-54 0 -88 37q-35 38 -35 93v383h77v-374q0 -27 17.5 -49t40.5 -22q36 0 69 31l101 98v316zM148 693h94l73 -118h-69z" />
    <glyph glyph-name="uacute" unicode="&#xfa;" horiz-adv-x="531" 
d="M381 500h77v-500h-74v105l-67 -65q-54 -53 -118 -53q-54 0 -88 37q-35 38 -35 93v383h77v-374q0 -27 17.5 -49t40.5 -22q36 0 69 31l101 98v316zM304 693h94l-98 -118h-69z" />
    <glyph glyph-name="ucircumflex" unicode="&#xfb;" horiz-adv-x="531" 
d="M381 500h77v-500h-74v105l-67 -65q-54 -53 -118 -53q-54 0 -88 37q-35 38 -35 93v383h77v-374q0 -27 17.5 -49t40.5 -22q36 0 69 31l101 98v316zM224 693h96l77 -118h-64l-61 70l-60 -70h-64z" />
    <glyph glyph-name="udieresis" unicode="&#xfc;" horiz-adv-x="531" 
d="M381 500h77v-500h-74v105l-67 -65q-54 -53 -118 -53q-54 0 -88 37q-35 38 -35 93v383h77v-374q0 -27 17.5 -49t40.5 -22q36 0 69 31l101 98v316zM306 693h81v-94h-81v94zM158 693h81v-94h-81v94z" />
    <glyph glyph-name="yacute" unicode="&#xfd;" horiz-adv-x="470" 
d="M52 -191h-27v73h27q44 0 72 21.5t51 77.5l5 12q9 23 9 39q0 18 -13 48l-165 420h85l139 -371h3l138 371h84l-207 -522q-40 -101 -81 -136q-40 -33 -120 -33zM267 693h94l-98 -118h-69z" />
    <glyph glyph-name="thorn" unicode="&#xfe;" horiz-adv-x="566" 
d="M154 77h-1v-259h-77v875h77v-281h1q50 101 154 101q91 0 150 -74q58 -74 58 -186t-62 -189q-63 -77 -157 -77q-46 0 -80 21t-63 69zM152 249q0 -88 37.5 -140.5t102.5 -52.5t103.5 53t38.5 141t-37.5 141t-102.5 53q-67 0 -104 -54q-38 -55 -38 -141z" />
    <glyph glyph-name="ydieresis" unicode="&#xff;" horiz-adv-x="470" 
d="M52 -191h-27v73h27q44 0 72 21.5t51 77.5l5 12q9 23 9 39q0 18 -13 48l-165 420h85l139 -371h3l138 371h84l-207 -522q-40 -101 -81 -136q-40 -33 -120 -33zM269 693h81v-94h-81v94zM121 693h81v-94h-81v94z" />
    <glyph glyph-name="Amacron" unicode="&#x100;" horiz-adv-x="633" 
d="M271 693h93l267 -693h-89l-80 213h-292l-78 -213h-90zM315 604l-119 -322h241l-120 322h-2zM191 803h249v-63h-249v63z" />
    <glyph glyph-name="amacron" unicode="&#x101;" horiz-adv-x="528" 
d="M452 351v-351h-74v69h-4q-53 -82 -165 -82q-156 0 -156 144q0 71 45 109q44 38 171 54q75 11 91 20q18 10 18 32v4q0 100 -108 100q-49 0 -78.5 -21.5t-46.5 -72.5l-80 10q32 79 82 113t126 34q86 0 132.5 -43t46.5 -119zM224 50q66 0 110 39q42 39 42 101v73
q-24 -17 -94 -28q-57 -10 -70 -13q-18 -5 -29 -9q-52 -23 -52 -80q0 -83 93 -83zM145 638h249v-63h-249v63z" />
    <glyph glyph-name="Abreve" unicode="&#x102;" horiz-adv-x="633" 
d="M271 693h93l267 -693h-89l-80 213h-292l-78 -213h-90zM315 604l-119 -322h241l-120 322h-2zM315 793q56 0 62 65h62q-3 -54 -36 -86t-88 -32t-88 32t-36 86h62q6 -65 62 -65z" />
    <glyph glyph-name="abreve" unicode="&#x103;" horiz-adv-x="528" 
d="M452 351v-351h-74v69h-4q-53 -82 -165 -82q-156 0 -156 144q0 71 45 109q44 38 171 54q75 11 91 20q18 10 18 32v4q0 100 -108 100q-49 0 -78.5 -21.5t-46.5 -72.5l-80 10q32 79 82 113t126 34q86 0 132.5 -43t46.5 -119zM224 50q66 0 110 39q42 39 42 101v73
q-24 -17 -94 -28q-57 -10 -70 -13q-18 -5 -29 -9q-52 -23 -52 -80q0 -83 93 -83zM269 628q56 0 62 65h62q-3 -54 -36 -86t-88 -32t-88 32t-36 86h62q6 -65 62 -65z" />
    <glyph glyph-name="Aogonek" unicode="&#x104;" horiz-adv-x="633" 
d="M585 -133q24 0 40 4v-48q-27 -9 -56 -9q-85 0 -85 68q0 23 19 60q19 36 39 58l-80 213h-292l-78 -213h-90l269 693h93l267 -693q-26 -16 -51 -52q-24 -34 -24 -55q0 -26 29 -26zM315 604l-119 -322h241l-120 322h-2z" />
    <glyph glyph-name="aogonek" unicode="&#x105;" horiz-adv-x="528" 
d="M415 -133q24 0 40 4v-48q-27 -9 -56 -9q-85 0 -85 68q0 24 21 61q19 36 43 57v69h-4q-53 -82 -165 -82q-156 0 -156 144q0 71 45 109q44 38 171 54q75 11 91 20q18 10 18 32v4q0 100 -108 100q-49 0 -78.5 -21.5t-46.5 -72.5l-80 10q32 79 82 113t126 34q86 0 132.5 -43
t46.5 -119v-351q-20 -16 -44 -54q-22 -34 -22 -53q0 -26 29 -26zM224 50q66 0 110 39q42 39 42 101v73q-24 -17 -94 -28q-57 -10 -70 -13q-18 -5 -29 -9q-52 -23 -52 -80q0 -83 93 -83z" />
    <glyph glyph-name="Cacute" unicode="&#x106;" horiz-adv-x="661" 
d="M343 60q140 0 187 169l87 -12q-29 -110 -100 -170t-174 -60q-131 0 -211 101t-80 260q0 157 80 258q79 100 212 100q100 0 169 -55.5t100 -159.5l-88 -16q-49 159 -182 159q-94 0 -149 -81q-56 -82 -56 -205t56 -206q55 -82 149 -82zM374 858h94l-98 -118h-69z" />
    <glyph glyph-name="cacute" unicode="&#x107;" horiz-adv-x="503" 
d="M264 53q46 0 74 26t45 84l78 -13q-27 -84 -75 -123.5t-124 -39.5q-96 0 -153 71q-58 70 -58 192q0 121 58 192q59 71 153 71q139 0 194 -152l-77 -17q-41 103 -117 103q-61 0 -98 -55q-38 -56 -38 -142t40 -141q41 -56 98 -56zM241 693h94l-98 -118h-69z" />
    <glyph glyph-name="Ccircumflex" unicode="&#x108;" horiz-adv-x="661" 
d="M343 60q140 0 187 169l87 -12q-29 -110 -100 -170t-174 -60q-131 0 -211 101t-80 260q0 157 80 258q79 100 212 100q100 0 169 -55.5t100 -159.5l-88 -16q-49 159 -182 159q-94 0 -149 -81q-56 -82 -56 -205t56 -206q55 -82 149 -82zM294 858h96l77 -118h-64l-61 70
l-60 -70h-64z" />
    <glyph glyph-name="ccircumflex" unicode="&#x109;" horiz-adv-x="503" 
d="M264 53q46 0 74 26t45 84l78 -13q-27 -84 -75 -123.5t-124 -39.5q-96 0 -153 71q-58 70 -58 192q0 121 58 192q59 71 153 71q139 0 194 -152l-77 -17q-41 103 -117 103q-61 0 -98 -55q-38 -56 -38 -142t40 -141q41 -56 98 -56zM203 693h96l77 -118h-64l-61 70l-60 -70
h-64z" />
    <glyph glyph-name="Cdotaccent" unicode="&#x10a;" horiz-adv-x="661" 
d="M343 60q140 0 187 169l87 -12q-29 -110 -100 -170t-174 -60q-131 0 -211 101t-80 260q0 157 80 258q79 100 212 100q100 0 169 -55.5t100 -159.5l-88 -16q-49 159 -182 159q-94 0 -149 -81q-56 -82 -56 -205t56 -206q55 -82 149 -82zM302 858h81v-94h-81v94z" />
    <glyph glyph-name="cdotaccent" unicode="&#x10b;" horiz-adv-x="503" 
d="M264 53q46 0 74 26t45 84l78 -13q-27 -84 -75 -123.5t-124 -39.5q-96 0 -153 71q-58 70 -58 192q0 121 58 192q59 71 153 71q139 0 194 -152l-77 -17q-41 103 -117 103q-61 0 -98 -55q-38 -56 -38 -142t40 -141q41 -56 98 -56zM211 693h81v-94h-81v94z" />
    <glyph glyph-name="Ccaron" unicode="&#x10c;" horiz-adv-x="661" 
d="M343 60q140 0 187 169l87 -12q-29 -110 -100 -170t-174 -60q-131 0 -211 101t-80 260q0 157 80 258q79 100 212 100q100 0 169 -55.5t100 -159.5l-88 -16q-49 159 -182 159q-94 0 -149 -81q-56 -82 -56 -205t56 -206q55 -82 149 -82zM403 858h64l-77 -118h-96l-76 118h64
l60 -70z" />
    <glyph glyph-name="ccaron" unicode="&#x10d;" horiz-adv-x="503" 
d="M264 53q46 0 74 26t45 84l78 -13q-27 -84 -75 -123.5t-124 -39.5q-96 0 -153 71q-58 70 -58 192q0 121 58 192q59 71 153 71q139 0 194 -152l-77 -17q-41 103 -117 103q-61 0 -98 -55q-38 -56 -38 -142t40 -141q41 -56 98 -56zM312 693h64l-77 -118h-96l-76 118h64
l60 -70z" />
    <glyph glyph-name="Dcaron" unicode="&#x10e;" horiz-adv-x="667" 
d="M615 346q0 -156 -85 -250q-86 -96 -228 -96h-220v693h220q144 0 229 -94q84 -95 84 -253zM301 623h-133v-553h133q105 0 166 73t61 203q0 127 -62 203q-62 74 -165 74zM396 858h64l-77 -118h-96l-76 118h64l60 -70z" />
    <glyph glyph-name="dcaron" unicode="&#x10f;" horiz-adv-x="573" 
d="M416 693h77v-693h-74v88h-1q-24 -47 -66 -74t-92 -27q-91 0 -150 74q-58 73 -58 188q0 116 61 190q62 74 153 74q49 0 90 -28t59 -73h1v281zM130 249q0 -93 37.5 -144.5t105.5 -51.5t106 52.5t38 143.5q0 85 -39 141q-40 55 -105 55q-67 0 -105 -52.5t-38 -143.5z
M613 693v-38l-34 -105h-46v143h80z" />
    <glyph glyph-name="Dcroat" unicode="&#x110;" horiz-adv-x="667" 
d="M615 346q0 -156 -85 -250q-86 -96 -228 -96h-220v326h-70v69h70v298h220q144 0 229 -94q84 -95 84 -253zM333 326h-165v-256h133q105 0 166 73t61 203q0 127 -62 203q-62 74 -165 74h-133v-228h165v-69z" />
    <glyph glyph-name="dcroat" unicode="&#x111;" horiz-adv-x="567" 
d="M553 560h-60v-560h-74v88h-1q-24 -47 -66 -74t-92 -27q-91 0 -150 74q-58 73 -58 188q0 116 61 190q62 74 153 74q49 0 90 -28t59 -73h1v148h-132v63h132v70h77v-70h60v-63zM130 249q0 -93 37.5 -144.5t105.5 -51.5t106 52.5t38 143.5q0 85 -39 141q-40 55 -105 55
q-67 0 -105 -52.5t-38 -143.5z" />
    <glyph glyph-name="Emacron" unicode="&#x112;" horiz-adv-x="546" 
d="M168 70h348v-70h-434v693h424v-70h-338v-227h278v-70h-278v-256zM182 803h249v-63h-249v63z" />
    <glyph glyph-name="emacron" unicode="&#x113;" horiz-adv-x="536" 
d="M274 53q51 0 83 25t54 82l73 -17q-27 -74 -82 -115t-128 -41q-104 0 -163 71q-60 70 -60 192q0 110 63 186q63 77 154 77q96 0 158 -74q60 -75 60 -189v-14h-358q0 -78 42 -131q40 -52 104 -52zM268 447q-56 0 -95 -45t-42 -109h276q-6 71 -43.5 112.5t-95.5 41.5z
M145 638h249v-63h-249v63z" />
    <glyph glyph-name="Ebreve" unicode="&#x114;" horiz-adv-x="546" 
d="M168 70h348v-70h-434v693h424v-70h-338v-227h278v-70h-278v-256zM306 793q56 0 62 65h62q-3 -54 -36 -86t-88 -32t-88 32t-36 86h62q6 -65 62 -65z" />
    <glyph glyph-name="ebreve" unicode="&#x115;" horiz-adv-x="536" 
d="M274 53q51 0 83 25t54 82l73 -17q-27 -74 -82 -115t-128 -41q-104 0 -163 71q-60 70 -60 192q0 110 63 186q63 77 154 77q96 0 158 -74q60 -75 60 -189v-14h-358q0 -78 42 -131q40 -52 104 -52zM268 447q-56 0 -95 -45t-42 -109h276q-6 71 -43.5 112.5t-95.5 41.5z
M269 628q56 0 62 65h62q-3 -54 -36 -86t-88 -32t-88 32t-36 86h62q6 -65 62 -65z" />
    <glyph glyph-name="Edotaccent" unicode="&#x116;" horiz-adv-x="546" 
d="M168 70h348v-70h-434v693h424v-70h-338v-227h278v-70h-278v-256zM266 858h81v-94h-81v94z" />
    <glyph glyph-name="edotaccent" unicode="&#x117;" horiz-adv-x="536" 
d="M274 53q51 0 83 25t54 82l73 -17q-27 -74 -82 -115t-128 -41q-104 0 -163 71q-60 70 -60 192q0 110 63 186q63 77 154 77q96 0 158 -74q60 -75 60 -189v-14h-358q0 -78 42 -131q40 -52 104 -52zM268 447q-56 0 -95 -45t-42 -109h276q-6 71 -43.5 112.5t-95.5 41.5z
M229 693h81v-94h-81v94z" />
    <glyph glyph-name="Eogonek" unicode="&#x118;" horiz-adv-x="546" 
d="M345 -118q0 24 21 61q19 36 43 57h-327v693h424v-70h-338v-227h278v-70h-278v-256h348v-70h-30q-23 -16 -46 -53q-23 -35 -23 -54q0 -26 29 -26q24 0 40 4v-48q-27 -9 -56 -9q-85 0 -85 68z" />
    <glyph glyph-name="eogonek" unicode="&#x119;" horiz-adv-x="536" 
d="M344 -133q24 0 40 4v-48q-27 -9 -56 -9q-85 0 -85 68q0 21 16 52q14 30 35 54q-2 0 -9.5 -0.5t-10.5 -0.5q-104 0 -163 71q-60 70 -60 192q0 110 63 186q63 77 154 77q96 0 158 -74q60 -75 60 -189v-14h-358q0 -78 42 -131q40 -52 104 -52q51 0 83 25t54 82l73 -17
q-30 -78 -87 -119q-24 -17 -52 -65q-30 -47 -30 -66q0 -26 29 -26zM268 447q-56 0 -95 -45t-42 -109h276q-6 71 -43.5 112.5t-95.5 41.5z" />
    <glyph glyph-name="Ecaron" unicode="&#x11a;" horiz-adv-x="546" 
d="M168 70h348v-70h-434v693h424v-70h-338v-227h278v-70h-278v-256zM367 858h64l-77 -118h-96l-76 118h64l60 -70z" />
    <glyph glyph-name="ecaron" unicode="&#x11b;" horiz-adv-x="536" 
d="M274 53q51 0 83 25t54 82l73 -17q-27 -74 -82 -115t-128 -41q-104 0 -163 71q-60 70 -60 192q0 110 63 186q63 77 154 77q96 0 158 -74q60 -75 60 -189v-14h-358q0 -78 42 -131q40 -52 104 -52zM268 447q-56 0 -95 -45t-42 -109h276q-6 71 -43.5 112.5t-95.5 41.5z
M330 693h64l-77 -118h-96l-76 118h64l60 -70z" />
    <glyph glyph-name="Gcircumflex" unicode="&#x11c;" horiz-adv-x="677" 
d="M354 283v70h275v-15q0 -157 -77 -254q-78 -97 -209 -97t-211 101t-80 260q0 157 80 258q79 100 211 100q100 0 169.5 -55.5t100.5 -159.5l-88 -16q-49 159 -182 159q-94 0 -149 -81q-56 -82 -56 -205t56 -206q55 -82 149 -82q81 0 133.5 60t64.5 163h-187zM295 858h96
l77 -118h-64l-61 70l-60 -70h-64z" />
    <glyph glyph-name="gcircumflex" unicode="&#x11d;" horiz-adv-x="478" 
d="M123 152q0 -31 46 -37l140 -16q155 -18 155 -130q0 -74 -65 -118q-65 -42 -168 -42q-96 0 -152.5 37.5t-56.5 105.5q0 75 75 116v1q-41 20 -41 70q0 26 14.5 49t39.5 35q-51 49 -51 120q0 72 52 121t126 49q48 0 102 -29q25 46 56 61q31 14 83 14v-72q-89 0 -101 -37
q38 -49 38 -109q0 -71 -51 -117q-52 -47 -128 -47q-44 0 -84 18q-29 -19 -29 -43zM390 -35q0 29 -18 45t-59 21l-148 17q-30 -4 -51 -30t-21 -59q0 -43 38.5 -67.5t104.5 -24.5q71 0 112.5 25.5t41.5 72.5zM236 238q47 0 76.5 29t29.5 75t-29 76t-75 30q-47 0 -76.5 -30
t-29.5 -77q0 -46 28.5 -74.5t75.5 -28.5zM189 693h96l77 -118h-64l-61 70l-60 -70h-64z" />
    <glyph glyph-name="Gbreve" unicode="&#x11e;" horiz-adv-x="677" 
d="M354 283v70h275v-15q0 -157 -77 -254q-78 -97 -209 -97t-211 101t-80 260q0 157 80 258q79 100 211 100q100 0 169.5 -55.5t100.5 -159.5l-88 -16q-49 159 -182 159q-94 0 -149 -81q-56 -82 -56 -205t56 -206q55 -82 149 -82q81 0 133.5 60t64.5 163h-187zM343 793
q56 0 62 65h62q-3 -54 -36 -86t-88 -32t-88 32t-36 86h62q6 -65 62 -65z" />
    <glyph glyph-name="gbreve" unicode="&#x11f;" horiz-adv-x="478" 
d="M123 152q0 -31 46 -37l140 -16q155 -18 155 -130q0 -74 -65 -118q-65 -42 -168 -42q-96 0 -152.5 37.5t-56.5 105.5q0 75 75 116v1q-41 20 -41 70q0 26 14.5 49t39.5 35q-51 49 -51 120q0 72 52 121t126 49q48 0 102 -29q25 46 56 61q31 14 83 14v-72q-89 0 -101 -37
q38 -49 38 -109q0 -71 -51 -117q-52 -47 -128 -47q-44 0 -84 18q-29 -19 -29 -43zM390 -35q0 29 -18 45t-59 21l-148 17q-30 -4 -51 -30t-21 -59q0 -43 38.5 -67.5t104.5 -24.5q71 0 112.5 25.5t41.5 72.5zM236 238q47 0 76.5 29t29.5 75t-29 76t-75 30q-47 0 -76.5 -30
t-29.5 -77q0 -46 28.5 -74.5t75.5 -28.5zM237 628q56 0 62 65h62q-3 -54 -36 -86t-88 -32t-88 32t-36 86h62q6 -65 62 -65z" />
    <glyph glyph-name="Gdotaccent" unicode="&#x120;" horiz-adv-x="677" 
d="M354 283v70h275v-15q0 -157 -77 -254q-78 -97 -209 -97t-211 101t-80 260q0 157 80 258q79 100 211 100q100 0 169.5 -55.5t100.5 -159.5l-88 -16q-49 159 -182 159q-94 0 -149 -81q-56 -82 -56 -205t56 -206q55 -82 149 -82q81 0 133.5 60t64.5 163h-187zM303 858h81
v-94h-81v94z" />
    <glyph glyph-name="gdotaccent" unicode="&#x121;" horiz-adv-x="478" 
d="M123 152q0 -31 46 -37l140 -16q155 -18 155 -130q0 -74 -65 -118q-65 -42 -168 -42q-96 0 -152.5 37.5t-56.5 105.5q0 75 75 116v1q-41 20 -41 70q0 26 14.5 49t39.5 35q-51 49 -51 120q0 72 52 121t126 49q48 0 102 -29q25 46 56 61q31 14 83 14v-72q-89 0 -101 -37
q38 -49 38 -109q0 -71 -51 -117q-52 -47 -128 -47q-44 0 -84 18q-29 -19 -29 -43zM390 -35q0 29 -18 45t-59 21l-148 17q-30 -4 -51 -30t-21 -59q0 -43 38.5 -67.5t104.5 -24.5q71 0 112.5 25.5t41.5 72.5zM236 238q47 0 76.5 29t29.5 75t-29 76t-75 30q-47 0 -76.5 -30
t-29.5 -77q0 -46 28.5 -74.5t75.5 -28.5zM197 693h81v-94h-81v94z" />
    <glyph glyph-name="uni0122" unicode="&#x122;" horiz-adv-x="677" 
d="M132 88q-80 101 -80 260q0 157 80 258q79 100 211 100q100 0 170 -55q68 -55 100 -160l-88 -16q-26 80 -70 120q-45 39 -112 39q-94 0 -149 -81q-56 -82 -56 -205t56 -206q55 -82 149 -82q81 0 134 60q52 59 64 163h-187v70h275v-15q0 -157 -77 -254q-78 -97 -209 -97
t-211 101zM292 -40h98v-68l-52 -75h-46l36 66h-36v77z" />
    <glyph glyph-name="uni0123" unicode="&#x123;" horiz-adv-x="478" 
d="M22 -48q0 39 19 67q17 27 56 49v1q-41 20 -41 70q0 27 15 49q14 23 39 35q-23 22 -37 54q-14 33 -14 66q0 72 52 121t126 49q25 0 49 -6q29 -9 53 -23q25 46 56 61q31 14 83 14v-72q-46 0 -70 -9q-25 -9 -31 -28q38 -49 38 -109q0 -71 -51 -117q-52 -47 -128 -47
q-20 0 -43 5q-24 5 -41 13q-12 -7 -21 -19q-8 -13 -8 -24q0 -15 12 -24q11 -10 34 -13l140 -16q155 -18 155 -130q0 -74 -65 -118q-65 -42 -168 -42q-96 0 -152 37q-57 38 -57 106zM114 18q-21 -25 -21 -59q0 -43 39 -68q38 -24 104 -24q71 0 112 25q42 26 42 73
q0 29 -18 45t-59 21l-148 17q-31 -4 -51 -30zM132 341q0 -46 28.5 -74.5t75.5 -28.5q46 0 77 29q29 29 29 75q0 45 -29 76q-29 30 -75 30q-48 0 -76 -30q-30 -30 -30 -77zM190 643l52 75h46l-36 -66h36v-77h-98v68z" />
    <glyph glyph-name="Hcircumflex" unicode="&#x124;" horiz-adv-x="653" 
d="M485 693h86v-693h-86v326h-317v-326h-86v693h86v-298h317v298zM277 858h96l77 -118h-64l-61 70l-60 -70h-64z" />
    <glyph glyph-name="hcircumflex" unicode="&#x125;" horiz-adv-x="542" 
d="M153 0h-77v693h77v-304l71 71q53 53 117 53q57 0 91 -36q34 -35 34 -96v-381h-77v373q0 31 -17 51t-43 20q-19 0 -36 -7t-33 -23l-107 -99v-315zM-8 740l76 118h96l77 -118h-64l-61 70l-60 -70h-64z" />
    <glyph glyph-name="Hbar" unicode="&#x126;" horiz-adv-x="653" 
d="M642 496h-71v-496h-86v326h-317v-326h-86v496h-70v69h70v128h86v-128h317v128h86v-128h71v-69zM168 496v-101h317v101h-317z" />
    <glyph glyph-name="hbar" unicode="&#x127;" horiz-adv-x="542" 
d="M16 623h60v70h77v-70h132v-63h-132v-171l71 71q53 53 117 53q57 0 91 -36q34 -35 34 -96v-381h-77v373q0 31 -17 51t-43 20q-19 0 -36 -7t-33 -23l-107 -99v-315h-77v560h-60v63z" />
    <glyph glyph-name="Itilde" unicode="&#x128;" horiz-adv-x="266" 
d="M90 693h86v-693h-86v693zM182 795q27 0 27 44h49q-1 -45 -21.5 -74.5t-53.5 -29.5q-28 0 -64 30q-23 19 -33 19q-24 0 -24 -44h-53q1 44 22.5 74t53.5 30q24 0 63 -30q24 -19 34 -19z" />
    <glyph glyph-name="itilde" unicode="&#x129;" horiz-adv-x="241" 
d="M82 500h77v-500h-77v500zM171 630q27 0 27 44h49q-1 -45 -21.5 -74.5t-53.5 -29.5q-28 0 -64 30q-23 19 -33 19q-24 0 -24 -44h-53q1 44 22.5 74t53.5 30q24 0 63 -30q24 -19 34 -19z" />
    <glyph glyph-name="Imacron" unicode="&#x12a;" horiz-adv-x="266" 
d="M90 693h86v-693h-86v693zM9 803h249v-63h-249v63z" />
    <glyph glyph-name="imacron" unicode="&#x12b;" horiz-adv-x="241" 
d="M82 500h77v-500h-77v500zM-2 638h249v-63h-249v63z" />
    <glyph glyph-name="Ibreve" unicode="&#x12c;" horiz-adv-x="266" 
d="M90 693h86v-693h-86v693zM133 793q56 0 62 65h62q-3 -54 -36 -86t-88 -32t-88 32t-36 86h62q6 -65 62 -65z" />
    <glyph glyph-name="ibreve" unicode="&#x12d;" horiz-adv-x="241" 
d="M82 500h77v-500h-77v500zM122 628q56 0 62 65h62q-3 -54 -36 -86t-88 -32t-88 32t-36 86h62q6 -65 62 -65z" />
    <glyph glyph-name="Iogonek" unicode="&#x12e;" horiz-adv-x="266" 
d="M132 -133q24 0 40 4v-48q-27 -9 -56 -9q-85 0 -85 68q0 23 19 60q20 37 40 58v693h86v-693q-26 -17 -49 -52q-24 -34 -24 -55q0 -26 29 -26z" />
    <glyph glyph-name="iogonek" unicode="&#x12f;" horiz-adv-x="241" 
d="M121 -133q24 0 40 4v-48q-27 -9 -56 -9q-85 0 -85 68q0 23 20 61q20 37 42 57v500h77v-500q-23 -18 -45 -54q-22 -34 -22 -53q0 -26 29 -26zM80 693h81v-94h-81v94z" />
    <glyph glyph-name="Idotaccent" unicode="&#x130;" horiz-adv-x="266" 
d="M90 693h86v-693h-86v693zM93 858h81v-94h-81v94z" />
    <glyph glyph-name="dotlessi" unicode="&#x131;" horiz-adv-x="241" 
d="M82 500h77v-500h-77v500z" />
    <glyph glyph-name="IJ" unicode="&#x132;" horiz-adv-x="760" 
d="M90 693h86v-693h-86v693zM486 60q56 0 82.5 33.5t26.5 105.5v494h85v-500q0 -96 -51.5 -151t-142.5 -55t-142.5 54t-51.5 150v36l85 14v-44q0 -72 26 -104.5t83 -32.5z" />
    <glyph glyph-name="ij" unicode="&#x133;" horiz-adv-x="470" 
d="M80 693h81v-94h-81v94zM82 500h77v-500h-77v500zM241 -182v65q48 0 60 11q16 16 16 60v546h77v-551q0 -71 -32 -101t-121 -30zM315 693h81v-94h-81v94z" />
    <glyph glyph-name="Jcircumflex" unicode="&#x134;" horiz-adv-x="494" 
d="M220 60q56 0 82.5 33.5t26.5 105.5v494h85v-500q0 -96 -51.5 -151t-142.5 -55t-142.5 54t-51.5 150v36l85 14v-44q0 -72 26 -104.5t83 -32.5zM324 858h96l77 -118h-64l-61 70l-60 -70h-64z" />
    <glyph glyph-name="jcircumflex" unicode="&#x135;" horiz-adv-x="229" 
d="M0 -182v65q48 0 60 11q16 16 16 60v546h77v-551q0 -71 -32 -101q-31 -30 -121 -30zM66 693h96l77 -118h-64l-61 70l-60 -70h-64z" />
    <glyph glyph-name="uni0136" unicode="&#x136;" horiz-adv-x="590" 
d="M82 693h86v-373h2l308 373h100l-227 -268l247 -425h-100l-202 360l-128 -151v-209h-86v693zM285 -117h-36v77h98v-68l-52 -75h-46z" />
    <glyph glyph-name="uni0137" unicode="&#x137;" horiz-adv-x="508" 
d="M153 0h-77v693h77v-452h2l223 259h89l-168 -188l206 -312h-93l-161 259l-98 -108v-151zM273 -183h-46l36 66h-36v77h98v-68z" />
    <glyph glyph-name="kgreenlandic" unicode="&#x138;" horiz-adv-x="508" 
d="M76 500h77v-259h2l223 259h89l-168 -188l206 -312h-93l-161 259l-98 -108v-151h-77v500z" />
    <glyph glyph-name="Lacute" unicode="&#x139;" horiz-adv-x="481" 
d="M168 70h304v-70h-390v693h86v-623zM160 858h94l-98 -118h-69z" />
    <glyph glyph-name="lacute" unicode="&#x13a;" horiz-adv-x="241" 
d="M82 693h77v-693h-77v693zM154 858h94l-98 -118h-69z" />
    <glyph glyph-name="uni013B" unicode="&#x13b;" horiz-adv-x="481" 
d="M472 0h-390v693h86v-623h304v-70zM213 -183l36 66h-36v77h98v-68l-52 -75h-46z" />
    <glyph glyph-name="uni013C" unicode="&#x13c;" horiz-adv-x="241" 
d="M82 0v693h77v-693h-77zM110 -117h-36v77h98v-68l-52 -75h-46z" />
    <glyph glyph-name="Lcaron" unicode="&#x13d;" horiz-adv-x="481" 
d="M168 70h304v-70h-390v693h86v-623zM309 693v-38l-34 -105h-46v143h80z" />
    <glyph glyph-name="lcaron" unicode="&#x13e;" horiz-adv-x="239" 
d="M82 693h77v-693h-77v693zM279 693v-38l-34 -105h-46v143h80z" />
    <glyph glyph-name="Ldot" unicode="&#x13f;" horiz-adv-x="481" 
d="M168 70h304v-70h-390v693h86v-623z" />
    <glyph glyph-name="ldot" unicode="&#x140;" horiz-adv-x="317" 
d="M82 693h77v-693h-77v693z" />
    <glyph glyph-name="Lslash" unicode="&#x141;" horiz-adv-x="481" 
d="M168 70h304v-70h-390v244l-51 -18l-23 65l74 27v375h86v-344l133 48l23 -65l-156 -57v-205z" />
    <glyph glyph-name="lslash" unicode="&#x142;" horiz-adv-x="241" 
d="M256 444l-97 -36v-408h-77v380l-72 -26l-24 65l96 35v239h77v-211l73 27z" />
    <glyph glyph-name="Nacute" unicode="&#x143;" horiz-adv-x="668" 
d="M507 693h79v-693h-105l-319 581h-2v-581h-78v693h105l316 -564h4v564zM374 858h94l-98 -118h-69z" />
    <glyph glyph-name="nacute" unicode="&#x144;" horiz-adv-x="542" 
d="M466 381v-381h-77v373q0 31 -17 51t-43 20q-39 0 -69 -30l-107 -99v-315h-77v500h76v-112l74 74q51 51 115 51q56 0 90.5 -36t34.5 -96zM304 693h94l-98 -118h-69z" />
    <glyph glyph-name="uni0145" unicode="&#x145;" horiz-adv-x="668" 
d="M82 693h105l316 -564h4v564h79v-693h-105l-319 581h-2v-581h-78v693zM340 -183h-46l36 66h-36v77h98v-68z" />
    <glyph glyph-name="uni0146" unicode="&#x146;" horiz-adv-x="542" 
d="M76 0v500h76v-112l74 74q26 26 54 39q28 12 61 12q57 0 91 -36q34 -35 34 -96v-381h-77v373q0 31 -17 51t-43 20q-19 0 -36 -7t-33 -23l-107 -99v-315h-77zM260 -117h-36v77h98v-68l-52 -75h-46z" />
    <glyph glyph-name="Ncaron" unicode="&#x147;" horiz-adv-x="668" 
d="M507 693h79v-693h-105l-319 581h-2v-581h-78v693h105l316 -564h4v564zM403 858h64l-77 -118h-96l-76 118h64l60 -70z" />
    <glyph glyph-name="ncaron" unicode="&#x148;" horiz-adv-x="542" 
d="M466 381v-381h-77v373q0 31 -17 51t-43 20q-39 0 -69 -30l-107 -99v-315h-77v500h76v-112l74 74q51 51 115 51q56 0 90.5 -36t34.5 -96zM333 693h64l-77 -118h-96l-76 118h64l60 -70z" />
    <glyph glyph-name="napostrophe" unicode="&#x149;" horiz-adv-x="542" 
d="M76 0v500h76v-112l74 74q26 26 54 39q28 12 61 12q57 0 91 -36q34 -35 34 -96v-381h-77v373q0 31 -17 51t-43 20q-19 0 -36 -7t-33 -23l-107 -99v-315h-77zM260 616h-36v77h98v-68l-52 -75h-46z" />
    <glyph glyph-name="Eng" unicode="&#x14a;" horiz-adv-x="668" 
d="M82 693h105l316 -557h4v557h79v-744q0 -71 -33 -101t-122 -30h-30v65h30q26 0 42 2q11 3 18 9q16 16 16 60v14l-345 613h-2v-581h-78v693z" />
    <glyph glyph-name="eng" unicode="&#x14b;" horiz-adv-x="542" 
d="M314 -182v65q47 0 58 10q17 13 17 57v423q0 31 -17 51t-43 20q-39 0 -69 -30l-107 -99v-315h-77v500h76v-112l74 74q51 51 115 51q56 0 91 -36t35 -96v-432q0 -71 -32 -101t-121 -30z" />
    <glyph glyph-name="Omacron" unicode="&#x14c;" horiz-adv-x="694" 
d="M138 348q0 -123 58 -205q59 -83 151 -83t151 83q58 82 58 205q0 122 -57 205q-59 81 -152 81q-94 0 -151 -81q-58 -82 -58 -205zM642 348q0 -158 -81 -259q-82 -102 -214 -102t-213 102q-82 100 -82 259q0 158 82 258q81 100 213 100t214 -100q81 -100 81 -258zM223 803
h249v-63h-249v63z" />
    <glyph glyph-name="omacron" unicode="&#x14d;" horiz-adv-x="568" 
d="M516 250q0 -114 -65 -188q-65 -75 -168 -75t-167 75q-65 74 -65 188q0 113 65 189q65 74 167 74q103 0 168 -74q65 -76 65 -189zM126 250q0 -85 44 -141t113 -56q70 0 114 56q43 55 43 141t-43 141q-44 56 -114 56q-69 0 -113 -56t-44 -141zM159 638h249v-63h-249v63z
" />
    <glyph glyph-name="Obreve" unicode="&#x14e;" horiz-adv-x="694" 
d="M138 348q0 -123 58 -205q59 -83 151 -83t151 83q58 82 58 205q0 122 -57 205q-59 81 -152 81q-94 0 -151 -81q-58 -82 -58 -205zM642 348q0 -158 -81 -259q-82 -102 -214 -102t-213 102q-82 100 -82 259q0 158 82 258q81 100 213 100t214 -100q81 -100 81 -258zM347 793
q56 0 62 65h62q-3 -54 -36 -86t-88 -32t-88 32t-36 86h62q6 -65 62 -65z" />
    <glyph glyph-name="obreve" unicode="&#x14f;" horiz-adv-x="568" 
d="M516 250q0 -114 -65 -188q-65 -75 -168 -75t-167 75q-65 74 -65 188q0 113 65 189q65 74 167 74q103 0 168 -74q65 -76 65 -189zM126 250q0 -85 44 -141t113 -56q70 0 114 56q43 55 43 141t-43 141q-44 56 -114 56q-69 0 -113 -56t-44 -141zM283 628q56 0 62 65h62
q-3 -54 -36 -86t-88 -32t-88 32t-36 86h62q6 -65 62 -65z" />
    <glyph glyph-name="Ohungarumlaut" unicode="&#x150;" horiz-adv-x="694" 
d="M52 348q0 158 82 258q81 100 213 100t214 -100q81 -100 81 -258t-81 -259q-82 -102 -214 -102t-213 102q-82 100 -82 259zM138 348q0 -123 58 -205q59 -83 151 -83t151 83q58 82 58 205q0 122 -57 205q-59 81 -152 81q-94 0 -151 -81q-58 -82 -58 -205zM375 740l43 118
h84l-64 -118h-63zM316 740h-63l43 118h84z" />
    <glyph glyph-name="ohungarumlaut" unicode="&#x151;" horiz-adv-x="568" 
d="M116 62q-65 74 -65 188q0 113 65 189q65 74 167 74q103 0 168 -74q65 -76 65 -189q0 -114 -65 -188q-65 -75 -168 -75t-167 75zM170 391q-44 -56 -44 -141t44 -141t113 -56q70 0 114 56q43 55 43 141t-43 141q-44 56 -114 56q-69 0 -113 -56zM311 575l43 118h84l-64 -118
h-63zM252 575h-63l43 118h84z" />
    <glyph glyph-name="OE" unicode="&#x152;" horiz-adv-x="1018" 
d="M640 70h348v-70h-434v102h-1q-69 -115 -206 -115q-132 0 -213 102q-82 100 -82 259q0 158 82 258q81 100 213 100q137 0 206 -115h1v102h424v-70h-338v-227h278v-70h-278v-256zM138 348q0 -123 58 -205q59 -83 151 -83t151 83q58 82 58 205q0 122 -57 205q-59 81 -152 81
q-94 0 -151 -81q-58 -82 -58 -205z" />
    <glyph glyph-name="oe" unicode="&#x153;" horiz-adv-x="920" 
d="M658 53q51 0 83 25t54 82l73 -17q-27 -74 -82 -115t-128 -41q-135 0 -186 115q-61 -115 -189 -115q-103 0 -167 75q-65 74 -65 188q0 113 65 189q65 74 167 74q64 0 114 -32t78 -90q28 58 74.5 90t102.5 32q96 0 158 -74q60 -75 60 -189v-14h-358q0 -78 42 -131
q40 -52 104 -52zM126 250q0 -85 44 -141t113 -56q70 0 114 56q43 55 43 141t-43 141q-44 56 -114 56q-69 0 -113 -56t-44 -141zM652 447q-56 0 -95 -45t-42 -109h276q-6 71 -43.5 112.5t-95.5 41.5z" />
    <glyph glyph-name="Racute" unicode="&#x154;" horiz-adv-x="616" 
d="M411 323l179 -323h-102l-166 310h-154v-310h-86v693h256q101 0 157.5 -49t56.5 -134q0 -70 -37 -119.5t-104 -67.5zM324 623h-156v-245h151q145 0 145 129q0 60 -34 88t-106 28zM333 858h94l-98 -118h-69z" />
    <glyph glyph-name="racute" unicode="&#x155;" horiz-adv-x="351" 
d="M228 387l-75 -73v-314h-77v500h74v-116l66 66q43 43 65 54q20 9 52 9v-80q-33 0 -56 -10t-49 -36zM236 693h94l-98 -118h-69z" />
    <glyph glyph-name="uni0156" unicode="&#x156;" horiz-adv-x="616" 
d="M168 0h-86v693h256q101 0 157.5 -49t56.5 -134q0 -70 -37 -119q-38 -50 -104 -68l179 -323h-102l-166 310h-154v-310zM168 378h151q71 0 108 33q37 31 37 96q0 60 -34 88t-106 28h-156v-245zM299 -183h-46l36 66h-36v77h98v-68z" />
    <glyph glyph-name="uni0157" unicode="&#x157;" horiz-adv-x="351" 
d="M76 0v500h74v-116l66 66q43 43 65 54q20 9 52 9v-80q-34 0 -55 -10q-25 -11 -50 -36l-75 -73v-314h-77zM102 -117h-36v77h98v-68l-52 -75h-46z" />
    <glyph glyph-name="Rcaron" unicode="&#x158;" horiz-adv-x="616" 
d="M411 323l179 -323h-102l-166 310h-154v-310h-86v693h256q101 0 157.5 -49t56.5 -134q0 -70 -37 -119.5t-104 -67.5zM324 623h-156v-245h151q145 0 145 129q0 60 -34 88t-106 28zM362 858h64l-77 -118h-96l-76 118h64l60 -70z" />
    <glyph glyph-name="rcaron" unicode="&#x159;" horiz-adv-x="351" 
d="M228 387l-75 -73v-314h-77v500h74v-116l66 66q43 43 65 54q20 9 52 9v-80q-33 0 -56 -10t-49 -36zM265 693h64l-77 -118h-96l-76 118h64l60 -70z" />
    <glyph glyph-name="Sacute" unicode="&#x15a;" horiz-adv-x="565" 
d="M278 706q181 0 241 -187l-85 -13q-18 60 -61 94t-102 34q-60 0 -98 -31t-38 -82q0 -61 62 -94q17 -9 40 -17q21 -7 74 -21q70 -17 100 -30q34 -14 54 -28q71 -49 71 -142q0 -91 -63 -147q-64 -55 -172 -55q-197 0 -274 199l92 23q22 -71 71 -110t118 -39q66 0 106 34
t40 88q0 65 -64 98q-16 10 -41 18q-40 12 -77 22q-61 15 -97 29q-28 9 -53 26q-70 45 -70 134q0 87 63 142q61 55 163 55zM312 858h94l-98 -118h-69z" />
    <glyph glyph-name="sacute" unicode="&#x15b;" horiz-adv-x="492" 
d="M240 513q150 0 197 -124l-72 -23q-29 81 -128 81q-50 0 -79.5 -18t-29.5 -49t25 -50t110 -37q58 -13 82 -21q23 -8 45 -20q60 -36 60 -110q0 -70 -55 -112q-55 -43 -146 -43q-176 0 -212 153l74 16q15 -54 47.5 -78.5t90.5 -24.5q56 0 90 22t34 59q0 33 -25 54
q-27 21 -112 37q-45 10 -79 20q-21 6 -43 19q-58 35 -58 106q0 66 50 104.5t134 38.5zM280 693h94l-98 -118h-69z" />
    <glyph glyph-name="Scircumflex" unicode="&#x15c;" horiz-adv-x="565" 
d="M278 706q181 0 241 -187l-85 -13q-18 60 -61 94t-102 34q-60 0 -98 -31t-38 -82q0 -61 62 -94q17 -9 40 -17q21 -7 74 -21q70 -17 100 -30q34 -14 54 -28q71 -49 71 -142q0 -91 -63 -147q-64 -55 -172 -55q-197 0 -274 199l92 23q22 -71 71 -110t118 -39q66 0 106 34
t40 88q0 65 -64 98q-16 10 -41 18q-40 12 -77 22q-61 15 -97 29q-28 9 -53 26q-70 45 -70 134q0 87 63 142q61 55 163 55zM232 858h96l77 -118h-64l-61 70l-60 -70h-64z" />
    <glyph glyph-name="scircumflex" unicode="&#x15d;" horiz-adv-x="492" 
d="M240 513q150 0 197 -124l-72 -23q-29 81 -128 81q-50 0 -79.5 -18t-29.5 -49t25 -50t110 -37q58 -13 82 -21q23 -8 45 -20q60 -36 60 -110q0 -70 -55 -112q-55 -43 -146 -43q-176 0 -212 153l74 16q15 -54 47.5 -78.5t90.5 -24.5q56 0 90 22t34 59q0 33 -25 54
q-27 21 -112 37q-45 10 -79 20q-21 6 -43 19q-58 35 -58 106q0 66 50 104.5t134 38.5zM200 693h96l77 -118h-64l-61 70l-60 -70h-64z" />
    <glyph glyph-name="Scedilla" unicode="&#x15e;" horiz-adv-x="565" 
d="M268 -191q-63 0 -96 19l3 46q52 -15 96 -15q53 0 53 25q0 24 -42 24q-32 0 -58 -13l-15 38l54 56q-166 18 -236 197l92 23q22 -71 71 -110t118 -39q66 0 106 34t40 88q0 65 -64 98q-16 10 -41 18q-40 12 -77 22q-61 15 -97 29q-28 9 -53 26q-70 45 -70 134q0 87 63 142
q61 55 163 55q181 0 241 -187l-85 -13q-18 60 -61 94t-102 34q-60 0 -98 -31t-38 -82q0 -61 62 -94q17 -9 40 -17q21 -7 74 -21q70 -17 100 -30q34 -14 54 -28q71 -49 71 -142q0 -88 -58 -142q-57 -54 -159 -59l-26 -28h7q43 0 68 -19t25 -53q0 -38 -32.5 -58.5t-92.5 -20.5
z" />
    <glyph glyph-name="scedilla" unicode="&#x15f;" horiz-adv-x="492" 
d="M225 -191q-63 0 -96 19l3 46q52 -15 96 -15q53 0 53 25q0 24 -42 24q-32 0 -58 -13l-15 38l53 56q-150 12 -182 151l74 16q15 -54 47.5 -78.5t90.5 -24.5q56 0 90 22t34 59q0 33 -25 54q-27 21 -112 37q-45 10 -79 20q-21 6 -43 19q-58 35 -58 106q0 66 50 104.5
t134 38.5q150 0 197 -124l-72 -23q-29 81 -128 81q-50 0 -79.5 -18t-29.5 -49t25 -50t110 -37q58 -13 82 -21q23 -8 45 -20q60 -36 60 -110q0 -64 -46.5 -105.5t-126.5 -48.5l-27 -28h7q43 0 68 -19t25 -53q0 -38 -32.5 -58.5t-92.5 -20.5z" />
    <glyph glyph-name="Scaron" unicode="&#x160;" horiz-adv-x="565" 
d="M278 706q181 0 241 -187l-85 -13q-18 60 -61 94t-102 34q-60 0 -98 -31t-38 -82q0 -61 62 -94q17 -9 40 -17q21 -7 74 -21q70 -17 100 -30q34 -14 54 -28q71 -49 71 -142q0 -91 -63 -147q-64 -55 -172 -55q-197 0 -274 199l92 23q22 -71 71 -110t118 -39q66 0 106 34
t40 88q0 65 -64 98q-16 10 -41 18q-40 12 -77 22q-61 15 -97 29q-28 9 -53 26q-70 45 -70 134q0 87 63 142q61 55 163 55zM341 858h64l-77 -118h-96l-76 118h64l60 -70z" />
    <glyph glyph-name="scaron" unicode="&#x161;" horiz-adv-x="492" 
d="M240 513q150 0 197 -124l-72 -23q-29 81 -128 81q-50 0 -79.5 -18t-29.5 -49t25 -50t110 -37q58 -13 82 -21q23 -8 45 -20q60 -36 60 -110q0 -70 -55 -112q-55 -43 -146 -43q-176 0 -212 153l74 16q15 -54 47.5 -78.5t90.5 -24.5q56 0 90 22t34 59q0 33 -25 54
q-27 21 -112 37q-45 10 -79 20q-21 6 -43 19q-58 35 -58 106q0 66 50 104.5t134 38.5zM309 693h64l-77 -118h-96l-76 118h64l60 -70z" />
    <glyph glyph-name="uni0162" unicode="&#x162;" horiz-adv-x="540" 
d="M20 623v70h500v-70h-207v-623h-86v623h-207zM221 -117v77h98v-68l-52 -75h-46l36 66h-36z" />
    <glyph glyph-name="uni0163" unicode="&#x163;" horiz-adv-x="353" 
d="M20 500h93v141h77v-141h143v-66h-143v-307q0 -71 71 -71q21 0 37 4q19 3 35 9v-66q-35 -12 -78 -12q-76 0 -109 35t-33 109v299h-93v66zM105 -183l36 66h-36v77h98v-68l-52 -75h-46z" />
    <glyph glyph-name="Tcaron" unicode="&#x164;" horiz-adv-x="540" 
d="M520 623h-207v-623h-86v623h-207v70h500v-70zM333 858h64l-77 -118h-96l-76 118h64l60 -70z" />
    <glyph glyph-name="tcaron" unicode="&#x165;" horiz-adv-x="353" 
d="M20 500h93v141h77v-141h143v-66h-143v-307q0 -71 71 -71q21 0 37 4q19 3 35 9v-66q-35 -12 -78 -12q-76 0 -109 35t-33 109v299h-93v66zM291 616h-36v77h98v-68l-52 -75h-46z" />
    <glyph glyph-name="Tbar" unicode="&#x166;" horiz-adv-x="540" 
d="M430 326h-117v-326h-86v326h-118v69h118v228h-207v70h500v-70h-207v-228h117v-69z" />
    <glyph glyph-name="tbar" unicode="&#x167;" horiz-adv-x="353" 
d="M261 56q35 0 72 13v-66q-35 -12 -78 -12q-75 0 -108.5 34.5t-33.5 109.5v99h-93v66h93v134h-93v66h93v141h77v-141h143v-66h-143v-134h143v-66h-143v-107q0 -71 71 -71z" />
    <glyph glyph-name="Utilde" unicode="&#x168;" horiz-adv-x="638" 
d="M319 60q70 0 111.5 42t41.5 113v478h86v-484q0 -99 -67 -160q-68 -62 -172 -62q-103 0 -171 62t-68 160v484h86v-478q0 -71 41.5 -113t111.5 -42zM372 795q27 0 27 44h49q-1 -45 -21.5 -74.5t-53.5 -29.5q-28 0 -64 30q-23 19 -33 19q-24 0 -24 -44h-53q1 44 22.5 74
t53.5 30q24 0 63 -30q24 -19 34 -19z" />
    <glyph glyph-name="utilde" unicode="&#x169;" horiz-adv-x="531" 
d="M381 500h77v-500h-74v105l-67 -65q-54 -53 -118 -53q-54 0 -88 37q-35 38 -35 93v383h77v-374q0 -27 17.5 -49t40.5 -22q36 0 69 31l101 98v316zM321 630q27 0 27 44h49q-1 -45 -21.5 -74.5t-53.5 -29.5q-28 0 -64 30q-23 19 -33 19q-24 0 -24 -44h-53q1 44 22.5 74
t53.5 30q24 0 63 -30q24 -19 34 -19z" />
    <glyph glyph-name="Umacron" unicode="&#x16a;" horiz-adv-x="638" 
d="M319 60q70 0 111.5 42t41.5 113v478h86v-484q0 -99 -67 -160q-68 -62 -172 -62q-103 0 -171 62t-68 160v484h86v-478q0 -71 41.5 -113t111.5 -42zM199 803h249v-63h-249v63z" />
    <glyph glyph-name="umacron" unicode="&#x16b;" horiz-adv-x="531" 
d="M381 500h77v-500h-74v105l-67 -65q-54 -53 -118 -53q-54 0 -88 37q-35 38 -35 93v383h77v-374q0 -27 17.5 -49t40.5 -22q36 0 69 31l101 98v316zM148 638h249v-63h-249v63z" />
    <glyph glyph-name="Ubreve" unicode="&#x16c;" horiz-adv-x="638" 
d="M319 60q70 0 111.5 42t41.5 113v478h86v-484q0 -99 -67 -160q-68 -62 -172 -62q-103 0 -171 62t-68 160v484h86v-478q0 -71 41.5 -113t111.5 -42zM323 793q56 0 62 65h62q-3 -54 -36 -86t-88 -32t-88 32t-36 86h62q6 -65 62 -65z" />
    <glyph glyph-name="ubreve" unicode="&#x16d;" horiz-adv-x="531" 
d="M381 500h77v-500h-74v105l-67 -65q-54 -53 -118 -53q-54 0 -88 37q-35 38 -35 93v383h77v-374q0 -27 17.5 -49t40.5 -22q36 0 69 31l101 98v316zM272 628q56 0 62 65h62q-3 -54 -36 -86t-88 -32t-88 32t-36 86h62q6 -65 62 -65z" />
    <glyph glyph-name="Uring" unicode="&#x16e;" horiz-adv-x="638" 
d="M319 60q70 0 111.5 42t41.5 113v478h86v-484q0 -99 -67 -160q-68 -62 -172 -62q-103 0 -171 62t-68 160v484h86v-478q0 -71 41.5 -113t111.5 -42zM419 818q0 -40 -27.5 -68t-67.5 -28t-68 28t-28 68t28 68t68 28t67.5 -28t27.5 -68zM275 818q0 -21 14 -35t35 -14t34.5 14
t13.5 35t-13.5 35t-34.5 14t-35 -14t-14 -35z" />
    <glyph glyph-name="uring" unicode="&#x16f;" horiz-adv-x="531" 
d="M381 500h77v-500h-74v105l-67 -65q-54 -53 -118 -53q-54 0 -88 37q-35 38 -35 93v383h77v-374q0 -27 17.5 -49t40.5 -22q36 0 69 31l101 98v316zM368 653q0 -40 -27.5 -68t-67.5 -28t-68 28t-28 68t28 68t68 28t67.5 -28t27.5 -68zM224 653q0 -21 14 -35t35 -14t34.5 14
t13.5 35t-13.5 35t-34.5 14t-35 -14t-14 -35z" />
    <glyph glyph-name="Uhungarumlaut" unicode="&#x170;" horiz-adv-x="638" 
d="M80 209v484h86v-478q0 -71 42 -113q40 -42 111 -42q70 0 112 42q41 43 41 113v478h86v-484q0 -99 -67 -160q-68 -62 -172 -62q-103 0 -171 62t-68 160zM414 740h-63l43 118h84zM292 740h-63l43 118h84z" />
    <glyph glyph-name="uhungarumlaut" unicode="&#x171;" horiz-adv-x="531" 
d="M111 24q-35 38 -35 93v383h77v-374q0 -27 18 -49q16 -22 40 -22q17 0 36 8q15 7 33 23l101 98v316h77v-500h-74v105l-67 -65q-54 -53 -118 -53q-54 0 -88 37zM300 575l43 118h84l-64 -118h-63zM241 575h-63l43 118h84z" />
    <glyph glyph-name="Uogonek" unicode="&#x172;" horiz-adv-x="638" 
d="M345 -133q24 0 40 4v-48q-27 -9 -56 -9q-85 0 -85 68q0 21 15 52t36 54q-97 8 -155 69q-60 60 -60 152v484h86v-478q0 -71 41.5 -113t111.5 -42t111.5 42t41.5 113v478h86v-484q0 -84 -49.5 -142t-133.5 -74q-20 -18 -40 -52q-19 -31 -19 -48q0 -26 29 -26z" />
    <glyph glyph-name="uogonek" unicode="&#x173;" horiz-adv-x="531" 
d="M418 -133q24 0 40 4v-48q-27 -9 -56 -9q-85 0 -85 68q0 25 22 62q21 38 45 56v105l-67 -65q-54 -53 -118 -53q-54 0 -88 37q-35 38 -35 93v383h77v-374q0 -27 17.5 -49t40.5 -22q36 0 69 31l101 98v316h77v-500q-23 -16 -46 -53q-23 -35 -23 -54q0 -26 29 -26z" />
    <glyph glyph-name="Wcircumflex" unicode="&#x174;" horiz-adv-x="872" 
d="M780 693h87l-182 -693h-110l-140 559h-6l-141 -559h-100l-182 693h87l148 -608h2l151 608h84l151 -608h2zM385 858h96l77 -118h-64l-61 70l-60 -70h-64z" />
    <glyph glyph-name="wcircumflex" unicode="&#x175;" horiz-adv-x="717" 
d="M618 500h89l-152 -500h-78l-118 404h-2l-116 -404h-78l-153 500h89l104 -391h2l110 391h87l113 -391h2zM309 693h96l77 -118h-64l-61 70l-60 -70h-64z" />
    <glyph glyph-name="Ycircumflex" unicode="&#x176;" horiz-adv-x="546" 
d="M544 693l-228 -398v-295h-86v295l-228 398h97l177 -317l175 317h93zM227 858h96l77 -118h-64l-61 70l-60 -70h-64z" />
    <glyph glyph-name="ycircumflex" unicode="&#x177;" horiz-adv-x="470" 
d="M52 -191h-27v73h27q44 0 72 21.5t51 77.5l5 12q9 23 9 39q0 18 -13 48l-165 420h85l139 -371h3l138 371h84l-207 -522q-40 -101 -81 -136q-40 -33 -120 -33zM187 693h96l77 -118h-64l-61 70l-60 -70h-64z" />
    <glyph glyph-name="Ydieresis" unicode="&#x178;" horiz-adv-x="546" 
d="M544 693l-228 -398v-295h-86v295l-228 398h97l177 -317l175 317h93zM309 858h81v-94h-81v94zM161 858h81v-94h-81v94z" />
    <glyph glyph-name="Zacute" unicode="&#x179;" horiz-adv-x="524" 
d="M30 78l357 545h-347v70h446v-70l-359 -553h367v-70h-464v78zM285 740h-69l73 118h94z" />
    <glyph glyph-name="zacute" unicode="&#x17a;" horiz-adv-x="425" 
d="M112 66h283v-66h-365v73l273 361h-261v66h348v-67zM236 693h94l-98 -118h-69z" />
    <glyph glyph-name="Zdotaccent" unicode="&#x17b;" horiz-adv-x="524" 
d="M30 78l357 545h-347v70h446v-70l-359 -553h367v-70h-464v78zM217 764v94h81v-94h-81z" />
    <glyph glyph-name="zdotaccent" unicode="&#x17c;" horiz-adv-x="425" 
d="M112 66h283v-66h-365v73l273 361h-261v66h348v-67zM172 693h81v-94h-81v94z" />
    <glyph glyph-name="Zcaron" unicode="&#x17d;" horiz-adv-x="524" 
d="M30 78l357 545h-347v70h446v-70l-359 -553h367v-70h-464v78zM133 858h64l60 -70l61 70h64l-77 -118h-96z" />
    <glyph glyph-name="zcaron" unicode="&#x17e;" horiz-adv-x="425" 
d="M112 66h283v-66h-365v73l273 361h-261v66h348v-67zM265 693h64l-77 -118h-96l-76 118h64l60 -70z" />
    <glyph glyph-name="longs" unicode="&#x17f;" horiz-adv-x="333" 
d="M190 569v-569h-77v434h-93v66h93v50q0 156 142 156q46 0 78 -12v-67q-37 13 -72 13q-71 0 -71 -71z" />
    <glyph glyph-name="florin" unicode="&#x192;" horiz-adv-x="373" 
d="M72 -126q71 0 71 71v382h-112v66h112v153q0 156 142 156q46 0 78 -12v-66q-37 13 -72 13q-71 0 -71 -71v-173h124v-66h-124v-362q0 -156 -142 -156q-46 0 -78 12v66q37 -13 72 -13z" />
    <glyph glyph-name="uni0218" unicode="&#x218;" horiz-adv-x="565" 
d="M27 186l92 23q22 -71 71 -110t118 -39q66 0 106 34t40 88q0 33 -15 57q-17 25 -49 41q-16 10 -41 18q-40 12 -77 22q-61 15 -97 29q-28 9 -53 26q-70 45 -70 134q0 87 63 142q61 55 163 55q181 0 241 -187l-85 -13q-18 60 -61 94t-102 34q-60 0 -98 -31t-38 -82
q0 -61 62 -94q17 -9 40 -17q21 -7 74 -21q70 -17 100 -30q34 -14 54 -28q36 -25 54 -60q17 -36 17 -82q0 -91 -63 -147q-64 -55 -172 -55q-197 0 -274 199zM246 -40h98v-68l-52 -75h-46l36 66h-36v77z" />
    <glyph glyph-name="uni0219" unicode="&#x219;" horiz-adv-x="492" 
d="M37 140l74 16q15 -54 48 -78q31 -25 90 -25q56 0 90 22t34 59q0 33 -25 54q-27 21 -112 37q-45 10 -79 20q-21 6 -43 19q-58 35 -58 106q0 66 50 105q50 38 134 38q76 0 125 -30q48 -32 72 -94l-72 -23q-13 39 -47 61q-34 20 -81 20q-51 0 -79 -18q-30 -18 -30 -49
t25 -50t110 -37q58 -13 82 -21q23 -8 45 -20q30 -18 45 -45q15 -29 15 -65q0 -70 -55 -112q-55 -43 -146 -43q-87 0 -140 39q-54 38 -72 114zM196 -40h98v-68l-52 -75h-46l36 66h-36v77z" />
    <glyph glyph-name="uni021A" unicode="&#x21a;" horiz-adv-x="540" 
d="M20 623v70h500v-70h-207v-623h-86v623h-207zM221 -117v77h98v-68l-52 -75h-46l36 66h-36z" />
    <glyph glyph-name="uni021B" unicode="&#x21b;" horiz-adv-x="353" 
d="M20 500h93v141h77v-141h143v-66h-143v-307q0 -71 71 -71q21 0 37 4q19 3 35 9v-66q-35 -12 -78 -12q-76 0 -109 35t-33 109v299h-93v66zM105 -183l36 66h-36v77h98v-68l-52 -75h-46z" />
    <glyph glyph-name="uni0237" unicode="&#x237;" horiz-adv-x="229" 
d="M0 -182v65q48 0 60 11q16 16 16 60v546h77v-551q0 -71 -32 -101q-31 -30 -121 -30z" />
    <glyph glyph-name="uni02BC" unicode="&#x2bc;" horiz-adv-x="249" 
d="M122 550h-46l36 66h-36v77h98v-68z" />
    <glyph glyph-name="circumflex" unicode="&#x2c6;" horiz-adv-x="249" 
d="M76 693h96l77 -118h-64l-61 70l-60 -70h-64z" />
    <glyph glyph-name="caron" unicode="&#x2c7;" horiz-adv-x="249" 
d="M185 693h64l-77 -118h-96l-76 118h64l60 -70z" />
    <glyph glyph-name="breve" unicode="&#x2d8;" horiz-adv-x="249" 
d="M124 628q56 0 62 65h62q-3 -54 -36 -86t-88 -32t-88 32t-36 86h62q6 -65 62 -65z" />
    <glyph glyph-name="dotaccent" unicode="&#x2d9;" horiz-adv-x="249" 
d="M84 693h81v-94h-81v94z" />
    <glyph glyph-name="ring" unicode="&#x2da;" horiz-adv-x="249" 
d="M220 653q0 -40 -27.5 -68t-67.5 -28t-68 28t-28 68t28 68t68 28t67.5 -28t27.5 -68zM76 653q0 -21 14 -35t35 -14t34.5 14t13.5 35t-13.5 35t-34.5 14t-35 -14t-14 -35z" />
    <glyph glyph-name="ogonek" unicode="&#x2db;" horiz-adv-x="249" 
d="M123 -133q24 0 40 4v-48q-27 -9 -56 -9q-85 0 -85 68q0 24 21 61q19 36 43 57h77q-23 -16 -46 -53q-23 -35 -23 -54q0 -26 29 -26z" />
    <glyph glyph-name="tilde" unicode="&#x2dc;" horiz-adv-x="249" 
d="M173 630q27 0 27 44h49q-1 -45 -21.5 -74.5t-53.5 -29.5q-28 0 -64 30q-23 19 -33 19q-24 0 -24 -44h-53q1 44 22.5 74t53.5 30q24 0 63 -30q24 -19 34 -19z" />
    <glyph glyph-name="hungarumlaut" unicode="&#x2dd;" horiz-adv-x="249" 
d="M152 575l43 118h84l-64 -118h-63zM30 575l43 118h84l-64 -118h-63z" />
    <glyph glyph-name="uni0394" unicode="&#x394;" horiz-adv-x="633" 
d="M271 693h93l267 -693h-629zM315 604l-198 -535h399l-199 535h-2z" />
    <glyph glyph-name="uni03A9" unicode="&#x3a9;" horiz-adv-x="694" 
d="M519 70h123v-70h-236v68q69 54 110 137q40 81 40 170q0 113 -57 186q-58 73 -152 73t-151 -73q-58 -73 -58 -186q0 -86 41 -170t109 -137v-68h-236v70h123v7q-123 125 -123 300q0 146 82 237q81 92 213 92q131 0 214 -92q81 -92 81 -237q0 -175 -123 -300v-7z" />
    <glyph glyph-name="pi" unicode="&#x3c0;" horiz-adv-x="593" 
d="M544 56q3 0 29 2l-1 -65q-30 -2 -34 -2q-75 0 -108.5 34.5t-33.5 109.5v299h-206v-434h-77v434h-93v66h552v-66h-99v-307q0 -71 71 -71z" />
    <glyph glyph-name="Wgrave" unicode="&#x1e80;" horiz-adv-x="872" 
d="M780 693h87l-182 -693h-110l-140 559h-6l-141 -559h-100l-182 693h87l148 -608h2l151 608h84l151 -608h2zM309 858h94l73 -118h-69z" />
    <glyph glyph-name="wgrave" unicode="&#x1e81;" horiz-adv-x="717" 
d="M618 500h89l-152 -500h-78l-118 404h-2l-116 -404h-78l-153 500h89l104 -391h2l110 391h87l113 -391h2zM233 693h94l73 -118h-69z" />
    <glyph glyph-name="Wacute" unicode="&#x1e82;" horiz-adv-x="872" 
d="M780 693h87l-182 -693h-110l-140 559h-6l-141 -559h-100l-182 693h87l148 -608h2l151 608h84l151 -608h2zM465 858h94l-98 -118h-69z" />
    <glyph glyph-name="wacute" unicode="&#x1e83;" horiz-adv-x="717" 
d="M618 500h89l-152 -500h-78l-118 404h-2l-116 -404h-78l-153 500h89l104 -391h2l110 391h87l113 -391h2zM389 693h94l-98 -118h-69z" />
    <glyph glyph-name="Wdieresis" unicode="&#x1e84;" horiz-adv-x="872" 
d="M780 693h87l-182 -693h-110l-140 559h-6l-141 -559h-100l-182 693h87l148 -608h2l151 608h84l151 -608h2zM467 858h81v-94h-81v94zM319 858h81v-94h-81v94z" />
    <glyph glyph-name="wdieresis" unicode="&#x1e85;" horiz-adv-x="717" 
d="M618 500h89l-152 -500h-78l-118 404h-2l-116 -404h-78l-153 500h89l104 -391h2l110 391h87l113 -391h2zM391 693h81v-94h-81v94zM243 693h81v-94h-81v94z" />
    <glyph glyph-name="Ygrave" unicode="&#x1ef2;" horiz-adv-x="546" 
d="M544 693l-228 -398v-295h-86v295l-228 398h97l177 -317l175 317h93zM151 858h94l73 -118h-69z" />
    <glyph glyph-name="ygrave" unicode="&#x1ef3;" horiz-adv-x="470" 
d="M52 -191h-27v73h27q44 0 72 21.5t51 77.5l5 12q9 23 9 39q0 18 -13 48l-165 420h85l139 -371h3l138 371h84l-207 -522q-40 -101 -81 -136q-40 -33 -120 -33zM111 693h94l73 -118h-69z" />
    <glyph glyph-name="endash" unicode="&#x2013;" horiz-adv-x="500" 
d="M59 326h382v-69h-382v69z" />
    <glyph glyph-name="emdash" unicode="&#x2014;" horiz-adv-x="1000" 
d="M59 326h882v-69h-882v69z" />
    <glyph glyph-name="quoteleft" unicode="&#x2018;" horiz-adv-x="250" 
d="M174 471h-98v94l43 128h55l-38 -125h38v-97z" />
    <glyph glyph-name="quoteright" unicode="&#x2019;" horiz-adv-x="250" 
d="M131 471h-55l38 125h-38v97h98v-94z" />
    <glyph glyph-name="quotesinglbase" unicode="&#x201a;" horiz-adv-x="250" 
d="M131 -125h-55l38 125h-38v97h98v-94z" />
    <glyph glyph-name="quotedblleft" unicode="&#x201c;" horiz-adv-x="424" 
d="M250 471v94l43 128h55l-38 -125h38v-97h-98zM76 565l43 128h55l-38 -125h38v-97h-98v94z" />
    <glyph glyph-name="quotedblright" unicode="&#x201d;" horiz-adv-x="424" 
d="M348 693v-94l-43 -128h-55l38 125h-38v97h98zM174 693v-94l-43 -128h-55l38 125h-38v97h98z" />
    <glyph glyph-name="quotedblbase" unicode="&#x201e;" horiz-adv-x="424" 
d="M348 97v-94l-43 -128h-55l38 125h-38v97h98zM174 97v-94l-43 -128h-55l38 125h-38v97h98z" />
    <glyph glyph-name="dagger" unicode="&#x2020;" horiz-adv-x="434" 
d="M398 435h-143v-617h-76v617h-143v66h143v192h76v-192h143v-66z" />
    <glyph glyph-name="daggerdbl" unicode="&#x2021;" horiz-adv-x="434" 
d="M398 435h-143v-147h-76v147h-143v66h143v192h76v-192h143v-66zM398 0h-143v-182h-76v182h-143v66h143v157h76v-157h143v-66z" />
    <glyph glyph-name="bullet" unicode="&#x2022;" horiz-adv-x="485" 
d="M243 523q66 0 113 -47q46 -46 46 -113q0 -66 -46 -112q-47 -47 -113 -47t-113 47t-47 112q0 66 47 113t113 47z" />
    <glyph glyph-name="ellipsis" unicode="&#x2026;" horiz-adv-x="750" 
d="M76 97h98v-97h-98v97zM326 97h98v-97h-98v97zM576 97h98v-97h-98v97z" />
    <glyph glyph-name="perthousand" unicode="&#x2030;" horiz-adv-x="1176" 
d="M574 717h75l-397 -730h-74zM355 512q0 -74 -44 -124t-113 -50t-112 49q-44 50 -44 125t44 125q43 49 112 49q70 0 113 -49q44 -50 44 -125zM113 512q0 -51 22.5 -80.5t62.5 -29.5t62.5 29.5t22.5 80.5t-22.5 80.5t-62.5 29.5t-62.5 -29.5t-22.5 -80.5zM770 165
q0 -74 -44 -124t-113 -50t-109 49q-42 48 -42 125t42 126q40 48 109 48q70 0 113 -49q44 -50 44 -125zM533 165q0 -110 80 -110q40 0 62.5 29.5t22.5 80.5t-22.5 80.5t-62.5 29.5q-80 0 -80 -110zM1134 165q0 -74 -44 -124t-113 -50t-109 49q-42 48 -42 125t42 126
q40 48 109 48q70 0 113 -49q44 -50 44 -125zM897 165q0 -110 80 -110q40 0 62.5 29.5t22.5 80.5t-22.5 80.5t-62.5 29.5q-80 0 -80 -110z" />
    <glyph glyph-name="guilsinglleft" unicode="&#x2039;" horiz-adv-x="292" 
d="M256 481l-132 -192l132 -195h-84l-137 195l137 192h84z" />
    <glyph glyph-name="guilsinglright" unicode="&#x203a;" horiz-adv-x="292" 
d="M120 481l137 -192l-137 -195h-84l132 195l-132 192h84z" />
    <glyph glyph-name="fraction" unicode="&#x2044;" horiz-adv-x="100" 
d="M201 706h74l-375 -719h-75z" />
    <glyph glyph-name="uni2070" unicode="&#x2070;" horiz-adv-x="353" 
d="M87 497q0 -68 23.5 -107t63.5 -39t63.5 38.5t23.5 107.5t-23.5 107.5t-63.5 38.5t-63.5 -39t-23.5 -107zM331 497q0 -90 -43 -145q-44 -56 -114 -56q-71 0 -113 56q-43 55 -43 145q0 91 43 146q42 56 113 56q70 0 114 -56q43 -55 43 -146z" />
    <glyph glyph-name="uni2074" unicode="&#x2074;" horiz-adv-x="353" 
d="M339 386h-54v-83h-66v83h-197v59l180 248h83v-253h54v-54zM218 622l-132 -182h133z" />
    <glyph glyph-name="uni2075" unicode="&#x2075;" horiz-adv-x="353" 
d="M75 693h228v-56h-176l-17 -97q33 14 72 14q62 0 106 -35q42 -35 42 -90q0 -61 -44.5 -97t-117.5 -36q-56 0 -97.5 32.5t-52.5 83.5l71 8q17 -68 86 -68q83 0 83 75q0 32 -24 52t-63 20q-46 0 -71 -25h-60z" />
    <glyph glyph-name="uni2076" unicode="&#x2076;" horiz-adv-x="353" 
d="M183 699q53 0 85.5 -26t49.5 -84l-71 -8q-17 62 -70 62q-43 0 -64.5 -33t-27.5 -109q42 50 104 50q55 0 93 -33t38 -86q0 -58 -41 -97q-42 -39 -104 -39q-73 0 -115 55q-43 53 -43 142q0 91 44 149q43 57 122 57zM181 498q-46 0 -90 -52q10 -43 33.5 -68.5t54.5 -25.5
q30 0 50.5 21.5t20.5 54.5q0 32 -18.5 51t-50.5 19z" />
    <glyph glyph-name="uni2077" unicode="&#x2077;" horiz-adv-x="333" 
d="M161 303h-75q3 77 32 149q28 69 104 165l16 20h-220v56h293v-50l-28 -39q-65 -90 -90 -156q-24 -64 -32 -145z" />
    <glyph glyph-name="uni2078" unicode="&#x2078;" horiz-adv-x="353" 
d="M318 592q0 -48 -58 -81q69 -37 69 -97q0 -53 -44 -85q-43 -33 -111 -33q-66 0 -110 33q-45 31 -45 85q0 60 66 96q-55 35 -55 82q0 45 43 76q41 31 101 31q59 0 102 -31q42 -32 42 -76zM174 351q36 0 61 18t25 45q0 30 -24.5 49t-61.5 19q-36 0 -60.5 -19t-24.5 -49
q0 -27 24.5 -45t60.5 -18zM174 536q31 0 52.5 16t21.5 39t-21 37.5t-53 14.5t-52.5 -14.5t-20.5 -37.5t21.5 -39t51.5 -16z" />
    <glyph glyph-name="uni2079" unicode="&#x2079;" horiz-adv-x="353" 
d="M161 296q-115 0 -146 111l71 8q8 -29 28.5 -46t48.5 -17q45 0 68.5 33.5t29.5 108.5q-42 -50 -104 -50q-55 0 -93 33t-38 86q0 56 41 97q40 39 103 39q72 0 116 -57q43 -56 43 -138q0 -96 -44.5 -152t-123.5 -56zM165 497q46 0 90 52q-10 43 -33.5 68.5t-54.5 25.5
q-30 0 -50.5 -21.5t-20.5 -54.5q0 -32 18.5 -51t50.5 -19z" />
    <glyph glyph-name="uni2080" unicode="&#x2080;" horiz-adv-x="353" 
d="M87 194q0 -68 23.5 -107t63.5 -39t63.5 38.5t23.5 107.5t-23.5 107.5t-63.5 38.5t-63.5 -39t-23.5 -107zM331 194q0 -90 -43 -145q-44 -56 -114 -56q-71 0 -113 56q-43 55 -43 145q0 91 43 146q42 56 113 56q70 0 114 -56q43 -55 43 -146z" />
    <glyph glyph-name="uni2081" unicode="&#x2081;" horiz-adv-x="353" 
d="M242 54h92v-54h-271v54h113v257q-37 -56 -105 -83l-23 52q37 15 74 47q39 35 54 63h66v-336z" />
    <glyph glyph-name="uni2082" unicode="&#x2082;" horiz-adv-x="353" 
d="M110 56h206v-56h-297q7 46 36 84q28 37 104 87q91 60 91 106q0 27 -20.5 45t-51.5 18q-39 0 -61 -25.5t-30 -81.5l-63 18q8 64 51 104q43 41 104 41q60 0 101 -33q40 -33 40 -84q0 -37 -28 -73t-94 -80q-54 -36 -67 -47t-21 -23z" />
    <glyph glyph-name="uni2083" unicode="&#x2083;" horiz-adv-x="353" 
d="M253 124q0 32 -23.5 52t-62.5 20h-62v47l101 91h-175v56h267v-52l-99 -88q57 -6 91.5 -39.5t34.5 -84.5q0 -61 -44.5 -97t-118.5 -36q-55 0 -96.5 32.5t-52.5 83.5l71 8q17 -68 85 -68q84 0 84 75z" />
    <glyph glyph-name="uni2084" unicode="&#x2084;" horiz-adv-x="353" 
d="M339 83h-54v-83h-66v83h-197v59l180 248h83v-253h54v-54zM218 319l-132 -182h133z" />
    <glyph glyph-name="uni2085" unicode="&#x2085;" horiz-adv-x="353" 
d="M75 390h228v-56h-176l-17 -97q33 14 72 14q62 0 106 -35q42 -34 42 -90q0 -61 -44.5 -97t-117.5 -36q-56 0 -97.5 32.5t-52.5 83.5l71 8q17 -68 86 -68q83 0 83 75q0 32 -24 52t-63 20q-46 0 -71 -25h-60z" />
    <glyph glyph-name="uni2086" unicode="&#x2086;" horiz-adv-x="353" 
d="M183 396q53 0 85.5 -26t49.5 -84l-71 -8q-17 62 -70 62q-43 0 -64.5 -33t-27.5 -109q42 50 104 50q55 0 93 -33t38 -86q0 -58 -41 -97q-42 -39 -104 -39q-73 0 -115 55q-43 53 -43 142q0 91 44 149q43 57 122 57zM181 195q-46 0 -90 -52q10 -43 33.5 -68.5t54.5 -25.5
q30 0 50.5 21.5t20.5 54.5q0 32 -18.5 51t-50.5 19z" />
    <glyph glyph-name="uni2087" unicode="&#x2087;" horiz-adv-x="333" 
d="M161 0h-75q3 77 32 149q28 69 104 165l16 20h-220v56h293v-50l-28 -39q-65 -90 -90 -156q-24 -64 -32 -145z" />
    <glyph glyph-name="uni2088" unicode="&#x2088;" horiz-adv-x="353" 
d="M318 289q0 -48 -58 -81q69 -37 69 -97q0 -53 -44 -85q-43 -33 -111 -33q-66 0 -110 33q-45 31 -45 85q0 60 66 96q-55 35 -55 82q0 45 43 76q41 31 101 31q59 0 102 -31q42 -31 42 -76zM174 48q36 0 61 18t25 45q0 30 -24.5 49t-61.5 19q-36 0 -60.5 -19t-24.5 -49
q0 -27 24.5 -45t60.5 -18zM174 233q31 0 52.5 16t21.5 39t-21 37.5t-53 14.5t-52.5 -14.5t-20.5 -37.5t21.5 -39t51.5 -16z" />
    <glyph glyph-name="uni2089" unicode="&#x2089;" horiz-adv-x="353" 
d="M161 -7q-115 0 -146 111l71 8q8 -29 28.5 -46t48.5 -17q45 0 68.5 33.5t29.5 108.5q-42 -50 -104 -50q-55 0 -93 33t-38 86q0 56 41 97q41 39 103 39q72 0 116 -57q43 -56 43 -138q0 -96 -44.5 -152t-123.5 -56zM165 194q46 0 90 52q-10 43 -33.5 68.5t-54.5 25.5
q-30 0 -50.5 -21.5t-20.5 -54.5q0 -32 18.5 -51t50.5 -19z" />
    <glyph glyph-name="Euro" unicode="&#x20ac;" 
d="M340 56q40 0 73.5 27.5t54.5 78.5l77 -19q-30 -76 -84 -116t-126 -40q-87 0 -147 65t-80 180h-83v71h75q-1 8 -1 36q0 34 1 43h-75v71h84q22 112 83.5 176t148.5 64q131 0 197 -142l-71 -29q-22 48 -55.5 75t-70.5 27q-52 0 -91 -45t-55 -126h232v-71h-240q-1 -9 -1 -43
q0 -28 1 -36h240v-71h-233q14 -84 52.5 -130t93.5 -46z" />
    <glyph glyph-name="uni2113" unicode="&#x2113;" horiz-adv-x="446" 
d="M51 110l-21 60l85 57v242q0 115 36 170q36 54 112 54q62 0 95 -37q33 -38 33 -109q0 -88 -48 -172q-49 -84 -151 -172q1 -140 87 -140q27 0 51 15q25 14 53 48l39 -47q-29 -42 -70 -65q-40 -22 -89 -22q-66 0 -100 40q-36 40 -45 123zM208 590q-16 -33 -16 -108v-203
q61 71 93 137q30 64 30 124q0 85 -56 85q-34 0 -51 -35z" />
    <glyph glyph-name="trademark" unicode="&#x2122;" horiz-adv-x="651" 
d="M259 644h-84v-264h-60v264h-84v49h228v-49zM507 693h79v-313h-57v228h-1l-65 -148h-48l-61 148h-1v-228h-57v313h78l65 -157h2z" />
    <glyph glyph-name="Omega" unicode="&#x2126;" horiz-adv-x="694" 
d="M519 70h123v-70h-236v68q69 54 110 137q40 81 40 170q0 113 -57 186q-58 73 -152 73t-151 -73q-58 -73 -58 -186q0 -86 41 -170t109 -137v-68h-236v70h123v7q-123 125 -123 300q0 146 82 237q81 92 213 92q131 0 214 -92q81 -92 81 -237q0 -175 -123 -300v-7z" />
    <glyph glyph-name="estimated" unicode="&#x212e;" horiz-adv-x="883" 
d="M441 8q150 0 258 119h57q-55 -67 -137 -103.5t-178 -36.5q-159 0 -276 100q-125 106 -125 262q0 73 33 140.5t93 118.5q117 98 275 98q162 0 279 -101q59 -52 91 -121t32 -145h-645q-9 0 -9 -11v-178q0 -61 102 -107q80 -35 150 -35zM694 366v180q0 26 -18 47
q-100 94 -235 94q-133 0 -233 -94q-19 -26 -19 -47v-180q0 -8 9 -8h486q10 0 10 8z" />
    <glyph glyph-name="onethird" unicode="&#x2153;" horiz-adv-x="806" 
d="M242 357h92v-54h-271v54h113v257q-37 -56 -105 -83l-23 52q37 15 74 47q39 34 54 63h66v-336zM562 706h74l-375 -719h-75zM706 124q0 32 -23.5 52t-62.5 20h-62v47l101 91h-175v56h267v-52l-99 -88q57 -6 91.5 -39.5t34.5 -84.5q0 -61 -44.5 -97t-118.5 -36
q-55 0 -96.5 32.5t-52.5 83.5l71 8q17 -68 85 -68q84 0 84 75z" />
    <glyph glyph-name="twothirds" unicode="&#x2154;" horiz-adv-x="806" 
d="M110 359h206v-56h-297q7 47 36 84q28 37 104 87q91 60 91 106q0 27 -20.5 45t-51.5 18q-39 0 -61 -25.5t-30 -81.5l-63 18q8 64 51 104q43 41 104 41q60 0 101 -33q40 -33 40 -84q0 -37 -28 -73t-94 -80q-54 -36 -67 -47t-21 -23zM547 706h74l-375 -719h-75zM706 124
q0 32 -23.5 52t-62.5 20h-62v47l101 91h-175v56h267v-52l-99 -88q57 -6 91.5 -39.5t34.5 -84.5q0 -61 -44.5 -97t-118.5 -36q-55 0 -96.5 32.5t-52.5 83.5l71 8q17 -68 85 -68q84 0 84 75z" />
    <glyph glyph-name="oneeighth" unicode="&#x215b;" horiz-adv-x="806" 
d="M242 357h92v-54h-271v54h113v257q-37 -56 -105 -83l-23 52q37 15 74 47q39 34 54 63h66v-336zM574 706h74l-375 -719h-75zM771 289q0 -48 -58 -81q69 -37 69 -97q0 -53 -44 -85q-44 -33 -111 -33t-110 33q-45 31 -45 85q0 60 66 96q-55 35 -55 82q0 45 43 76
q41 31 101 31q59 0 102 -31q42 -32 42 -76zM627 48q36 0 61 18t25 45q0 30 -24.5 49t-61.5 19q-36 0 -60.5 -19t-24.5 -49q0 -27 24.5 -45t60.5 -18zM627 233q31 0 52.5 16t21.5 39t-21 37.5t-53 14.5t-52.5 -14.5t-20.5 -37.5t21.5 -39t51.5 -16z" />
    <glyph glyph-name="threeeighths" unicode="&#x215c;" horiz-adv-x="806" 
d="M253 427q0 32 -23.5 52t-62.5 20h-62v47l101 91h-175v56h267v-52l-99 -88q57 -6 91.5 -39.5t34.5 -84.5q0 -61 -44.5 -97t-118.5 -36q-55 0 -96.5 32.5t-52.5 83.5l71 8q17 -68 85 -68q84 0 84 75zM554 706h74l-375 -719h-75zM771 289q0 -48 -58 -81q69 -37 69 -97
q0 -53 -44 -85q-44 -33 -111 -33t-110 33q-45 31 -45 85q0 60 66 96q-55 35 -55 82q0 45 43 76q41 31 101 31q59 0 102 -31q42 -32 42 -76zM627 48q36 0 61 18t25 45q0 30 -24.5 49t-61.5 19q-36 0 -60.5 -19t-24.5 -49q0 -27 24.5 -45t60.5 -18zM627 233q31 0 52.5 16
t21.5 39t-21 37.5t-53 14.5t-52.5 -14.5t-20.5 -37.5t21.5 -39t51.5 -16z" />
    <glyph glyph-name="fiveeighths" unicode="&#x215d;" horiz-adv-x="806" 
d="M75 693h228v-56h-176l-17 -97q33 14 72 14q62 0 106 -35q42 -35 42 -90q0 -61 -44.5 -97t-117.5 -36q-56 0 -97.5 32.5t-52.5 83.5l71 8q17 -68 86 -68q83 0 83 75q0 32 -24 52t-63 20q-46 0 -71 -25h-60zM554 706h74l-375 -719h-75zM771 289q0 -48 -58 -81
q69 -37 69 -97q0 -53 -44 -85q-44 -33 -111 -33t-110 33q-45 31 -45 85q0 60 66 96q-55 35 -55 82q0 45 43 76q41 31 101 31q59 0 102 -31q42 -32 42 -76zM627 48q36 0 61 18t25 45q0 30 -24.5 49t-61.5 19q-36 0 -60.5 -19t-24.5 -49q0 -27 24.5 -45t60.5 -18zM627 233
q31 0 52.5 16t21.5 39t-21 37.5t-53 14.5t-52.5 -14.5t-20.5 -37.5t21.5 -39t51.5 -16z" />
    <glyph glyph-name="seveneighths" unicode="&#x215e;" horiz-adv-x="786" 
d="M161 303h-75q3 77 32 149q28 69 104 165l16 20h-220v56h293v-50l-28 -39q-65 -90 -90 -156q-24 -64 -32 -145zM504 706h74l-375 -719h-75zM751 289q0 -48 -58 -81q69 -37 69 -97q0 -53 -44 -85q-44 -33 -111 -33t-110 33q-45 31 -45 85q0 60 66 96q-55 35 -55 82
q0 45 43 76q41 31 101 31q59 0 102 -31q42 -32 42 -76zM607 48q36 0 61 18t25 45q0 30 -24.5 49t-61.5 19q-36 0 -60.5 -19t-24.5 -49q0 -27 24.5 -45t60.5 -18zM607 233q31 0 52.5 16t21.5 39t-21 37.5t-53 14.5t-52.5 -14.5t-20.5 -37.5t21.5 -39t51.5 -16z" />
    <glyph glyph-name="partialdiff" unicode="&#x2202;" horiz-adv-x="568" 
d="M338 506q-92 114 -210 187h108q117 -74 198 -200q82 -127 82 -243q0 -114 -65 -188q-65 -75 -168 -75t-167 75q-65 74 -65 188q0 113 65 189q65 74 167 74q23 0 55 -7zM126 250q0 -85 44 -141t113 -56q70 0 114 56q43 55 43 141t-43 141q-44 56 -114 56q-69 0 -113 -56
t-44 -141z" />
    <glyph glyph-name="Delta" unicode="&#x2206;" horiz-adv-x="633" 
d="M271 693h93l267 -693h-629zM315 604l-198 -535h399l-199 535h-2z" />
    <glyph glyph-name="product" unicode="&#x220f;" horiz-adv-x="653" 
d="M82 693h489v-693h-86v624h-317v-624h-86v693z" />
    <glyph glyph-name="summation" unicode="&#x2211;" horiz-adv-x="546" 
d="M46 693h460v-70h-357l252 -269l-255 -284h370v-70h-470v70l254 283l-254 270v70z" />
    <glyph glyph-name="minus" unicode="&#x2212;" 
d="M64 326h432v-71h-432v71z" />
    <glyph glyph-name="uni2215" unicode="&#x2215;" horiz-adv-x="100" 
d="M201 706h74l-375 -719h-75z" />
    <glyph glyph-name="radical" unicode="&#x221a;" horiz-adv-x="456" 
d="M400 692h85l-219 -692h-76l-186 500h86l139 -400h2z" />
    <glyph glyph-name="infinity" unicode="&#x221e;" 
d="M389 189q-24 0 -45 12q-20 10 -63 53q-7 -7 -20 -18q-22 -20 -30 -26q-28 -21 -61 -21q-43 0 -71.5 28.5t-28.5 73.5t28.5 73.5t71.5 28.5q23 0 47 -11q23 -12 63 -54q36 37 58.5 51t49.5 14q45 0 73.5 -27.5t28.5 -72.5t-29 -74.5t-72 -29.5zM172 239q18 0 74 52
q-53 52 -73 52q-18 0 -31 -15t-13 -36t12.5 -37t30.5 -16zM387 343q-20 0 -73 -52q53 -52 74 -52q18 0 30.5 15.5t12.5 36.5t-12.5 36.5t-31.5 15.5z" />
    <glyph glyph-name="integral" unicode="&#x222b;" horiz-adv-x="373" 
d="M72 -126q71 0 71 71v601q0 156 142 156q46 0 78 -12v-66q-37 13 -72 13q-71 0 -71 -71v-601q0 -156 -142 -156q-46 0 -78 12v66q37 -13 72 -13z" />
    <glyph glyph-name="approxequal" unicode="&#x2248;" 
d="M378 379q24 0 39.5 17.5t15.5 44.5h63q-2 -56 -35 -91q-34 -37 -84 -37q-46 0 -122 46q-49 30 -68 30q-20 0 -37 -20t-20 -47h-67q1 52 39 91q38 38 89 38q39 0 110 -41q55 -31 77 -31zM378 199q24 0 39.5 17.5t15.5 44.5h63q-2 -56 -35 -91q-34 -37 -84 -37
q-46 0 -122 46q-49 30 -68 30q-20 0 -37 -20t-20 -47h-67q1 52 39 91q38 38 89 38q39 0 110 -41q55 -31 77 -31z" />
    <glyph glyph-name="notequal" unicode="&#x2260;" 
d="M64 236h149l65 109h-214v71h257l89 148h76l-89 -148h99v-71h-141l-66 -109h207v-71h-249l-95 -158h-76l94 158h-106v71z" />
    <glyph glyph-name="lessequal" unicode="&#x2264;" 
d="M138 330l358 -163v-80l-432 207v73l432 207v-80zM64 71h432v-71h-432v71z" />
    <glyph glyph-name="greaterequal" unicode="&#x2265;" 
d="M64 574l432 -207v-73l-432 -207v80l358 163l-358 164v80zM64 71h432v-71h-432v71z" />
    <glyph glyph-name="lozenge" unicode="&#x25ca;" horiz-adv-x="515" 
d="M257 717l241 -369l-241 -381l-239 381zM257 587l-147 -241l147 -249l148 249z" />
    <glyph glyph-name="uniE027" unicode="&#xe027;" 
d="M519 339q0 -157 -65 -255q-64 -97 -174 -97t-174 97q-65 98 -65 255q0 158 65 256t174 98t174 -98t65 -256zM123 339q0 -133 42.5 -208t114.5 -75t114.5 75t42.5 208q0 136 -43 210q-44 75 -114 75t-113 -75q-44 -76 -44 -210z" />
    <glyph glyph-name="uniE028" unicode="&#xe028;" horiz-adv-x="490" 
d="M310 66h149v-66h-410v66h184v524q-17 -41 -73 -96q-58 -56 -104 -77l-28 71q56 24 117 84q61 58 84 111h81v-617z" />
    <glyph glyph-name="uniE029" unicode="&#xe029;" horiz-adv-x="539" 
d="M152 70h337v-70h-449q12 87 78 164q21 24 50 50q26 24 89 69q99 73 127 113q29 41 29 86q0 56 -39 100q-39 42 -95 42q-68 0 -107 -47.5t-52 -147.5l-74 22q9 111 73 176q63 66 163 66q90 0 152 -59q61 -60 61 -148q0 -81 -63 -150q-15 -17 -44 -43q-33 -28 -83 -64
q-81 -60 -112 -93q-31 -34 -41 -66z" />
    <glyph glyph-name="uniE02A" unicode="&#xe02a;" horiz-adv-x="549" 
d="M417 210q0 67 -43 108t-113 41h-85v62l189 192h-308v70h402v-73l-183 -184h8q95 0 157 -59t62 -153q0 -103 -68 -165q-70 -62 -181 -62q-84 0 -146 51q-62 50 -79 131l84 12q25 -124 152 -124q74 0 113 39t39 114z" />
    <glyph glyph-name="uniE02B" unicode="&#xe02b;" horiz-adv-x="547" 
d="M518 151h-86v-151h-77v151h-321v90l287 442h111v-464h86v-68zM353 618l-254 -399h256v399h-2z" />
    <glyph glyph-name="uniE02C" unicode="&#xe02c;" horiz-adv-x="550" 
d="M255 -13q-85 0 -146 51q-62 50 -79 131l84 12q25 -124 152 -124q150 0 150 153q0 66 -43 108q-44 41 -114 41q-79 0 -122 -46h-71l53 370h350v-70h-289l-31 -225q22 16 58.5 27t69.5 11q96 0 161 -59q64 -60 64 -153q0 -103 -68 -165t-179 -62z" />
    <glyph glyph-name="uniE02D" unicode="&#xe02d;" 
d="M296 693q82 0 138 -49t73 -133l-84 -12q-24 124 -130 124q-78 0 -118.5 -74t-40.5 -215q33 40 80 63.5t97 23.5q84 0 143 -59t59 -149q0 -97 -64 -161q-65 -66 -158 -66q-112 0 -176 100t-64 253t65 254q64 100 180 100zM299 356q-89 0 -160 -106q16 -91 57 -143t98 -52
q56 0 97 42q39 42 39 110q0 66 -36 107.5t-95 41.5z" />
    <glyph glyph-name="uniE02E" unicode="&#xe02e;" horiz-adv-x="528" 
d="M318 324q-63 -145 -75 -324h-93q5 116 41 222q30 94 96 203q20 32 70 107q43 64 54 81h-372v70h446v-70q-22 -35 -66 -104q-64 -99 -101 -185z" />
    <glyph glyph-name="uniE02F" unicode="&#xe02f;" 
d="M498 514q0 -44 -29 -85.5t-75 -63.5v-2q60 -26 93.5 -72t33.5 -103q0 -90 -69 -145q-70 -56 -172 -56q-103 0 -173 56q-69 55 -69 145q0 115 125 173v1q-43 20 -71 63q-30 42 -30 89q0 75 64 127t154 52t154 -52t64 -127zM280 394q56 0 96 34t40 82q0 49 -39 82
q-40 32 -97 32t-97 -32q-39 -33 -39 -82q0 -48 40 -82t96 -34zM280 56q64 0 113 38q47 38 47 93q0 62 -46 102q-46 39 -114 39q-66 0 -113 -39q-47 -41 -47 -102q0 -55 48 -93q47 -38 112 -38z" />
    <glyph glyph-name="uniE030" unicode="&#xe030;" 
d="M269 324q87 0 159 106q-13 82 -55 140q-41 54 -96 54q-59 0 -100 -41q-40 -41 -40 -105q0 -72 35 -113t97 -41zM262 -13q-82 0 -144 51q-61 51 -78 131l84 12q25 -124 149 -124q77 0 118.5 76t41.5 213q-33 -39 -79 -62q-49 -25 -95 -25q-87 0 -146 59t-59 151
q0 94 65 159t158 65q112 0 176 -100q63 -100 63 -257q0 -153 -67 -250q-67 -99 -187 -99z" />
    <glyph glyph-name="uniE039" unicode="&#xe039;" 
d="M123 339q0 -133 42.5 -208t114.5 -75t114.5 75t42.5 208q0 136 -43 210q-44 75 -114 75t-113 -75q-44 -76 -44 -210zM519 339q0 -157 -65 -255q-64 -97 -174 -97t-174 97q-65 98 -65 255q0 158 65 256t174 98t174 -98t65 -256z" />
    <glyph glyph-name="uniE03A" unicode="&#xe03a;" 
d="M375 66h149v-66h-410v66h184v524q-17 -41 -73 -96q-58 -56 -104 -77l-28 71q55 24 117 84q62 58 84 111h81v-617z" />
    <glyph glyph-name="uniE03B" unicode="&#xe03b;" 
d="M158 70h337v-70h-449q12 87 78 164q21 24 50 50q26 24 89 69q99 73 127 113q29 41 29 86q0 56 -39 100q-39 42 -95 42q-68 0 -107 -47.5t-52 -147.5l-74 22q9 111 73 176q63 66 163 66q90 0 152 -59q61 -60 61 -148q0 -81 -63 -150q-15 -17 -44 -43q-33 -28 -83 -64
q-81 -60 -112 -93q-31 -34 -41 -66z" />
    <glyph glyph-name="uniE03C" unicode="&#xe03c;" 
d="M424 210q0 67 -43 108t-113 41h-85v62l189 192h-308v70h402v-73l-183 -184h8q95 0 157 -59t62 -153q0 -103 -68 -165q-70 -62 -181 -62q-84 0 -146 51q-62 50 -79 131l84 12q25 -124 152 -124q74 0 113 39t39 114z" />
    <glyph glyph-name="uniE03D" unicode="&#xe03d;" 
d="M531 151h-86v-151h-77v151h-321v90l287 442h111v-464h86v-68zM366 618l-254 -399h256v399h-2z" />
    <glyph glyph-name="uniE03E" unicode="&#xe03e;" 
d="M270 -13q-84 0 -146 51q-62 50 -79 131l84 12q25 -124 152 -124q150 0 150 153q0 66 -43 108q-44 41 -114 41q-79 0 -122 -46h-71l53 370h350v-70h-289l-31 -225q22 16 58.5 27t69.5 11q96 0 161 -59q64 -60 64 -153q0 -103 -68 -165t-179 -62z" />
    <glyph glyph-name="uniE03F" unicode="&#xe03f;" 
d="M298 693q82 0 138 -49t73 -133l-84 -12q-24 124 -130 124q-78 0 -118.5 -74t-40.5 -215q33 40 80 63.5t97 23.5q84 0 143 -59t59 -149q0 -97 -64 -161q-65 -66 -158 -66q-112 0 -176 100t-64 253t65 254q64 100 180 100zM301 356q-89 0 -160 -106q16 -91 57 -143t98 -52
q56 0 97 42q39 42 39 110q0 66 -36 107.5t-95 41.5z" />
    <glyph glyph-name="uniE040" unicode="&#xe040;" 
d="M338 324q-63 -145 -75 -324h-93q5 116 41 222q30 94 96 203q20 32 70 107q43 64 54 81h-372v70h446v-70q-22 -35 -66 -104q-64 -99 -101 -185z" />
    <glyph glyph-name="uniE041" unicode="&#xe041;" 
d="M498 514q0 -44 -29 -85.5t-75 -63.5v-2q57 -25 89.5 -71.5t32.5 -103.5q0 -90 -67 -145q-68 -56 -169 -56t-169 56t-68 145q0 116 120 173v1q-43 20 -71 63q-30 42 -30 89q0 75 64 127t154 52t154 -52t64 -127zM280 56q62 0 109 38q46 37 46 93q0 63 -44 102
q-45 39 -111 39t-110 -39q-45 -39 -45 -102q0 -56 46 -93q47 -38 109 -38zM280 394q56 0 96 34t40 82q0 49 -39 82q-40 32 -97 32t-97 -32q-39 -33 -39 -82q0 -48 40 -82t96 -34z" />
    <glyph glyph-name="uniE042" unicode="&#xe042;" 
d="M253 -13q-83 0 -144 51t-78 131l84 12q25 -124 149 -124q77 0 118.5 76t41.5 213q-33 -39 -79 -62q-49 -25 -95 -25q-87 0 -146 59t-59 151q0 94 65 159t158 65q112 0 176 -100q63 -100 63 -257q0 -153 -67 -250q-68 -99 -187 -99zM260 324q87 0 159 106q-13 82 -55 140
q-40 54 -96 54q-59 0 -100 -41q-40 -41 -40 -105q0 -72 35 -113t97 -41z" />
    <glyph glyph-name="uniE04B" unicode="&#xe04b;" 
d="M513 250q0 -114 -65 -188q-64 -75 -168 -75q-103 0 -167 75q-65 74 -65 188q0 113 65 189q65 74 167 74q103 0 168 -74q65 -76 65 -189zM123 250q0 -85 44 -141t113 -56q70 0 114 56q43 55 43 141t-43 141q-44 56 -114 56q-69 0 -113 -56t-44 -141z" />
    <glyph glyph-name="uniE04C" unicode="&#xe04c;" 
d="M356 66h129v-66h-350v66h144v348q-31 -60 -137 -109l-28 63q120 52 161 145h81v-447z" />
    <glyph glyph-name="uniE04D" unicode="&#xe04d;" 
d="M187 66h279v-66h-390q7 53 46 103q38 48 141 113q81 53 104 81q23 29 23 60q0 42 -30 69t-78 27q-109 0 -127 -133l-74 17q7 80 64 129q56 47 141 47q82 0 134 -43q51 -43 51 -110q0 -47 -31 -87q-32 -41 -129 -102q-68 -43 -89 -61q-26 -24 -35 -44z" />
    <glyph glyph-name="uniE04E" unicode="&#xe04e;" 
d="M415 32q0 68 -39.5 108.5t-107.5 40.5h-85v60l180 189h-299v70h393v-71l-174 -181h8q93 0 150 -58q56 -59 56 -154q0 -104 -65 -166q-65 -61 -176 -61q-82 0 -143 50q-60 50 -77 132l84 12q25 -124 147 -124q148 0 148 153z" />
    <glyph glyph-name="uniE04F" unicode="&#xe04f;" 
d="M47 0v68l270 433h111v-433h86v-68h-86v-182h-77v182h-304zM349 436l-224 -368h226v368h-2z" />
    <glyph glyph-name="uniE050" unicode="&#xe050;" 
d="M270 -191q-82 0 -144 51q-60 50 -77 131l84 12q25 -125 146 -125q145 0 145 154q0 68 -41.5 109.5t-110.5 41.5q-71 0 -116 -48h-71l53 365h328v-70h-267l-31 -220q53 38 122 38q96 0 155 -58q60 -58 60 -154q0 -105 -63 -167q-63 -60 -172 -60z" />
    <glyph glyph-name="uniE051" unicode="&#xe051;" 
d="M297 693q81 0 139 -49q56 -49 73 -133l-84 -12q-14 65 -47 94.5t-92 29.5q-72 0 -111 -78t-39 -211q31 39 79 63t95 24q89 0 147 -58t58 -153t-64 -159q-65 -65 -159 -65q-112 0 -175 101q-64 100 -64 257q0 149 65 250q64 99 179 99zM300 356q-87 0 -159 -106
q13 -82 55 -140q40 -55 96 -55q60 0 100 42q40 40 40 104q0 72 -35 113.5t-97 41.5z" />
    <glyph glyph-name="uniE052" unicode="&#xe052;" 
d="M324 143q-66 -152 -78 -326h-86q5 116 41 222q30 94 96 203q20 32 70 107q43 65 54 81h-352v70h426v-70q-2 -3 -71 -111q-66 -100 -100 -176z" />
    <glyph glyph-name="uniE053" unicode="&#xe053;" 
d="M493 515q0 -47 -27.5 -88t-70.5 -62v-2q55 -25 85.5 -70.5t30.5 -105.5q0 -88 -65 -144t-165 -56t-165 56q-66 55 -66 145q0 118 114 173v1q-41 20 -67 62q-28 41 -28 90q0 75 62 128q61 51 150 51t150 -51q62 -53 62 -127zM281 53q63 0 110 39q45 38 45 95q0 62 -44 103
q-45 39 -111 39q-67 0 -110 -39q-45 -40 -45 -103q0 -58 46 -95q45 -39 109 -39zM281 393q55 0 96 35q40 34 40 82q0 50 -39 84q-40 33 -97 33t-96 -33q-40 -34 -40 -84q0 -48 40 -82q41 -35 96 -35z" />
    <glyph glyph-name="uniE054" unicode="&#xe054;" 
d="M256 -190q-82 0 -144 51q-61 51 -78 131l84 12q25 -124 149 -124q77 0 118.5 75t41.5 211q-33 -39 -79 -62q-49 -25 -95 -25q-87 0 -146 59t-59 151q0 94 65 159t158 65q112 0 176 -100q63 -101 63 -257q0 -152 -67 -249t-187 -97zM263 144q87 0 159 106q-13 82 -55 140
q-41 54 -96 54q-59 0 -100 -41q-40 -41 -40 -105q0 -72 35 -113t97 -41z" />
    <glyph glyph-name="uniE05D" unicode="&#xe05d;" horiz-adv-x="568" 
d="M516 250q0 -114 -65 -188q-65 -75 -168 -75t-167 75q-65 74 -65 188q0 113 65 189q65 74 167 74q103 0 168 -74q65 -76 65 -189zM126 250q0 -85 44 -141t113 -56q70 0 114 56q43 55 43 141t-43 141q-44 56 -114 56q-69 0 -113 -56t-44 -141z" />
    <glyph glyph-name="uniE05E" unicode="&#xe05e;" horiz-adv-x="422" 
d="M285 66h129v-66h-350v66h144v348q-31 -60 -137 -109l-28 63q120 52 161 145h81v-447z" />
    <glyph glyph-name="uniE05F" unicode="&#xe05f;" horiz-adv-x="466" 
d="M142 66h279v-66h-390q7 53 46 103q38 48 141 113q81 53 104 81q23 29 23 60q0 42 -30 69t-78 27q-109 0 -127 -133l-74 17q7 80 64 129q56 47 141 47q82 0 134 -43q51 -43 51 -110q0 -47 -31 -87q-31 -41 -129 -102q-68 -43 -89 -61q-26 -24 -35 -44z" />
    <glyph glyph-name="uniE060" unicode="&#xe060;" horiz-adv-x="499" 
d="M385 32q0 68 -39.5 108.5t-107.5 40.5h-85v60l180 189h-299v70h393v-71l-174 -181h8q93 0 150 -58q56 -59 56 -154q0 -104 -65 -166q-65 -61 -176 -61q-82 0 -143 50q-60 50 -77 132l84 12q25 -124 147 -124q148 0 148 153z" />
    <glyph glyph-name="uniE061" unicode="&#xe061;" horiz-adv-x="513" 
d="M27 0v68l270 433h111v-433h86v-68h-86v-182h-77v182h-304zM329 436l-224 -368h226v368h-2z" />
    <glyph glyph-name="uniE062" unicode="&#xe062;" horiz-adv-x="516" 
d="M250 -191q-82 0 -144 51q-60 50 -77 131l84 12q25 -125 146 -125q145 0 145 154q0 68 -41.5 109.5t-110.5 41.5q-71 0 -116 -48h-71l53 365h328v-70h-267l-31 -220q53 38 122 38q96 0 155 -58q60 -58 60 -154q0 -105 -63 -167q-63 -60 -172 -60z" />
    <glyph glyph-name="uniE063" unicode="&#xe063;" 
d="M297 693q81 0 139 -49q56 -49 73 -133l-84 -12q-14 65 -47 94.5t-92 29.5q-72 0 -111 -78t-39 -211q31 39 79 63t95 24q89 0 147 -58t58 -153t-64 -159q-65 -65 -159 -65q-112 0 -175 101q-64 100 -64 257q0 149 65 250q64 99 179 99zM300 356q-87 0 -159 -106
q13 -82 55 -140q40 -55 96 -55q60 0 100 42q40 40 40 104q0 72 -35 113.5t-97 41.5z" />
    <glyph glyph-name="uniE064" unicode="&#xe064;" horiz-adv-x="488" 
d="M277 143q-66 -152 -78 -326h-86q5 116 41 222q30 94 96 203q20 32 70 107q44 65 54 81h-352v70h426v-70q-2 -3 -71 -111q-66 -100 -100 -176z" />
    <glyph glyph-name="uniE065" unicode="&#xe065;" horiz-adv-x="561" 
d="M493 515q0 -47 -27.5 -88t-70.5 -62v-2q55 -25 85.5 -70.5t30.5 -105.5q0 -88 -65 -144t-165 -56t-165 56q-66 55 -66 145q0 118 114 173v1q-41 20 -67 62q-28 41 -28 90q0 75 62 128q61 51 150 51t150 -51q62 -53 62 -127zM281 53q63 0 110 39q45 38 45 95q0 62 -44 103
q-45 39 -111 39q-67 0 -110 -39q-45 -40 -45 -103q0 -58 46 -95q45 -39 109 -39zM281 393q55 0 96 35q40 34 40 82q0 50 -39 84q-40 33 -97 33t-96 -33q-40 -34 -40 -84q0 -48 40 -82q41 -35 96 -35z" />
    <glyph glyph-name="uniE066" unicode="&#xe066;" 
d="M252 -190q-82 0 -144 51q-61 51 -78 131l84 12q25 -124 149 -124q77 0 118.5 75t41.5 211q-33 -39 -79 -62q-49 -25 -95 -25q-87 0 -146 59t-59 151q0 94 65 159t158 65q112 0 176 -100q63 -101 63 -257q0 -152 -67 -249t-187 -97zM259 144q87 0 159 106q-13 82 -55 140
q-41 54 -96 54q-59 0 -100 -41q-40 -41 -40 -105q0 -72 35 -113t97 -41z" />
    <glyph glyph-name="uniE07C" unicode="&#xe07c;" horiz-adv-x="806" 
d="M242 357h92v-54h-271v54h113v257q-37 -56 -105 -83l-23 52q37 15 74 47q39 34 54 63h66v-336zM582 706h74l-375 -719h-75zM528 390h228v-56h-176l-17 -97q33 14 72 14q62 0 106 -35q42 -34 42 -90q0 -61 -44.5 -97t-117.5 -36q-56 0 -97.5 32.5t-52.5 83.5l71 8
q17 -68 86 -68q83 0 83 75q0 32 -24 52t-63 20q-46 0 -71 -25h-60z" />
    <glyph glyph-name="uniE07D" unicode="&#xe07d;" horiz-adv-x="806" 
d="M110 359h206v-56h-297q7 47 36 84q28 37 104 87q91 60 91 106q0 27 -20.5 45t-51.5 18q-39 0 -61 -25.5t-30 -81.5l-63 18q8 64 51 104q43 41 104 41q60 0 101 -33q40 -33 40 -84q0 -37 -28 -73t-94 -80q-54 -36 -67 -47t-21 -23zM574 706h74l-375 -719h-75zM528 390h228
v-56h-176l-17 -97q33 14 72 14q62 0 106 -35q42 -34 42 -90q0 -61 -44.5 -97t-117.5 -36q-56 0 -97.5 32.5t-52.5 83.5l71 8q17 -68 86 -68q83 0 83 75q0 32 -24 52t-63 20q-46 0 -71 -25h-60z" />
    <glyph glyph-name="uniE07E" unicode="&#xe07e;" horiz-adv-x="806" 
d="M253 427q0 32 -23.5 52t-62.5 20h-62v47l101 91h-175v56h267v-52l-99 -88q57 -6 91.5 -39.5t34.5 -84.5q0 -61 -44.5 -97t-118.5 -36q-55 0 -96.5 32.5t-52.5 83.5l71 8q17 -68 85 -68q84 0 84 75zM554 706h74l-375 -719h-75zM528 390h228v-56h-176l-17 -97q33 14 72 14
q62 0 106 -35q42 -34 42 -90q0 -61 -44.5 -97t-117.5 -36q-56 0 -97.5 32.5t-52.5 83.5l71 8q17 -68 86 -68q83 0 83 75q0 32 -24 52t-63 20q-46 0 -71 -25h-60z" />
    <glyph glyph-name="uniE07F" unicode="&#xe07f;" horiz-adv-x="806" 
d="M339 386h-54v-83h-66v83h-197v59l180 248h83v-253h54v-54zM218 622l-132 -182h133zM566 706h74l-375 -719h-75zM528 390h228v-56h-176l-17 -97q33 14 72 14q62 0 106 -35q42 -34 42 -90q0 -61 -44.5 -97t-117.5 -36q-56 0 -97.5 32.5t-52.5 83.5l71 8q17 -68 86 -68
q83 0 83 75q0 32 -24 52t-63 20q-46 0 -71 -25h-60z" />
    <glyph glyph-name="uniE080" unicode="&#xe080;" horiz-adv-x="806" 
d="M242 357h92v-54h-271v54h113v257q-37 -56 -105 -83l-23 52q37 15 74 47q39 34 54 63h66v-336zM584 706h74l-375 -719h-75zM636 396q53 0 85.5 -26t49.5 -84l-71 -8q-17 62 -70 62q-43 0 -64.5 -33t-27.5 -109q42 50 104 50q56 0 93 -33q38 -33 38 -86q0 -58 -41 -97
q-42 -39 -104 -39q-73 0 -115 55q-43 53 -43 142q0 91 44 149q44 57 122 57zM634 195q-46 0 -90 -52q10 -43 33.5 -68.5t54.5 -25.5q30 0 50.5 21.5t20.5 54.5q0 32 -18.5 51t-50.5 19z" />
    <glyph glyph-name="uniE081" unicode="&#xe081;" horiz-adv-x="806" 
d="M75 693h228v-56h-176l-17 -97q33 14 72 14q62 0 106 -35q42 -35 42 -90q0 -61 -44.5 -97t-117.5 -36q-56 0 -97.5 32.5t-52.5 83.5l71 8q17 -68 86 -68q83 0 83 75q0 32 -24 52t-63 20q-46 0 -71 -25h-60zM554 706h74l-375 -719h-75zM636 396q53 0 85.5 -26t49.5 -84
l-71 -8q-17 62 -70 62q-43 0 -64.5 -33t-27.5 -109q42 50 104 50q56 0 93 -33q38 -33 38 -86q0 -58 -41 -97q-42 -39 -104 -39q-73 0 -115 55q-43 53 -43 142q0 91 44 149q44 57 122 57zM634 195q-46 0 -90 -52q10 -43 33.5 -68.5t54.5 -25.5q30 0 50.5 21.5t20.5 54.5
q0 32 -18.5 51t-50.5 19z" />
    <glyph glyph-name="uniE082" unicode="&#xe082;" horiz-adv-x="786" 
d="M242 357h92v-54h-271v54h113v257q-37 -56 -105 -83l-23 52q37 15 74 47q39 34 54 63h66v-336zM554 706h74l-375 -719h-75zM614 0h-75q3 77 32 149q28 69 104 165l16 20h-220v56h293v-50l-28 -39q-64 -90 -90 -156q-24 -64 -32 -145z" />
    <glyph glyph-name="uniE083" unicode="&#xe083;" horiz-adv-x="786" 
d="M110 359h206v-56h-297q7 47 36 84q28 37 104 87q91 60 91 106q0 27 -20.5 45t-51.5 18q-39 0 -61 -25.5t-30 -81.5l-63 18q8 64 51 104q43 41 104 41q60 0 101 -33q40 -33 40 -84q0 -37 -28 -73t-94 -80q-54 -36 -67 -47t-21 -23zM544 706h74l-375 -719h-75zM614 0h-75
q3 77 32 149q28 69 104 165l16 20h-220v56h293v-50l-28 -39q-64 -90 -90 -156q-24 -64 -32 -145z" />
    <glyph glyph-name="uniE084" unicode="&#xe084;" horiz-adv-x="786" 
d="M253 427q0 32 -23.5 52t-62.5 20h-62v47l101 91h-175v56h267v-52l-99 -88q57 -6 91.5 -39.5t34.5 -84.5q0 -61 -44.5 -97t-118.5 -36q-55 0 -96.5 32.5t-52.5 83.5l71 8q17 -68 85 -68q84 0 84 75zM534 706h74l-375 -719h-75zM614 0h-75q3 77 32 149q28 69 104 165l16 20
h-220v56h293v-50l-28 -39q-64 -90 -90 -156q-24 -64 -32 -145z" />
    <glyph glyph-name="uniE085" unicode="&#xe085;" horiz-adv-x="786" 
d="M339 386h-54v-83h-66v83h-197v59l180 248h83v-253h54v-54zM218 622l-132 -182h133zM534 706h74l-375 -719h-75zM614 0h-75q3 77 32 149q28 69 104 165l16 20h-220v56h293v-50l-28 -39q-64 -90 -90 -156q-24 -64 -32 -145z" />
    <glyph glyph-name="uniE086" unicode="&#xe086;" horiz-adv-x="786" 
d="M75 693h228v-56h-176l-17 -97q33 14 72 14q62 0 106 -35q42 -35 42 -90q0 -61 -44.5 -97t-117.5 -36q-56 0 -97.5 32.5t-52.5 83.5l71 8q17 -68 86 -68q83 0 83 75q0 32 -24 52t-63 20q-46 0 -71 -25h-60zM534 706h74l-375 -719h-75zM614 0h-75q3 77 32 149
q28 69 104 165l16 20h-220v56h293v-50l-28 -39q-64 -90 -90 -156q-24 -64 -32 -145z" />
    <glyph glyph-name="uniE087" unicode="&#xe087;" horiz-adv-x="786" 
d="M183 699q53 0 85.5 -26t49.5 -84l-71 -8q-17 62 -70 62q-43 0 -64.5 -33t-27.5 -109q42 50 104 50q55 0 93 -33t38 -86q0 -58 -41 -97q-42 -39 -104 -39q-73 0 -115 55q-43 53 -43 142q0 91 44 149q43 57 122 57zM181 498q-46 0 -90 -52q10 -43 33.5 -68.5t54.5 -25.5
q30 0 50.5 21.5t20.5 54.5q0 32 -18.5 51t-50.5 19zM534 706h74l-375 -719h-75zM614 0h-75q3 77 32 149q28 69 104 165l16 20h-220v56h293v-50l-28 -39q-64 -90 -90 -156q-24 -64 -32 -145z" />
    <glyph glyph-name="uniE088" unicode="&#xe088;" horiz-adv-x="806" 
d="M242 357h92v-54h-271v54h113v257q-37 -56 -105 -83l-23 52q37 15 74 47q39 34 54 63h66v-336zM574 706h74l-375 -719h-75zM614 -7q-115 0 -146 111l71 8q8 -29 28.5 -46t48.5 -17q45 0 68.5 33.5t29.5 108.5q-42 -50 -104 -50q-56 0 -93 33q-38 33 -38 86q0 56 41 97
q40 39 103 39q73 0 116 -57q43 -56 43 -138q0 -96 -44.5 -152t-123.5 -56zM618 194q46 0 90 52q-10 43 -33.5 68.5t-54.5 25.5q-30 0 -50.5 -21.5t-20.5 -54.5q0 -32 18.5 -51t50.5 -19z" />
    <glyph glyph-name="uniE089" unicode="&#xe089;" horiz-adv-x="806" 
d="M110 359h206v-56h-297q7 47 36 84q28 37 104 87q91 60 91 106q0 27 -20.5 45t-51.5 18q-39 0 -61 -25.5t-30 -81.5l-63 18q8 64 51 104q43 41 104 41q60 0 101 -33q40 -33 40 -84q0 -37 -28 -73t-94 -80q-54 -36 -67 -47t-21 -23zM572 706h74l-375 -719h-75zM614 -7
q-115 0 -146 111l71 8q8 -29 28.5 -46t48.5 -17q45 0 68.5 33.5t29.5 108.5q-42 -50 -104 -50q-56 0 -93 33q-38 33 -38 86q0 56 41 97q40 39 103 39q73 0 116 -57q43 -56 43 -138q0 -96 -44.5 -152t-123.5 -56zM618 194q46 0 90 52q-10 43 -33.5 68.5t-54.5 25.5
q-30 0 -50.5 -21.5t-20.5 -54.5q0 -32 18.5 -51t50.5 -19z" />
    <glyph glyph-name="uniE08A" unicode="&#xe08a;" horiz-adv-x="806" 
d="M339 386h-54v-83h-66v83h-197v59l180 248h83v-253h54v-54zM218 622l-132 -182h133zM564 706h74l-375 -719h-75zM614 -7q-115 0 -146 111l71 8q8 -29 28.5 -46t48.5 -17q45 0 68.5 33.5t29.5 108.5q-42 -50 -104 -50q-56 0 -93 33q-38 33 -38 86q0 56 41 97q40 39 103 39
q73 0 116 -57q43 -56 43 -138q0 -96 -44.5 -152t-123.5 -56zM618 194q46 0 90 52q-10 43 -33.5 68.5t-54.5 25.5q-30 0 -50.5 -21.5t-20.5 -54.5q0 -32 18.5 -51t50.5 -19z" />
    <glyph glyph-name="uniE08B" unicode="&#xe08b;" horiz-adv-x="806" 
d="M75 693h228v-56h-176l-17 -97q33 14 72 14q62 0 106 -35q42 -35 42 -90q0 -61 -44.5 -97t-117.5 -36q-56 0 -97.5 32.5t-52.5 83.5l71 8q17 -68 86 -68q83 0 83 75q0 32 -24 52t-63 20q-46 0 -71 -25h-60zM554 706h74l-375 -719h-75zM614 -7q-115 0 -146 111l71 8
q8 -29 28.5 -46t48.5 -17q45 0 68.5 33.5t29.5 108.5q-42 -50 -104 -50q-56 0 -93 33q-38 33 -38 86q0 56 41 97q40 39 103 39q73 0 116 -57q43 -56 43 -138q0 -96 -44.5 -152t-123.5 -56zM618 194q46 0 90 52q-10 43 -33.5 68.5t-54.5 25.5q-30 0 -50.5 -21.5t-20.5 -54.5
q0 -32 18.5 -51t50.5 -19z" />
    <glyph glyph-name="uniE08C" unicode="&#xe08c;" horiz-adv-x="786" 
d="M161 303h-75q3 77 32 149q28 69 104 165l16 20h-220v56h293v-50l-28 -39q-65 -90 -90 -156q-24 -64 -32 -145zM505 706h74l-375 -719h-75zM594 -7q-115 0 -146 111l71 8q8 -29 28.5 -46t48.5 -17q45 0 68.5 33.5t29.5 108.5q-42 -50 -104 -50q-56 0 -93 33q-38 33 -38 86
q0 56 41 97q41 39 103 39q73 0 116 -57q43 -56 43 -138q0 -96 -44.5 -152t-123.5 -56zM598 194q46 0 90 52q-10 43 -33.5 68.5t-54.5 25.5q-30 0 -50.5 -21.5t-20.5 -54.5q0 -32 18.5 -51t50.5 -19z" />
    <glyph glyph-name="uniE08D" unicode="&#xe08d;" horiz-adv-x="806" 
d="M318 592q0 -48 -58 -81q69 -37 69 -97q0 -53 -44 -85q-43 -33 -111 -33q-66 0 -110 33q-45 31 -45 85q0 60 66 96q-55 35 -55 82q0 45 43 76q41 31 101 31q59 0 102 -31q42 -32 42 -76zM174 351q36 0 61 18t25 45q0 30 -24.5 49t-61.5 19q-36 0 -60.5 -19t-24.5 -49
q0 -27 24.5 -45t60.5 -18zM174 536q31 0 52.5 16t21.5 39t-21 37.5t-53 14.5t-52.5 -14.5t-20.5 -37.5t21.5 -39t51.5 -16zM554 706h74l-375 -719h-75zM614 -7q-115 0 -146 111l71 8q8 -29 28.5 -46t48.5 -17q45 0 68.5 33.5t29.5 108.5q-42 -50 -104 -50q-56 0 -93 33
q-38 33 -38 86q0 56 41 97q40 39 103 39q73 0 116 -57q43 -56 43 -138q0 -96 -44.5 -152t-123.5 -56zM618 194q46 0 90 52q-10 43 -33.5 68.5t-54.5 25.5q-30 0 -50.5 -21.5t-20.5 -54.5q0 -32 18.5 -51t50.5 -19z" />
    <glyph glyph-name="uniE08E" unicode="&#xe08e;" horiz-adv-x="353" 
d="M87 617q0 -68 23.5 -107t63.5 -39t63.5 38.5t23.5 107.5t-23.5 107.5t-63.5 38.5t-63.5 -39t-23.5 -107zM331 617q0 -90 -43 -145q-44 -56 -114 -56q-71 0 -113 56q-43 55 -43 145q0 91 43 146q42 56 113 56q70 0 114 -56q43 -55 43 -146z" />
    <glyph glyph-name="uniE08F" unicode="&#xe08f;" horiz-adv-x="353" 
d="M242 477h92v-54h-271v54h113v257q-37 -56 -105 -83l-23 52q37 15 74 47q39 34 54 63h66v-336z" />
    <glyph glyph-name="uniE090" unicode="&#xe090;" horiz-adv-x="353" 
d="M110 479h206v-56h-297q7 47 36 84q28 37 104 87q91 60 91 106q0 27 -20.5 45t-51.5 18q-39 0 -61 -25.5t-30 -81.5l-63 18q8 64 51 104q43 41 104 41q60 0 101 -33q40 -33 40 -84q0 -37 -28 -73t-94 -80q-54 -36 -67 -47t-21 -23z" />
    <glyph glyph-name="uniE091" unicode="&#xe091;" horiz-adv-x="353" 
d="M253 547q0 32 -23.5 52t-62.5 20h-62v47l101 91h-175v56h267v-52l-99 -88q57 -6 91.5 -39.5t34.5 -84.5q0 -61 -44.5 -97t-118.5 -36q-55 0 -96.5 32.5t-52.5 83.5l71 8q17 -68 85 -68q84 0 84 75z" />
    <glyph glyph-name="uniE092" unicode="&#xe092;" horiz-adv-x="353" 
d="M339 506h-54v-83h-66v83h-197v59l180 248h83v-253h54v-54zM218 742l-132 -182h133z" />
    <glyph glyph-name="uniE093" unicode="&#xe093;" horiz-adv-x="353" 
d="M75 813h228v-56h-176l-17 -97q33 14 72 14q62 0 106 -35q42 -35 42 -90q0 -61 -44.5 -97t-117.5 -36q-56 0 -97.5 32.5t-52.5 83.5l71 8q17 -68 86 -68q83 0 83 75q0 32 -24 52t-63 20q-46 0 -71 -25h-60z" />
    <glyph glyph-name="uniE094" unicode="&#xe094;" horiz-adv-x="353" 
d="M183 819q53 0 85.5 -26t49.5 -84l-71 -8q-17 62 -70 62q-43 0 -64.5 -33t-27.5 -109q42 50 104 50q55 0 93 -33t38 -86q0 -58 -41 -97q-42 -39 -104 -39q-73 0 -115 55q-43 53 -43 142q0 91 44 149q43 57 122 57zM181 618q-46 0 -90 -52q10 -43 33.5 -68.5t54.5 -25.5
q30 0 50.5 21.5t20.5 54.5q0 32 -18.5 51t-50.5 19z" />
    <glyph glyph-name="uniE095" unicode="&#xe095;" horiz-adv-x="333" 
d="M161 423h-75q3 77 32 149q28 69 104 165l16 20h-220v56h293v-50l-28 -39q-65 -90 -90 -156q-24 -64 -32 -145z" />
    <glyph glyph-name="uniE096" unicode="&#xe096;" horiz-adv-x="353" 
d="M318 712q0 -48 -58 -81q69 -37 69 -97q0 -53 -44 -85q-43 -33 -111 -33q-66 0 -110 33q-45 31 -45 85q0 60 66 96q-55 35 -55 82q0 45 43 76q41 31 101 31q59 0 102 -31q42 -32 42 -76zM174 471q36 0 61 18t25 45q0 30 -24.5 49t-61.5 19q-36 0 -60.5 -19t-24.5 -49
q0 -27 24.5 -45t60.5 -18zM174 656q31 0 52.5 16t21.5 39t-21 37.5t-53 14.5t-52.5 -14.5t-20.5 -37.5t21.5 -39t51.5 -16z" />
    <glyph glyph-name="uniE097" unicode="&#xe097;" horiz-adv-x="353" 
d="M161 416q-115 0 -146 111l71 8q8 -29 28.5 -46t48.5 -17q45 0 68.5 33.5t29.5 108.5q-42 -50 -104 -50q-55 0 -93 33t-38 86q0 56 41 97q40 39 103 39q72 0 116 -57q43 -56 43 -138q0 -96 -44.5 -152t-123.5 -56zM165 617q46 0 90 52q-10 43 -33.5 68.5t-54.5 25.5
q-30 0 -50.5 -21.5t-20.5 -54.5q0 -32 18.5 -51t50.5 -19z" />
    <glyph glyph-name="uniE098" unicode="&#xe098;" horiz-adv-x="353" 
d="M87 74q0 -68 23.5 -107t63.5 -39t63.5 38.5t23.5 107.5t-23.5 107.5t-63.5 38.5t-63.5 -39t-23.5 -107zM331 74q0 -91 -43 -146t-114 -55t-113 55q-43 55 -43 146t43 146q42 56 113 56q70 0 114 -56q43 -55 43 -146z" />
    <glyph glyph-name="uniE099" unicode="&#xe099;" horiz-adv-x="353" 
d="M242 -66h92v-54h-271v54h113v257q-37 -56 -105 -83l-23 52q37 15 74 47q39 35 54 63h66v-336z" />
    <glyph glyph-name="uniE09A" unicode="&#xe09a;" horiz-adv-x="353" 
d="M110 -64h206v-56h-297q7 46 36 84q28 37 104 87q91 60 91 106q0 27 -20.5 45t-51.5 18q-39 0 -61 -25.5t-30 -81.5l-63 18q8 64 51 104q43 41 104 41q60 0 101 -33q40 -33 40 -84q0 -37 -28 -73t-94 -80q-54 -36 -67 -47t-21 -23z" />
    <glyph glyph-name="uniE09B" unicode="&#xe09b;" horiz-adv-x="353" 
d="M253 4q0 32 -23.5 52t-62.5 20h-62v47l101 91h-175v56h267v-52l-99 -88q57 -6 91.5 -39.5t34.5 -84.5q0 -61 -44.5 -97t-118.5 -36q-55 0 -96.5 32.5t-52.5 83.5l71 8q17 -68 85 -68q84 0 84 75z" />
    <glyph glyph-name="uniE09C" unicode="&#xe09c;" horiz-adv-x="353" 
d="M339 -37h-54v-83h-66v83h-197v59l180 248h83v-253h54v-54zM218 199l-132 -182h133z" />
    <glyph glyph-name="uniE09D" unicode="&#xe09d;" horiz-adv-x="353" 
d="M75 270h228v-56h-176l-17 -97q33 14 72 14q62 0 106 -35q42 -34 42 -90q0 -61 -44.5 -97t-117.5 -36q-56 0 -97.5 32.5t-52.5 83.5l71 8q17 -68 86 -68q83 0 83 75q0 32 -24 52t-63 20q-46 0 -71 -25h-60z" />
    <glyph glyph-name="uniE09E" unicode="&#xe09e;" horiz-adv-x="353" 
d="M183 276q53 0 85.5 -26t49.5 -84l-71 -8q-17 62 -70 62q-43 0 -64.5 -33t-27.5 -109q42 50 104 50q55 0 93 -33t38 -86q0 -58 -41 -97q-42 -39 -104 -39q-73 0 -115 54q-43 55 -43 143q0 91 44 149q43 57 122 57zM181 75q-46 0 -90 -52q10 -43 33.5 -68.5t54.5 -25.5
q30 0 50.5 21.5t20.5 54.5q0 32 -18.5 51t-50.5 19z" />
    <glyph glyph-name="uniE09F" unicode="&#xe09f;" horiz-adv-x="333" 
d="M161 -120h-75q3 77 32 149q28 69 104 165l16 20h-220v56h293v-50l-28 -39q-65 -90 -90 -156q-24 -64 -32 -145z" />
    <glyph glyph-name="uniE0A0" unicode="&#xe0a0;" horiz-adv-x="353" 
d="M318 169q0 -48 -58 -81q69 -37 69 -97q0 -53 -44 -86q-44 -32 -111 -32q-66 0 -110 32q-45 33 -45 86q0 60 66 96q-55 35 -55 82q0 45 43 76q41 31 101 31q59 0 102 -31q42 -32 42 -76zM174 -72q36 0 61 18t25 45q0 30 -24.5 49t-61.5 19q-36 0 -60.5 -19t-24.5 -49
q0 -27 24.5 -45t60.5 -18zM174 113q31 0 52.5 16t21.5 39t-21 37.5t-53 14.5t-52.5 -14.5t-20.5 -37.5t21.5 -39t51.5 -16z" />
    <glyph glyph-name="uniE0A1" unicode="&#xe0a1;" horiz-adv-x="353" 
d="M161 -127q-115 0 -146 111l71 8q8 -29 28.5 -46t48.5 -17q45 0 68.5 33.5t29.5 108.5q-42 -50 -104 -50q-55 0 -93 33t-38 86q0 56 41 97q41 39 103 39q72 0 116 -57q43 -56 43 -138q0 -96 -44.5 -152t-123.5 -56zM165 74q46 0 90 52q-10 43 -33.5 68.5t-54.5 25.5
q-30 0 -50.5 -21.5t-20.5 -54.5q0 -32 18.5 -51t50.5 -19z" />
    <glyph glyph-name="uniE166" unicode="&#xe166;" horiz-adv-x="241" 
d="M80 693h81v-94h-81v94zM82 500h77v-500h-77v500z" />
    <glyph glyph-name="uniE189" unicode="&#xe189;" horiz-adv-x="249" 
d="M156 693v-38l-34 -105h-46v143h80z" />
    <glyph glyph-name="uniE18A" unicode="&#xe18a;" horiz-adv-x="249" 
d="M174 575h-98v68l52 75h46l-36 -66h36v-77z" />
    <glyph glyph-name="uniE1E8" unicode="&#xe1e8;" horiz-adv-x="300" 
d="M141 341q0 -99 36 -223q36 -126 88 -210h-78q-48 72 -88 203q-40 126 -40 230q0 102 42 234q41 131 92 208h72q-51 -83 -87 -212q-37 -129 -37 -230z" />
    <glyph glyph-name="uniE1E9" unicode="&#xe1e9;" horiz-adv-x="300" 
d="M241 341q0 -103 -39 -230q-42 -133 -89 -203h-78q52 84 88 210q36 124 36 223t-36 230q-37 130 -88 212h72q50 -76 93 -208q41 -134 41 -234z" />
    <glyph glyph-name="uniE1EA" unicode="&#xe1ea;" horiz-adv-x="303" 
d="M261 -30h23v-62h-32q-78 0 -110 34t-32 114v165q0 102 -72 102h-11v66h11q72 0 72 102v144q0 80 32 114t110 34h32v-62h-23q-75 0 -75 -86v-163q0 -40 -21.5 -72t-54.5 -40v-2q33 -7 54.5 -41t21.5 -78v-183q0 -86 75 -86z" />
    <glyph glyph-name="uniE1EB" unicode="&#xe1eb;" horiz-adv-x="303" 
d="M51 -92h-32v62h23q75 0 75 86v183q0 44 21.5 78t54.5 41v2q-33 8 -54.5 40t-21.5 72v163q0 86 -75 86h-23v62h32q78 0 110 -34t32 -114v-144q0 -102 72 -102h11v-66h-11q-72 0 -72 -102v-165q0 -80 -32 -114t-110 -34z" />
    <glyph glyph-name="uniE1EC" unicode="&#xe1ec;" horiz-adv-x="303" 
d="M161 -30h122v-62h-198v875h198v-62h-122v-751z" />
    <glyph glyph-name="uniE1ED" unicode="&#xe1ed;" horiz-adv-x="303" 
d="M20 783h198v-875h-198v62h122v751h-122v62z" />
    <glyph glyph-name="uniE1EE" unicode="&#xe1ee;" horiz-adv-x="500" 
d="M59 397h382v-69h-382v69z" />
    <glyph glyph-name="uniE1EF" unicode="&#xe1ef;" horiz-adv-x="1000" 
d="M59 397h882v-69h-882v69z" />
    <glyph glyph-name="uniE1F0" unicode="&#xe1f0;" horiz-adv-x="482" 
d="M225 363l137 192h84l-132 -192l132 -195h-84zM35 363l137 192h84l-132 -192l132 -195h-84z" />
    <glyph glyph-name="uniE1F1" unicode="&#xe1f1;" horiz-adv-x="482" 
d="M358 363l-132 192h84l137 -192l-137 -195h-84zM36 168l132 195l-132 192h84l137 -192l-137 -195h-84z" />
    <glyph glyph-name="uniE1F2" unicode="&#xe1f2;" horiz-adv-x="292" 
d="M256 555l-132 -192l132 -195h-84l-137 195l137 192h84z" />
    <glyph glyph-name="uniE1F3" unicode="&#xe1f3;" horiz-adv-x="292" 
d="M120 555l137 -192l-137 -195h-84l132 195l-132 192h84z" />
    <glyph glyph-name="uniE1F6" unicode="&#xe1f6;" horiz-adv-x="454" 
d="M286 596h-98v97h98v-97zM120 337q50 59 66 96q15 37 15 79h72q0 -57 -17 -105q-19 -48 -72 -112q-39 -47 -52 -75q-12 -29 -12 -58q0 -49 29.5 -78t78.5 -29q48 0 85.5 38.5t58.5 108.5l74 -27q-27 -89 -85.5 -138.5t-137.5 -49.5q-85 0 -134 48q-51 47 -51 126
q0 43 16 79q15 37 66 97z" />
    <glyph glyph-name="uniE1F7" unicode="&#xe1f7;" horiz-adv-x="227" 
d="M162 596h-97v97h97v-97zM164 0h-100l27 512h46z" />
    <glyph glyph-name="uniE1F8" unicode="&#xe1f8;" horiz-adv-x="285" 
d="M27 396h231v-72h-231v72z" />
    <glyph glyph-name="uniE1F9" unicode="&#xe1f9;" horiz-adv-x="239" 
d="M84 796h71v-889h-71v889z" />
    <glyph glyph-name="uniE1FB" unicode="&#xe1fb;" horiz-adv-x="763" 
d="M389 42q77 0 145 37l29 -45q-93 -47 -181 -47q-145 0 -243 101q-97 100 -97 253q0 156 100 260q100 105 246 105q143 0 242 -101q98 -103 98 -246q0 -97 -43 -158q-44 -62 -113 -62q-67 0 -84 54q-41 -61 -121 -61q-73 0 -115 56.5t-42 158.5q0 99 45 156t118 57
q61 0 102 -47v39h68v-268q0 -49 10 -70t33 -21q37 0 58 42.5t21 114.5q0 131 -76 216t-195 85q-122 0 -201 -87q-80 -89 -80 -217q0 -129 79 -217t197 -88zM381 194q44 0 68 28.5t24 80.5v84q0 53 -23.5 81.5t-66.5 28.5q-49 0 -75 -37.5t-26 -109.5q0 -156 99 -156z" />
    <glyph glyph-name="uniF6C3" unicode="&#xf6c3;" horiz-adv-x="249" 
d="M122 -183h-46l36 66h-36v77h98v-68z" />
    <glyph glyph-name="M.alt" horiz-adv-x="788" 
d="M573 693h133v-693h-80v609h-3l-194 -609h-73l-193 609h-2v-609h-79v693h134l179 -568z" />
    <glyph glyph-name="a.alt" horiz-adv-x="567" 
d="M419 500h74v-500h-74v88h-1q-24 -47 -66 -74t-92 -27q-91 0 -150 74q-58 73 -58 188q0 116 61 190q62 74 153 74q50 0 92 -28t60 -73h1v88zM130 249q0 -93 37.5 -144.5t105.5 -51.5t106 52.5t38 143.5q0 85 -39 141q-40 55 -105 55q-67 0 -105 -52.5t-38 -143.5z" />
    <glyph glyph-name="ae.alt" horiz-adv-x="899" 
d="M490 42v-42h-71v88h-1q-24 -47 -66 -74t-92 -27q-91 0 -150 74q-58 73 -58 188q0 116 61 190q62 74 153 74q50 0 92 -28t60 -73h1v88h71v-52q56 65 141 65q96 0 158 -74q60 -75 60 -189v-14h-358q0 -78 42 -131q40 -52 104 -52q51 0 83 25t54 82l73 -17q-27 -74 -82 -115
t-128 -41q-92 0 -147 55zM130 249q0 -93 37.5 -144.5t105.5 -51.5t106 52.5t38 143.5q0 85 -39 141q-40 55 -105 55q-67 0 -105 -52.5t-38 -143.5zM631 447q-56 0 -95 -45t-42 -109h276q-6 71 -43.5 112.5t-95.5 41.5z" />
    <glyph glyph-name="kgreenlandic.case" horiz-adv-x="644" 
d="M82 693h86v-373h2l308 373h100l-227 -268l247 -425h-100l-202 360l-128 -151v-209h-86v693zM674 575h-98v68l52 75h46l-36 -66h36v-77z" />
    <glyph glyph-name="napostrophe.case" horiz-adv-x="668" 
d="M82 0v693h105l316 -564h4v564h79v-693h-105l-319 581h-2v-581h-78zM122 786h-36v77h98v-68l-52 -75h-46z" />
    <glyph glyph-name="aacute.alt" horiz-adv-x="567" 
d="M419 500h74v-500h-74v88h-1q-24 -47 -66 -74t-92 -27q-91 0 -150 74q-58 73 -58 188q0 116 61 190q62 74 153 74q50 0 92 -28t60 -73h1v88zM130 249q0 -93 37.5 -144.5t105.5 -51.5t106 52.5t38 143.5q0 85 -39 141q-40 55 -105 55q-67 0 -105 -52.5t-38 -143.5zM303 693
h94l-98 -118h-69z" />
    <glyph glyph-name="acircumflex.alt" horiz-adv-x="567" 
d="M419 500h74v-500h-74v88h-1q-24 -47 -66 -74t-92 -27q-91 0 -150 74q-58 73 -58 188q0 116 61 190q62 74 153 74q50 0 92 -28t60 -73h1v88zM130 249q0 -93 37.5 -144.5t105.5 -51.5t106 52.5t38 143.5q0 85 -39 141q-40 55 -105 55q-67 0 -105 -52.5t-38 -143.5zM235 693
h96l77 -118h-64l-61 70l-60 -70h-64z" />
    <glyph glyph-name="adieresis.alt" horiz-adv-x="567" 
d="M419 500h74v-500h-74v88h-1q-24 -47 -66 -74t-92 -27q-91 0 -150 74q-58 73 -58 188q0 116 61 190q62 74 153 74q50 0 92 -28t60 -73h1v88zM130 249q0 -93 37.5 -144.5t105.5 -51.5t106 52.5t38 143.5q0 85 -39 141q-40 55 -105 55q-67 0 -105 -52.5t-38 -143.5zM317 693
h81v-94h-81v94zM169 693h81v-94h-81v94z" />
    <glyph glyph-name="agrave.alt" horiz-adv-x="567" 
d="M419 500h74v-500h-74v88h-1q-24 -47 -66 -74t-92 -27q-91 0 -150 74q-58 73 -58 188q0 116 61 190q62 74 153 74q50 0 92 -28t60 -73h1v88zM130 249q0 -93 37.5 -144.5t105.5 -51.5t106 52.5t38 143.5q0 85 -39 141q-40 55 -105 55q-67 0 -105 -52.5t-38 -143.5zM142 693
h94l73 -118h-69z" />
    <glyph glyph-name="aring.alt" horiz-adv-x="567" 
d="M419 500h74v-500h-74v88h-1q-24 -47 -66 -74t-92 -27q-91 0 -150 74q-58 73 -58 188q0 116 61 190q62 74 153 74q50 0 92 -28t60 -73h1v88zM130 249q0 -93 37.5 -144.5t105.5 -51.5t106 52.5t38 143.5q0 85 -39 141q-40 55 -105 55q-67 0 -105 -52.5t-38 -143.5zM379 653
q0 -40 -27.5 -68t-67.5 -28t-68 28t-28 68t28 68t68 28t67.5 -28t27.5 -68zM235 653q0 -21 14 -35t35 -14t34.5 14t13.5 35t-13.5 35t-34.5 14t-35 -14t-14 -35z" />
    <glyph glyph-name="atilde.alt" horiz-adv-x="567" 
d="M419 500h74v-500h-74v88h-1q-24 -47 -66 -74t-92 -27q-91 0 -150 74q-58 73 -58 188q0 116 61 190q62 74 153 74q50 0 92 -28t60 -73h1v88zM130 249q0 -93 37.5 -144.5t105.5 -51.5t106 52.5t38 143.5q0 85 -39 141q-40 55 -105 55q-67 0 -105 -52.5t-38 -143.5zM332 630
q27 0 27 44h49q-1 -45 -21.5 -74.5t-53.5 -29.5q-28 0 -64 30q-23 19 -33 19q-24 0 -24 -44h-53q1 44 22.5 74t53.5 30q24 0 63 -30q24 -19 34 -19z" />
    <glyph glyph-name="abreve.alt" horiz-adv-x="567" 
d="M419 500h74v-500h-74v88h-1q-24 -47 -66 -74t-92 -27q-91 0 -150 74q-58 73 -58 188q0 116 61 190q62 74 153 74q50 0 92 -28t60 -73h1v88zM130 249q0 -93 37.5 -144.5t105.5 -51.5t106 52.5t38 143.5q0 85 -39 141q-40 55 -105 55q-67 0 -105 -52.5t-38 -143.5zM283 628
q56 0 62 65h62q-3 -54 -36 -86t-88 -32t-88 32t-36 86h62q6 -65 62 -65z" />
    <glyph glyph-name="amacron.alt" horiz-adv-x="567" 
d="M419 500h74v-500h-74v88h-1q-24 -47 -66 -74t-92 -27q-91 0 -150 74q-58 73 -58 188q0 116 61 190q62 74 153 74q50 0 92 -28t60 -73h1v88zM130 249q0 -93 37.5 -144.5t105.5 -51.5t106 52.5t38 143.5q0 85 -39 141q-40 55 -105 55q-67 0 -105 -52.5t-38 -143.5zM159 638
h249v-63h-249v63z" />
    <glyph glyph-name="aogonek.alt" horiz-adv-x="567" 
d="M130 249q0 -93 37.5 -144.5t105.5 -51.5t106 52.5t38 143.5q0 85 -39 141q-40 55 -105 55q-67 0 -105 -52.5t-38 -143.5zM352 -118q0 24 22 61q21 37 45 57v88h-1q-24 -47 -66 -74t-92 -27q-91 0 -150 74q-58 73 -58 188q0 116 61 190q62 74 153 74q50 0 92 -28t60 -73h1
v88h74v-500q-23 -16 -46 -53q-23 -35 -23 -54q0 -26 29 -26q24 0 40 4v-48q-27 -9 -56 -9q-85 0 -85 68z" />
    <glyph glyph-name="registered.alt" horiz-adv-x="431" 
d="M215 701q73 0 125 -51q51 -52 51 -124t-51 -123q-52 -52 -125 -52q-72 0 -123 52q-52 51 -52 123t52 124q51 51 123 51zM72 526q0 -60 42 -102q42 -43 101 -43t101 43q42 42 42 102t-42 103q-42 42 -101 42t-101 -42q-42 -43 -42 -103zM251 518l52 -94h-39l-46 88h-36
v-88h-35v207h77q65 0 65 -58q0 -42 -38 -55zM221 604h-39v-67h37q35 0 35 34q0 18 -7.5 25.5t-25.5 7.5z" />
    <glyph glyph-name="plus.case" 
d="M496 326h-180v-201h-73v201h-179v71h179v200h73v-200h180v-71z" />
    <glyph glyph-name="minus.case" 
d="M64 397h432v-71h-432v71z" />
    <glyph glyph-name="multiply.case" 
d="M330 361l156 -156l-50 -50l-156 156l-156 -156l-50 50l156 156l-156 156l50 50l156 -156l156 156l50 -50z" />
    <glyph glyph-name="divide.case" 
d="M231 612h98v-97h-98v97zM64 397h432v-71h-432v71zM231 208h98v-97h-98v97z" />
    <glyph glyph-name="equal.case" 
d="M64 487h432v-71h-432v71zM64 307h432v-71h-432v71z" />
    <glyph glyph-name="logicalnot.case" 
d="M64 397h432v-272h-73v201h-359v71z" />
    <glyph glyph-name="less.case" 
d="M138 361l358 -163v-80l-432 207v73l432 207v-80z" />
    <glyph glyph-name="greater.case" 
d="M64 605l432 -207v-73l-432 -207v80l358 163l-358 164v80z" />
    <glyph glyph-name="notequal.case" 
d="M64 307h149l65 109h-214v71h257l89 148h76l-89 -148h99v-71h-141l-66 -109h207v-71h-249l-95 -158h-76l94 158h-106v71z" />
    <glyph glyph-name="approxequal.case" 
d="M378 450q24 0 39.5 17.5t15.5 44.5h63q-2 -56 -35 -91q-34 -37 -84 -37q-46 0 -122 46q-49 30 -68 30q-20 0 -37 -20t-20 -47h-67q1 52 39 91q38 38 89 38q39 0 110 -41q55 -31 77 -31zM378 270q24 0 39.5 17.5t15.5 44.5h63q-2 -56 -35 -91q-34 -37 -84 -37
q-46 0 -122 46q-49 30 -68 30q-20 0 -37 -20t-20 -47h-67q1 52 39 91q38 38 89 38q39 0 110 -41q55 -31 77 -31z" />
    <glyph glyph-name="infinity.case" 
d="M389 250q-24 0 -45 12q-20 10 -63 53q-7 -7 -20 -18q-22 -20 -30 -26q-28 -21 -61 -21q-43 0 -71.5 28.5t-28.5 73.5t28.5 73.5t71.5 28.5q23 0 47 -11q23 -12 63 -54q36 37 58.5 51t49.5 14q45 0 73.5 -27.5t28.5 -72.5t-29 -74.5t-72 -29.5zM387 404q-20 0 -73 -52
q53 -52 74 -52q18 0 30.5 15.5t12.5 36.5t-12.5 36.5t-31.5 15.5zM172 300q18 0 74 52q-53 52 -73 52q-18 0 -31 -15t-13 -36t12.5 -37t30.5 -16z" />
    </font>
</defs>
</svg>
