<?xml version="1.0" encoding="utf-8"?>
<!-- Generator: Adobe Illustrator 25.2.1, SVG Export Plug-In . SVG Version: 6.00 Build 0)  -->
<svg version="1.1" id="Layer_1" xmlns="http://www.w3.org/2000/svg" xmlns:xlink="http://www.w3.org/1999/xlink" x="0px" y="0px"
	 viewBox="0 0 27.8 12.6" style="enable-background:new 0 0 27.8 12.6;" xml:space="preserve">
<style type="text/css">
	.st0{fill:#231F20;}
</style>
<g>
	<path class="st0" d="M4.1,9.4c1.1,0,1.9-0.7,2.2-2l1,0.1c-0.2,0.9-0.6,1.6-1.2,2c-0.6,0.5-1.3,0.7-2.1,0.7c-1,0-1.9-0.4-2.5-1.2
		c-0.6-0.8-1-1.8-1-3.1c0-1.3,0.3-2.3,1-3.1c0.6-0.8,1.5-1.2,2.5-1.2c0.8,0,1.5,0.2,2,0.7c0.6,0.4,1,1.1,1.2,1.9L6.3,4.5
		C5.9,3.2,5.2,2.5,4.1,2.5c-0.8,0-1.3,0.3-1.8,1C1.9,4.2,1.7,5,1.7,6c0,1,0.2,1.8,0.7,2.5C2.8,9.1,3.4,9.4,4.1,9.4z"/>
	<path class="st0" d="M8.9,1.8h0.9v8.3H8.9V1.8z"/>
	<path class="st0" d="M14.1,9.5c0.4,0,0.7-0.1,1-0.3c0.3-0.2,0.5-0.5,0.6-1l0.9,0.2c-0.2,0.6-0.5,1.1-1,1.4c-0.4,0.3-1,0.5-1.5,0.5
		c-0.8,0-1.5-0.3-2-0.9c-0.5-0.6-0.7-1.3-0.7-2.3c0-0.9,0.3-1.6,0.8-2.2C12.7,4.3,13.3,4,14,4c0.8,0,1.4,0.3,1.9,0.9
		c0.5,0.6,0.7,1.4,0.7,2.3v0.2h-4.3c0,0.6,0.2,1.1,0.5,1.6C13.2,9.3,13.6,9.5,14.1,9.5z M14,4.8c-0.4,0-0.8,0.2-1.1,0.5
		c-0.3,0.4-0.5,0.8-0.5,1.3h3.3c0-0.6-0.2-1-0.5-1.4C14.9,5,14.5,4.8,14,4.8z"/>
	<path class="st0" d="M22.7,5.9v4.2h-0.9V9.3h0c-0.4,0.7-1.1,1-2,1c-1.2,0-1.9-0.6-1.9-1.7c0-0.6,0.2-1,0.5-1.3
		c0.4-0.3,1-0.5,2.1-0.6c0.6-0.1,1-0.2,1.1-0.2c0.1-0.1,0.2-0.2,0.2-0.4v0c0-0.8-0.4-1.2-1.3-1.2c-0.4,0-0.7,0.1-0.9,0.3
		c-0.2,0.2-0.4,0.5-0.6,0.9l-1-0.1c0.3-0.6,0.6-1.1,1-1.4C19.4,4.1,19.9,4,20.5,4c0.7,0,1.2,0.2,1.6,0.5C22.5,4.9,22.7,5.3,22.7,5.9
		z M19.9,9.6c0.5,0,1-0.2,1.3-0.5c0.3-0.3,0.5-0.7,0.5-1.2V7c-0.2,0.1-0.6,0.2-1.1,0.3c-0.5,0.1-0.7,0.1-0.8,0.2
		c-0.1,0-0.3,0.1-0.3,0.1c-0.4,0.2-0.6,0.5-0.6,1C18.8,9.2,19.2,9.6,19.9,9.6z"/>
	<path class="st0" d="M26.3,5.5l-0.9,0.9v3.8h-0.9v-6h0.9v1.4l0.8-0.8c0.3-0.3,0.6-0.6,0.8-0.6C27.1,4,27.3,4,27.6,4v1
		c-0.3,0-0.5,0-0.7,0.1C26.7,5.2,26.5,5.3,26.3,5.5z"/>
</g>
</svg>
