<?xml version="1.0" encoding="utf-8"?>
<!-- Generator: Adobe Illustrator 25.2.1, SVG Export Plug-In . SVG Version: 6.00 Build 0)  -->
<svg version="1.1" id="Layer_1" xmlns="http://www.w3.org/2000/svg" xmlns:xlink="http://www.w3.org/1999/xlink" x="0px" y="0px"
	 viewBox="0 0 53 22" style="enable-background:new 0 0 53 22;" xml:space="preserve">
<style type="text/css">
	.st0{fill:#103727;}
	.st1{fill-rule:evenodd;clip-rule:evenodd;fill:#103727;}
</style>
<g>
	<g>
		<polygon class="st0" points="7.4,18.2 5.6,18.2 5.6,12.5 7.4,12.5 7.4,9 5.6,9 5.6,4.2 7.4,4.2 7.4,0.7 1.1,0.7 1.1,21.7 
			7.4,21.7 		"/>
		<path class="st0" d="M14.6,10.6C16,10,17.3,8.4,17.3,6c0-2.7-1.9-5.4-7-5.4h-2v3.5H10c1.8,0,2.9,0.8,2.9,2.3C12.8,8,11.9,9,9.8,9
			H8.3v3.5h1.4c2.5,0,3.6,1.1,3.6,2.8c0,1.9-1.1,2.9-3.6,2.9H8.3v3.5h2.4c4.5,0,7.3-2.7,7.3-6.3C17.9,12.7,16,11.2,14.6,10.6z"/>
	</g>
	<g>
		<polygon id="Fill-1_14_" class="st1" points="36.5,21.7 41.2,21.7 41.2,0.7 36.5,0.7 		"/>
		<path id="Fill-2_14_" class="st1" d="M46.1,0.3c-1.9,0-3.8,1.3-4.1,2.4v3.4c0.4-1,1.5-1.5,2.4-1.5c1.9,0,2.7,1.2,2.7,3.1v14h4.8
			V7.8C51.9,3.9,50.8,0.3,46.1,0.3"/>
	</g>
	<g>
		<polygon id="Fill-5_9_" class="st1" points="26.8,6.7 30.7,0.7 35.9,0.7 29.4,10.4 		"/>
		<polygon id="Fill-7_9_" class="st1" points="26.6,15.4 30.7,21.7 35.9,21.7 26.6,7.8 		"/>
		<polygon id="Fill-9_9_" class="st1" points="25.5,15.7 21.7,21.7 16.5,21.7 23,12 		"/>
		<polygon id="Fill-11_12_" class="st1" points="25.8,7 21.7,0.7 16.5,0.7 25.8,14.6 		"/>
	</g>
</g>
</svg>
