<?xml version="1.0" encoding="utf-8"?>
<!-- Generator: Adobe Illustrator 25.2.1, SVG Export Plug-In . SVG Version: 6.00 Build 0)  -->
<svg version="1.1" id="Layer_1" xmlns="http://www.w3.org/2000/svg" xmlns:xlink="http://www.w3.org/1999/xlink" x="0px" y="0px"
	 viewBox="0 0 49.8 21.4" style="enable-background:new 0 0 49.8 21.4;" xml:space="preserve">
<style type="text/css">
	.st0{fill-rule:evenodd;clip-rule:evenodd;fill:#4A4A4A;}
	.st1{filter:url(#Adobe_OpacityMaskFilter);}
	.st2{fill-rule:evenodd;clip-rule:evenodd;fill:#FFFFFF;}
	.st3{mask:url(#mask-2_2_);fill-rule:evenodd;clip-rule:evenodd;fill:#4A4A4A;}
	.st4{fill:#4A4A4A;}
</style>
<g>
	<g>
		<polygon id="Fill-1_17_" class="st0" points="34.6,21.4 39.2,21.4 39.2,0.5 34.6,0.5 		"/>
		<g id="Group-4_11_" transform="translate(38.190006, 0.000000)">
			<g id="Clip-3_11_">
			</g>
			<defs>
				<filter id="Adobe_OpacityMaskFilter" filterUnits="userSpaceOnUse" x="1.9" y="0" width="9.8" height="21.4">
					<feColorMatrix  type="matrix" values="1 0 0 0 0  0 1 0 0 0  0 0 1 0 0  0 0 0 1 0"/>
				</filter>
			</defs>
			<mask maskUnits="userSpaceOnUse" x="1.9" y="0" width="9.8" height="21.4" id="mask-2_2_">
				<g class="st1">
					<polygon id="path-1_2_" class="st2" points="11.6,0 1.9,0 1.9,21.4 11.6,21.4 					"/>
				</g>
			</mask>
			<path id="Fill-2_17_" class="st3" d="M6.3,0C4,0,2.4,1.3,1.9,2.7v3.4c0.5-1.2,1.6-2,2.7-2C6.4,4.1,7,5.2,7,7.2v14.2h4.7V6.3
				C11.6,2.6,9.9,0,6.3,0"/>
		</g>
	</g>
	<g>
		<path class="st4" d="M33.2,5.9c-0.4-1.4-1-2.5-1.7-3.4c-0.7-0.9-1.5-1.5-2.4-1.9C28.3,0.2,27,0,25.4,0h-1.5v4.5h0.2
			c1.6,0,2.3,0.1,2.6,0.2c0.5,0.1,1,0.4,1.3,0.8c0.4,0.4,0.7,1,0.9,1.8c0.2,0.8,0.3,2,0.3,3.4c0,1.4-0.1,2.5-0.3,3.4
			c-0.2,0.8-0.4,1.4-0.7,1.7c-0.3,0.3-0.6,0.6-1,0.7c-0.3,0.1-0.9,0.3-2.1,0.3h-1.2v4.5h1.6c1.4,0,2.6-0.2,3.6-0.6
			c0.9-0.4,1.8-1,2.4-1.9c0.7-0.8,1.2-1.9,1.6-3.3c0.4-1.3,0.6-2.9,0.6-4.7C33.8,8.9,33.6,7.2,33.2,5.9z"/>
		<rect x="18.7" y="0" class="st4" width="4.4" height="21.4"/>
	</g>
	<g>
		<polygon class="st4" points="9.7,12.3 7.5,12.3 8.6,8.6 6.4,1.3 0,21.4 4.7,21.4 6.1,16.8 11.1,16.8 		"/>
		<polygon class="st4" points="11.2,0 6.9,0 9,7.2 9,7.1 10.3,11.4 12.4,18.1 12.4,18.1 13.4,21.4 18.2,21.4 		"/>
	</g>
</g>
</svg>
