<?xml version="1.0" encoding="utf-8"?>
<!-- Generator: Adobe Illustrator 25.2.1, SVG Export Plug-In . SVG Version: 6.00 Build 0)  -->
<svg version="1.1" id="Layer_1" xmlns="http://www.w3.org/2000/svg" xmlns:xlink="http://www.w3.org/1999/xlink" x="0px" y="0px"
	 viewBox="0 0 53 22" style="enable-background:new 0 0 53 22;" xml:space="preserve">
<style type="text/css">
	.st0{fill:#4A4A4A;}
	.st1{fill-rule:evenodd;clip-rule:evenodd;fill:#4A4A4A;}
	.st2{filter:url(#Adobe_OpacityMaskFilter);}
	.st3{fill-rule:evenodd;clip-rule:evenodd;fill:#FFFFFF;}
	.st4{mask:url(#mask-2_2_);fill-rule:evenodd;clip-rule:evenodd;fill:#4A4A4A;}
</style>
<g>
	<g>
		<polygon class="st0" points="7.4,18.2 5.6,18.2 5.6,12.5 7.4,12.5 7.4,9 5.6,9 5.6,4.2 7.4,4.2 7.4,0.7 1.1,0.7 1.1,21.7 
			7.4,21.7 		"/>
		<path class="st0" d="M14.6,10.6c1.4-0.6,2.7-2.2,2.7-4.6c0-2.7-1.9-5.4-7-5.4h-2v3.5h1.7c1.8,0,2.9,0.8,2.9,2.3
			C12.8,8,11.9,9,9.8,9H8.3v3.5h1.4c2.5,0,3.6,1.1,3.6,2.8c0,1.9-1.1,2.9-3.6,2.9H8.3v3.5h2.4c4.5,0,7.3-2.7,7.3-6.3
			C17.9,12.7,16,11.2,14.6,10.6z"/>
	</g>
	<g>
		<polygon id="Fill-1_14_" class="st1" points="36.5,21.7 41.2,21.7 41.2,0.7 36.5,0.7 		"/>
		<defs>
			<filter id="Adobe_OpacityMaskFilter" filterUnits="userSpaceOnUse" x="42" y="0.3" width="9.9" height="21.4">
				<feColorMatrix  type="matrix" values="1 0 0 0 0  0 1 0 0 0  0 0 1 0 0  0 0 0 1 0"/>
			</filter>
		</defs>
		<mask maskUnits="userSpaceOnUse" x="42" y="0.3" width="9.9" height="21.4" id="mask-2_2_">
			<g class="st2">
				<polygon id="path-1_2_" class="st3" points="51.9,21.7 51.9,0.3 42,0.3 42,21.7 				"/>
			</g>
		</mask>
		<path id="Fill-2_14_" class="st4" d="M46.1,0.3c-1.9,0-3.8,1.3-4.1,2.4v3.4c0.4-1,1.5-1.5,2.4-1.5c1.9,0,2.7,1.2,2.7,3.1v14h4.8
			V7.8C51.9,3.9,50.8,0.3,46.1,0.3"/>
	</g>
	<g>
		<polygon id="Fill-5_9_" class="st1" points="26.8,6.7 30.7,0.7 35.9,0.7 29.4,10.4 		"/>
		<polygon id="Fill-7_9_" class="st1" points="26.6,15.4 30.7,21.7 35.9,21.7 26.6,7.8 		"/>
		<polygon id="Fill-9_9_" class="st1" points="25.5,15.7 21.7,21.7 16.5,21.7 23,12 		"/>
		<polygon id="Fill-11_12_" class="st1" points="25.8,7 21.7,0.7 16.5,0.7 25.8,14.6 		"/>
	</g>
</g>
</svg>
