<?xml version="1.0" encoding="utf-8"?>
<!-- Generator: Adobe Illustrator 25.2.1, SVG Export Plug-In . SVG Version: 6.00 Build 0)  -->
<svg version="1.1" id="Layer_1" xmlns="http://www.w3.org/2000/svg" xmlns:xlink="http://www.w3.org/1999/xlink" x="0px" y="0px"
	 viewBox="0 0 49.8 21.7" style="enable-background:new 0 0 49.8 21.7;" xml:space="preserve">
<style type="text/css">
	.st0{fill-rule:evenodd;clip-rule:evenodd;fill:#4A4A4A;}
	.st1{filter:url(#Adobe_OpacityMaskFilter);}
	.st2{fill-rule:evenodd;clip-rule:evenodd;fill:#FFFFFF;}
	.st3{mask:url(#mask-2_2_);fill-rule:evenodd;clip-rule:evenodd;fill:#4A4A4A;}
	.st4{fill:#4A4A4A;}
</style>
<g>
	<polygon id="Fill-1_5_" class="st0" points="34.4,21.7 39.1,21.7 39.1,0.5 34.4,0.5 	"/>
	<g id="Group-4_5_" transform="translate(38.190006, 0.000000)">
		<g id="Clip-3_5_">
		</g>
		<defs>
			<filter id="Adobe_OpacityMaskFilter" filterUnits="userSpaceOnUse" x="1.7" y="0" width="9.9" height="21.7">
				<feColorMatrix  type="matrix" values="1 0 0 0 0  0 1 0 0 0  0 0 1 0 0  0 0 0 1 0"/>
			</filter>
		</defs>
		<mask maskUnits="userSpaceOnUse" x="1.7" y="0" width="9.9" height="21.7" id="mask-2_2_">
			<g class="st1">
				<polygon id="path-1_2_" class="st2" points="11.6,0 1.7,0 1.7,21.7 11.6,21.7 				"/>
			</g>
		</mask>
		<path id="Fill-2_5_" class="st3" d="M6.2,0C3.9,0,2.3,1.3,1.7,2.8v3.4C2.2,5,3.4,4.1,4.5,4.1c1.8,0,2.4,1.2,2.4,3.2v14.4h4.7V6.3
			C11.6,2.6,9.9,0,6.2,0"/>
	</g>
	<g>
		<polygon id="Fill-11_4_" class="st0" points="21,11.8 14.4,21.7 19.7,21.7 23.6,15.6 		"/>
		<polygon id="Fill-13_4_" class="st0" points="19.7,0.4 14.4,0.4 23.8,14.5 23.8,6.8 		"/>
		<polygon id="Fill-15_4_" class="st0" points="34.1,0.4 28.8,0.4 24.9,6.5 27.5,10.3 		"/>
		<polygon id="Fill-17_4_" class="st0" points="24.6,7.6 24.6,15.3 28.8,21.7 34.1,21.7 		"/>
	</g>
	<path class="st4" d="M14.1,12.9V0.4H9.4v21.2h4.7v-5.1h2.5v-3.7H14.1z M8.6,5.8V0.4H8L0,13.4v3.2h8.6v-3.7h-4v-0.1
		C4.6,12.8,7.2,8.4,8.6,5.8z"/>
</g>
</svg>
